<?xml version="1.0" standalone="no"?><!-- Generator: Gravit.io --><svg xmlns="http://www.w3.org/2000/svg" xmlns:xlink="http://www.w3.org/1999/xlink" style="isolation:isolate" viewBox="0 0 150 140" width="150" height="140"><defs><clipPath id="_clipPath_nJO2UyEibwi3nWbgA5lrWbBqx8xs924n"><rect width="150" height="140"/></clipPath></defs><g clip-path="url(#_clipPath_nJO2UyEibwi3nWbgA5lrWbBqx8xs924n)"><rect width="150" height="140" style="fill:rgb(117,166,187)" fill-opacity="0"/><g><line x1="20" y1="49" x2="20" y2="84.063" vector-effect="non-scaling-stroke" stroke-width="2" stroke="rgb(255,255,255)" stroke-opacity="0.34" stroke-linejoin="round" stroke-linecap="round" stroke-miterlimit="3"/><line x1="15" y1="80" x2="25" y2="80" vector-effect="non-scaling-stroke" stroke-width="10" stroke="rgb(213,213,213)" stroke-linejoin="round" stroke-linecap="round" stroke-miterlimit="3"/><line x1="15" y1="75.938" x2="15" y2="84.063" vector-effect="non-scaling-stroke" stroke-width="2" stroke="rgb(249,228,126)" stroke-linejoin="round" stroke-linecap="round" stroke-miterlimit="3"/><line x1="20" y1="75.938" x2="20" y2="84.063" vector-effect="non-scaling-stroke" stroke-width="2" stroke="rgb(249,228,126)" stroke-linejoin="round" stroke-linecap="round" stroke-miterlimit="3"/><line x1="25" y1="75.938" x2="25" y2="84.063" vector-effect="non-scaling-stroke" stroke-width="2" stroke="rgb(249,228,126)" stroke-linejoin="round" stroke-linecap="round" stroke-miterlimit="3"/></g><g><line x1="60" y1="58.938" x2="60" y2="94" vector-effect="non-scaling-stroke" stroke-width="2" stroke="rgb(255,255,255)" stroke-opacity="0.34" stroke-linejoin="round" stroke-linecap="round" stroke-miterlimit="3"/><line x1="55" y1="89.938" x2="65" y2="89.938" vector-effect="non-scaling-stroke" stroke-width="10" stroke="rgb(213,213,213)" stroke-linejoin="round" stroke-linecap="round" stroke-miterlimit="3"/><line x1="55" y1="85.875" x2="55" y2="94" vector-effect="non-scaling-stroke" stroke-width="2" stroke="rgb(249,228,126)" stroke-linejoin="round" stroke-linecap="round" stroke-miterlimit="3"/><line x1="60" y1="85.875" x2="60" y2="94" vector-effect="non-scaling-stroke" stroke-width="2" stroke="rgb(249,228,126)" stroke-linejoin="round" stroke-linecap="round" stroke-miterlimit="3"/><line x1="65" y1="85.875" x2="65" y2="94" vector-effect="non-scaling-stroke" stroke-width="2" stroke="rgb(249,228,126)" stroke-linejoin="round" stroke-linecap="round" stroke-miterlimit="3"/></g><path d=" M 105 135 L 125 135 L 125 95 L 135 45 L 105 45 L 105 65 L 85 45 L 65 45 L 95 85 L 105 135 Z " fill="rgb(187,176,156)" vector-effect="non-scaling-stroke" stroke-width="10" stroke="rgb(115,104,85)" stroke-linejoin="round" stroke-linecap="round" stroke-miterlimit="3"/><path d=" M 35 55 L 135 55 L 145 45 L 135 25 L 105 25 L 95 5 L 75 5 L 55 15 L 45 15 L 25 25 L 5 35 L 5 45 L 25 45 L 35 55 Z " fill="rgb(114,172,124)" vector-effect="non-scaling-stroke" stroke-width="10" stroke="rgb(77,136,88)" stroke-linejoin="round" stroke-linecap="round" stroke-miterlimit="3"/></g></svg>