<svg xmlns="http://www.w3.org/2000/svg" xmlns:xlink="http://www.w3.org/1999/xlink" viewBox="0 0 150 140" width="150" height="140"><rect width="150" height="140" style="fill:#75a6bb" fill-opacity="0"/><line x1="20" y1="49" x2="20" y2="84.063" stroke-width="2" stroke="#fff" stroke-opacity="0.34" stroke-linejoin="round" stroke-linecap="round"/><line x1="15" y1="80" x2="25" y2="80" stroke-width="10" stroke="#d5d5d5" stroke-linejoin="round" stroke-linecap="round"/><line x1="15" y1="75.938" x2="15" y2="84.063" stroke-width="2" stroke="#f9e47e" stroke-linejoin="round" stroke-linecap="round"/><line x1="20" y1="75.938" x2="20" y2="84.063" stroke-width="2" stroke="#f9e47e" stroke-linejoin="round" stroke-linecap="round"/><line x1="25" y1="75.938" x2="25" y2="84.063" stroke-width="2" stroke="#f9e47e" stroke-linejoin="round" stroke-linecap="round"/><line x1="60" y1="58.938" x2="60" y2="94" stroke-width="2" stroke="#fff" stroke-opacity="0.34" stroke-linejoin="round" stroke-linecap="round"/><line x1="55" y1="89.938" x2="65" y2="89.938" stroke-width="10" stroke="#d5d5d5" stroke-linejoin="round" stroke-linecap="round"/><line x1="55" y1="85.875" x2="55" y2="94" stroke-width="2" stroke="#f9e47e" stroke-linejoin="round" stroke-linecap="round"/><line x1="60" y1="85.875" x2="60" y2="94" stroke-width="2" stroke="#f9e47e" stroke-linejoin="round" stroke-linecap="round"/><line x1="65" y1="85.875" x2="65" y2="94" stroke-width="2" stroke="#f9e47e" stroke-linejoin="round" stroke-linecap="round"/><path d="M105 135L125 135L125 95L135 45L105 45L105 65L85 45L65 45L95 85L105 135Z" fill="#bbb09c" stroke-width="10" stroke="#736855" stroke-linejoin="round" stroke-linecap="round"/><path d="M35 55L135 55L145 45L135 25L105 25L95 5L75 5L55 15L45 15L25 25L5 35L5 45L25 45L35 55Z" fill="#72ac7c" stroke-width="10" stroke="#4d8858" stroke-linejoin="round" stroke-linecap="round"/></svg>