<svg xmlns="http://www.w3.org/2000/svg" xmlns:xlink="http://www.w3.org/1999/xlink" viewBox="0 0 110 90" width="110" height="90"><line x1="15" y1="5" x2="15" y2="85" stroke-width="10" stroke="#bdbdbd" stroke-linejoin="round" stroke-linecap="round"/><line x1="95" y1="5" x2="95" y2="85" stroke-width="10" stroke="#bdbdbd" stroke-linejoin="round" stroke-linecap="round"/><line x1="5" y1="85" x2="25" y2="85" stroke-width="10" stroke="#bdbdbd" stroke-linejoin="round" stroke-linecap="round"/><line x1="85" y1="85" x2="105" y2="85" stroke-width="10" stroke="#bdbdbd" stroke-linejoin="round" stroke-linecap="round"/><rect x="15" y="15" width="80" height="50" transform="matrix(1,0,0,1,0,0)" fill="#93ac95" stroke-width="10" stroke="#6d866f" stroke-linejoin="round" stroke-linecap="round" stroke-miterlimit="2"/><rect x="45" y="35" width="20" height="10" transform="matrix(1,0,0,1,0,0)" fill="#e8e8e8"/><path d="M53.309 43.469L53.117 43.469L52.92 42.841L52.92 42.841Q52.902 42.784 52.851 42.58L52.851 42.58L52.843 42.58L52.843 42.58Q52.804 42.75 52.775 42.843L52.775 42.843L52.573 43.469L52.385 43.469L52.093 42.399L52.263 42.399L52.263 42.399Q52.367 42.802 52.421 43.013L52.421 43.013L52.421 43.013Q52.475 43.224 52.483 43.297L52.483 43.297L52.491 43.297L52.491 43.297Q52.501 43.242 52.525 43.153L52.525 43.153L52.525 43.153Q52.549 43.065 52.567 43.013L52.567 43.013L52.763 42.399L52.939 42.399L53.13 43.013L53.13 43.013Q53.185 43.181 53.205 43.295L53.205 43.295L53.212 43.295L53.212 43.295Q53.216 43.26 53.233 43.187L53.233 43.187L53.233 43.187Q53.25 43.114 53.437 42.399L53.437 42.399L53.605 42.399L53.309 43.469ZM54.25 43.489L54.25 43.489L54.25 43.489Q54.013 43.489 53.876 43.344L53.876 43.344L53.876 43.344Q53.739 43.2 53.739 42.943L53.739 42.943L53.739 42.943Q53.739 42.684 53.866 42.532L53.866 42.532L53.866 42.532Q53.994 42.379 54.208 42.379L54.208 42.379L54.208 42.379Q54.41 42.379 54.527 42.512L54.527 42.512L54.527 42.512Q54.644 42.644 54.644 42.861L54.644 42.861L54.644 42.963L53.907 42.963L53.907 42.963Q53.912 43.152 54.002 43.25L54.002 43.25L54.002 43.25Q54.092 43.347 54.256 43.347L54.256 43.347L54.256 43.347Q54.429 43.347 54.598 43.275L54.598 43.275L54.598 43.419L54.598 43.419Q54.512 43.457 54.436 43.473L54.436 43.473L54.436 43.473Q54.359 43.489 54.25 43.489ZM54.207 42.515L54.207 42.515L54.207 42.515Q54.078 42.515 54.001 42.599L54.001 42.599L54.001 42.599Q53.924 42.683 53.911 42.832L53.911 42.832L54.47 42.832L54.47 42.832Q54.47 42.678 54.402 42.597L54.402 42.597L54.402 42.597Q54.333 42.515 54.207 42.515ZM55.373 43.489L55.373 43.489L55.373 43.489Q55.135 43.489 54.998 43.344L54.998 43.344L54.998 43.344Q54.861 43.2 54.861 42.943L54.861 42.943L54.861 42.943Q54.861 42.684 54.988 42.532L54.988 42.532L54.988 42.532Q55.116 42.379 55.331 42.379L55.331 42.379L55.331 42.379Q55.532 42.379 55.649 42.512L55.649 42.512L55.649 42.512Q55.766 42.644 55.766 42.861L55.766 42.861L55.766 42.963L55.029 42.963L55.029 42.963Q55.034 43.152 55.124 43.25L55.124 43.25L55.124 43.25Q55.214 43.347 55.378 43.347L55.378 43.347L55.378 43.347Q55.551 43.347 55.72 43.275L55.72 43.275L55.72 43.419L55.72 43.419Q55.634 43.457 55.558 43.473L55.558 43.473L55.558 43.473Q55.481 43.489 55.373 43.489ZM55.329 42.515L55.329 42.515L55.329 42.515Q55.2 42.515 55.123 42.599L55.123 42.599L55.123 42.599Q55.046 42.683 55.033 42.832L55.033 42.832L55.592 42.832L55.592 42.832Q55.592 42.678 55.524 42.597L55.524 42.597L55.524 42.597Q55.456 42.515 55.329 42.515ZM56.195 42.921L56.203 42.921L56.203 42.921Q56.245 42.862 56.331 42.765L56.331 42.765L56.676 42.399L56.869 42.399L56.435 42.855L56.899 43.469L56.703 43.469L56.325 42.963L56.203 43.069L56.203 43.469L56.042 43.469L56.042 41.95L56.203 41.95L56.203 42.755L56.203 42.755Q56.203 42.809 56.195 42.921L56.195 42.921ZM57.289 42.042L57.239 43.076L57.136 43.076L57.086 42.042L57.289 42.042ZM57.069 43.366L57.069 43.366L57.069 43.366Q57.069 43.233 57.186 43.233L57.186 43.233L57.186 43.233Q57.243 43.233 57.273 43.267L57.273 43.267L57.273 43.267Q57.304 43.301 57.304 43.366L57.304 43.366L57.304 43.366Q57.304 43.428 57.273 43.463L57.273 43.463L57.273 43.463Q57.242 43.498 57.186 43.498L57.186 43.498L57.186 43.498Q57.135 43.498 57.102 43.467L57.102 43.467L57.102 43.467Q57.069 43.436 57.069 43.366ZM57.823 42.042L57.773 43.076L57.67 43.076L57.621 42.042L57.823 42.042ZM57.603 43.366L57.603 43.366L57.603 43.366Q57.603 43.233 57.72 43.233L57.72 43.233L57.72 43.233Q57.777 43.233 57.808 43.267L57.808 43.267L57.808 43.267Q57.838 43.301 57.838 43.366L57.838 43.366L57.838 43.366Q57.838 43.428 57.807 43.463L57.807 43.463L57.807 43.463Q57.776 43.498 57.72 43.498L57.72 43.498L57.72 43.498Q57.669 43.498 57.636 43.467L57.636 43.467L57.636 43.467Q57.603 43.436 57.603 43.366ZM59.186 39.226L59.186 40.746L59.024 40.746L59.024 39.226L59.186 39.226ZM60.308 40.746L60.188 40.746L60.156 40.593L60.148 40.593L60.148 40.593Q60.068 40.694 59.988 40.729L59.988 40.729L59.988 40.729Q59.909 40.765 59.79 40.765L59.79 40.765L59.79 40.765Q59.63 40.765 59.54 40.683L59.54 40.683L59.54 40.683Q59.45 40.601 59.45 40.45L59.45 40.45L59.45 40.45Q59.45 40.125 59.968 40.11L59.968 40.11L60.15 40.104L60.15 40.038L60.15 40.038Q60.15 39.912 60.096 39.852L60.096 39.852L60.096 39.852Q60.042 39.792 59.922 39.792L59.922 39.792L59.922 39.792Q59.789 39.792 59.62 39.874L59.62 39.874L59.57 39.75L59.57 39.75Q59.649 39.707 59.743 39.682L59.743 39.682L59.743 39.682Q59.837 39.658 59.932 39.658L59.932 39.658L59.932 39.658Q60.124 39.658 60.216 39.743L60.216 39.743L60.216 39.743Q60.308 39.828 60.308 40.015L60.308 40.015L60.308 40.746ZM59.822 40.631L59.822 40.631L59.822 40.631Q59.973 40.631 60.06 40.548L60.06 40.548L60.06 40.548Q60.146 40.465 60.146 40.316L60.146 40.316L60.146 40.219L59.984 40.226L59.984 40.226Q59.791 40.233 59.705 40.286L59.705 40.286L59.705 40.286Q59.62 40.339 59.62 40.452L59.62 40.452L59.62 40.452Q59.62 40.54 59.673 40.585L59.673 40.585L59.673 40.585Q59.726 40.631 59.822 40.631ZM61.333 40.454L61.333 40.454L61.333 40.454Q61.333 40.603 61.221 40.684L61.221 40.684L61.221 40.684Q61.11 40.765 60.909 40.765L60.909 40.765L60.909 40.765Q60.696 40.765 60.577 40.698L60.577 40.698L60.577 40.547L60.577 40.547Q60.654 40.586 60.742 40.609L60.742 40.609L60.742 40.609Q60.831 40.631 60.913 40.631L60.913 40.631L60.913 40.631Q61.04 40.631 61.108 40.591L61.108 40.591L61.108 40.591Q61.176 40.55 61.176 40.467L61.176 40.467L61.176 40.467Q61.176 40.405 61.122 40.36L61.122 40.36L61.122 40.36Q61.068 40.316 60.911 40.255L60.911 40.255L60.911 40.255Q60.761 40.2 60.698 40.158L60.698 40.158L60.698 40.158Q60.635 40.117 60.604 40.064L60.604 40.064L60.604 40.064Q60.574 40.011 60.574 39.938L60.574 39.938L60.574 39.938Q60.574 39.807 60.68 39.731L60.68 39.731L60.68 39.731Q60.787 39.656 60.972 39.656L60.972 39.656L60.972 39.656Q61.145 39.656 61.31 39.726L61.31 39.726L61.252 39.858L61.252 39.858Q61.091 39.792 60.96 39.792L60.96 39.792L60.96 39.792Q60.845 39.792 60.787 39.828L60.787 39.828L60.787 39.828Q60.728 39.864 60.728 39.927L60.728 39.927L60.728 39.927Q60.728 39.97 60.75 40L60.75 40L60.75 40Q60.772 40.031 60.821 40.058L60.821 40.058L60.821 40.058Q60.87 40.085 61.008 40.137L61.008 40.137L61.008 40.137Q61.199 40.207 61.266 40.277L61.266 40.277L61.266 40.277Q61.333 40.347 61.333 40.454ZM61.942 40.631L61.942 40.631L61.942 40.631Q61.985 40.631 62.025 40.625L62.025 40.625L62.025 40.625Q62.065 40.619 62.088 40.612L62.088 40.612L62.088 40.736L62.088 40.736Q62.062 40.749 62.011 40.757L62.011 40.757L62.011 40.757Q61.959 40.765 61.918 40.765L61.918 40.765L61.918 40.765Q61.608 40.765 61.608 40.438L61.608 40.438L61.608 39.801L61.455 39.801L61.455 39.723L61.608 39.656L61.676 39.427L61.77 39.427L61.77 39.675L62.081 39.675L62.081 39.801L61.77 39.801L61.77 40.431L61.77 40.431Q61.77 40.528 61.816 40.58L61.816 40.58L61.816 40.58Q61.862 40.631 61.942 40.631ZM56.769 39.658L56.769 39.658L56.769 39.658Q56.98 39.658 57.097 39.802L57.097 39.802L57.097 39.802Q57.213 39.946 57.213 40.209L57.213 40.209L57.213 40.209Q57.213 40.473 57.096 40.619L57.096 40.619L57.096 40.619Q56.978 40.765 56.769 40.765L56.769 40.765L56.769 40.765Q56.665 40.765 56.578 40.727L56.578 40.727L56.578 40.727Q56.492 40.688 56.433 40.608L56.433 40.608L56.421 40.608L56.387 40.746L56.271 40.746L56.271 39.226L56.433 39.226L56.433 39.595L56.433 39.595Q56.433 39.719 56.425 39.818L56.425 39.818L56.433 39.818L56.433 39.818Q56.546 39.658 56.769 39.658ZM56.746 39.793L56.746 39.793L56.746 39.793Q56.58 39.793 56.506 39.889L56.506 39.889L56.506 39.889Q56.433 39.984 56.433 40.209L56.433 40.209L56.433 40.209Q56.433 40.435 56.508 40.532L56.508 40.532L56.508 40.532Q56.583 40.629 56.75 40.629L56.75 40.629L56.75 40.629Q56.899 40.629 56.972 40.521L56.972 40.521L56.972 40.521Q57.045 40.412 57.045 40.208L57.045 40.208L57.045 40.208Q57.045 39.999 56.972 39.896L56.972 39.896L56.972 39.896Q56.899 39.793 56.746 39.793ZM57.758 40.751L57.327 39.675L57.5 39.675L57.735 40.286L57.735 40.286Q57.812 40.495 57.831 40.587L57.831 40.587L57.838 40.587L57.838 40.587Q57.851 40.538 57.892 40.417L57.892 40.417L57.892 40.417Q57.932 40.296 58.157 39.675L58.157 39.675L58.331 39.675L57.871 40.894L57.871 40.894Q57.802 41.075 57.711 41.15L57.711 41.15L57.711 41.15Q57.62 41.226 57.487 41.226L57.487 41.226L57.487 41.226Q57.413 41.226 57.34 41.209L57.34 41.209L57.34 41.08L57.34 41.08Q57.394 41.091 57.46 41.091L57.46 41.091L57.46 41.091Q57.627 41.091 57.699 40.904L57.699 40.904L57.758 40.751ZM51.718 40.746L51.697 40.602L51.688 40.602L51.688 40.602Q51.576 40.765 51.352 40.765L51.352 40.765L51.352 40.765Q51.142 40.765 51.025 40.622L51.025 40.622L51.025 40.622Q50.909 40.478 50.909 40.213L50.909 40.213L50.909 40.213Q50.909 39.949 51.026 39.802L51.026 39.802L51.026 39.802Q51.143 39.656 51.352 39.656L51.352 39.656L51.352 39.656Q51.57 39.656 51.686 39.814L51.686 39.814L51.699 39.814L51.692 39.737L51.688 39.662L51.688 39.226L51.85 39.226L51.85 40.746L51.718 40.746ZM51.373 40.629L51.373 40.629L51.373 40.629Q51.539 40.629 51.613 40.539L51.613 40.539L51.613 40.539Q51.688 40.449 51.688 40.248L51.688 40.248L51.688 40.213L51.688 40.213Q51.688 39.986 51.612 39.889L51.612 39.889L51.612 39.889Q51.537 39.792 51.371 39.792L51.371 39.792L51.371 39.792Q51.228 39.792 51.152 39.902L51.152 39.902L51.152 39.902Q51.077 40.013 51.077 40.215L51.077 40.215L51.077 40.215Q51.077 40.42 51.152 40.525L51.152 40.525L51.152 40.525Q51.227 40.629 51.373 40.629ZM53.118 40.209L53.118 40.209L53.118 40.209Q53.118 40.471 52.986 40.618L52.986 40.618L52.986 40.618Q52.854 40.765 52.622 40.765L52.622 40.765L52.622 40.765Q52.478 40.765 52.367 40.698L52.367 40.698L52.367 40.698Q52.255 40.63 52.195 40.504L52.195 40.504L52.195 40.504Q52.134 40.378 52.134 40.209L52.134 40.209L52.134 40.209Q52.134 39.948 52.265 39.802L52.265 39.802L52.265 39.802Q52.396 39.656 52.628 39.656L52.628 39.656L52.628 39.656Q52.853 39.656 52.985 39.805L52.985 39.805L52.985 39.805Q53.118 39.955 53.118 40.209ZM52.302 40.209L52.302 40.209L52.302 40.209Q52.302 40.415 52.384 40.522L52.384 40.522L52.384 40.522Q52.466 40.629 52.625 40.629L52.625 40.629L52.625 40.629Q52.785 40.629 52.867 40.522L52.867 40.522L52.867 40.522Q52.95 40.416 52.95 40.209L52.95 40.209L52.95 40.209Q52.95 40.005 52.867 39.899L52.867 39.899L52.867 39.899Q52.785 39.793 52.624 39.793L52.624 39.793L52.624 39.793Q52.464 39.793 52.383 39.898L52.383 39.898L52.383 39.898Q52.302 40.002 52.302 40.209ZM54.296 40.746L54.134 40.746L54.134 40.053L54.134 40.053Q54.134 39.922 54.075 39.858L54.075 39.858L54.075 39.858Q54.015 39.793 53.888 39.793L53.888 39.793L53.888 39.793Q53.72 39.793 53.642 39.884L53.642 39.884L53.642 39.884Q53.564 39.975 53.564 40.184L53.564 40.184L53.564 40.746L53.402 40.746L53.402 39.675L53.534 39.675L53.56 39.822L53.568 39.822L53.568 39.822Q53.618 39.743 53.708 39.699L53.708 39.699L53.708 39.699Q53.797 39.656 53.908 39.656L53.908 39.656L53.908 39.656Q54.101 39.656 54.199 39.749L54.199 39.749L54.199 39.749Q54.296 39.842 54.296 40.047L54.296 40.047L54.296 40.746ZM55.082 40.765L55.082 40.765L55.082 40.765Q54.844 40.765 54.707 40.621L54.707 40.621L54.707 40.621Q54.57 40.476 54.57 40.219L54.57 40.219L54.57 40.219Q54.57 39.96 54.697 39.808L54.697 39.808L54.697 39.808Q54.825 39.656 55.04 39.656L55.04 39.656L55.04 39.656Q55.241 39.656 55.358 39.788L55.358 39.788L55.358 39.788Q55.475 39.92 55.475 40.137L55.475 40.137L55.475 40.24L54.738 40.24L54.738 40.24Q54.743 40.428 54.833 40.526L54.833 40.526L54.833 40.526Q54.923 40.624 55.087 40.624L55.087 40.624L55.087 40.624Q55.26 40.624 55.429 40.551L55.429 40.551L55.429 40.696L55.429 40.696Q55.343 40.733 55.267 40.749L55.267 40.749L55.267 40.749Q55.19 40.765 55.082 40.765ZM55.038 39.792L55.038 39.792L55.038 39.792Q54.909 39.792 54.832 39.875L54.832 39.875L54.832 39.875Q54.755 39.959 54.742 40.108L54.742 40.108L55.301 40.108L55.301 40.108Q55.301 39.955 55.233 39.873L55.233 39.873L55.233 39.873Q55.165 39.792 55.038 39.792ZM48.599 39.658L48.599 39.658L48.599 39.658Q48.81 39.658 48.927 39.802L48.927 39.802L48.927 39.802Q49.043 39.946 49.043 40.209L49.043 40.209L49.043 40.209Q49.043 40.473 48.926 40.619L48.926 40.619L48.926 40.619Q48.808 40.765 48.599 40.765L48.599 40.765L48.599 40.765Q48.495 40.765 48.408 40.727L48.408 40.727L48.408 40.727Q48.322 40.688 48.263 40.608L48.263 40.608L48.251 40.608L48.217 40.746L48.101 40.746L48.101 39.226L48.263 39.226L48.263 39.595L48.263 39.595Q48.263 39.719 48.255 39.818L48.255 39.818L48.263 39.818L48.263 39.818Q48.376 39.658 48.599 39.658ZM48.576 39.793L48.576 39.793L48.576 39.793Q48.41 39.793 48.336 39.889L48.336 39.889L48.336 39.889Q48.263 39.984 48.263 40.209L48.263 40.209L48.263 40.209Q48.263 40.435 48.338 40.532L48.338 40.532L48.338 40.532Q48.414 40.629 48.58 40.629L48.58 40.629L48.58 40.629Q48.729 40.629 48.802 40.521L48.802 40.521L48.802 40.521Q48.875 40.412 48.875 40.208L48.875 40.208L48.875 40.208Q48.875 39.999 48.802 39.896L48.802 39.896L48.802 39.896Q48.729 39.793 48.576 39.793ZM49.779 40.765L49.779 40.765L49.779 40.765Q49.542 40.765 49.404 40.621L49.404 40.621L49.404 40.621Q49.267 40.476 49.267 40.219L49.267 40.219L49.267 40.219Q49.267 39.96 49.395 39.808L49.395 39.808L49.395 39.808Q49.522 39.656 49.737 39.656L49.737 39.656L49.737 39.656Q49.938 39.656 50.055 39.788L50.055 39.788L50.055 39.788Q50.172 39.92 50.172 40.137L50.172 40.137L50.172 40.24L49.435 40.24L49.435 40.24Q49.44 40.428 49.53 40.526L49.53 40.526L49.53 40.526Q49.621 40.624 49.785 40.624L49.785 40.624L49.785 40.624Q49.958 40.624 50.126 40.551L50.126 40.551L50.126 40.696L50.126 40.696Q50.041 40.733 49.964 40.749L49.964 40.749L49.964 40.749Q49.887 40.765 49.779 40.765ZM49.735 39.792L49.735 39.792L49.735 39.792Q49.606 39.792 49.529 39.875L49.529 39.875L49.529 39.875Q49.453 39.959 49.439 40.108L49.439 40.108L49.999 40.108L49.999 40.108Q49.999 39.955 49.93 39.873L49.93 39.873L49.93 39.873Q49.862 39.792 49.735 39.792ZM60.837 38.022L60.645 38.022L60.448 37.394L60.448 37.394Q60.43 37.336 60.379 37.132L60.379 37.132L60.371 37.132L60.371 37.132Q60.332 37.303 60.303 37.396L60.303 37.396L60.101 38.022L59.913 38.022L59.621 36.952L59.791 36.952L59.791 36.952Q59.895 37.355 59.949 37.566L59.949 37.566L59.949 37.566Q60.003 37.777 60.011 37.85L60.011 37.85L60.019 37.85L60.019 37.85Q60.029 37.794 60.053 37.706L60.053 37.706L60.053 37.706Q60.077 37.618 60.095 37.566L60.095 37.566L60.291 36.952L60.467 36.952L60.658 37.566L60.658 37.566Q60.713 37.734 60.732 37.848L60.732 37.848L60.74 37.848L60.74 37.848Q60.744 37.813 60.761 37.74L60.761 37.74L60.761 37.74Q60.778 37.667 60.965 36.952L60.965 36.952L61.133 36.952L60.837 38.022ZM61.488 36.952L61.488 38.022L61.326 38.022L61.326 36.952L61.488 36.952ZM61.313 36.662L61.313 36.662L61.313 36.662Q61.313 36.606 61.34 36.58L61.34 36.58L61.34 36.58Q61.367 36.554 61.408 36.554L61.408 36.554L61.408 36.554Q61.447 36.554 61.476 36.581L61.476 36.581L61.476 36.581Q61.504 36.607 61.504 36.662L61.504 36.662L61.504 36.662Q61.504 36.716 61.476 36.743L61.476 36.743L61.476 36.743Q61.447 36.77 61.408 36.77L61.408 36.77L61.408 36.77Q61.367 36.77 61.34 36.743L61.34 36.743L61.34 36.743Q61.313 36.716 61.313 36.662ZM61.994 36.502L61.994 38.022L61.832 38.022L61.832 36.502L61.994 36.502ZM62.5 36.502L62.5 38.022L62.338 38.022L62.338 36.502L62.5 36.502ZM47.987 38.042L47.987 38.042L47.987 38.042Q47.755 38.042 47.627 37.898L47.627 37.898L47.627 37.898Q47.5 37.755 47.5 37.494L47.5 37.494L47.5 37.494Q47.5 37.225 47.629 37.079L47.629 37.079L47.629 37.079Q47.759 36.932 47.998 36.932L47.998 36.932L47.998 36.932Q48.075 36.932 48.152 36.949L48.152 36.949L48.152 36.949Q48.229 36.965 48.273 36.988L48.273 36.988L48.224 37.125L48.224 37.125Q48.17 37.104 48.106 37.09L48.106 37.09L48.106 37.09Q48.043 37.076 47.994 37.076L47.994 37.076L47.994 37.076Q47.668 37.076 47.668 37.492L47.668 37.492L47.668 37.492Q47.668 37.689 47.748 37.794L47.748 37.794L47.748 37.794Q47.827 37.9 47.983 37.9L47.983 37.9L47.983 37.9Q48.117 37.9 48.258 37.842L48.258 37.842L48.258 37.986L48.258 37.986Q48.15 38.042 47.987 38.042ZM49.436 37.486L49.436 37.486L49.436 37.486Q49.436 37.748 49.304 37.895L49.304 37.895L49.304 37.895Q49.172 38.042 48.939 38.042L48.939 38.042L48.939 38.042Q48.796 38.042 48.685 37.974L48.685 37.974L48.685 37.974Q48.573 37.907 48.513 37.781L48.513 37.781L48.513 37.781Q48.452 37.655 48.452 37.486L48.452 37.486L48.452 37.486Q48.452 37.224 48.583 37.078L48.583 37.078L48.583 37.078Q48.714 36.932 48.946 36.932L48.946 36.932L48.946 36.932Q49.171 36.932 49.303 37.082L49.303 37.082L49.303 37.082Q49.436 37.231 49.436 37.486ZM48.62 37.486L48.62 37.486L48.62 37.486Q48.62 37.691 48.702 37.798L48.702 37.798L48.702 37.798Q48.784 37.906 48.943 37.906L48.943 37.906L48.943 37.906Q49.103 37.906 49.185 37.799L49.185 37.799L49.185 37.799Q49.268 37.692 49.268 37.486L49.268 37.486L49.268 37.486Q49.268 37.282 49.185 37.176L49.185 37.176L49.185 37.176Q49.103 37.07 48.941 37.07L48.941 37.07L48.941 37.07Q48.782 37.07 48.701 37.174L48.701 37.174L48.701 37.174Q48.62 37.279 48.62 37.486ZM50.614 38.022L50.452 38.022L50.452 37.33L50.452 37.33Q50.452 37.199 50.393 37.134L50.393 37.134L50.393 37.134Q50.333 37.07 50.206 37.07L50.206 37.07L50.206 37.07Q50.038 37.07 49.96 37.161L49.96 37.161L49.96 37.161Q49.882 37.251 49.882 37.46L49.882 37.46L49.882 38.022L49.72 38.022L49.72 36.952L49.852 36.952L49.878 37.098L49.886 37.098L49.886 37.098Q49.936 37.019 50.025 36.976L50.025 36.976L50.025 36.976Q50.115 36.932 50.226 36.932L50.226 36.932L50.226 36.932Q50.419 36.932 50.517 37.025L50.517 37.025L50.517 37.025Q50.614 37.119 50.614 37.324L50.614 37.324L50.614 38.022ZM51.638 37.73L51.638 37.73L51.638 37.73Q51.638 37.879 51.526 37.96L51.526 37.96L51.526 37.96Q51.415 38.042 51.214 38.042L51.214 38.042L51.214 38.042Q51.001 38.042 50.882 37.974L50.882 37.974L50.882 37.824L50.882 37.824Q50.959 37.863 51.047 37.885L51.047 37.885L51.047 37.885Q51.136 37.908 51.218 37.908L51.218 37.908L51.218 37.908Q51.345 37.908 51.413 37.867L51.413 37.867L51.413 37.867Q51.481 37.827 51.481 37.744L51.481 37.744L51.481 37.744Q51.481 37.681 51.427 37.637L51.427 37.637L51.427 37.637Q51.373 37.592 51.216 37.532L51.216 37.532L51.216 37.532Q51.066 37.476 51.003 37.435L51.003 37.435L51.003 37.435Q50.94 37.393 50.91 37.34L50.91 37.34L50.91 37.34Q50.879 37.288 50.879 37.214L50.879 37.214L50.879 37.214Q50.879 37.083 50.985 37.008L50.985 37.008L50.985 37.008Q51.092 36.932 51.277 36.932L51.277 36.932L51.277 36.932Q51.45 36.932 51.615 37.002L51.615 37.002L51.558 37.134L51.558 37.134Q51.396 37.068 51.266 37.068L51.266 37.068L51.266 37.068Q51.15 37.068 51.092 37.104L51.092 37.104L51.092 37.104Q51.033 37.14 51.033 37.204L51.033 37.204L51.033 37.204Q51.033 37.247 51.055 37.277L51.055 37.277L51.055 37.277Q51.077 37.307 51.126 37.334L51.126 37.334L51.126 37.334Q51.175 37.362 51.313 37.414L51.313 37.414L51.313 37.414Q51.504 37.483 51.571 37.553L51.571 37.553L51.571 37.553Q51.638 37.624 51.638 37.73ZM52.247 37.908L52.247 37.908L52.247 37.908Q52.29 37.908 52.33 37.901L52.33 37.901L52.33 37.901Q52.37 37.895 52.394 37.888L52.394 37.888L52.394 38.012L52.394 38.012Q52.367 38.025 52.316 38.033L52.316 38.033L52.316 38.033Q52.265 38.042 52.224 38.042L52.224 38.042L52.224 38.042Q51.913 38.042 51.913 37.714L51.913 37.714L51.913 37.078L51.76 37.078L51.76 37L51.913 36.932L51.981 36.704L52.075 36.704L52.075 36.952L52.386 36.952L52.386 37.078L52.075 37.078L52.075 37.708L52.075 37.708Q52.075 37.804 52.121 37.856L52.121 37.856L52.121 37.856Q52.167 37.908 52.247 37.908ZM53.096 36.932L53.096 36.932L53.096 36.932Q53.167 36.932 53.224 36.944L53.224 36.944L53.201 37.094L53.201 37.094Q53.135 37.08 53.084 37.08L53.084 37.08L53.084 37.08Q52.954 37.08 52.862 37.185L52.862 37.185L52.862 37.185Q52.77 37.291 52.77 37.448L52.77 37.448L52.77 38.022L52.607 38.022L52.607 36.952L52.741 36.952L52.76 37.15L52.768 37.15L52.768 37.15Q52.827 37.045 52.911 36.989L52.911 36.989L52.911 36.989Q52.995 36.932 53.096 36.932ZM53.412 36.952L53.576 36.952L53.576 37.646L53.576 37.646Q53.576 37.777 53.636 37.841L53.636 37.841L53.636 37.841Q53.695 37.906 53.822 37.906L53.822 37.906L53.822 37.906Q53.99 37.906 54.068 37.814L54.068 37.814L54.068 37.814Q54.146 37.722 54.146 37.514L54.146 37.514L54.146 36.952L54.308 36.952L54.308 38.022L54.174 38.022L54.15 37.878L54.142 37.878L54.142 37.878Q54.092 37.958 54.003 38L54.003 38L54.003 38Q53.915 38.042 53.802 38.042L53.802 38.042L53.802 38.042Q53.606 38.042 53.509 37.949L53.509 37.949L53.509 37.949Q53.412 37.856 53.412 37.652L53.412 37.652L53.412 36.952ZM55.079 38.042L55.079 38.042L55.079 38.042Q54.847 38.042 54.719 37.898L54.719 37.898L54.719 37.898Q54.592 37.755 54.592 37.494L54.592 37.494L54.592 37.494Q54.592 37.225 54.721 37.079L54.721 37.079L54.721 37.079Q54.851 36.932 55.09 36.932L55.09 36.932L55.09 36.932Q55.167 36.932 55.244 36.949L55.244 36.949L55.244 36.949Q55.321 36.965 55.365 36.988L55.365 36.988L55.315 37.125L55.315 37.125Q55.262 37.104 55.198 37.09L55.198 37.09L55.198 37.09Q55.135 37.076 55.086 37.076L55.086 37.076L55.086 37.076Q54.76 37.076 54.76 37.492L54.76 37.492L54.76 37.492Q54.76 37.689 54.839 37.794L54.839 37.794L54.839 37.794Q54.919 37.9 55.075 37.9L55.075 37.9L55.075 37.9Q55.209 37.9 55.35 37.842L55.35 37.842L55.35 37.986L55.35 37.986Q55.242 38.042 55.079 38.042ZM55.949 37.908L55.949 37.908L55.949 37.908Q55.992 37.908 56.032 37.901L56.032 37.901L56.032 37.901Q56.072 37.895 56.096 37.888L56.096 37.888L56.096 38.012L56.096 38.012Q56.069 38.025 56.018 38.033L56.018 38.033L56.018 38.033Q55.967 38.042 55.926 38.042L55.926 38.042L55.926 38.042Q55.615 38.042 55.615 37.714L55.615 37.714L55.615 37.078L55.462 37.078L55.462 37L55.615 36.932L55.684 36.704L55.777 36.704L55.777 36.952L56.088 36.952L56.088 37.078L55.777 37.078L55.777 37.708L55.777 37.708Q55.777 37.804 55.823 37.856L55.823 37.856L55.823 37.856Q55.869 37.908 55.949 37.908ZM56.472 36.952L56.472 38.022L56.31 38.022L56.31 36.952L56.472 36.952ZM56.296 36.662L56.296 36.662L56.296 36.662Q56.296 36.606 56.323 36.58L56.323 36.58L56.323 36.58Q56.351 36.554 56.392 36.554L56.392 36.554L56.392 36.554Q56.431 36.554 56.459 36.581L56.459 36.581L56.459 36.581Q56.487 36.607 56.487 36.662L56.487 36.662L56.487 36.662Q56.487 36.716 56.459 36.743L56.459 36.743L56.459 36.743Q56.431 36.77 56.392 36.77L56.392 36.77L56.392 36.77Q56.351 36.77 56.323 36.743L56.323 36.743L56.323 36.743Q56.296 36.716 56.296 36.662ZM57.739 37.486L57.739 37.486L57.739 37.486Q57.739 37.748 57.607 37.895L57.607 37.895L57.607 37.895Q57.476 38.042 57.243 38.042L57.243 38.042L57.243 38.042Q57.1 38.042 56.988 37.974L56.988 37.974L56.988 37.974Q56.877 37.907 56.816 37.781L56.816 37.781L56.816 37.781Q56.756 37.655 56.756 37.486L56.756 37.486L56.756 37.486Q56.756 37.224 56.887 37.078L56.887 37.078L56.887 37.078Q57.018 36.932 57.25 36.932L57.25 36.932L57.25 36.932Q57.475 36.932 57.607 37.082L57.607 37.082L57.607 37.082Q57.739 37.231 57.739 37.486ZM56.924 37.486L56.924 37.486L56.924 37.486Q56.924 37.691 57.006 37.798L57.006 37.798L57.006 37.798Q57.088 37.906 57.247 37.906L57.247 37.906L57.247 37.906Q57.406 37.906 57.489 37.799L57.489 37.799L57.489 37.799Q57.571 37.692 57.571 37.486L57.571 37.486L57.571 37.486Q57.571 37.282 57.489 37.176L57.489 37.176L57.489 37.176Q57.406 37.07 57.245 37.07L57.245 37.07L57.245 37.07Q57.086 37.07 57.005 37.174L57.005 37.174L57.005 37.174Q56.924 37.279 56.924 37.486ZM58.918 38.022L58.756 38.022L58.756 37.33L58.756 37.33Q58.756 37.199 58.696 37.134L58.696 37.134L58.696 37.134Q58.637 37.07 58.51 37.07L58.51 37.07L58.51 37.07Q58.342 37.07 58.264 37.161L58.264 37.161L58.264 37.161Q58.186 37.251 58.186 37.46L58.186 37.46L58.186 38.022L58.023 38.022L58.023 36.952L58.155 36.952L58.182 37.098L58.189 37.098L58.189 37.098Q58.239 37.019 58.329 36.976L58.329 36.976L58.329 36.976Q58.419 36.932 58.529 36.932L58.529 36.932L58.529 36.932Q58.723 36.932 58.82 37.025L58.82 37.025L58.82 37.025Q58.918 37.119 58.918 37.324L58.918 37.324L58.918 38.022Z" fill="#686868"/></svg>