<?xml version="1.0" standalone="no"?><!-- Generator: Gravit.io --><svg xmlns="http://www.w3.org/2000/svg" xmlns:xlink="http://www.w3.org/1999/xlink" style="isolation:isolate" viewBox="0 0 110 90" width="110" height="90"><defs><clipPath id="_clipPath_OrygPId8BvdPel7vrUsla4rxIMV7PJXj"><rect width="110" height="90"/></clipPath></defs><g clip-path="url(#_clipPath_OrygPId8BvdPel7vrUsla4rxIMV7PJXj)"><line x1="15" y1="5" x2="15" y2="85" vector-effect="non-scaling-stroke" stroke-width="10" stroke="rgb(189,189,189)" stroke-linejoin="round" stroke-linecap="round" stroke-miterlimit="3"/><line x1="95" y1="5" x2="95" y2="85" vector-effect="non-scaling-stroke" stroke-width="10" stroke="rgb(189,189,189)" stroke-linejoin="round" stroke-linecap="round" stroke-miterlimit="3"/><line x1="5" y1="85" x2="25" y2="85" vector-effect="non-scaling-stroke" stroke-width="10" stroke="rgb(189,189,189)" stroke-linejoin="round" stroke-linecap="round" stroke-miterlimit="3"/><line x1="85" y1="85" x2="105" y2="85" vector-effect="non-scaling-stroke" stroke-width="10" stroke="rgb(189,189,189)" stroke-linejoin="round" stroke-linecap="round" stroke-miterlimit="3"/><rect x="15" y="15" width="80" height="50" transform="matrix(1,0,0,1,0,0)" fill="rgb(147,172,149)" vector-effect="non-scaling-stroke" stroke-width="10" stroke="rgb(109,134,111)" stroke-linejoin="round" stroke-linecap="round" stroke-miterlimit="2"/><rect x="45" y="35" width="20" height="10" transform="matrix(1,0,0,1,0,0)" fill="rgb(232,232,232)"/><path d=" M 53.309 43.469 L 53.117 43.469 L 52.92 42.841 L 52.92 42.841 Q 52.902 42.784 52.851 42.58 L 52.851 42.58 L 52.843 42.58 L 52.843 42.58 Q 52.804 42.75 52.775 42.843 L 52.775 42.843 L 52.573 43.469 L 52.385 43.469 L 52.093 42.399 L 52.263 42.399 L 52.263 42.399 Q 52.367 42.802 52.421 43.013 L 52.421 43.013 L 52.421 43.013 Q 52.475 43.224 52.483 43.297 L 52.483 43.297 L 52.491 43.297 L 52.491 43.297 Q 52.501 43.242 52.525 43.153 L 52.525 43.153 L 52.525 43.153 Q 52.549 43.065 52.567 43.013 L 52.567 43.013 L 52.763 42.399 L 52.939 42.399 L 53.13 43.013 L 53.13 43.013 Q 53.185 43.181 53.205 43.295 L 53.205 43.295 L 53.212 43.295 L 53.212 43.295 Q 53.216 43.26 53.233 43.187 L 53.233 43.187 L 53.233 43.187 Q 53.25 43.114 53.437 42.399 L 53.437 42.399 L 53.605 42.399 L 53.309 43.469 Z  M 54.25 43.489 L 54.25 43.489 L 54.25 43.489 Q 54.013 43.489 53.876 43.344 L 53.876 43.344 L 53.876 43.344 Q 53.739 43.2 53.739 42.943 L 53.739 42.943 L 53.739 42.943 Q 53.739 42.684 53.866 42.532 L 53.866 42.532 L 53.866 42.532 Q 53.994 42.379 54.208 42.379 L 54.208 42.379 L 54.208 42.379 Q 54.41 42.379 54.527 42.512 L 54.527 42.512 L 54.527 42.512 Q 54.644 42.644 54.644 42.861 L 54.644 42.861 L 54.644 42.963 L 53.907 42.963 L 53.907 42.963 Q 53.912 43.152 54.002 43.25 L 54.002 43.25 L 54.002 43.25 Q 54.092 43.347 54.256 43.347 L 54.256 43.347 L 54.256 43.347 Q 54.429 43.347 54.598 43.275 L 54.598 43.275 L 54.598 43.419 L 54.598 43.419 Q 54.512 43.457 54.436 43.473 L 54.436 43.473 L 54.436 43.473 Q 54.359 43.489 54.25 43.489 Z  M 54.207 42.515 L 54.207 42.515 L 54.207 42.515 Q 54.078 42.515 54.001 42.599 L 54.001 42.599 L 54.001 42.599 Q 53.924 42.683 53.911 42.832 L 53.911 42.832 L 54.47 42.832 L 54.47 42.832 Q 54.47 42.678 54.402 42.597 L 54.402 42.597 L 54.402 42.597 Q 54.333 42.515 54.207 42.515 Z  M 55.373 43.489 L 55.373 43.489 L 55.373 43.489 Q 55.135 43.489 54.998 43.344 L 54.998 43.344 L 54.998 43.344 Q 54.861 43.2 54.861 42.943 L 54.861 42.943 L 54.861 42.943 Q 54.861 42.684 54.988 42.532 L 54.988 42.532 L 54.988 42.532 Q 55.116 42.379 55.331 42.379 L 55.331 42.379 L 55.331 42.379 Q 55.532 42.379 55.649 42.512 L 55.649 42.512 L 55.649 42.512 Q 55.766 42.644 55.766 42.861 L 55.766 42.861 L 55.766 42.963 L 55.029 42.963 L 55.029 42.963 Q 55.034 43.152 55.124 43.25 L 55.124 43.25 L 55.124 43.25 Q 55.214 43.347 55.378 43.347 L 55.378 43.347 L 55.378 43.347 Q 55.551 43.347 55.72 43.275 L 55.72 43.275 L 55.72 43.419 L 55.72 43.419 Q 55.634 43.457 55.558 43.473 L 55.558 43.473 L 55.558 43.473 Q 55.481 43.489 55.373 43.489 Z  M 55.329 42.515 L 55.329 42.515 L 55.329 42.515 Q 55.2 42.515 55.123 42.599 L 55.123 42.599 L 55.123 42.599 Q 55.046 42.683 55.033 42.832 L 55.033 42.832 L 55.592 42.832 L 55.592 42.832 Q 55.592 42.678 55.524 42.597 L 55.524 42.597 L 55.524 42.597 Q 55.456 42.515 55.329 42.515 Z  M 56.195 42.921 L 56.203 42.921 L 56.203 42.921 Q 56.245 42.862 56.331 42.765 L 56.331 42.765 L 56.676 42.399 L 56.869 42.399 L 56.435 42.855 L 56.899 43.469 L 56.703 43.469 L 56.325 42.963 L 56.203 43.069 L 56.203 43.469 L 56.042 43.469 L 56.042 41.95 L 56.203 41.95 L 56.203 42.755 L 56.203 42.755 Q 56.203 42.809 56.195 42.921 L 56.195 42.921 Z  M 57.289 42.042 L 57.239 43.076 L 57.136 43.076 L 57.086 42.042 L 57.289 42.042 Z  M 57.069 43.366 L 57.069 43.366 L 57.069 43.366 Q 57.069 43.233 57.186 43.233 L 57.186 43.233 L 57.186 43.233 Q 57.243 43.233 57.273 43.267 L 57.273 43.267 L 57.273 43.267 Q 57.304 43.301 57.304 43.366 L 57.304 43.366 L 57.304 43.366 Q 57.304 43.428 57.273 43.463 L 57.273 43.463 L 57.273 43.463 Q 57.242 43.498 57.186 43.498 L 57.186 43.498 L 57.186 43.498 Q 57.135 43.498 57.102 43.467 L 57.102 43.467 L 57.102 43.467 Q 57.069 43.436 57.069 43.366 Z  M 57.823 42.042 L 57.773 43.076 L 57.67 43.076 L 57.621 42.042 L 57.823 42.042 Z  M 57.603 43.366 L 57.603 43.366 L 57.603 43.366 Q 57.603 43.233 57.72 43.233 L 57.72 43.233 L 57.72 43.233 Q 57.777 43.233 57.808 43.267 L 57.808 43.267 L 57.808 43.267 Q 57.838 43.301 57.838 43.366 L 57.838 43.366 L 57.838 43.366 Q 57.838 43.428 57.807 43.463 L 57.807 43.463 L 57.807 43.463 Q 57.776 43.498 57.72 43.498 L 57.72 43.498 L 57.72 43.498 Q 57.669 43.498 57.636 43.467 L 57.636 43.467 L 57.636 43.467 Q 57.603 43.436 57.603 43.366 Z  M 59.186 39.226 L 59.186 40.746 L 59.024 40.746 L 59.024 39.226 L 59.186 39.226 Z  M 60.308 40.746 L 60.188 40.746 L 60.156 40.593 L 60.148 40.593 L 60.148 40.593 Q 60.068 40.694 59.988 40.729 L 59.988 40.729 L 59.988 40.729 Q 59.909 40.765 59.79 40.765 L 59.79 40.765 L 59.79 40.765 Q 59.63 40.765 59.54 40.683 L 59.54 40.683 L 59.54 40.683 Q 59.45 40.601 59.45 40.45 L 59.45 40.45 L 59.45 40.45 Q 59.45 40.125 59.968 40.11 L 59.968 40.11 L 60.15 40.104 L 60.15 40.038 L 60.15 40.038 Q 60.15 39.912 60.096 39.852 L 60.096 39.852 L 60.096 39.852 Q 60.042 39.792 59.922 39.792 L 59.922 39.792 L 59.922 39.792 Q 59.789 39.792 59.62 39.874 L 59.62 39.874 L 59.57 39.75 L 59.57 39.75 Q 59.649 39.707 59.743 39.682 L 59.743 39.682 L 59.743 39.682 Q 59.837 39.658 59.932 39.658 L 59.932 39.658 L 59.932 39.658 Q 60.124 39.658 60.216 39.743 L 60.216 39.743 L 60.216 39.743 Q 60.308 39.828 60.308 40.015 L 60.308 40.015 L 60.308 40.746 Z  M 59.822 40.631 L 59.822 40.631 L 59.822 40.631 Q 59.973 40.631 60.06 40.548 L 60.06 40.548 L 60.06 40.548 Q 60.146 40.465 60.146 40.316 L 60.146 40.316 L 60.146 40.219 L 59.984 40.226 L 59.984 40.226 Q 59.791 40.233 59.705 40.286 L 59.705 40.286 L 59.705 40.286 Q 59.62 40.339 59.62 40.452 L 59.62 40.452 L 59.62 40.452 Q 59.62 40.54 59.673 40.585 L 59.673 40.585 L 59.673 40.585 Q 59.726 40.631 59.822 40.631 Z  M 61.333 40.454 L 61.333 40.454 L 61.333 40.454 Q 61.333 40.603 61.221 40.684 L 61.221 40.684 L 61.221 40.684 Q 61.11 40.765 60.909 40.765 L 60.909 40.765 L 60.909 40.765 Q 60.696 40.765 60.577 40.698 L 60.577 40.698 L 60.577 40.547 L 60.577 40.547 Q 60.654 40.586 60.742 40.609 L 60.742 40.609 L 60.742 40.609 Q 60.831 40.631 60.913 40.631 L 60.913 40.631 L 60.913 40.631 Q 61.04 40.631 61.108 40.591 L 61.108 40.591 L 61.108 40.591 Q 61.176 40.55 61.176 40.467 L 61.176 40.467 L 61.176 40.467 Q 61.176 40.405 61.122 40.36 L 61.122 40.36 L 61.122 40.36 Q 61.068 40.316 60.911 40.255 L 60.911 40.255 L 60.911 40.255 Q 60.761 40.2 60.698 40.158 L 60.698 40.158 L 60.698 40.158 Q 60.635 40.117 60.604 40.064 L 60.604 40.064 L 60.604 40.064 Q 60.574 40.011 60.574 39.938 L 60.574 39.938 L 60.574 39.938 Q 60.574 39.807 60.68 39.731 L 60.68 39.731 L 60.68 39.731 Q 60.787 39.656 60.972 39.656 L 60.972 39.656 L 60.972 39.656 Q 61.145 39.656 61.31 39.726 L 61.31 39.726 L 61.252 39.858 L 61.252 39.858 Q 61.091 39.792 60.96 39.792 L 60.96 39.792 L 60.96 39.792 Q 60.845 39.792 60.787 39.828 L 60.787 39.828 L 60.787 39.828 Q 60.728 39.864 60.728 39.927 L 60.728 39.927 L 60.728 39.927 Q 60.728 39.97 60.75 40 L 60.75 40 L 60.75 40 Q 60.772 40.031 60.821 40.058 L 60.821 40.058 L 60.821 40.058 Q 60.87 40.085 61.008 40.137 L 61.008 40.137 L 61.008 40.137 Q 61.199 40.207 61.266 40.277 L 61.266 40.277 L 61.266 40.277 Q 61.333 40.347 61.333 40.454 Z  M 61.942 40.631 L 61.942 40.631 L 61.942 40.631 Q 61.985 40.631 62.025 40.625 L 62.025 40.625 L 62.025 40.625 Q 62.065 40.619 62.088 40.612 L 62.088 40.612 L 62.088 40.736 L 62.088 40.736 Q 62.062 40.749 62.011 40.757 L 62.011 40.757 L 62.011 40.757 Q 61.959 40.765 61.918 40.765 L 61.918 40.765 L 61.918 40.765 Q 61.608 40.765 61.608 40.438 L 61.608 40.438 L 61.608 39.801 L 61.455 39.801 L 61.455 39.723 L 61.608 39.656 L 61.676 39.427 L 61.77 39.427 L 61.77 39.675 L 62.081 39.675 L 62.081 39.801 L 61.77 39.801 L 61.77 40.431 L 61.77 40.431 Q 61.77 40.528 61.816 40.58 L 61.816 40.58 L 61.816 40.58 Q 61.862 40.631 61.942 40.631 Z  M 56.769 39.658 L 56.769 39.658 L 56.769 39.658 Q 56.98 39.658 57.097 39.802 L 57.097 39.802 L 57.097 39.802 Q 57.213 39.946 57.213 40.209 L 57.213 40.209 L 57.213 40.209 Q 57.213 40.473 57.096 40.619 L 57.096 40.619 L 57.096 40.619 Q 56.978 40.765 56.769 40.765 L 56.769 40.765 L 56.769 40.765 Q 56.665 40.765 56.578 40.727 L 56.578 40.727 L 56.578 40.727 Q 56.492 40.688 56.433 40.608 L 56.433 40.608 L 56.421 40.608 L 56.387 40.746 L 56.271 40.746 L 56.271 39.226 L 56.433 39.226 L 56.433 39.595 L 56.433 39.595 Q 56.433 39.719 56.425 39.818 L 56.425 39.818 L 56.433 39.818 L 56.433 39.818 Q 56.546 39.658 56.769 39.658 Z  M 56.746 39.793 L 56.746 39.793 L 56.746 39.793 Q 56.58 39.793 56.506 39.889 L 56.506 39.889 L 56.506 39.889 Q 56.433 39.984 56.433 40.209 L 56.433 40.209 L 56.433 40.209 Q 56.433 40.435 56.508 40.532 L 56.508 40.532 L 56.508 40.532 Q 56.583 40.629 56.75 40.629 L 56.75 40.629 L 56.75 40.629 Q 56.899 40.629 56.972 40.521 L 56.972 40.521 L 56.972 40.521 Q 57.045 40.412 57.045 40.208 L 57.045 40.208 L 57.045 40.208 Q 57.045 39.999 56.972 39.896 L 56.972 39.896 L 56.972 39.896 Q 56.899 39.793 56.746 39.793 Z  M 57.758 40.751 L 57.327 39.675 L 57.5 39.675 L 57.735 40.286 L 57.735 40.286 Q 57.812 40.495 57.831 40.587 L 57.831 40.587 L 57.838 40.587 L 57.838 40.587 Q 57.851 40.538 57.892 40.417 L 57.892 40.417 L 57.892 40.417 Q 57.932 40.296 58.157 39.675 L 58.157 39.675 L 58.331 39.675 L 57.871 40.894 L 57.871 40.894 Q 57.802 41.075 57.711 41.15 L 57.711 41.15 L 57.711 41.15 Q 57.62 41.226 57.487 41.226 L 57.487 41.226 L 57.487 41.226 Q 57.413 41.226 57.34 41.209 L 57.34 41.209 L 57.34 41.08 L 57.34 41.08 Q 57.394 41.091 57.46 41.091 L 57.46 41.091 L 57.46 41.091 Q 57.627 41.091 57.699 40.904 L 57.699 40.904 L 57.758 40.751 Z  M 51.718 40.746 L 51.697 40.602 L 51.688 40.602 L 51.688 40.602 Q 51.576 40.765 51.352 40.765 L 51.352 40.765 L 51.352 40.765 Q 51.142 40.765 51.025 40.622 L 51.025 40.622 L 51.025 40.622 Q 50.909 40.478 50.909 40.213 L 50.909 40.213 L 50.909 40.213 Q 50.909 39.949 51.026 39.802 L 51.026 39.802 L 51.026 39.802 Q 51.143 39.656 51.352 39.656 L 51.352 39.656 L 51.352 39.656 Q 51.57 39.656 51.686 39.814 L 51.686 39.814 L 51.699 39.814 L 51.692 39.737 L 51.688 39.662 L 51.688 39.226 L 51.85 39.226 L 51.85 40.746 L 51.718 40.746 Z  M 51.373 40.629 L 51.373 40.629 L 51.373 40.629 Q 51.539 40.629 51.613 40.539 L 51.613 40.539 L 51.613 40.539 Q 51.688 40.449 51.688 40.248 L 51.688 40.248 L 51.688 40.213 L 51.688 40.213 Q 51.688 39.986 51.612 39.889 L 51.612 39.889 L 51.612 39.889 Q 51.537 39.792 51.371 39.792 L 51.371 39.792 L 51.371 39.792 Q 51.228 39.792 51.152 39.902 L 51.152 39.902 L 51.152 39.902 Q 51.077 40.013 51.077 40.215 L 51.077 40.215 L 51.077 40.215 Q 51.077 40.42 51.152 40.525 L 51.152 40.525 L 51.152 40.525 Q 51.227 40.629 51.373 40.629 Z  M 53.118 40.209 L 53.118 40.209 L 53.118 40.209 Q 53.118 40.471 52.986 40.618 L 52.986 40.618 L 52.986 40.618 Q 52.854 40.765 52.622 40.765 L 52.622 40.765 L 52.622 40.765 Q 52.478 40.765 52.367 40.698 L 52.367 40.698 L 52.367 40.698 Q 52.255 40.63 52.195 40.504 L 52.195 40.504 L 52.195 40.504 Q 52.134 40.378 52.134 40.209 L 52.134 40.209 L 52.134 40.209 Q 52.134 39.948 52.265 39.802 L 52.265 39.802 L 52.265 39.802 Q 52.396 39.656 52.628 39.656 L 52.628 39.656 L 52.628 39.656 Q 52.853 39.656 52.985 39.805 L 52.985 39.805 L 52.985 39.805 Q 53.118 39.955 53.118 40.209 Z  M 52.302 40.209 L 52.302 40.209 L 52.302 40.209 Q 52.302 40.415 52.384 40.522 L 52.384 40.522 L 52.384 40.522 Q 52.466 40.629 52.625 40.629 L 52.625 40.629 L 52.625 40.629 Q 52.785 40.629 52.867 40.522 L 52.867 40.522 L 52.867 40.522 Q 52.95 40.416 52.95 40.209 L 52.95 40.209 L 52.95 40.209 Q 52.95 40.005 52.867 39.899 L 52.867 39.899 L 52.867 39.899 Q 52.785 39.793 52.624 39.793 L 52.624 39.793 L 52.624 39.793 Q 52.464 39.793 52.383 39.898 L 52.383 39.898 L 52.383 39.898 Q 52.302 40.002 52.302 40.209 Z  M 54.296 40.746 L 54.134 40.746 L 54.134 40.053 L 54.134 40.053 Q 54.134 39.922 54.075 39.858 L 54.075 39.858 L 54.075 39.858 Q 54.015 39.793 53.888 39.793 L 53.888 39.793 L 53.888 39.793 Q 53.72 39.793 53.642 39.884 L 53.642 39.884 L 53.642 39.884 Q 53.564 39.975 53.564 40.184 L 53.564 40.184 L 53.564 40.746 L 53.402 40.746 L 53.402 39.675 L 53.534 39.675 L 53.56 39.822 L 53.568 39.822 L 53.568 39.822 Q 53.618 39.743 53.708 39.699 L 53.708 39.699 L 53.708 39.699 Q 53.797 39.656 53.908 39.656 L 53.908 39.656 L 53.908 39.656 Q 54.101 39.656 54.199 39.749 L 54.199 39.749 L 54.199 39.749 Q 54.296 39.842 54.296 40.047 L 54.296 40.047 L 54.296 40.746 Z  M 55.082 40.765 L 55.082 40.765 L 55.082 40.765 Q 54.844 40.765 54.707 40.621 L 54.707 40.621 L 54.707 40.621 Q 54.57 40.476 54.57 40.219 L 54.57 40.219 L 54.57 40.219 Q 54.57 39.96 54.697 39.808 L 54.697 39.808 L 54.697 39.808 Q 54.825 39.656 55.04 39.656 L 55.04 39.656 L 55.04 39.656 Q 55.241 39.656 55.358 39.788 L 55.358 39.788 L 55.358 39.788 Q 55.475 39.92 55.475 40.137 L 55.475 40.137 L 55.475 40.24 L 54.738 40.24 L 54.738 40.24 Q 54.743 40.428 54.833 40.526 L 54.833 40.526 L 54.833 40.526 Q 54.923 40.624 55.087 40.624 L 55.087 40.624 L 55.087 40.624 Q 55.26 40.624 55.429 40.551 L 55.429 40.551 L 55.429 40.696 L 55.429 40.696 Q 55.343 40.733 55.267 40.749 L 55.267 40.749 L 55.267 40.749 Q 55.19 40.765 55.082 40.765 Z  M 55.038 39.792 L 55.038 39.792 L 55.038 39.792 Q 54.909 39.792 54.832 39.875 L 54.832 39.875 L 54.832 39.875 Q 54.755 39.959 54.742 40.108 L 54.742 40.108 L 55.301 40.108 L 55.301 40.108 Q 55.301 39.955 55.233 39.873 L 55.233 39.873 L 55.233 39.873 Q 55.165 39.792 55.038 39.792 Z  M 48.599 39.658 L 48.599 39.658 L 48.599 39.658 Q 48.81 39.658 48.927 39.802 L 48.927 39.802 L 48.927 39.802 Q 49.043 39.946 49.043 40.209 L 49.043 40.209 L 49.043 40.209 Q 49.043 40.473 48.926 40.619 L 48.926 40.619 L 48.926 40.619 Q 48.808 40.765 48.599 40.765 L 48.599 40.765 L 48.599 40.765 Q 48.495 40.765 48.408 40.727 L 48.408 40.727 L 48.408 40.727 Q 48.322 40.688 48.263 40.608 L 48.263 40.608 L 48.251 40.608 L 48.217 40.746 L 48.101 40.746 L 48.101 39.226 L 48.263 39.226 L 48.263 39.595 L 48.263 39.595 Q 48.263 39.719 48.255 39.818 L 48.255 39.818 L 48.263 39.818 L 48.263 39.818 Q 48.376 39.658 48.599 39.658 Z  M 48.576 39.793 L 48.576 39.793 L 48.576 39.793 Q 48.41 39.793 48.336 39.889 L 48.336 39.889 L 48.336 39.889 Q 48.263 39.984 48.263 40.209 L 48.263 40.209 L 48.263 40.209 Q 48.263 40.435 48.338 40.532 L 48.338 40.532 L 48.338 40.532 Q 48.414 40.629 48.58 40.629 L 48.58 40.629 L 48.58 40.629 Q 48.729 40.629 48.802 40.521 L 48.802 40.521 L 48.802 40.521 Q 48.875 40.412 48.875 40.208 L 48.875 40.208 L 48.875 40.208 Q 48.875 39.999 48.802 39.896 L 48.802 39.896 L 48.802 39.896 Q 48.729 39.793 48.576 39.793 Z  M 49.779 40.765 L 49.779 40.765 L 49.779 40.765 Q 49.542 40.765 49.404 40.621 L 49.404 40.621 L 49.404 40.621 Q 49.267 40.476 49.267 40.219 L 49.267 40.219 L 49.267 40.219 Q 49.267 39.96 49.395 39.808 L 49.395 39.808 L 49.395 39.808 Q 49.522 39.656 49.737 39.656 L 49.737 39.656 L 49.737 39.656 Q 49.938 39.656 50.055 39.788 L 50.055 39.788 L 50.055 39.788 Q 50.172 39.92 50.172 40.137 L 50.172 40.137 L 50.172 40.24 L 49.435 40.24 L 49.435 40.24 Q 49.44 40.428 49.53 40.526 L 49.53 40.526 L 49.53 40.526 Q 49.621 40.624 49.785 40.624 L 49.785 40.624 L 49.785 40.624 Q 49.958 40.624 50.126 40.551 L 50.126 40.551 L 50.126 40.696 L 50.126 40.696 Q 50.041 40.733 49.964 40.749 L 49.964 40.749 L 49.964 40.749 Q 49.887 40.765 49.779 40.765 Z  M 49.735 39.792 L 49.735 39.792 L 49.735 39.792 Q 49.606 39.792 49.529 39.875 L 49.529 39.875 L 49.529 39.875 Q 49.453 39.959 49.439 40.108 L 49.439 40.108 L 49.999 40.108 L 49.999 40.108 Q 49.999 39.955 49.93 39.873 L 49.93 39.873 L 49.93 39.873 Q 49.862 39.792 49.735 39.792 Z  M 60.837 38.022 L 60.645 38.022 L 60.448 37.394 L 60.448 37.394 Q 60.43 37.336 60.379 37.132 L 60.379 37.132 L 60.371 37.132 L 60.371 37.132 Q 60.332 37.303 60.303 37.396 L 60.303 37.396 L 60.101 38.022 L 59.913 38.022 L 59.621 36.952 L 59.791 36.952 L 59.791 36.952 Q 59.895 37.355 59.949 37.566 L 59.949 37.566 L 59.949 37.566 Q 60.003 37.777 60.011 37.85 L 60.011 37.85 L 60.019 37.85 L 60.019 37.85 Q 60.029 37.794 60.053 37.706 L 60.053 37.706 L 60.053 37.706 Q 60.077 37.618 60.095 37.566 L 60.095 37.566 L 60.291 36.952 L 60.467 36.952 L 60.658 37.566 L 60.658 37.566 Q 60.713 37.734 60.732 37.848 L 60.732 37.848 L 60.74 37.848 L 60.74 37.848 Q 60.744 37.813 60.761 37.74 L 60.761 37.74 L 60.761 37.74 Q 60.778 37.667 60.965 36.952 L 60.965 36.952 L 61.133 36.952 L 60.837 38.022 Z  M 61.488 36.952 L 61.488 38.022 L 61.326 38.022 L 61.326 36.952 L 61.488 36.952 Z  M 61.313 36.662 L 61.313 36.662 L 61.313 36.662 Q 61.313 36.606 61.34 36.58 L 61.34 36.58 L 61.34 36.58 Q 61.367 36.554 61.408 36.554 L 61.408 36.554 L 61.408 36.554 Q 61.447 36.554 61.476 36.581 L 61.476 36.581 L 61.476 36.581 Q 61.504 36.607 61.504 36.662 L 61.504 36.662 L 61.504 36.662 Q 61.504 36.716 61.476 36.743 L 61.476 36.743 L 61.476 36.743 Q 61.447 36.77 61.408 36.77 L 61.408 36.77 L 61.408 36.77 Q 61.367 36.77 61.34 36.743 L 61.34 36.743 L 61.34 36.743 Q 61.313 36.716 61.313 36.662 Z  M 61.994 36.502 L 61.994 38.022 L 61.832 38.022 L 61.832 36.502 L 61.994 36.502 Z  M 62.5 36.502 L 62.5 38.022 L 62.338 38.022 L 62.338 36.502 L 62.5 36.502 Z  M 47.987 38.042 L 47.987 38.042 L 47.987 38.042 Q 47.755 38.042 47.627 37.898 L 47.627 37.898 L 47.627 37.898 Q 47.5 37.755 47.5 37.494 L 47.5 37.494 L 47.5 37.494 Q 47.5 37.225 47.629 37.079 L 47.629 37.079 L 47.629 37.079 Q 47.759 36.932 47.998 36.932 L 47.998 36.932 L 47.998 36.932 Q 48.075 36.932 48.152 36.949 L 48.152 36.949 L 48.152 36.949 Q 48.229 36.965 48.273 36.988 L 48.273 36.988 L 48.224 37.125 L 48.224 37.125 Q 48.17 37.104 48.106 37.09 L 48.106 37.09 L 48.106 37.09 Q 48.043 37.076 47.994 37.076 L 47.994 37.076 L 47.994 37.076 Q 47.668 37.076 47.668 37.492 L 47.668 37.492 L 47.668 37.492 Q 47.668 37.689 47.748 37.794 L 47.748 37.794 L 47.748 37.794 Q 47.827 37.9 47.983 37.9 L 47.983 37.9 L 47.983 37.9 Q 48.117 37.9 48.258 37.842 L 48.258 37.842 L 48.258 37.986 L 48.258 37.986 Q 48.15 38.042 47.987 38.042 Z  M 49.436 37.486 L 49.436 37.486 L 49.436 37.486 Q 49.436 37.748 49.304 37.895 L 49.304 37.895 L 49.304 37.895 Q 49.172 38.042 48.939 38.042 L 48.939 38.042 L 48.939 38.042 Q 48.796 38.042 48.685 37.974 L 48.685 37.974 L 48.685 37.974 Q 48.573 37.907 48.513 37.781 L 48.513 37.781 L 48.513 37.781 Q 48.452 37.655 48.452 37.486 L 48.452 37.486 L 48.452 37.486 Q 48.452 37.224 48.583 37.078 L 48.583 37.078 L 48.583 37.078 Q 48.714 36.932 48.946 36.932 L 48.946 36.932 L 48.946 36.932 Q 49.171 36.932 49.303 37.082 L 49.303 37.082 L 49.303 37.082 Q 49.436 37.231 49.436 37.486 Z  M 48.62 37.486 L 48.62 37.486 L 48.62 37.486 Q 48.62 37.691 48.702 37.798 L 48.702 37.798 L 48.702 37.798 Q 48.784 37.906 48.943 37.906 L 48.943 37.906 L 48.943 37.906 Q 49.103 37.906 49.185 37.799 L 49.185 37.799 L 49.185 37.799 Q 49.268 37.692 49.268 37.486 L 49.268 37.486 L 49.268 37.486 Q 49.268 37.282 49.185 37.176 L 49.185 37.176 L 49.185 37.176 Q 49.103 37.07 48.941 37.07 L 48.941 37.07 L 48.941 37.07 Q 48.782 37.07 48.701 37.174 L 48.701 37.174 L 48.701 37.174 Q 48.62 37.279 48.62 37.486 Z  M 50.614 38.022 L 50.452 38.022 L 50.452 37.33 L 50.452 37.33 Q 50.452 37.199 50.393 37.134 L 50.393 37.134 L 50.393 37.134 Q 50.333 37.07 50.206 37.07 L 50.206 37.07 L 50.206 37.07 Q 50.038 37.07 49.96 37.161 L 49.96 37.161 L 49.96 37.161 Q 49.882 37.251 49.882 37.46 L 49.882 37.46 L 49.882 38.022 L 49.72 38.022 L 49.72 36.952 L 49.852 36.952 L 49.878 37.098 L 49.886 37.098 L 49.886 37.098 Q 49.936 37.019 50.025 36.976 L 50.025 36.976 L 50.025 36.976 Q 50.115 36.932 50.226 36.932 L 50.226 36.932 L 50.226 36.932 Q 50.419 36.932 50.517 37.025 L 50.517 37.025 L 50.517 37.025 Q 50.614 37.119 50.614 37.324 L 50.614 37.324 L 50.614 38.022 Z  M 51.638 37.73 L 51.638 37.73 L 51.638 37.73 Q 51.638 37.879 51.526 37.96 L 51.526 37.96 L 51.526 37.96 Q 51.415 38.042 51.214 38.042 L 51.214 38.042 L 51.214 38.042 Q 51.001 38.042 50.882 37.974 L 50.882 37.974 L 50.882 37.824 L 50.882 37.824 Q 50.959 37.863 51.047 37.885 L 51.047 37.885 L 51.047 37.885 Q 51.136 37.908 51.218 37.908 L 51.218 37.908 L 51.218 37.908 Q 51.345 37.908 51.413 37.867 L 51.413 37.867 L 51.413 37.867 Q 51.481 37.827 51.481 37.744 L 51.481 37.744 L 51.481 37.744 Q 51.481 37.681 51.427 37.637 L 51.427 37.637 L 51.427 37.637 Q 51.373 37.592 51.216 37.532 L 51.216 37.532 L 51.216 37.532 Q 51.066 37.476 51.003 37.435 L 51.003 37.435 L 51.003 37.435 Q 50.94 37.393 50.91 37.34 L 50.91 37.34 L 50.91 37.34 Q 50.879 37.288 50.879 37.214 L 50.879 37.214 L 50.879 37.214 Q 50.879 37.083 50.985 37.008 L 50.985 37.008 L 50.985 37.008 Q 51.092 36.932 51.277 36.932 L 51.277 36.932 L 51.277 36.932 Q 51.45 36.932 51.615 37.002 L 51.615 37.002 L 51.558 37.134 L 51.558 37.134 Q 51.396 37.068 51.266 37.068 L 51.266 37.068 L 51.266 37.068 Q 51.15 37.068 51.092 37.104 L 51.092 37.104 L 51.092 37.104 Q 51.033 37.14 51.033 37.204 L 51.033 37.204 L 51.033 37.204 Q 51.033 37.247 51.055 37.277 L 51.055 37.277 L 51.055 37.277 Q 51.077 37.307 51.126 37.334 L 51.126 37.334 L 51.126 37.334 Q 51.175 37.362 51.313 37.414 L 51.313 37.414 L 51.313 37.414 Q 51.504 37.483 51.571 37.553 L 51.571 37.553 L 51.571 37.553 Q 51.638 37.624 51.638 37.73 Z  M 52.247 37.908 L 52.247 37.908 L 52.247 37.908 Q 52.29 37.908 52.33 37.901 L 52.33 37.901 L 52.33 37.901 Q 52.37 37.895 52.394 37.888 L 52.394 37.888 L 52.394 38.012 L 52.394 38.012 Q 52.367 38.025 52.316 38.033 L 52.316 38.033 L 52.316 38.033 Q 52.265 38.042 52.224 38.042 L 52.224 38.042 L 52.224 38.042 Q 51.913 38.042 51.913 37.714 L 51.913 37.714 L 51.913 37.078 L 51.76 37.078 L 51.76 37 L 51.913 36.932 L 51.981 36.704 L 52.075 36.704 L 52.075 36.952 L 52.386 36.952 L 52.386 37.078 L 52.075 37.078 L 52.075 37.708 L 52.075 37.708 Q 52.075 37.804 52.121 37.856 L 52.121 37.856 L 52.121 37.856 Q 52.167 37.908 52.247 37.908 Z  M 53.096 36.932 L 53.096 36.932 L 53.096 36.932 Q 53.167 36.932 53.224 36.944 L 53.224 36.944 L 53.201 37.094 L 53.201 37.094 Q 53.135 37.08 53.084 37.08 L 53.084 37.08 L 53.084 37.08 Q 52.954 37.08 52.862 37.185 L 52.862 37.185 L 52.862 37.185 Q 52.77 37.291 52.77 37.448 L 52.77 37.448 L 52.77 38.022 L 52.607 38.022 L 52.607 36.952 L 52.741 36.952 L 52.76 37.15 L 52.768 37.15 L 52.768 37.15 Q 52.827 37.045 52.911 36.989 L 52.911 36.989 L 52.911 36.989 Q 52.995 36.932 53.096 36.932 Z  M 53.412 36.952 L 53.576 36.952 L 53.576 37.646 L 53.576 37.646 Q 53.576 37.777 53.636 37.841 L 53.636 37.841 L 53.636 37.841 Q 53.695 37.906 53.822 37.906 L 53.822 37.906 L 53.822 37.906 Q 53.99 37.906 54.068 37.814 L 54.068 37.814 L 54.068 37.814 Q 54.146 37.722 54.146 37.514 L 54.146 37.514 L 54.146 36.952 L 54.308 36.952 L 54.308 38.022 L 54.174 38.022 L 54.15 37.878 L 54.142 37.878 L 54.142 37.878 Q 54.092 37.958 54.003 38 L 54.003 38 L 54.003 38 Q 53.915 38.042 53.802 38.042 L 53.802 38.042 L 53.802 38.042 Q 53.606 38.042 53.509 37.949 L 53.509 37.949 L 53.509 37.949 Q 53.412 37.856 53.412 37.652 L 53.412 37.652 L 53.412 36.952 Z  M 55.079 38.042 L 55.079 38.042 L 55.079 38.042 Q 54.847 38.042 54.719 37.898 L 54.719 37.898 L 54.719 37.898 Q 54.592 37.755 54.592 37.494 L 54.592 37.494 L 54.592 37.494 Q 54.592 37.225 54.721 37.079 L 54.721 37.079 L 54.721 37.079 Q 54.851 36.932 55.09 36.932 L 55.09 36.932 L 55.09 36.932 Q 55.167 36.932 55.244 36.949 L 55.244 36.949 L 55.244 36.949 Q 55.321 36.965 55.365 36.988 L 55.365 36.988 L 55.315 37.125 L 55.315 37.125 Q 55.262 37.104 55.198 37.09 L 55.198 37.09 L 55.198 37.09 Q 55.135 37.076 55.086 37.076 L 55.086 37.076 L 55.086 37.076 Q 54.76 37.076 54.76 37.492 L 54.76 37.492 L 54.76 37.492 Q 54.76 37.689 54.839 37.794 L 54.839 37.794 L 54.839 37.794 Q 54.919 37.9 55.075 37.9 L 55.075 37.9 L 55.075 37.9 Q 55.209 37.9 55.35 37.842 L 55.35 37.842 L 55.35 37.986 L 55.35 37.986 Q 55.242 38.042 55.079 38.042 Z  M 55.949 37.908 L 55.949 37.908 L 55.949 37.908 Q 55.992 37.908 56.032 37.901 L 56.032 37.901 L 56.032 37.901 Q 56.072 37.895 56.096 37.888 L 56.096 37.888 L 56.096 38.012 L 56.096 38.012 Q 56.069 38.025 56.018 38.033 L 56.018 38.033 L 56.018 38.033 Q 55.967 38.042 55.926 38.042 L 55.926 38.042 L 55.926 38.042 Q 55.615 38.042 55.615 37.714 L 55.615 37.714 L 55.615 37.078 L 55.462 37.078 L 55.462 37 L 55.615 36.932 L 55.684 36.704 L 55.777 36.704 L 55.777 36.952 L 56.088 36.952 L 56.088 37.078 L 55.777 37.078 L 55.777 37.708 L 55.777 37.708 Q 55.777 37.804 55.823 37.856 L 55.823 37.856 L 55.823 37.856 Q 55.869 37.908 55.949 37.908 Z  M 56.472 36.952 L 56.472 38.022 L 56.31 38.022 L 56.31 36.952 L 56.472 36.952 Z  M 56.296 36.662 L 56.296 36.662 L 56.296 36.662 Q 56.296 36.606 56.323 36.58 L 56.323 36.58 L 56.323 36.58 Q 56.351 36.554 56.392 36.554 L 56.392 36.554 L 56.392 36.554 Q 56.431 36.554 56.459 36.581 L 56.459 36.581 L 56.459 36.581 Q 56.487 36.607 56.487 36.662 L 56.487 36.662 L 56.487 36.662 Q 56.487 36.716 56.459 36.743 L 56.459 36.743 L 56.459 36.743 Q 56.431 36.77 56.392 36.77 L 56.392 36.77 L 56.392 36.77 Q 56.351 36.77 56.323 36.743 L 56.323 36.743 L 56.323 36.743 Q 56.296 36.716 56.296 36.662 Z  M 57.739 37.486 L 57.739 37.486 L 57.739 37.486 Q 57.739 37.748 57.607 37.895 L 57.607 37.895 L 57.607 37.895 Q 57.476 38.042 57.243 38.042 L 57.243 38.042 L 57.243 38.042 Q 57.1 38.042 56.988 37.974 L 56.988 37.974 L 56.988 37.974 Q 56.877 37.907 56.816 37.781 L 56.816 37.781 L 56.816 37.781 Q 56.756 37.655 56.756 37.486 L 56.756 37.486 L 56.756 37.486 Q 56.756 37.224 56.887 37.078 L 56.887 37.078 L 56.887 37.078 Q 57.018 36.932 57.25 36.932 L 57.25 36.932 L 57.25 36.932 Q 57.475 36.932 57.607 37.082 L 57.607 37.082 L 57.607 37.082 Q 57.739 37.231 57.739 37.486 Z  M 56.924 37.486 L 56.924 37.486 L 56.924 37.486 Q 56.924 37.691 57.006 37.798 L 57.006 37.798 L 57.006 37.798 Q 57.088 37.906 57.247 37.906 L 57.247 37.906 L 57.247 37.906 Q 57.406 37.906 57.489 37.799 L 57.489 37.799 L 57.489 37.799 Q 57.571 37.692 57.571 37.486 L 57.571 37.486 L 57.571 37.486 Q 57.571 37.282 57.489 37.176 L 57.489 37.176 L 57.489 37.176 Q 57.406 37.07 57.245 37.07 L 57.245 37.07 L 57.245 37.07 Q 57.086 37.07 57.005 37.174 L 57.005 37.174 L 57.005 37.174 Q 56.924 37.279 56.924 37.486 Z  M 58.918 38.022 L 58.756 38.022 L 58.756 37.33 L 58.756 37.33 Q 58.756 37.199 58.696 37.134 L 58.696 37.134 L 58.696 37.134 Q 58.637 37.07 58.51 37.07 L 58.51 37.07 L 58.51 37.07 Q 58.342 37.07 58.264 37.161 L 58.264 37.161 L 58.264 37.161 Q 58.186 37.251 58.186 37.46 L 58.186 37.46 L 58.186 38.022 L 58.023 38.022 L 58.023 36.952 L 58.155 36.952 L 58.182 37.098 L 58.189 37.098 L 58.189 37.098 Q 58.239 37.019 58.329 36.976 L 58.329 36.976 L 58.329 36.976 Q 58.419 36.932 58.529 36.932 L 58.529 36.932 L 58.529 36.932 Q 58.723 36.932 58.82 37.025 L 58.82 37.025 L 58.82 37.025 Q 58.918 37.119 58.918 37.324 L 58.918 37.324 L 58.918 38.022 Z " fill-rule="evenodd" fill="rgb(104,104,104)"/></g></svg>