<svg xmlns="http://www.w3.org/2000/svg" xmlns:xlink="http://www.w3.org/1999/xlink" viewBox="0 0 210 190" width="210" height="190"><path d="M195 115L205 135L185 145L175 125" fill="#b08c5c" stroke-width="10" stroke="#916f44" stroke-opacity="100000000" stroke-linejoin="round" stroke-linecap="round"/><path d="M55 155L55 185L85 185L85 175L125 175L125 185L155 185L155 155" fill="#7079bb" stroke-width="10" stroke="#505899" stroke-opacity="100000000" stroke-linejoin="round" stroke-linecap="round"/><path d="M15 115L5 135L25 145L35 125" fill="#b08c5c" stroke-width="10" stroke="#916f44" stroke-opacity="100000000" stroke-linejoin="round" stroke-linecap="round"/><path d="M35 65L65 45L145 45L175 65L195 115L175 125L155 155L55 155L35 125L15 115L35 65L35 65L35 65Z" fill="#a8a035" stroke-width="10" stroke="#8a8319" stroke-opacity="100000000" stroke-linejoin="round" stroke-linecap="round"/><line x1="155" y1="185" x2="125" y2="185" stroke-width="10" stroke="#6c6c6c" stroke-opacity="100000000" stroke-linejoin="round" stroke-linecap="round"/><line x1="55" y1="185" x2="85" y2="185" stroke-width="10" stroke="#6c6c6c" stroke-opacity="100000000" stroke-linejoin="round" stroke-linecap="round"/><path d="M85 50L85 16.25L105 5L125 16.25L125 50L85 50L85 50L85 50Z" fill="#9f6212" stroke-width="10" stroke="#9f6212" stroke-opacity="100000000" stroke-linejoin="round" stroke-linecap="round"/><rect x="120" y="90" width="20" height="20" transform="matrix(1,0,0,1,0,0)" fill="#dbdba5" stroke-width="10" stroke="#dbdba5" stroke-linejoin="round" stroke-linecap="round" stroke-miterlimit="2"/><line x1="120" y1="90" x2="140" y2="90" stroke-width="10" stroke="#bfbf80" stroke-linejoin="round" stroke-linecap="round"/><path d="M128.015 107.583L128.015 107.583L128.015 107.583Q128.015 107.275 128.123 107.065L128.123 107.065L128.123 107.065Q128.23 106.855 128.408 106.729L128.408 106.729L128.408 106.729Q128.586 106.602 128.823 106.543L128.823 106.543L128.823 106.543Q129.06 106.484 129.319 106.484L129.319 106.484L129.319 106.484Q129.529 106.484 129.727 106.553L129.727 106.553L129.727 106.553Q129.924 106.621 130.081 106.743L130.081 106.743L130.081 106.743Q130.237 106.865 130.33 107.041L130.33 107.041L130.33 107.041Q130.422 107.217 130.422 107.441L130.422 107.441L130.422 107.441Q130.422 107.637 130.349 107.761L130.349 107.761L130.349 107.761Q130.276 107.886 130.149 107.957L130.149 107.957L130.149 107.957Q130.022 108.027 129.868 108.057L129.868 108.057L129.868 108.057Q129.714 108.086 129.553 108.086L129.553 108.086L129.553 108.086Q129.397 108.086 129.233 108.071L129.233 108.071L129.233 108.071Q129.07 108.057 128.933 108.003L128.933 108.003L128.933 108.003Q128.796 107.949 128.708 107.842L128.708 107.842L128.708 107.842Q128.621 107.734 128.621 107.539L128.621 107.539L128.621 107.539Q128.723 107.539 128.818 107.581L128.818 107.581L128.818 107.581Q128.914 107.622 129.011 107.668L129.011 107.668L129.011 107.668Q129.109 107.715 129.207 107.754L129.207 107.754L129.207 107.754Q129.299 107.798 129.407 107.798L129.407 107.798L129.407 107.798Q129.485 107.798 129.614 107.783L129.614 107.783L129.614 107.783Q129.744 107.769 129.858 107.727L129.858 107.727L129.858 107.727Q129.973 107.686 130.056 107.612L130.056 107.612L130.056 107.612Q130.139 107.539 130.139 107.427L130.139 107.427L130.139 107.427Q130.139 107.261 130.066 107.139L130.066 107.139L130.066 107.139Q129.993 107.017 129.875 106.936L129.875 106.936L129.875 106.936Q129.758 106.855 129.612 106.812L129.612 106.812L129.612 106.812Q129.465 106.768 129.319 106.768L129.319 106.768L129.319 106.768Q129.299 106.768 129.224 106.777L129.224 106.777L129.224 106.777Q129.148 106.787 129.05 106.809L129.05 106.809L129.05 106.809Q128.953 106.831 128.845 106.863L128.845 106.863L128.845 106.863Q128.738 106.895 128.647 106.941L128.647 106.941L128.647 106.941Q128.557 106.987 128.499 107.046L128.499 107.046L128.499 107.046Q128.44 107.104 128.44 107.178L128.44 107.178L128.44 107.236L128.44 107.236Q128.445 107.29 128.452 107.38L128.452 107.38L128.452 107.38Q128.459 107.471 128.464 107.561L128.464 107.561L128.464 107.561Q128.469 107.651 128.479 107.72L128.479 107.72L128.479 107.72Q128.489 107.788 128.489 107.798L128.489 107.798L128.489 107.798Q128.499 107.876 128.523 108.04L128.523 108.04L128.523 108.04Q128.547 108.203 128.577 108.406L128.577 108.406L128.577 108.406Q128.606 108.608 128.643 108.833L128.643 108.833L128.643 108.833Q128.679 109.058 128.713 109.26L128.713 109.26L128.713 109.26Q128.748 109.463 128.774 109.624L128.774 109.624L128.774 109.624Q128.801 109.785 128.816 109.858L128.816 109.858L128.816 109.858Q128.816 109.868 128.818 109.875L128.818 109.875L128.818 109.875Q128.821 109.883 128.821 109.888L128.821 109.888L128.821 109.888Q128.821 109.893 128.821 109.893L128.821 109.893L128.816 109.902L128.816 109.912L128.816 109.912Q128.806 109.927 128.772 109.961L128.772 109.961L128.772 109.961Q128.733 109.99 128.723 110L128.723 110L128.694 110L128.694 110Q128.645 110 128.591 109.91L128.591 109.91L128.591 109.91Q128.538 109.819 128.481 109.666L128.481 109.666L128.481 109.666Q128.425 109.512 128.369 109.312L128.369 109.312L128.369 109.312Q128.313 109.111 128.259 108.896L128.259 108.896L128.259 108.896Q128.206 108.682 128.162 108.472L128.162 108.472L128.162 108.472Q128.118 108.262 128.083 108.081L128.083 108.081L128.083 108.081Q128.049 107.9 128.032 107.769L128.032 107.769L128.032 107.769Q128.015 107.637 128.015 107.583ZM130.618 107.397L130.618 107.397L130.618 107.397Q130.623 107.314 130.667 107.207L130.667 107.207L130.667 107.207Q130.71 107.1 130.803 106.997L130.803 106.997L130.803 106.997Q130.896 106.895 131.038 106.814L131.038 106.814L131.038 106.814Q131.179 106.733 131.372 106.699L131.372 106.699L131.372 106.699Q131.565 106.665 131.812 106.694L131.812 106.694L131.812 106.694Q132.058 106.724 132.361 106.841L132.361 106.841L132.361 106.841Q132.361 106.836 132.361 106.792L132.361 106.792L132.356 106.748L132.356 106.748Q132.356 106.621 132.283 106.489L132.283 106.489L132.283 106.489Q132.209 106.357 132.095 106.252L132.095 106.252L132.095 106.252Q131.98 106.147 131.848 106.082L131.848 106.082L131.848 106.082Q131.716 106.016 131.594 106.016L131.594 106.016L131.594 106.016Q131.545 106.016 131.509 106.03L131.509 106.03L131.509 106.03Q131.472 106.045 131.438 106.067L131.438 106.067L131.438 106.067Q131.404 106.089 131.372 106.106L131.372 106.106L131.372 106.106Q131.34 106.123 131.296 106.123L131.296 106.123L131.296 106.123Q131.287 106.123 131.287 106.118L131.287 106.118L131.287 106.118Q131.282 106.113 131.277 106.108L131.277 106.108L131.277 106.108Q131.267 106.099 131.25 106.084L131.25 106.084L131.25 106.084Q131.233 106.069 131.233 106.064L131.233 106.064L131.233 106.064Q131.233 105.977 131.265 105.913L131.265 105.913L131.265 105.913Q131.296 105.85 131.353 105.811L131.353 105.811L131.353 105.811Q131.409 105.771 131.479 105.75L131.479 105.75L131.479 105.75Q131.55 105.728 131.628 105.728L131.628 105.728L131.628 105.728Q131.824 105.747 132.002 105.847L132.002 105.847L132.002 105.847Q132.18 105.947 132.329 106.099L132.329 106.099L132.329 106.099Q132.478 106.25 132.59 106.448L132.59 106.448L132.59 106.448Q132.703 106.646 132.778 106.858L132.778 106.858L132.778 106.858Q132.854 107.07 132.878 107.285L132.878 107.285L132.878 107.285Q132.908 107.51 132.883 107.705L132.883 107.705L132.883 107.705Q132.878 107.705 132.854 107.703L132.854 107.703L132.854 107.703Q132.83 107.7 132.8 107.698L132.8 107.698L132.8 107.698Q132.771 107.695 132.751 107.69L132.751 107.69L132.727 107.686L132.727 107.686Q132.625 107.456 132.498 107.314L132.498 107.314L132.498 107.314Q132.371 107.173 132.246 107.092L132.246 107.092L132.246 107.092Q132.122 107.012 132.014 106.98L132.014 106.98L132.014 106.98Q131.907 106.948 131.838 106.934L131.838 106.934L131.838 106.934Q131.765 106.934 131.665 106.943L131.665 106.943L131.665 106.943Q131.565 106.953 131.458 106.978L131.458 106.978L131.458 106.978Q131.35 107.002 131.24 107.043L131.24 107.043L131.24 107.043Q131.13 107.085 131.045 107.144L131.045 107.144L131.045 107.144Q130.959 107.202 130.908 107.283L130.908 107.283L130.908 107.283Q130.857 107.363 130.857 107.471L130.857 107.471L130.857 107.471Q130.857 107.588 130.95 107.668L130.95 107.668L130.95 107.668Q131.042 107.749 131.174 107.8L131.174 107.8L131.174 107.8Q131.306 107.852 131.443 107.871L131.443 107.871L131.443 107.871Q131.58 107.891 131.663 107.891L131.663 107.891L131.663 107.891Q131.799 107.891 131.931 107.876L131.931 107.876L131.931 107.876Q132.063 107.861 132.192 107.842L132.192 107.842L132.192 107.842Q132.322 107.822 132.449 107.808L132.449 107.808L132.449 107.808Q132.576 107.793 132.703 107.793L132.703 107.793L132.703 107.793Q132.712 107.793 132.737 107.793L132.737 107.793L132.737 107.793Q132.761 107.793 132.788 107.795L132.788 107.795L132.788 107.795Q132.815 107.798 132.837 107.798L132.837 107.798L132.837 107.798Q132.859 107.798 132.869 107.798L132.869 107.798L132.869 107.798Q132.908 107.813 132.913 107.842L132.913 107.842L132.913 107.842Q132.917 107.871 132.917 107.9L132.917 107.9L132.917 107.9Q132.917 107.93 132.856 107.964L132.856 107.964L132.856 107.964Q132.795 107.998 132.698 108.032L132.698 108.032L132.698 108.032Q132.6 108.066 132.48 108.103L132.48 108.103L132.48 108.103Q132.361 108.14 132.251 108.164L132.251 108.164L132.251 108.164Q132.141 108.188 132.046 108.206L132.046 108.206L132.046 108.206Q131.951 108.223 131.912 108.223L131.912 108.223L131.912 108.223Q131.707 108.223 131.477 108.188L131.477 108.188L131.477 108.188Q131.248 108.154 131.057 108.064L131.057 108.064L131.057 108.064Q130.867 107.974 130.742 107.813L130.742 107.813L130.742 107.813Q130.618 107.651 130.618 107.397ZM133.147 107.583L133.147 107.583L133.147 107.583Q133.147 107.275 133.254 107.065L133.254 107.065L133.254 107.065Q133.362 106.855 133.54 106.729L133.54 106.729L133.54 106.729Q133.718 106.602 133.955 106.543L133.955 106.543L133.955 106.543Q134.192 106.484 134.451 106.484L134.451 106.484L134.451 106.484Q134.661 106.484 134.858 106.553L134.858 106.553L134.858 106.553Q135.056 106.621 135.212 106.743L135.212 106.743L135.212 106.743Q135.369 106.865 135.461 107.041L135.461 107.041L135.461 107.041Q135.554 107.217 135.554 107.441L135.554 107.441L135.554 107.441Q135.554 107.637 135.481 107.761L135.481 107.761L135.481 107.761Q135.408 107.886 135.281 107.957L135.281 107.957L135.281 107.957Q135.154 108.027 135 108.057L135 108.057L135 108.057Q134.846 108.086 134.685 108.086L134.685 108.086L134.685 108.086Q134.529 108.086 134.365 108.071L134.365 108.071L134.365 108.071Q134.202 108.057 134.065 108.003L134.065 108.003L134.065 108.003Q133.928 107.949 133.84 107.842L133.84 107.842L133.84 107.842Q133.752 107.734 133.752 107.539L133.752 107.539L133.752 107.539Q133.855 107.539 133.95 107.581L133.95 107.581L133.95 107.581Q134.045 107.622 134.143 107.668L134.143 107.668L134.143 107.668Q134.241 107.715 134.338 107.754L134.338 107.754L134.338 107.754Q134.431 107.798 134.539 107.798L134.539 107.798L134.539 107.798Q134.617 107.798 134.746 107.783L134.746 107.783L134.746 107.783Q134.875 107.769 134.99 107.727L134.99 107.727L134.99 107.727Q135.105 107.686 135.188 107.612L135.188 107.612L135.188 107.612Q135.271 107.539 135.271 107.427L135.271 107.427L135.271 107.427Q135.271 107.261 135.198 107.139L135.198 107.139L135.198 107.139Q135.125 107.017 135.007 106.936L135.007 106.936L135.007 106.936Q134.89 106.855 134.744 106.812L134.744 106.812L134.744 106.812Q134.597 106.768 134.451 106.768L134.451 106.768L134.451 106.768Q134.431 106.768 134.355 106.777L134.355 106.777L134.355 106.777Q134.28 106.787 134.182 106.809L134.182 106.809L134.182 106.809Q134.084 106.831 133.977 106.863L133.977 106.863L133.977 106.863Q133.87 106.895 133.779 106.941L133.779 106.941L133.779 106.941Q133.689 106.987 133.63 107.046L133.63 107.046L133.63 107.046Q133.572 107.104 133.572 107.178L133.572 107.178L133.572 107.236L133.572 107.236Q133.577 107.29 133.584 107.38L133.584 107.38L133.584 107.38Q133.591 107.471 133.596 107.561L133.596 107.561L133.596 107.561Q133.601 107.651 133.611 107.72L133.611 107.72L133.611 107.72Q133.621 107.788 133.621 107.798L133.621 107.798L133.621 107.798Q133.63 107.876 133.655 108.04L133.655 108.04L133.655 108.04Q133.679 108.203 133.708 108.406L133.708 108.406L133.708 108.406Q133.738 108.608 133.774 108.833L133.774 108.833L133.774 108.833Q133.811 109.058 133.845 109.26L133.845 109.26L133.845 109.26Q133.879 109.463 133.906 109.624L133.906 109.624L133.906 109.624Q133.933 109.785 133.948 109.858L133.948 109.858L133.948 109.858Q133.948 109.868 133.95 109.875L133.95 109.875L133.95 109.875Q133.953 109.883 133.953 109.888L133.953 109.888L133.953 109.888Q133.953 109.893 133.953 109.893L133.953 109.893L133.948 109.902L133.948 109.912L133.948 109.912Q133.938 109.927 133.904 109.961L133.904 109.961L133.904 109.961Q133.865 109.99 133.855 110L133.855 110L133.826 110L133.826 110Q133.777 110 133.723 109.91L133.723 109.91L133.723 109.91Q133.669 109.819 133.613 109.666L133.613 109.666L133.613 109.666Q133.557 109.512 133.501 109.312L133.501 109.312L133.501 109.312Q133.445 109.111 133.391 108.896L133.391 108.896L133.391 108.896Q133.337 108.682 133.293 108.472L133.293 108.472L133.293 108.472Q133.25 108.262 133.215 108.081L133.215 108.081L133.215 108.081Q133.181 107.9 133.164 107.769L133.164 107.769L133.164 107.769Q133.147 107.637 133.147 107.583ZM135.75 106.914L135.75 106.914L135.75 106.914Q135.75 106.66 135.825 106.428L135.825 106.428L135.825 106.428Q135.901 106.196 136.045 106.021L136.045 106.021L136.045 106.021Q136.189 105.845 136.396 105.74L136.396 105.74L136.396 105.74Q136.604 105.635 136.877 105.635L136.877 105.635L136.877 105.635Q137.039 105.654 137.158 105.723L137.158 105.723L137.158 105.723Q137.278 105.791 137.354 105.891L137.354 105.891L137.354 105.891Q137.429 105.991 137.463 106.123L137.463 106.123L137.463 106.123Q137.493 106.25 137.493 106.396L137.493 106.396L137.493 106.396Q137.493 106.572 137.39 106.714L137.39 106.714L137.39 106.714Q137.288 106.855 137.131 106.951L137.131 106.951L137.131 106.951Q136.975 107.046 136.794 107.097L136.794 107.097L136.794 107.097Q136.614 107.148 136.458 107.148L136.458 107.148L136.458 107.148Q136.399 107.148 136.338 107.148L136.338 107.148L136.338 107.148Q136.277 107.148 136.228 107.129L136.228 107.129L136.228 107.129Q136.179 107.109 136.15 107.07L136.15 107.07L136.15 107.07Q136.121 107.031 136.121 106.953L136.121 106.953L136.121 106.953Q136.121 106.929 136.128 106.912L136.128 106.912L136.128 106.912Q136.135 106.895 136.169 106.887L136.169 106.887L136.169 106.887Q136.204 106.88 136.272 106.885L136.272 106.885L136.272 106.885Q136.34 106.895 136.458 106.914L136.458 106.914L136.458 106.914Q136.526 106.914 136.655 106.868L136.655 106.868L136.655 106.868Q136.785 106.821 136.919 106.748L136.919 106.748L136.919 106.748Q137.053 106.675 137.151 106.58L137.151 106.58L137.151 106.58Q137.249 106.484 137.249 106.392L137.249 106.392L137.249 106.392Q137.249 106.294 137.217 106.199L137.217 106.199L137.217 106.199Q137.185 106.104 137.122 106.03L137.122 106.03L137.122 106.03Q137.058 105.957 136.973 105.913L136.973 105.913L136.973 105.913Q136.887 105.869 136.78 105.879L136.78 105.879L136.78 105.879Q136.609 105.894 136.47 105.972L136.47 105.972L136.47 105.972Q136.331 106.05 136.233 106.174L136.233 106.174L136.233 106.174Q136.135 106.299 136.082 106.45L136.082 106.45L136.082 106.45Q136.028 106.602 136.028 106.768L136.028 106.768L136.028 106.768Q136.028 106.895 136.033 107.021L136.033 107.021L136.033 107.021Q136.038 107.148 136.069 107.271L136.069 107.271L136.069 107.271Q136.101 107.393 136.172 107.505L136.172 107.505L136.172 107.505Q136.243 107.617 136.377 107.703L136.377 107.703L136.377 107.703Q136.511 107.788 136.716 107.844L136.716 107.844L136.716 107.844Q136.921 107.9 137.224 107.915L137.224 107.915L138.098 107.856L138.098 107.856Q138.02 107.964 137.9 108.032L137.9 108.032L137.9 108.032Q137.781 108.101 137.646 108.142L137.646 108.142L137.646 108.142Q137.512 108.184 137.38 108.203L137.38 108.203L137.38 108.203Q137.249 108.223 137.131 108.223L137.131 108.223L137.131 108.223Q136.848 108.223 136.599 108.13L136.599 108.13L136.599 108.13Q136.35 108.037 136.16 107.869L136.16 107.869L136.16 107.869Q135.969 107.7 135.859 107.458L135.859 107.458L135.859 107.458Q135.75 107.217 135.75 106.914ZM138.772 108.223L138.772 108.223L138.772 108.223Q138.665 108.027 138.586 107.798L138.586 107.798L138.586 107.798Q138.508 107.568 138.455 107.334L138.455 107.334L138.455 107.334Q138.401 107.1 138.369 106.877L138.369 106.877L138.369 106.877Q138.337 106.655 138.328 106.475L138.328 106.475L138.328 106.475Q138.328 106.44 138.323 106.399L138.323 106.399L138.323 106.399Q138.318 106.357 138.32 106.313L138.32 106.313L138.32 106.313Q138.323 106.27 138.335 106.23L138.335 106.23L138.335 106.23Q138.347 106.191 138.376 106.162L138.376 106.162L138.386 106.162L138.386 106.162Q138.391 106.162 138.391 106.16L138.391 106.16L138.391 106.16Q138.391 106.157 138.396 106.157L138.396 106.157L138.396 106.157Q138.401 106.157 138.401 106.16L138.401 106.16L138.401 106.16Q138.401 106.162 138.411 106.162L138.411 106.162L138.42 106.162L138.42 106.162Q138.43 106.167 138.469 106.182L138.469 106.182L138.469 106.182Q138.508 106.196 138.518 106.206L138.518 106.206L138.518 106.206Q138.606 106.177 138.699 106.135L138.699 106.135L138.699 106.135Q138.792 106.094 138.887 106.057L138.887 106.057L138.887 106.057Q138.982 106.021 139.08 105.996L139.08 105.996L139.08 105.996Q139.177 105.972 139.27 105.972L139.27 105.972L139.27 105.972Q139.338 105.972 139.39 105.977L139.39 105.977L139.39 105.977Q139.441 105.981 139.492 105.994L139.492 105.994L139.492 105.994Q139.543 106.006 139.602 106.023L139.602 106.023L139.602 106.023Q139.661 106.04 139.739 106.064L139.739 106.064L139.739 106.064Q139.778 106.094 139.81 106.121L139.81 106.121L139.81 106.121Q139.841 106.147 139.868 106.182L139.868 106.182L139.868 106.182Q139.895 106.216 139.91 106.265L139.91 106.265L139.91 106.265Q139.924 106.313 139.924 106.392L139.924 106.392L139.924 106.392Q139.846 106.401 139.741 106.379L139.741 106.379L139.741 106.379Q139.636 106.357 139.521 106.323L139.521 106.323L139.521 106.323Q139.407 106.289 139.285 106.265L139.285 106.265L139.285 106.265Q139.163 106.24 139.05 106.245L139.05 106.245L139.05 106.245Q138.938 106.25 138.84 106.309L138.84 106.309L138.84 106.309Q138.738 106.357 138.66 106.484L138.66 106.484L138.66 106.484Q138.625 106.626 138.63 106.763L138.63 106.763L138.63 106.763Q138.635 106.899 138.665 107.029L138.665 107.029L138.665 107.029Q138.694 107.158 138.74 107.288L138.74 107.288L138.74 107.288Q138.787 107.417 138.828 107.546L138.828 107.546L138.828 107.546Q138.87 107.676 138.904 107.803L138.904 107.803L138.904 107.803Q138.938 107.93 138.948 108.062L138.948 108.062L138.948 108.062Q138.948 108.11 138.894 108.167L138.894 108.167L138.894 108.167Q138.84 108.223 138.772 108.223ZM140.046 107.983L140.046 107.983L140.046 107.983Q140.046 107.837 140.154 107.773L140.154 107.773L140.154 107.773Q140.271 107.705 140.417 107.705L140.417 107.705L140.417 107.705Q140.466 107.705 140.505 107.734L140.505 107.734L140.505 107.734Q140.544 107.764 140.574 107.805L140.574 107.805L140.574 107.805Q140.603 107.847 140.615 107.893L140.615 107.893L140.615 107.893Q140.627 107.939 140.627 107.983L140.627 107.983L140.627 107.983Q140.627 108.037 140.588 108.081L140.588 108.081L140.588 108.081Q140.549 108.125 140.496 108.159L140.496 108.159L140.496 108.159Q140.442 108.193 140.378 108.21L140.378 108.21L140.378 108.21Q140.315 108.228 140.271 108.228L140.271 108.228L140.271 108.228Q140.149 108.228 140.098 108.162L140.098 108.162L140.098 108.162Q140.046 108.096 140.046 107.983ZM140.198 106.885L140.198 106.885L140.198 106.885Q140.178 106.758 140.171 106.541L140.171 106.541L140.171 106.541Q140.164 106.323 140.161 106.062L140.161 106.062L140.161 106.062Q140.159 105.801 140.161 105.515L140.161 105.515L140.161 105.515Q140.164 105.229 140.164 104.968L140.164 104.968L140.164 104.968Q140.164 104.707 140.164 104.492L140.164 104.492L140.164 104.492Q140.164 104.268 140.154 104.141L140.154 104.141L140.393 104.102L140.398 104.189L140.398 104.189Q140.398 104.277 140.4 104.419L140.4 104.419L140.4 104.419Q140.403 104.561 140.405 104.746L140.405 104.746L140.405 104.746Q140.408 104.932 140.413 105.132L140.413 105.132L140.413 105.132Q140.417 105.332 140.417 105.535L140.417 105.535L140.417 105.535Q140.417 105.737 140.422 105.913L140.422 105.913L140.422 105.913Q140.427 106.089 140.43 106.223L140.43 106.223L140.43 106.223Q140.432 106.357 140.437 106.416L140.437 106.416L140.437 106.416Q140.437 106.426 140.437 106.453L140.437 106.453L140.437 106.453Q140.437 106.479 140.439 106.516L140.439 106.516L140.439 106.516Q140.442 106.553 140.442 106.587L140.442 106.587L140.442 106.587Q140.442 106.621 140.442 106.641L140.442 106.641L140.442 106.641Q140.442 106.68 140.444 106.731L140.444 106.731L140.444 106.731Q140.447 106.782 140.439 106.831L140.439 106.831L140.439 106.831Q140.432 106.88 140.408 106.912L140.408 106.912L140.408 106.912Q140.383 106.943 140.325 106.943L140.325 106.943L140.325 106.943Q140.291 106.943 140.251 106.938L140.251 106.938L140.251 106.938Q140.212 106.934 140.198 106.885ZM119.392 106.914L119.392 106.914L119.392 106.914Q119.392 106.66 119.468 106.428L119.468 106.428L119.468 106.428Q119.543 106.196 119.688 106.021L119.688 106.021L119.688 106.021Q119.832 105.845 120.039 105.74L120.039 105.74L120.039 105.74Q120.247 105.635 120.52 105.635L120.52 105.635L120.52 105.635Q120.681 105.654 120.801 105.723L120.801 105.723L120.801 105.723Q120.92 105.791 120.996 105.891L120.996 105.891L120.996 105.891Q121.072 105.991 121.106 106.123L121.106 106.123L121.106 106.123Q121.135 106.25 121.135 106.396L121.135 106.396L121.135 106.396Q121.135 106.572 121.033 106.714L121.033 106.714L121.033 106.714Q120.93 106.855 120.774 106.951L120.774 106.951L120.774 106.951Q120.618 107.046 120.437 107.097L120.437 107.097L120.437 107.097Q120.256 107.148 120.1 107.148L120.1 107.148L120.1 107.148Q120.042 107.148 119.98 107.148L119.98 107.148L119.98 107.148Q119.919 107.148 119.871 107.129L119.871 107.129L119.871 107.129Q119.822 107.109 119.792 107.07L119.792 107.07L119.792 107.07Q119.763 107.031 119.763 106.953L119.763 106.953L119.763 106.953Q119.763 106.929 119.771 106.912L119.771 106.912L119.771 106.912Q119.778 106.895 119.812 106.887L119.812 106.887L119.812 106.887Q119.846 106.88 119.915 106.885L119.915 106.885L119.915 106.885Q119.983 106.895 120.1 106.914L120.1 106.914L120.1 106.914Q120.168 106.914 120.298 106.868L120.298 106.868L120.298 106.868Q120.427 106.821 120.562 106.748L120.562 106.748L120.562 106.748Q120.696 106.675 120.793 106.58L120.793 106.58L120.793 106.58Q120.891 106.484 120.891 106.392L120.891 106.392L120.891 106.392Q120.891 106.294 120.859 106.199L120.859 106.199L120.859 106.199Q120.828 106.104 120.764 106.03L120.764 106.03L120.764 106.03Q120.701 105.957 120.615 105.913L120.615 105.913L120.615 105.913Q120.53 105.869 120.422 105.879L120.422 105.879L120.422 105.879Q120.251 105.894 120.112 105.972L120.112 105.972L120.112 105.972Q119.973 106.05 119.875 106.174L119.875 106.174L119.875 106.174Q119.778 106.299 119.724 106.45L119.724 106.45L119.724 106.45Q119.67 106.602 119.67 106.768L119.67 106.768L119.67 106.768Q119.67 106.895 119.675 107.021L119.675 107.021L119.675 107.021Q119.68 107.148 119.712 107.271L119.712 107.271L119.712 107.271Q119.744 107.393 119.814 107.505L119.814 107.505L119.814 107.505Q119.885 107.617 120.02 107.703L120.02 107.703L120.02 107.703Q120.154 107.788 120.359 107.844L120.359 107.844L120.359 107.844Q120.564 107.9 120.867 107.915L120.867 107.915L121.741 107.856L121.741 107.856Q121.663 107.964 121.543 108.032L121.543 108.032L121.543 108.032Q121.423 108.101 121.289 108.142L121.289 108.142L121.289 108.142Q121.155 108.184 121.023 108.203L121.023 108.203L121.023 108.203Q120.891 108.223 120.774 108.223L120.774 108.223L120.774 108.223Q120.491 108.223 120.242 108.13L120.242 108.13L120.242 108.13Q119.993 108.037 119.802 107.869L119.802 107.869L119.802 107.869Q119.612 107.7 119.502 107.458L119.502 107.458L119.502 107.458Q119.392 107.217 119.392 106.914ZM121.97 107.397L121.97 107.397L121.97 107.397Q121.975 107.314 122.019 107.207L122.019 107.207L122.019 107.207Q122.063 107.1 122.156 106.997L122.156 106.997L122.156 106.997Q122.249 106.895 122.39 106.814L122.39 106.814L122.39 106.814Q122.532 106.733 122.725 106.699L122.725 106.699L122.725 106.699Q122.917 106.665 123.164 106.694L123.164 106.694L123.164 106.694Q123.411 106.724 123.713 106.841L123.713 106.841L123.713 106.841Q123.713 106.836 123.713 106.792L123.713 106.792L123.708 106.748L123.708 106.748Q123.708 106.621 123.635 106.489L123.635 106.489L123.635 106.489Q123.562 106.357 123.447 106.252L123.447 106.252L123.447 106.252Q123.333 106.147 123.201 106.082L123.201 106.082L123.201 106.082Q123.069 106.016 122.947 106.016L122.947 106.016L122.947 106.016Q122.898 106.016 122.861 106.03L122.861 106.03L122.861 106.03Q122.825 106.045 122.791 106.067L122.791 106.067L122.791 106.067Q122.756 106.089 122.725 106.106L122.725 106.106L122.725 106.106Q122.693 106.123 122.649 106.123L122.649 106.123L122.649 106.123Q122.639 106.123 122.639 106.118L122.639 106.118L122.639 106.118Q122.634 106.113 122.629 106.108L122.629 106.108L122.629 106.108Q122.62 106.099 122.603 106.084L122.603 106.084L122.603 106.084Q122.585 106.069 122.585 106.064L122.585 106.064L122.585 106.064Q122.585 105.977 122.617 105.913L122.617 105.913L122.617 105.913Q122.649 105.85 122.705 105.811L122.705 105.811L122.705 105.811Q122.761 105.771 122.832 105.75L122.832 105.75L122.832 105.75Q122.903 105.728 122.981 105.728L122.981 105.728L122.981 105.728Q123.176 105.747 123.354 105.847L123.354 105.847L123.354 105.847Q123.533 105.947 123.682 106.099L123.682 106.099L123.682 106.099Q123.831 106.25 123.943 106.448L123.943 106.448L123.943 106.448Q124.055 106.646 124.131 106.858L124.131 106.858L124.131 106.858Q124.207 107.07 124.231 107.285L124.231 107.285L124.231 107.285Q124.26 107.51 124.236 107.705L124.236 107.705L124.236 107.705Q124.231 107.705 124.207 107.703L124.207 107.703L124.207 107.703Q124.182 107.7 124.153 107.698L124.153 107.698L124.153 107.698Q124.124 107.695 124.104 107.69L124.104 107.69L124.08 107.686L124.08 107.686Q123.977 107.456 123.85 107.314L123.85 107.314L123.85 107.314Q123.723 107.173 123.599 107.092L123.599 107.092L123.599 107.092Q123.474 107.012 123.367 106.98L123.367 106.98L123.367 106.98Q123.259 106.948 123.191 106.934L123.191 106.934L123.191 106.934Q123.118 106.934 123.018 106.943L123.018 106.943L123.018 106.943Q122.917 106.953 122.81 106.978L122.81 106.978L122.81 106.978Q122.703 107.002 122.593 107.043L122.593 107.043L122.593 107.043Q122.483 107.085 122.397 107.144L122.397 107.144L122.397 107.144Q122.312 107.202 122.261 107.283L122.261 107.283L122.261 107.283Q122.209 107.363 122.209 107.471L122.209 107.471L122.209 107.471Q122.209 107.588 122.302 107.668L122.302 107.668L122.302 107.668Q122.395 107.749 122.527 107.8L122.527 107.8L122.527 107.8Q122.659 107.852 122.795 107.871L122.795 107.871L122.795 107.871Q122.932 107.891 123.015 107.891L123.015 107.891L123.015 107.891Q123.152 107.891 123.284 107.876L123.284 107.876L123.284 107.876Q123.416 107.861 123.545 107.842L123.545 107.842L123.545 107.842Q123.674 107.822 123.801 107.808L123.801 107.808L123.801 107.808Q123.928 107.793 124.055 107.793L124.055 107.793L124.055 107.793Q124.065 107.793 124.089 107.793L124.089 107.793L124.089 107.793Q124.114 107.793 124.141 107.795L124.141 107.795L124.141 107.795Q124.167 107.798 124.189 107.798L124.189 107.798L124.189 107.798Q124.211 107.798 124.221 107.798L124.221 107.798L124.221 107.798Q124.26 107.813 124.265 107.842L124.265 107.842L124.265 107.842Q124.27 107.871 124.27 107.9L124.27 107.9L124.27 107.9Q124.27 107.93 124.209 107.964L124.209 107.964L124.209 107.964Q124.148 107.998 124.05 108.032L124.05 108.032L124.05 108.032Q123.953 108.066 123.833 108.103L123.833 108.103L123.833 108.103Q123.713 108.14 123.604 108.164L123.604 108.164L123.604 108.164Q123.494 108.188 123.398 108.206L123.398 108.206L123.398 108.206Q123.303 108.223 123.264 108.223L123.264 108.223L123.264 108.223Q123.059 108.223 122.83 108.188L122.83 108.188L122.83 108.188Q122.6 108.154 122.41 108.064L122.41 108.064L122.41 108.064Q122.219 107.974 122.095 107.813L122.095 107.813L122.095 107.813Q121.97 107.651 121.97 107.397ZM125.071 106.543L125.071 106.543L125.071 106.543Q125.032 106.543 124.934 106.543L124.934 106.543L124.934 106.543Q124.836 106.543 124.731 106.526L124.731 106.526L124.731 106.526Q124.626 106.509 124.541 106.47L124.541 106.47L124.541 106.47Q124.456 106.431 124.456 106.357L124.456 106.357L124.456 106.357Q124.456 106.338 124.463 106.301L124.463 106.301L124.463 106.301Q124.47 106.265 124.509 106.265L124.509 106.265L125.012 106.221L125.012 106.221Q125.032 106.04 125.042 105.925L125.042 105.925L125.042 105.925Q125.051 105.811 125.046 105.71L125.046 105.71L125.046 105.71Q125.042 105.61 125.034 105.5L125.034 105.5L125.034 105.5Q125.027 105.391 125.022 105.215L125.022 105.215L125.022 105.215Q125.022 105.181 125.037 105.161L125.037 105.161L125.037 105.161Q125.051 105.142 125.073 105.132L125.073 105.132L125.073 105.132Q125.095 105.122 125.122 105.117L125.122 105.117L125.122 105.117Q125.149 105.112 125.164 105.112L125.164 105.112L125.164 105.112Q125.193 105.112 125.225 105.132L125.225 105.132L125.225 105.132Q125.256 105.151 125.281 105.181L125.281 105.181L125.281 105.181Q125.305 105.21 125.32 105.242L125.32 105.242L125.32 105.242Q125.334 105.273 125.334 105.303L125.334 105.303L125.374 106.216L125.793 106.235L125.793 106.235Q125.876 106.226 125.947 106.267L125.947 106.267L125.947 106.267Q126.018 106.309 126.023 106.421L126.023 106.421L126.023 106.421Q125.964 106.484 125.881 106.497L125.881 106.497L125.881 106.497Q125.798 106.509 125.708 106.506L125.708 106.506L125.708 106.506Q125.618 106.504 125.53 106.506L125.53 106.506L125.53 106.506Q125.442 106.509 125.374 106.553L125.374 106.553L125.374 106.553Q125.374 106.582 125.378 106.714L125.378 106.714L125.378 106.714Q125.383 106.846 125.388 107.026L125.388 107.026L125.388 107.026Q125.393 107.207 125.4 107.412L125.4 107.412L125.4 107.412Q125.408 107.617 125.413 107.791L125.413 107.791L125.413 107.791Q125.417 107.964 125.42 108.086L125.42 108.086L125.42 108.086Q125.422 108.208 125.422 108.223L125.422 108.223L125.422 108.223Q125.31 108.291 125.242 108.21L125.242 108.21L125.242 108.21Q125.173 108.13 125.132 107.971L125.132 107.971L125.132 107.971Q125.09 107.813 125.073 107.6L125.073 107.6L125.073 107.6Q125.056 107.388 125.054 107.18L125.054 107.18L125.054 107.18Q125.051 106.973 125.056 106.797L125.056 106.797L125.056 106.797Q125.061 106.621 125.071 106.543ZM132.117 99.248L132.117 99.248L132.117 99.248Q132.078 99.248 131.98 99.248L131.98 99.248L131.98 99.248Q131.882 99.248 131.777 99.231L131.777 99.231L131.777 99.231Q131.672 99.214 131.587 99.175L131.587 99.175L131.587 99.175Q131.501 99.136 131.501 99.063L131.501 99.063L131.501 99.063Q131.501 99.043 131.509 99.006L131.509 99.006L131.509 99.006Q131.516 98.97 131.555 98.97L131.555 98.97L132.058 98.926L132.058 98.926Q132.078 98.745 132.087 98.63L132.087 98.63L132.087 98.63Q132.097 98.516 132.092 98.416L132.092 98.416L132.092 98.416Q132.087 98.315 132.08 98.206L132.08 98.206L132.08 98.206Q132.073 98.096 132.068 97.92L132.068 97.92L132.068 97.92Q132.068 97.886 132.083 97.866L132.083 97.866L132.083 97.866Q132.097 97.847 132.119 97.837L132.119 97.837L132.119 97.837Q132.141 97.827 132.168 97.822L132.168 97.822L132.168 97.822Q132.195 97.817 132.209 97.817L132.209 97.817L132.209 97.817Q132.239 97.817 132.271 97.837L132.271 97.837L132.271 97.837Q132.302 97.856 132.327 97.886L132.327 97.886L132.327 97.886Q132.351 97.915 132.366 97.947L132.366 97.947L132.366 97.947Q132.38 97.979 132.38 98.008L132.38 98.008L132.419 98.921L132.839 98.94L132.839 98.94Q132.922 98.931 132.993 98.972L132.993 98.972L132.993 98.972Q133.064 99.014 133.069 99.126L133.069 99.126L133.069 99.126Q133.01 99.189 132.927 99.202L132.927 99.202L132.927 99.202Q132.844 99.214 132.754 99.211L132.754 99.211L132.754 99.211Q132.664 99.209 132.576 99.211L132.576 99.211L132.576 99.211Q132.488 99.214 132.419 99.258L132.419 99.258L132.419 99.258Q132.419 99.287 132.424 99.419L132.424 99.419L132.424 99.419Q132.429 99.551 132.434 99.731L132.434 99.731L132.434 99.731Q132.439 99.912 132.446 100.117L132.446 100.117L132.446 100.117Q132.454 100.322 132.458 100.496L132.458 100.496L132.458 100.496Q132.463 100.669 132.466 100.791L132.466 100.791L132.466 100.791Q132.468 100.913 132.468 100.928L132.468 100.928L132.468 100.928Q132.356 100.996 132.288 100.916L132.288 100.916L132.288 100.916Q132.219 100.835 132.178 100.676L132.178 100.676L132.178 100.676Q132.136 100.518 132.119 100.305L132.119 100.305L132.119 100.305Q132.102 100.093 132.1 99.885L132.1 99.885L132.1 99.885Q132.097 99.678 132.102 99.502L132.102 99.502L132.102 99.502Q132.107 99.326 132.117 99.248ZM133.186 99.932L133.186 99.932L133.186 99.932Q133.186 99.663 133.303 99.463L133.303 99.463L133.303 99.463Q133.42 99.263 133.611 99.126L133.611 99.126L133.611 99.126Q133.801 98.989 134.038 98.923L134.038 98.923L134.038 98.923Q134.275 98.857 134.514 98.857L134.514 98.857L134.514 98.857Q134.641 98.857 134.751 98.904L134.751 98.904L134.751 98.904Q134.861 98.95 134.961 99.031L134.961 99.031L134.961 99.031Q135.061 99.111 135.139 99.216L135.139 99.216L135.139 99.216Q135.217 99.321 135.273 99.434L135.273 99.434L135.273 99.434Q135.33 99.546 135.359 99.661L135.359 99.661L135.359 99.661Q135.388 99.775 135.388 99.883L135.388 99.883L135.388 99.883Q135.388 100.132 135.291 100.327L135.291 100.327L135.291 100.327Q135.193 100.522 135.027 100.657L135.027 100.657L135.027 100.657Q134.861 100.791 134.651 100.862L134.651 100.862L134.651 100.862Q134.441 100.933 134.221 100.933L134.221 100.933L134.221 100.933Q133.997 100.933 133.809 100.862L133.809 100.862L133.809 100.862Q133.621 100.791 133.481 100.664L133.481 100.664L133.481 100.664Q133.342 100.537 133.264 100.349L133.264 100.349L133.264 100.349Q133.186 100.161 133.186 99.932ZM133.425 99.893L133.425 99.893L133.425 99.893Q133.425 100.044 133.481 100.183L133.481 100.183L133.481 100.183Q133.538 100.322 133.638 100.425L133.638 100.425L133.638 100.425Q133.738 100.527 133.875 100.588L133.875 100.588L133.875 100.588Q134.011 100.649 134.167 100.649L134.167 100.649L134.167 100.649Q134.25 100.659 134.37 100.623L134.37 100.623L134.37 100.623Q134.49 100.586 134.609 100.515L134.609 100.515L134.609 100.515Q134.729 100.444 134.839 100.344L134.839 100.344L134.839 100.344Q134.949 100.244 135.022 100.125L135.022 100.125L135.022 100.125Q135.095 100.005 135.112 99.875L135.112 99.875L135.112 99.875Q135.129 99.746 135.068 99.617L135.068 99.617L135.068 99.617Q135.007 99.487 134.846 99.368L134.846 99.368L134.846 99.368Q134.685 99.248 134.402 99.146L134.402 99.146L134.402 99.146Q134.241 99.146 134.067 99.192L134.067 99.192L134.067 99.192Q133.894 99.238 133.752 99.331L133.752 99.331L133.752 99.331Q133.611 99.424 133.518 99.565L133.518 99.565L133.518 99.565Q133.425 99.707 133.425 99.893ZM122.214 100.889L122.214 100.889L122.214 100.889Q122.166 100.542 122.153 100.198L122.153 100.198L122.153 100.198Q122.141 99.854 122.141 99.507L122.141 99.507L122.141 99.507Q122.141 99.16 122.151 98.818L122.151 98.818L122.151 98.818Q122.161 98.477 122.156 98.135L122.156 98.135L122.156 98.135Q122.156 98.096 122.185 98.081L122.185 98.081L122.185 98.081Q122.214 98.066 122.253 98.066L122.253 98.066L122.253 98.066Q122.297 98.066 122.332 98.098L122.332 98.098L122.332 98.098Q122.366 98.13 122.39 98.176L122.39 98.176L122.39 98.176Q122.415 98.223 122.427 98.269L122.427 98.269L122.427 98.269Q122.439 98.315 122.439 98.345L122.439 98.345L122.439 98.345Q122.468 99.043 122.478 99.509L122.478 99.509L122.478 99.509Q122.488 99.976 122.478 100.261L122.478 100.261L122.478 100.261Q122.468 100.547 122.446 100.684L122.446 100.684L122.446 100.684Q122.424 100.82 122.39 100.869L122.39 100.869L122.39 100.869Q122.356 100.918 122.31 100.908L122.31 100.908L122.31 100.908Q122.263 100.898 122.214 100.889ZM122.708 99.932L122.708 99.932L122.708 99.932Q122.708 99.663 122.825 99.463L122.825 99.463L122.825 99.463Q122.942 99.263 123.132 99.126L123.132 99.126L123.132 99.126Q123.323 98.989 123.56 98.923L123.56 98.923L123.56 98.923Q123.796 98.857 124.036 98.857L124.036 98.857L124.036 98.857Q124.163 98.857 124.272 98.904L124.272 98.904L124.272 98.904Q124.382 98.95 124.482 99.031L124.482 99.031L124.482 99.031Q124.583 99.111 124.661 99.216L124.661 99.216L124.661 99.216Q124.739 99.321 124.795 99.434L124.795 99.434L124.795 99.434Q124.851 99.546 124.88 99.661L124.88 99.661L124.88 99.661Q124.91 99.775 124.91 99.883L124.91 99.883L124.91 99.883Q124.91 100.132 124.812 100.327L124.812 100.327L124.812 100.327Q124.714 100.522 124.548 100.657L124.548 100.657L124.548 100.657Q124.382 100.791 124.172 100.862L124.172 100.862L124.172 100.862Q123.962 100.933 123.743 100.933L123.743 100.933L123.743 100.933Q123.518 100.933 123.33 100.862L123.33 100.862L123.33 100.862Q123.142 100.791 123.003 100.664L123.003 100.664L123.003 100.664Q122.864 100.537 122.786 100.349L122.786 100.349L122.786 100.349Q122.708 100.161 122.708 99.932ZM122.947 99.893L122.947 99.893L122.947 99.893Q122.947 100.044 123.003 100.183L123.003 100.183L123.003 100.183Q123.059 100.322 123.159 100.425L123.159 100.425L123.159 100.425Q123.259 100.527 123.396 100.588L123.396 100.588L123.396 100.588Q123.533 100.649 123.689 100.649L123.689 100.649L123.689 100.649Q123.772 100.659 123.892 100.623L123.892 100.623L123.892 100.623Q124.011 100.586 124.131 100.515L124.131 100.515L124.131 100.515Q124.25 100.444 124.36 100.344L124.36 100.344L124.36 100.344Q124.47 100.244 124.543 100.125L124.543 100.125L124.543 100.125Q124.617 100.005 124.634 99.875L124.634 99.875L124.634 99.875Q124.651 99.746 124.59 99.617L124.59 99.617L124.59 99.617Q124.529 99.487 124.368 99.368L124.368 99.368L124.368 99.368Q124.207 99.248 123.923 99.146L123.923 99.146L123.923 99.146Q123.762 99.146 123.589 99.192L123.589 99.192L123.589 99.192Q123.416 99.238 123.274 99.331L123.274 99.331L123.274 99.331Q123.132 99.424 123.04 99.565L123.04 99.565L123.04 99.565Q122.947 99.707 122.947 99.893ZM125.1 99.189L125.1 99.189L125.1 99.189Q125.105 99.175 125.115 99.153L125.115 99.153L125.115 99.153Q125.125 99.131 125.142 99.106L125.142 99.106L125.142 99.106Q125.159 99.082 125.176 99.065L125.176 99.065L125.176 99.065Q125.193 99.048 125.217 99.048L125.217 99.048L125.217 99.048Q125.222 99.048 125.222 99.05L125.222 99.05L125.222 99.05Q125.222 99.053 125.232 99.053L125.232 99.053L125.242 99.053L125.242 99.053Q125.354 99.106 125.427 99.207L125.427 99.207L125.427 99.207Q125.5 99.307 125.557 99.434L125.557 99.434L125.557 99.434Q125.613 99.561 125.662 99.705L125.662 99.705L125.662 99.705Q125.71 99.849 125.771 99.988L125.771 99.988L125.771 99.988Q125.833 100.127 125.916 100.259L125.916 100.259L125.916 100.259Q125.999 100.391 126.125 100.493L126.125 100.493L126.125 100.493Q126.169 100.347 126.213 100.208L126.213 100.208L126.213 100.208Q126.257 100.068 126.313 99.927L126.313 99.927L126.313 99.927Q126.37 99.785 126.445 99.634L126.445 99.634L126.445 99.634Q126.521 99.482 126.619 99.307L126.619 99.307L126.619 99.307Q126.736 99.258 126.807 99.248L126.807 99.248L126.807 99.248Q126.877 99.238 126.907 99.265L126.907 99.265L126.907 99.265Q126.936 99.292 126.917 99.346L126.917 99.346L126.917 99.346Q126.897 99.399 126.833 99.473L126.833 99.473L126.833 99.473Q126.794 99.507 126.743 99.629L126.743 99.629L126.743 99.629Q126.692 99.751 126.633 99.917L126.633 99.917L126.633 99.917Q126.575 100.083 126.509 100.264L126.509 100.264L126.509 100.264Q126.443 100.444 126.375 100.593L126.375 100.593L126.375 100.593Q126.306 100.742 126.24 100.84L126.24 100.84L126.24 100.84Q126.174 100.938 126.111 100.933L126.111 100.933L126.111 100.933Q126.042 100.933 125.957 100.828L125.957 100.828L125.957 100.828Q125.872 100.723 125.774 100.557L125.774 100.557L125.774 100.557Q125.676 100.391 125.579 100.193L125.579 100.193L125.579 100.193Q125.481 99.995 125.391 99.8L125.391 99.8L125.391 99.8Q125.3 99.604 125.225 99.441L125.225 99.441L125.225 99.441Q125.149 99.277 125.1 99.189ZM127.092 99.619L127.092 99.619L127.092 99.619Q127.092 99.365 127.168 99.133L127.168 99.133L127.168 99.133Q127.244 98.901 127.388 98.726L127.388 98.726L127.388 98.726Q127.532 98.55 127.739 98.445L127.739 98.445L127.739 98.445Q127.947 98.34 128.22 98.34L128.22 98.34L128.22 98.34Q128.381 98.359 128.501 98.428L128.501 98.428L128.501 98.428Q128.621 98.496 128.696 98.596L128.696 98.596L128.696 98.596Q128.772 98.696 128.806 98.828L128.806 98.828L128.806 98.828Q128.835 98.955 128.835 99.102L128.835 99.102L128.835 99.102Q128.835 99.277 128.733 99.419L128.733 99.419L128.733 99.419Q128.63 99.561 128.474 99.656L128.474 99.656L128.474 99.656Q128.318 99.751 128.137 99.802L128.137 99.802L128.137 99.802Q127.957 99.854 127.8 99.854L127.8 99.854L127.8 99.854Q127.742 99.854 127.681 99.854L127.681 99.854L127.681 99.854Q127.62 99.854 127.571 99.834L127.571 99.834L127.571 99.834Q127.522 99.814 127.493 99.775L127.493 99.775L127.493 99.775Q127.463 99.736 127.463 99.658L127.463 99.658L127.463 99.658Q127.463 99.634 127.471 99.617L127.471 99.617L127.471 99.617Q127.478 99.6 127.512 99.592L127.512 99.592L127.512 99.592Q127.546 99.585 127.615 99.59L127.615 99.59L127.615 99.59Q127.683 99.6 127.8 99.619L127.8 99.619L127.8 99.619Q127.869 99.619 127.998 99.573L127.998 99.573L127.998 99.573Q128.127 99.526 128.262 99.453L128.262 99.453L128.262 99.453Q128.396 99.38 128.494 99.285L128.494 99.285L128.494 99.285Q128.591 99.189 128.591 99.097L128.591 99.097L128.591 99.097Q128.591 98.999 128.56 98.904L128.56 98.904L128.56 98.904Q128.528 98.809 128.464 98.735L128.464 98.735L128.464 98.735Q128.401 98.662 128.315 98.618L128.315 98.618L128.315 98.618Q128.23 98.574 128.123 98.584L128.123 98.584L128.123 98.584Q127.952 98.599 127.813 98.677L127.813 98.677L127.813 98.677Q127.673 98.755 127.576 98.879L127.576 98.879L127.576 98.879Q127.478 99.004 127.424 99.155L127.424 99.155L127.424 99.155Q127.371 99.307 127.371 99.473L127.371 99.473L127.371 99.473Q127.371 99.6 127.375 99.727L127.375 99.727L127.375 99.727Q127.38 99.854 127.412 99.976L127.412 99.976L127.412 99.976Q127.444 100.098 127.515 100.21L127.515 100.21L127.515 100.21Q127.585 100.322 127.72 100.408L127.72 100.408L127.72 100.408Q127.854 100.493 128.059 100.549L128.059 100.549L128.059 100.549Q128.264 100.605 128.567 100.62L128.567 100.62L129.441 100.562L129.441 100.562Q129.363 100.669 129.243 100.737L129.243 100.737L129.243 100.737Q129.124 100.806 128.989 100.847L128.989 100.847L128.989 100.847Q128.855 100.889 128.723 100.908L128.723 100.908L128.723 100.908Q128.591 100.928 128.474 100.928L128.474 100.928L128.474 100.928Q128.191 100.928 127.942 100.835L127.942 100.835L127.942 100.835Q127.693 100.742 127.502 100.574L127.502 100.574L127.502 100.574Q127.312 100.405 127.202 100.164L127.202 100.164L127.202 100.164Q127.092 99.922 127.092 99.619ZM119.768 100.742L119.768 100.742L119.768 100.742Q119.744 100.562 119.722 100.364L119.722 100.364L119.722 100.364Q119.7 100.166 119.68 99.966L119.68 99.966L119.68 99.966Q119.661 99.766 119.636 99.57L119.636 99.57L119.636 99.57Q119.612 99.365 119.583 99.189L119.583 99.189L119.583 99.189Q119.568 99.116 119.531 98.994L119.531 98.994L119.531 98.994Q119.495 98.872 119.46 98.733L119.46 98.733L119.46 98.733Q119.426 98.594 119.399 98.452L119.399 98.452L119.399 98.452Q119.373 98.311 119.373 98.193L119.373 98.193L119.373 98.193Q119.431 98.115 119.49 98.164L119.49 98.164L119.49 98.164Q119.548 98.213 119.607 98.347L119.607 98.347L119.607 98.347Q119.666 98.481 119.722 98.689L119.722 98.689L119.722 98.689Q119.778 98.896 119.824 99.131L119.824 99.131L119.824 99.131Q119.871 99.365 119.912 99.614L119.912 99.614L119.912 99.614Q119.954 99.863 119.983 100.083L119.983 100.083L119.983 100.083Q120.012 100.303 120.032 100.474L120.032 100.474L120.032 100.474Q120.051 100.645 120.051 100.732L120.051 100.732L120.051 100.732Q120.051 100.762 120.051 100.791L120.051 100.791L120.051 100.791Q120.051 100.82 120.046 100.847L120.046 100.847L120.046 100.847Q120.042 100.874 120.02 100.896L120.02 100.896L120.02 100.896Q119.998 100.918 119.954 100.928L119.954 100.928L119.954 100.928Q119.924 100.938 119.895 100.911L119.895 100.911L119.895 100.911Q119.866 100.884 119.836 100.85L119.836 100.85L119.836 100.85Q119.807 100.815 119.79 100.784L119.79 100.784L119.79 100.784Q119.773 100.752 119.768 100.742Z" fill="#000"/></svg>