<?xml version="1.0" standalone="no"?><!-- Generator: Gravit.io --><svg xmlns="http://www.w3.org/2000/svg" xmlns:xlink="http://www.w3.org/1999/xlink" style="isolation:isolate" viewBox="0 0 210 190" width="210" height="190"><defs><clipPath id="_clipPath_syyqy9KFMqgbSvSJLzYIHMpyxkcmWghU"><rect width="210" height="190"/></clipPath></defs><g clip-path="url(#_clipPath_syyqy9KFMqgbSvSJLzYIHMpyxkcmWghU)"><path d=" M 195 115 L 205 135 L 185 145 L 175 125" fill="rgb(176,140,92)" vector-effect="non-scaling-stroke" stroke-width="10" stroke="rgb(145,111,68)" stroke-opacity="100000000" stroke-linejoin="round" stroke-linecap="round" stroke-miterlimit="3"/><path d=" M 55 155 L 55 185 L 85 185 L 85 175 L 125 175 L 125 185 L 155 185 L 155 155" fill="rgb(112,121,187)" vector-effect="non-scaling-stroke" stroke-width="10" stroke="rgb(80,88,153)" stroke-opacity="100000000" stroke-linejoin="round" stroke-linecap="round" stroke-miterlimit="3"/><path d=" M 15 115 L 5 135 L 25 145 L 35 125" fill="rgb(176,140,92)" vector-effect="non-scaling-stroke" stroke-width="10" stroke="rgb(145,111,68)" stroke-opacity="100000000" stroke-linejoin="round" stroke-linecap="round" stroke-miterlimit="3"/><path d=" M 35 65 L 65 45 L 145 45 L 175 65 L 195 115 L 175 125 L 155 155 L 55 155 L 35 125 L 15 115 L 35 65 L 35 65 L 35 65 Z " fill="rgb(168,160,53)" vector-effect="non-scaling-stroke" stroke-width="10" stroke="rgb(138,131,25)" stroke-opacity="100000000" stroke-linejoin="round" stroke-linecap="round" stroke-miterlimit="3"/><line x1="155" y1="185" x2="125" y2="185" vector-effect="non-scaling-stroke" stroke-width="10" stroke="rgb(108,108,108)" stroke-opacity="100000000" stroke-linejoin="round" stroke-linecap="round" stroke-miterlimit="3"/><line x1="55" y1="185" x2="85" y2="185" vector-effect="non-scaling-stroke" stroke-width="10" stroke="rgb(108,108,108)" stroke-opacity="100000000" stroke-linejoin="round" stroke-linecap="round" stroke-miterlimit="3"/><path d=" M 85 50 L 85 16.25 L 105 5 L 125 16.25 L 125 50 L 85 50 L 85 50 L 85 50 Z " fill="rgb(159,98,18)" vector-effect="non-scaling-stroke" stroke-width="10" stroke="rgb(159,98,18)" stroke-opacity="100000000" stroke-linejoin="round" stroke-linecap="round" stroke-miterlimit="3"/><rect x="120" y="90" width="20" height="20" transform="matrix(1,0,0,1,0,0)" fill="rgb(219,219,165)" vector-effect="non-scaling-stroke" stroke-width="10" stroke="rgb(219,219,165)" stroke-linejoin="round" stroke-linecap="round" stroke-miterlimit="2"/><line x1="120" y1="90" x2="140" y2="90" vector-effect="non-scaling-stroke" stroke-width="10" stroke="rgb(191,191,128)" stroke-linejoin="round" stroke-linecap="round" stroke-miterlimit="3"/><path d=" M 128.015 107.583 L 128.015 107.583 L 128.015 107.583 Q 128.015 107.275 128.123 107.065 L 128.123 107.065 L 128.123 107.065 Q 128.23 106.855 128.408 106.729 L 128.408 106.729 L 128.408 106.729 Q 128.586 106.602 128.823 106.543 L 128.823 106.543 L 128.823 106.543 Q 129.06 106.484 129.319 106.484 L 129.319 106.484 L 129.319 106.484 Q 129.529 106.484 129.727 106.553 L 129.727 106.553 L 129.727 106.553 Q 129.924 106.621 130.081 106.743 L 130.081 106.743 L 130.081 106.743 Q 130.237 106.865 130.33 107.041 L 130.33 107.041 L 130.33 107.041 Q 130.422 107.217 130.422 107.441 L 130.422 107.441 L 130.422 107.441 Q 130.422 107.637 130.349 107.761 L 130.349 107.761 L 130.349 107.761 Q 130.276 107.886 130.149 107.957 L 130.149 107.957 L 130.149 107.957 Q 130.022 108.027 129.868 108.057 L 129.868 108.057 L 129.868 108.057 Q 129.714 108.086 129.553 108.086 L 129.553 108.086 L 129.553 108.086 Q 129.397 108.086 129.233 108.071 L 129.233 108.071 L 129.233 108.071 Q 129.07 108.057 128.933 108.003 L 128.933 108.003 L 128.933 108.003 Q 128.796 107.949 128.708 107.842 L 128.708 107.842 L 128.708 107.842 Q 128.621 107.734 128.621 107.539 L 128.621 107.539 L 128.621 107.539 Q 128.723 107.539 128.818 107.581 L 128.818 107.581 L 128.818 107.581 Q 128.914 107.622 129.011 107.668 L 129.011 107.668 L 129.011 107.668 Q 129.109 107.715 129.207 107.754 L 129.207 107.754 L 129.207 107.754 Q 129.299 107.798 129.407 107.798 L 129.407 107.798 L 129.407 107.798 Q 129.485 107.798 129.614 107.783 L 129.614 107.783 L 129.614 107.783 Q 129.744 107.769 129.858 107.727 L 129.858 107.727 L 129.858 107.727 Q 129.973 107.686 130.056 107.612 L 130.056 107.612 L 130.056 107.612 Q 130.139 107.539 130.139 107.427 L 130.139 107.427 L 130.139 107.427 Q 130.139 107.261 130.066 107.139 L 130.066 107.139 L 130.066 107.139 Q 129.993 107.017 129.875 106.936 L 129.875 106.936 L 129.875 106.936 Q 129.758 106.855 129.612 106.812 L 129.612 106.812 L 129.612 106.812 Q 129.465 106.768 129.319 106.768 L 129.319 106.768 L 129.319 106.768 Q 129.299 106.768 129.224 106.777 L 129.224 106.777 L 129.224 106.777 Q 129.148 106.787 129.05 106.809 L 129.05 106.809 L 129.05 106.809 Q 128.953 106.831 128.845 106.863 L 128.845 106.863 L 128.845 106.863 Q 128.738 106.895 128.647 106.941 L 128.647 106.941 L 128.647 106.941 Q 128.557 106.987 128.499 107.046 L 128.499 107.046 L 128.499 107.046 Q 128.44 107.104 128.44 107.178 L 128.44 107.178 L 128.44 107.236 L 128.44 107.236 Q 128.445 107.29 128.452 107.38 L 128.452 107.38 L 128.452 107.38 Q 128.459 107.471 128.464 107.561 L 128.464 107.561 L 128.464 107.561 Q 128.469 107.651 128.479 107.72 L 128.479 107.72 L 128.479 107.72 Q 128.489 107.788 128.489 107.798 L 128.489 107.798 L 128.489 107.798 Q 128.499 107.876 128.523 108.04 L 128.523 108.04 L 128.523 108.04 Q 128.547 108.203 128.577 108.406 L 128.577 108.406 L 128.577 108.406 Q 128.606 108.608 128.643 108.833 L 128.643 108.833 L 128.643 108.833 Q 128.679 109.058 128.713 109.26 L 128.713 109.26 L 128.713 109.26 Q 128.748 109.463 128.774 109.624 L 128.774 109.624 L 128.774 109.624 Q 128.801 109.785 128.816 109.858 L 128.816 109.858 L 128.816 109.858 Q 128.816 109.868 128.818 109.875 L 128.818 109.875 L 128.818 109.875 Q 128.821 109.883 128.821 109.888 L 128.821 109.888 L 128.821 109.888 Q 128.821 109.893 128.821 109.893 L 128.821 109.893 L 128.816 109.902 L 128.816 109.912 L 128.816 109.912 Q 128.806 109.927 128.772 109.961 L 128.772 109.961 L 128.772 109.961 Q 128.733 109.99 128.723 110 L 128.723 110 L 128.694 110 L 128.694 110 Q 128.645 110 128.591 109.91 L 128.591 109.91 L 128.591 109.91 Q 128.538 109.819 128.481 109.666 L 128.481 109.666 L 128.481 109.666 Q 128.425 109.512 128.369 109.312 L 128.369 109.312 L 128.369 109.312 Q 128.313 109.111 128.259 108.896 L 128.259 108.896 L 128.259 108.896 Q 128.206 108.682 128.162 108.472 L 128.162 108.472 L 128.162 108.472 Q 128.118 108.262 128.083 108.081 L 128.083 108.081 L 128.083 108.081 Q 128.049 107.9 128.032 107.769 L 128.032 107.769 L 128.032 107.769 Q 128.015 107.637 128.015 107.583 Z  M 130.618 107.397 L 130.618 107.397 L 130.618 107.397 Q 130.623 107.314 130.667 107.207 L 130.667 107.207 L 130.667 107.207 Q 130.71 107.1 130.803 106.997 L 130.803 106.997 L 130.803 106.997 Q 130.896 106.895 131.038 106.814 L 131.038 106.814 L 131.038 106.814 Q 131.179 106.733 131.372 106.699 L 131.372 106.699 L 131.372 106.699 Q 131.565 106.665 131.812 106.694 L 131.812 106.694 L 131.812 106.694 Q 132.058 106.724 132.361 106.841 L 132.361 106.841 L 132.361 106.841 Q 132.361 106.836 132.361 106.792 L 132.361 106.792 L 132.356 106.748 L 132.356 106.748 Q 132.356 106.621 132.283 106.489 L 132.283 106.489 L 132.283 106.489 Q 132.209 106.357 132.095 106.252 L 132.095 106.252 L 132.095 106.252 Q 131.98 106.147 131.848 106.082 L 131.848 106.082 L 131.848 106.082 Q 131.716 106.016 131.594 106.016 L 131.594 106.016 L 131.594 106.016 Q 131.545 106.016 131.509 106.03 L 131.509 106.03 L 131.509 106.03 Q 131.472 106.045 131.438 106.067 L 131.438 106.067 L 131.438 106.067 Q 131.404 106.089 131.372 106.106 L 131.372 106.106 L 131.372 106.106 Q 131.34 106.123 131.296 106.123 L 131.296 106.123 L 131.296 106.123 Q 131.287 106.123 131.287 106.118 L 131.287 106.118 L 131.287 106.118 Q 131.282 106.113 131.277 106.108 L 131.277 106.108 L 131.277 106.108 Q 131.267 106.099 131.25 106.084 L 131.25 106.084 L 131.25 106.084 Q 131.233 106.069 131.233 106.064 L 131.233 106.064 L 131.233 106.064 Q 131.233 105.977 131.265 105.913 L 131.265 105.913 L 131.265 105.913 Q 131.296 105.85 131.353 105.811 L 131.353 105.811 L 131.353 105.811 Q 131.409 105.771 131.479 105.75 L 131.479 105.75 L 131.479 105.75 Q 131.55 105.728 131.628 105.728 L 131.628 105.728 L 131.628 105.728 Q 131.824 105.747 132.002 105.847 L 132.002 105.847 L 132.002 105.847 Q 132.18 105.947 132.329 106.099 L 132.329 106.099 L 132.329 106.099 Q 132.478 106.25 132.59 106.448 L 132.59 106.448 L 132.59 106.448 Q 132.703 106.646 132.778 106.858 L 132.778 106.858 L 132.778 106.858 Q 132.854 107.07 132.878 107.285 L 132.878 107.285 L 132.878 107.285 Q 132.908 107.51 132.883 107.705 L 132.883 107.705 L 132.883 107.705 Q 132.878 107.705 132.854 107.703 L 132.854 107.703 L 132.854 107.703 Q 132.83 107.7 132.8 107.698 L 132.8 107.698 L 132.8 107.698 Q 132.771 107.695 132.751 107.69 L 132.751 107.69 L 132.727 107.686 L 132.727 107.686 Q 132.625 107.456 132.498 107.314 L 132.498 107.314 L 132.498 107.314 Q 132.371 107.173 132.246 107.092 L 132.246 107.092 L 132.246 107.092 Q 132.122 107.012 132.014 106.98 L 132.014 106.98 L 132.014 106.98 Q 131.907 106.948 131.838 106.934 L 131.838 106.934 L 131.838 106.934 Q 131.765 106.934 131.665 106.943 L 131.665 106.943 L 131.665 106.943 Q 131.565 106.953 131.458 106.978 L 131.458 106.978 L 131.458 106.978 Q 131.35 107.002 131.24 107.043 L 131.24 107.043 L 131.24 107.043 Q 131.13 107.085 131.045 107.144 L 131.045 107.144 L 131.045 107.144 Q 130.959 107.202 130.908 107.283 L 130.908 107.283 L 130.908 107.283 Q 130.857 107.363 130.857 107.471 L 130.857 107.471 L 130.857 107.471 Q 130.857 107.588 130.95 107.668 L 130.95 107.668 L 130.95 107.668 Q 131.042 107.749 131.174 107.8 L 131.174 107.8 L 131.174 107.8 Q 131.306 107.852 131.443 107.871 L 131.443 107.871 L 131.443 107.871 Q 131.58 107.891 131.663 107.891 L 131.663 107.891 L 131.663 107.891 Q 131.799 107.891 131.931 107.876 L 131.931 107.876 L 131.931 107.876 Q 132.063 107.861 132.192 107.842 L 132.192 107.842 L 132.192 107.842 Q 132.322 107.822 132.449 107.808 L 132.449 107.808 L 132.449 107.808 Q 132.576 107.793 132.703 107.793 L 132.703 107.793 L 132.703 107.793 Q 132.712 107.793 132.737 107.793 L 132.737 107.793 L 132.737 107.793 Q 132.761 107.793 132.788 107.795 L 132.788 107.795 L 132.788 107.795 Q 132.815 107.798 132.837 107.798 L 132.837 107.798 L 132.837 107.798 Q 132.859 107.798 132.869 107.798 L 132.869 107.798 L 132.869 107.798 Q 132.908 107.813 132.913 107.842 L 132.913 107.842 L 132.913 107.842 Q 132.917 107.871 132.917 107.9 L 132.917 107.9 L 132.917 107.9 Q 132.917 107.93 132.856 107.964 L 132.856 107.964 L 132.856 107.964 Q 132.795 107.998 132.698 108.032 L 132.698 108.032 L 132.698 108.032 Q 132.6 108.066 132.48 108.103 L 132.48 108.103 L 132.48 108.103 Q 132.361 108.14 132.251 108.164 L 132.251 108.164 L 132.251 108.164 Q 132.141 108.188 132.046 108.206 L 132.046 108.206 L 132.046 108.206 Q 131.951 108.223 131.912 108.223 L 131.912 108.223 L 131.912 108.223 Q 131.707 108.223 131.477 108.188 L 131.477 108.188 L 131.477 108.188 Q 131.248 108.154 131.057 108.064 L 131.057 108.064 L 131.057 108.064 Q 130.867 107.974 130.742 107.813 L 130.742 107.813 L 130.742 107.813 Q 130.618 107.651 130.618 107.397 Z  M 133.147 107.583 L 133.147 107.583 L 133.147 107.583 Q 133.147 107.275 133.254 107.065 L 133.254 107.065 L 133.254 107.065 Q 133.362 106.855 133.54 106.729 L 133.54 106.729 L 133.54 106.729 Q 133.718 106.602 133.955 106.543 L 133.955 106.543 L 133.955 106.543 Q 134.192 106.484 134.451 106.484 L 134.451 106.484 L 134.451 106.484 Q 134.661 106.484 134.858 106.553 L 134.858 106.553 L 134.858 106.553 Q 135.056 106.621 135.212 106.743 L 135.212 106.743 L 135.212 106.743 Q 135.369 106.865 135.461 107.041 L 135.461 107.041 L 135.461 107.041 Q 135.554 107.217 135.554 107.441 L 135.554 107.441 L 135.554 107.441 Q 135.554 107.637 135.481 107.761 L 135.481 107.761 L 135.481 107.761 Q 135.408 107.886 135.281 107.957 L 135.281 107.957 L 135.281 107.957 Q 135.154 108.027 135 108.057 L 135 108.057 L 135 108.057 Q 134.846 108.086 134.685 108.086 L 134.685 108.086 L 134.685 108.086 Q 134.529 108.086 134.365 108.071 L 134.365 108.071 L 134.365 108.071 Q 134.202 108.057 134.065 108.003 L 134.065 108.003 L 134.065 108.003 Q 133.928 107.949 133.84 107.842 L 133.84 107.842 L 133.84 107.842 Q 133.752 107.734 133.752 107.539 L 133.752 107.539 L 133.752 107.539 Q 133.855 107.539 133.95 107.581 L 133.95 107.581 L 133.95 107.581 Q 134.045 107.622 134.143 107.668 L 134.143 107.668 L 134.143 107.668 Q 134.241 107.715 134.338 107.754 L 134.338 107.754 L 134.338 107.754 Q 134.431 107.798 134.539 107.798 L 134.539 107.798 L 134.539 107.798 Q 134.617 107.798 134.746 107.783 L 134.746 107.783 L 134.746 107.783 Q 134.875 107.769 134.99 107.727 L 134.99 107.727 L 134.99 107.727 Q 135.105 107.686 135.188 107.612 L 135.188 107.612 L 135.188 107.612 Q 135.271 107.539 135.271 107.427 L 135.271 107.427 L 135.271 107.427 Q 135.271 107.261 135.198 107.139 L 135.198 107.139 L 135.198 107.139 Q 135.125 107.017 135.007 106.936 L 135.007 106.936 L 135.007 106.936 Q 134.89 106.855 134.744 106.812 L 134.744 106.812 L 134.744 106.812 Q 134.597 106.768 134.451 106.768 L 134.451 106.768 L 134.451 106.768 Q 134.431 106.768 134.355 106.777 L 134.355 106.777 L 134.355 106.777 Q 134.28 106.787 134.182 106.809 L 134.182 106.809 L 134.182 106.809 Q 134.084 106.831 133.977 106.863 L 133.977 106.863 L 133.977 106.863 Q 133.87 106.895 133.779 106.941 L 133.779 106.941 L 133.779 106.941 Q 133.689 106.987 133.63 107.046 L 133.63 107.046 L 133.63 107.046 Q 133.572 107.104 133.572 107.178 L 133.572 107.178 L 133.572 107.236 L 133.572 107.236 Q 133.577 107.29 133.584 107.38 L 133.584 107.38 L 133.584 107.38 Q 133.591 107.471 133.596 107.561 L 133.596 107.561 L 133.596 107.561 Q 133.601 107.651 133.611 107.72 L 133.611 107.72 L 133.611 107.72 Q 133.621 107.788 133.621 107.798 L 133.621 107.798 L 133.621 107.798 Q 133.63 107.876 133.655 108.04 L 133.655 108.04 L 133.655 108.04 Q 133.679 108.203 133.708 108.406 L 133.708 108.406 L 133.708 108.406 Q 133.738 108.608 133.774 108.833 L 133.774 108.833 L 133.774 108.833 Q 133.811 109.058 133.845 109.26 L 133.845 109.26 L 133.845 109.26 Q 133.879 109.463 133.906 109.624 L 133.906 109.624 L 133.906 109.624 Q 133.933 109.785 133.948 109.858 L 133.948 109.858 L 133.948 109.858 Q 133.948 109.868 133.95 109.875 L 133.95 109.875 L 133.95 109.875 Q 133.953 109.883 133.953 109.888 L 133.953 109.888 L 133.953 109.888 Q 133.953 109.893 133.953 109.893 L 133.953 109.893 L 133.948 109.902 L 133.948 109.912 L 133.948 109.912 Q 133.938 109.927 133.904 109.961 L 133.904 109.961 L 133.904 109.961 Q 133.865 109.99 133.855 110 L 133.855 110 L 133.826 110 L 133.826 110 Q 133.777 110 133.723 109.91 L 133.723 109.91 L 133.723 109.91 Q 133.669 109.819 133.613 109.666 L 133.613 109.666 L 133.613 109.666 Q 133.557 109.512 133.501 109.312 L 133.501 109.312 L 133.501 109.312 Q 133.445 109.111 133.391 108.896 L 133.391 108.896 L 133.391 108.896 Q 133.337 108.682 133.293 108.472 L 133.293 108.472 L 133.293 108.472 Q 133.25 108.262 133.215 108.081 L 133.215 108.081 L 133.215 108.081 Q 133.181 107.9 133.164 107.769 L 133.164 107.769 L 133.164 107.769 Q 133.147 107.637 133.147 107.583 Z  M 135.75 106.914 L 135.75 106.914 L 135.75 106.914 Q 135.75 106.66 135.825 106.428 L 135.825 106.428 L 135.825 106.428 Q 135.901 106.196 136.045 106.021 L 136.045 106.021 L 136.045 106.021 Q 136.189 105.845 136.396 105.74 L 136.396 105.74 L 136.396 105.74 Q 136.604 105.635 136.877 105.635 L 136.877 105.635 L 136.877 105.635 Q 137.039 105.654 137.158 105.723 L 137.158 105.723 L 137.158 105.723 Q 137.278 105.791 137.354 105.891 L 137.354 105.891 L 137.354 105.891 Q 137.429 105.991 137.463 106.123 L 137.463 106.123 L 137.463 106.123 Q 137.493 106.25 137.493 106.396 L 137.493 106.396 L 137.493 106.396 Q 137.493 106.572 137.39 106.714 L 137.39 106.714 L 137.39 106.714 Q 137.288 106.855 137.131 106.951 L 137.131 106.951 L 137.131 106.951 Q 136.975 107.046 136.794 107.097 L 136.794 107.097 L 136.794 107.097 Q 136.614 107.148 136.458 107.148 L 136.458 107.148 L 136.458 107.148 Q 136.399 107.148 136.338 107.148 L 136.338 107.148 L 136.338 107.148 Q 136.277 107.148 136.228 107.129 L 136.228 107.129 L 136.228 107.129 Q 136.179 107.109 136.15 107.07 L 136.15 107.07 L 136.15 107.07 Q 136.121 107.031 136.121 106.953 L 136.121 106.953 L 136.121 106.953 Q 136.121 106.929 136.128 106.912 L 136.128 106.912 L 136.128 106.912 Q 136.135 106.895 136.169 106.887 L 136.169 106.887 L 136.169 106.887 Q 136.204 106.88 136.272 106.885 L 136.272 106.885 L 136.272 106.885 Q 136.34 106.895 136.458 106.914 L 136.458 106.914 L 136.458 106.914 Q 136.526 106.914 136.655 106.868 L 136.655 106.868 L 136.655 106.868 Q 136.785 106.821 136.919 106.748 L 136.919 106.748 L 136.919 106.748 Q 137.053 106.675 137.151 106.58 L 137.151 106.58 L 137.151 106.58 Q 137.249 106.484 137.249 106.392 L 137.249 106.392 L 137.249 106.392 Q 137.249 106.294 137.217 106.199 L 137.217 106.199 L 137.217 106.199 Q 137.185 106.104 137.122 106.03 L 137.122 106.03 L 137.122 106.03 Q 137.058 105.957 136.973 105.913 L 136.973 105.913 L 136.973 105.913 Q 136.887 105.869 136.78 105.879 L 136.78 105.879 L 136.78 105.879 Q 136.609 105.894 136.47 105.972 L 136.47 105.972 L 136.47 105.972 Q 136.331 106.05 136.233 106.174 L 136.233 106.174 L 136.233 106.174 Q 136.135 106.299 136.082 106.45 L 136.082 106.45 L 136.082 106.45 Q 136.028 106.602 136.028 106.768 L 136.028 106.768 L 136.028 106.768 Q 136.028 106.895 136.033 107.021 L 136.033 107.021 L 136.033 107.021 Q 136.038 107.148 136.069 107.271 L 136.069 107.271 L 136.069 107.271 Q 136.101 107.393 136.172 107.505 L 136.172 107.505 L 136.172 107.505 Q 136.243 107.617 136.377 107.703 L 136.377 107.703 L 136.377 107.703 Q 136.511 107.788 136.716 107.844 L 136.716 107.844 L 136.716 107.844 Q 136.921 107.9 137.224 107.915 L 137.224 107.915 L 138.098 107.856 L 138.098 107.856 Q 138.02 107.964 137.9 108.032 L 137.9 108.032 L 137.9 108.032 Q 137.781 108.101 137.646 108.142 L 137.646 108.142 L 137.646 108.142 Q 137.512 108.184 137.38 108.203 L 137.38 108.203 L 137.38 108.203 Q 137.249 108.223 137.131 108.223 L 137.131 108.223 L 137.131 108.223 Q 136.848 108.223 136.599 108.13 L 136.599 108.13 L 136.599 108.13 Q 136.35 108.037 136.16 107.869 L 136.16 107.869 L 136.16 107.869 Q 135.969 107.7 135.859 107.458 L 135.859 107.458 L 135.859 107.458 Q 135.75 107.217 135.75 106.914 Z  M 138.772 108.223 L 138.772 108.223 L 138.772 108.223 Q 138.665 108.027 138.586 107.798 L 138.586 107.798 L 138.586 107.798 Q 138.508 107.568 138.455 107.334 L 138.455 107.334 L 138.455 107.334 Q 138.401 107.1 138.369 106.877 L 138.369 106.877 L 138.369 106.877 Q 138.337 106.655 138.328 106.475 L 138.328 106.475 L 138.328 106.475 Q 138.328 106.44 138.323 106.399 L 138.323 106.399 L 138.323 106.399 Q 138.318 106.357 138.32 106.313 L 138.32 106.313 L 138.32 106.313 Q 138.323 106.27 138.335 106.23 L 138.335 106.23 L 138.335 106.23 Q 138.347 106.191 138.376 106.162 L 138.376 106.162 L 138.386 106.162 L 138.386 106.162 Q 138.391 106.162 138.391 106.16 L 138.391 106.16 L 138.391 106.16 Q 138.391 106.157 138.396 106.157 L 138.396 106.157 L 138.396 106.157 Q 138.401 106.157 138.401 106.16 L 138.401 106.16 L 138.401 106.16 Q 138.401 106.162 138.411 106.162 L 138.411 106.162 L 138.42 106.162 L 138.42 106.162 Q 138.43 106.167 138.469 106.182 L 138.469 106.182 L 138.469 106.182 Q 138.508 106.196 138.518 106.206 L 138.518 106.206 L 138.518 106.206 Q 138.606 106.177 138.699 106.135 L 138.699 106.135 L 138.699 106.135 Q 138.792 106.094 138.887 106.057 L 138.887 106.057 L 138.887 106.057 Q 138.982 106.021 139.08 105.996 L 139.08 105.996 L 139.08 105.996 Q 139.177 105.972 139.27 105.972 L 139.27 105.972 L 139.27 105.972 Q 139.338 105.972 139.39 105.977 L 139.39 105.977 L 139.39 105.977 Q 139.441 105.981 139.492 105.994 L 139.492 105.994 L 139.492 105.994 Q 139.543 106.006 139.602 106.023 L 139.602 106.023 L 139.602 106.023 Q 139.661 106.04 139.739 106.064 L 139.739 106.064 L 139.739 106.064 Q 139.778 106.094 139.81 106.121 L 139.81 106.121 L 139.81 106.121 Q 139.841 106.147 139.868 106.182 L 139.868 106.182 L 139.868 106.182 Q 139.895 106.216 139.91 106.265 L 139.91 106.265 L 139.91 106.265 Q 139.924 106.313 139.924 106.392 L 139.924 106.392 L 139.924 106.392 Q 139.846 106.401 139.741 106.379 L 139.741 106.379 L 139.741 106.379 Q 139.636 106.357 139.521 106.323 L 139.521 106.323 L 139.521 106.323 Q 139.407 106.289 139.285 106.265 L 139.285 106.265 L 139.285 106.265 Q 139.163 106.24 139.05 106.245 L 139.05 106.245 L 139.05 106.245 Q 138.938 106.25 138.84 106.309 L 138.84 106.309 L 138.84 106.309 Q 138.738 106.357 138.66 106.484 L 138.66 106.484 L 138.66 106.484 Q 138.625 106.626 138.63 106.763 L 138.63 106.763 L 138.63 106.763 Q 138.635 106.899 138.665 107.029 L 138.665 107.029 L 138.665 107.029 Q 138.694 107.158 138.74 107.288 L 138.74 107.288 L 138.74 107.288 Q 138.787 107.417 138.828 107.546 L 138.828 107.546 L 138.828 107.546 Q 138.87 107.676 138.904 107.803 L 138.904 107.803 L 138.904 107.803 Q 138.938 107.93 138.948 108.062 L 138.948 108.062 L 138.948 108.062 Q 138.948 108.11 138.894 108.167 L 138.894 108.167 L 138.894 108.167 Q 138.84 108.223 138.772 108.223 Z  M 140.046 107.983 L 140.046 107.983 L 140.046 107.983 Q 140.046 107.837 140.154 107.773 L 140.154 107.773 L 140.154 107.773 Q 140.271 107.705 140.417 107.705 L 140.417 107.705 L 140.417 107.705 Q 140.466 107.705 140.505 107.734 L 140.505 107.734 L 140.505 107.734 Q 140.544 107.764 140.574 107.805 L 140.574 107.805 L 140.574 107.805 Q 140.603 107.847 140.615 107.893 L 140.615 107.893 L 140.615 107.893 Q 140.627 107.939 140.627 107.983 L 140.627 107.983 L 140.627 107.983 Q 140.627 108.037 140.588 108.081 L 140.588 108.081 L 140.588 108.081 Q 140.549 108.125 140.496 108.159 L 140.496 108.159 L 140.496 108.159 Q 140.442 108.193 140.378 108.21 L 140.378 108.21 L 140.378 108.21 Q 140.315 108.228 140.271 108.228 L 140.271 108.228 L 140.271 108.228 Q 140.149 108.228 140.098 108.162 L 140.098 108.162 L 140.098 108.162 Q 140.046 108.096 140.046 107.983 Z  M 140.198 106.885 L 140.198 106.885 L 140.198 106.885 Q 140.178 106.758 140.171 106.541 L 140.171 106.541 L 140.171 106.541 Q 140.164 106.323 140.161 106.062 L 140.161 106.062 L 140.161 106.062 Q 140.159 105.801 140.161 105.515 L 140.161 105.515 L 140.161 105.515 Q 140.164 105.229 140.164 104.968 L 140.164 104.968 L 140.164 104.968 Q 140.164 104.707 140.164 104.492 L 140.164 104.492 L 140.164 104.492 Q 140.164 104.268 140.154 104.141 L 140.154 104.141 L 140.393 104.102 L 140.398 104.189 L 140.398 104.189 Q 140.398 104.277 140.4 104.419 L 140.4 104.419 L 140.4 104.419 Q 140.403 104.561 140.405 104.746 L 140.405 104.746 L 140.405 104.746 Q 140.408 104.932 140.413 105.132 L 140.413 105.132 L 140.413 105.132 Q 140.417 105.332 140.417 105.535 L 140.417 105.535 L 140.417 105.535 Q 140.417 105.737 140.422 105.913 L 140.422 105.913 L 140.422 105.913 Q 140.427 106.089 140.43 106.223 L 140.43 106.223 L 140.43 106.223 Q 140.432 106.357 140.437 106.416 L 140.437 106.416 L 140.437 106.416 Q 140.437 106.426 140.437 106.453 L 140.437 106.453 L 140.437 106.453 Q 140.437 106.479 140.439 106.516 L 140.439 106.516 L 140.439 106.516 Q 140.442 106.553 140.442 106.587 L 140.442 106.587 L 140.442 106.587 Q 140.442 106.621 140.442 106.641 L 140.442 106.641 L 140.442 106.641 Q 140.442 106.68 140.444 106.731 L 140.444 106.731 L 140.444 106.731 Q 140.447 106.782 140.439 106.831 L 140.439 106.831 L 140.439 106.831 Q 140.432 106.88 140.408 106.912 L 140.408 106.912 L 140.408 106.912 Q 140.383 106.943 140.325 106.943 L 140.325 106.943 L 140.325 106.943 Q 140.291 106.943 140.251 106.938 L 140.251 106.938 L 140.251 106.938 Q 140.212 106.934 140.198 106.885 Z  M 119.392 106.914 L 119.392 106.914 L 119.392 106.914 Q 119.392 106.66 119.468 106.428 L 119.468 106.428 L 119.468 106.428 Q 119.543 106.196 119.688 106.021 L 119.688 106.021 L 119.688 106.021 Q 119.832 105.845 120.039 105.74 L 120.039 105.74 L 120.039 105.74 Q 120.247 105.635 120.52 105.635 L 120.52 105.635 L 120.52 105.635 Q 120.681 105.654 120.801 105.723 L 120.801 105.723 L 120.801 105.723 Q 120.92 105.791 120.996 105.891 L 120.996 105.891 L 120.996 105.891 Q 121.072 105.991 121.106 106.123 L 121.106 106.123 L 121.106 106.123 Q 121.135 106.25 121.135 106.396 L 121.135 106.396 L 121.135 106.396 Q 121.135 106.572 121.033 106.714 L 121.033 106.714 L 121.033 106.714 Q 120.93 106.855 120.774 106.951 L 120.774 106.951 L 120.774 106.951 Q 120.618 107.046 120.437 107.097 L 120.437 107.097 L 120.437 107.097 Q 120.256 107.148 120.1 107.148 L 120.1 107.148 L 120.1 107.148 Q 120.042 107.148 119.98 107.148 L 119.98 107.148 L 119.98 107.148 Q 119.919 107.148 119.871 107.129 L 119.871 107.129 L 119.871 107.129 Q 119.822 107.109 119.792 107.07 L 119.792 107.07 L 119.792 107.07 Q 119.763 107.031 119.763 106.953 L 119.763 106.953 L 119.763 106.953 Q 119.763 106.929 119.771 106.912 L 119.771 106.912 L 119.771 106.912 Q 119.778 106.895 119.812 106.887 L 119.812 106.887 L 119.812 106.887 Q 119.846 106.88 119.915 106.885 L 119.915 106.885 L 119.915 106.885 Q 119.983 106.895 120.1 106.914 L 120.1 106.914 L 120.1 106.914 Q 120.168 106.914 120.298 106.868 L 120.298 106.868 L 120.298 106.868 Q 120.427 106.821 120.562 106.748 L 120.562 106.748 L 120.562 106.748 Q 120.696 106.675 120.793 106.58 L 120.793 106.58 L 120.793 106.58 Q 120.891 106.484 120.891 106.392 L 120.891 106.392 L 120.891 106.392 Q 120.891 106.294 120.859 106.199 L 120.859 106.199 L 120.859 106.199 Q 120.828 106.104 120.764 106.03 L 120.764 106.03 L 120.764 106.03 Q 120.701 105.957 120.615 105.913 L 120.615 105.913 L 120.615 105.913 Q 120.53 105.869 120.422 105.879 L 120.422 105.879 L 120.422 105.879 Q 120.251 105.894 120.112 105.972 L 120.112 105.972 L 120.112 105.972 Q 119.973 106.05 119.875 106.174 L 119.875 106.174 L 119.875 106.174 Q 119.778 106.299 119.724 106.45 L 119.724 106.45 L 119.724 106.45 Q 119.67 106.602 119.67 106.768 L 119.67 106.768 L 119.67 106.768 Q 119.67 106.895 119.675 107.021 L 119.675 107.021 L 119.675 107.021 Q 119.68 107.148 119.712 107.271 L 119.712 107.271 L 119.712 107.271 Q 119.744 107.393 119.814 107.505 L 119.814 107.505 L 119.814 107.505 Q 119.885 107.617 120.02 107.703 L 120.02 107.703 L 120.02 107.703 Q 120.154 107.788 120.359 107.844 L 120.359 107.844 L 120.359 107.844 Q 120.564 107.9 120.867 107.915 L 120.867 107.915 L 121.741 107.856 L 121.741 107.856 Q 121.663 107.964 121.543 108.032 L 121.543 108.032 L 121.543 108.032 Q 121.423 108.101 121.289 108.142 L 121.289 108.142 L 121.289 108.142 Q 121.155 108.184 121.023 108.203 L 121.023 108.203 L 121.023 108.203 Q 120.891 108.223 120.774 108.223 L 120.774 108.223 L 120.774 108.223 Q 120.491 108.223 120.242 108.13 L 120.242 108.13 L 120.242 108.13 Q 119.993 108.037 119.802 107.869 L 119.802 107.869 L 119.802 107.869 Q 119.612 107.7 119.502 107.458 L 119.502 107.458 L 119.502 107.458 Q 119.392 107.217 119.392 106.914 Z  M 121.97 107.397 L 121.97 107.397 L 121.97 107.397 Q 121.975 107.314 122.019 107.207 L 122.019 107.207 L 122.019 107.207 Q 122.063 107.1 122.156 106.997 L 122.156 106.997 L 122.156 106.997 Q 122.249 106.895 122.39 106.814 L 122.39 106.814 L 122.39 106.814 Q 122.532 106.733 122.725 106.699 L 122.725 106.699 L 122.725 106.699 Q 122.917 106.665 123.164 106.694 L 123.164 106.694 L 123.164 106.694 Q 123.411 106.724 123.713 106.841 L 123.713 106.841 L 123.713 106.841 Q 123.713 106.836 123.713 106.792 L 123.713 106.792 L 123.708 106.748 L 123.708 106.748 Q 123.708 106.621 123.635 106.489 L 123.635 106.489 L 123.635 106.489 Q 123.562 106.357 123.447 106.252 L 123.447 106.252 L 123.447 106.252 Q 123.333 106.147 123.201 106.082 L 123.201 106.082 L 123.201 106.082 Q 123.069 106.016 122.947 106.016 L 122.947 106.016 L 122.947 106.016 Q 122.898 106.016 122.861 106.03 L 122.861 106.03 L 122.861 106.03 Q 122.825 106.045 122.791 106.067 L 122.791 106.067 L 122.791 106.067 Q 122.756 106.089 122.725 106.106 L 122.725 106.106 L 122.725 106.106 Q 122.693 106.123 122.649 106.123 L 122.649 106.123 L 122.649 106.123 Q 122.639 106.123 122.639 106.118 L 122.639 106.118 L 122.639 106.118 Q 122.634 106.113 122.629 106.108 L 122.629 106.108 L 122.629 106.108 Q 122.62 106.099 122.603 106.084 L 122.603 106.084 L 122.603 106.084 Q 122.585 106.069 122.585 106.064 L 122.585 106.064 L 122.585 106.064 Q 122.585 105.977 122.617 105.913 L 122.617 105.913 L 122.617 105.913 Q 122.649 105.85 122.705 105.811 L 122.705 105.811 L 122.705 105.811 Q 122.761 105.771 122.832 105.75 L 122.832 105.75 L 122.832 105.75 Q 122.903 105.728 122.981 105.728 L 122.981 105.728 L 122.981 105.728 Q 123.176 105.747 123.354 105.847 L 123.354 105.847 L 123.354 105.847 Q 123.533 105.947 123.682 106.099 L 123.682 106.099 L 123.682 106.099 Q 123.831 106.25 123.943 106.448 L 123.943 106.448 L 123.943 106.448 Q 124.055 106.646 124.131 106.858 L 124.131 106.858 L 124.131 106.858 Q 124.207 107.07 124.231 107.285 L 124.231 107.285 L 124.231 107.285 Q 124.26 107.51 124.236 107.705 L 124.236 107.705 L 124.236 107.705 Q 124.231 107.705 124.207 107.703 L 124.207 107.703 L 124.207 107.703 Q 124.182 107.7 124.153 107.698 L 124.153 107.698 L 124.153 107.698 Q 124.124 107.695 124.104 107.69 L 124.104 107.69 L 124.08 107.686 L 124.08 107.686 Q 123.977 107.456 123.85 107.314 L 123.85 107.314 L 123.85 107.314 Q 123.723 107.173 123.599 107.092 L 123.599 107.092 L 123.599 107.092 Q 123.474 107.012 123.367 106.98 L 123.367 106.98 L 123.367 106.98 Q 123.259 106.948 123.191 106.934 L 123.191 106.934 L 123.191 106.934 Q 123.118 106.934 123.018 106.943 L 123.018 106.943 L 123.018 106.943 Q 122.917 106.953 122.81 106.978 L 122.81 106.978 L 122.81 106.978 Q 122.703 107.002 122.593 107.043 L 122.593 107.043 L 122.593 107.043 Q 122.483 107.085 122.397 107.144 L 122.397 107.144 L 122.397 107.144 Q 122.312 107.202 122.261 107.283 L 122.261 107.283 L 122.261 107.283 Q 122.209 107.363 122.209 107.471 L 122.209 107.471 L 122.209 107.471 Q 122.209 107.588 122.302 107.668 L 122.302 107.668 L 122.302 107.668 Q 122.395 107.749 122.527 107.8 L 122.527 107.8 L 122.527 107.8 Q 122.659 107.852 122.795 107.871 L 122.795 107.871 L 122.795 107.871 Q 122.932 107.891 123.015 107.891 L 123.015 107.891 L 123.015 107.891 Q 123.152 107.891 123.284 107.876 L 123.284 107.876 L 123.284 107.876 Q 123.416 107.861 123.545 107.842 L 123.545 107.842 L 123.545 107.842 Q 123.674 107.822 123.801 107.808 L 123.801 107.808 L 123.801 107.808 Q 123.928 107.793 124.055 107.793 L 124.055 107.793 L 124.055 107.793 Q 124.065 107.793 124.089 107.793 L 124.089 107.793 L 124.089 107.793 Q 124.114 107.793 124.141 107.795 L 124.141 107.795 L 124.141 107.795 Q 124.167 107.798 124.189 107.798 L 124.189 107.798 L 124.189 107.798 Q 124.211 107.798 124.221 107.798 L 124.221 107.798 L 124.221 107.798 Q 124.26 107.813 124.265 107.842 L 124.265 107.842 L 124.265 107.842 Q 124.27 107.871 124.27 107.9 L 124.27 107.9 L 124.27 107.9 Q 124.27 107.93 124.209 107.964 L 124.209 107.964 L 124.209 107.964 Q 124.148 107.998 124.05 108.032 L 124.05 108.032 L 124.05 108.032 Q 123.953 108.066 123.833 108.103 L 123.833 108.103 L 123.833 108.103 Q 123.713 108.14 123.604 108.164 L 123.604 108.164 L 123.604 108.164 Q 123.494 108.188 123.398 108.206 L 123.398 108.206 L 123.398 108.206 Q 123.303 108.223 123.264 108.223 L 123.264 108.223 L 123.264 108.223 Q 123.059 108.223 122.83 108.188 L 122.83 108.188 L 122.83 108.188 Q 122.6 108.154 122.41 108.064 L 122.41 108.064 L 122.41 108.064 Q 122.219 107.974 122.095 107.813 L 122.095 107.813 L 122.095 107.813 Q 121.97 107.651 121.97 107.397 Z  M 125.071 106.543 L 125.071 106.543 L 125.071 106.543 Q 125.032 106.543 124.934 106.543 L 124.934 106.543 L 124.934 106.543 Q 124.836 106.543 124.731 106.526 L 124.731 106.526 L 124.731 106.526 Q 124.626 106.509 124.541 106.47 L 124.541 106.47 L 124.541 106.47 Q 124.456 106.431 124.456 106.357 L 124.456 106.357 L 124.456 106.357 Q 124.456 106.338 124.463 106.301 L 124.463 106.301 L 124.463 106.301 Q 124.47 106.265 124.509 106.265 L 124.509 106.265 L 125.012 106.221 L 125.012 106.221 Q 125.032 106.04 125.042 105.925 L 125.042 105.925 L 125.042 105.925 Q 125.051 105.811 125.046 105.71 L 125.046 105.71 L 125.046 105.71 Q 125.042 105.61 125.034 105.5 L 125.034 105.5 L 125.034 105.5 Q 125.027 105.391 125.022 105.215 L 125.022 105.215 L 125.022 105.215 Q 125.022 105.181 125.037 105.161 L 125.037 105.161 L 125.037 105.161 Q 125.051 105.142 125.073 105.132 L 125.073 105.132 L 125.073 105.132 Q 125.095 105.122 125.122 105.117 L 125.122 105.117 L 125.122 105.117 Q 125.149 105.112 125.164 105.112 L 125.164 105.112 L 125.164 105.112 Q 125.193 105.112 125.225 105.132 L 125.225 105.132 L 125.225 105.132 Q 125.256 105.151 125.281 105.181 L 125.281 105.181 L 125.281 105.181 Q 125.305 105.21 125.32 105.242 L 125.32 105.242 L 125.32 105.242 Q 125.334 105.273 125.334 105.303 L 125.334 105.303 L 125.374 106.216 L 125.793 106.235 L 125.793 106.235 Q 125.876 106.226 125.947 106.267 L 125.947 106.267 L 125.947 106.267 Q 126.018 106.309 126.023 106.421 L 126.023 106.421 L 126.023 106.421 Q 125.964 106.484 125.881 106.497 L 125.881 106.497 L 125.881 106.497 Q 125.798 106.509 125.708 106.506 L 125.708 106.506 L 125.708 106.506 Q 125.618 106.504 125.53 106.506 L 125.53 106.506 L 125.53 106.506 Q 125.442 106.509 125.374 106.553 L 125.374 106.553 L 125.374 106.553 Q 125.374 106.582 125.378 106.714 L 125.378 106.714 L 125.378 106.714 Q 125.383 106.846 125.388 107.026 L 125.388 107.026 L 125.388 107.026 Q 125.393 107.207 125.4 107.412 L 125.4 107.412 L 125.4 107.412 Q 125.408 107.617 125.413 107.791 L 125.413 107.791 L 125.413 107.791 Q 125.417 107.964 125.42 108.086 L 125.42 108.086 L 125.42 108.086 Q 125.422 108.208 125.422 108.223 L 125.422 108.223 L 125.422 108.223 Q 125.31 108.291 125.242 108.21 L 125.242 108.21 L 125.242 108.21 Q 125.173 108.13 125.132 107.971 L 125.132 107.971 L 125.132 107.971 Q 125.09 107.813 125.073 107.6 L 125.073 107.6 L 125.073 107.6 Q 125.056 107.388 125.054 107.18 L 125.054 107.18 L 125.054 107.18 Q 125.051 106.973 125.056 106.797 L 125.056 106.797 L 125.056 106.797 Q 125.061 106.621 125.071 106.543 Z  M 132.117 99.248 L 132.117 99.248 L 132.117 99.248 Q 132.078 99.248 131.98 99.248 L 131.98 99.248 L 131.98 99.248 Q 131.882 99.248 131.777 99.231 L 131.777 99.231 L 131.777 99.231 Q 131.672 99.214 131.587 99.175 L 131.587 99.175 L 131.587 99.175 Q 131.501 99.136 131.501 99.063 L 131.501 99.063 L 131.501 99.063 Q 131.501 99.043 131.509 99.006 L 131.509 99.006 L 131.509 99.006 Q 131.516 98.97 131.555 98.97 L 131.555 98.97 L 132.058 98.926 L 132.058 98.926 Q 132.078 98.745 132.087 98.63 L 132.087 98.63 L 132.087 98.63 Q 132.097 98.516 132.092 98.416 L 132.092 98.416 L 132.092 98.416 Q 132.087 98.315 132.08 98.206 L 132.08 98.206 L 132.08 98.206 Q 132.073 98.096 132.068 97.92 L 132.068 97.92 L 132.068 97.92 Q 132.068 97.886 132.083 97.866 L 132.083 97.866 L 132.083 97.866 Q 132.097 97.847 132.119 97.837 L 132.119 97.837 L 132.119 97.837 Q 132.141 97.827 132.168 97.822 L 132.168 97.822 L 132.168 97.822 Q 132.195 97.817 132.209 97.817 L 132.209 97.817 L 132.209 97.817 Q 132.239 97.817 132.271 97.837 L 132.271 97.837 L 132.271 97.837 Q 132.302 97.856 132.327 97.886 L 132.327 97.886 L 132.327 97.886 Q 132.351 97.915 132.366 97.947 L 132.366 97.947 L 132.366 97.947 Q 132.38 97.979 132.38 98.008 L 132.38 98.008 L 132.419 98.921 L 132.839 98.94 L 132.839 98.94 Q 132.922 98.931 132.993 98.972 L 132.993 98.972 L 132.993 98.972 Q 133.064 99.014 133.069 99.126 L 133.069 99.126 L 133.069 99.126 Q 133.01 99.189 132.927 99.202 L 132.927 99.202 L 132.927 99.202 Q 132.844 99.214 132.754 99.211 L 132.754 99.211 L 132.754 99.211 Q 132.664 99.209 132.576 99.211 L 132.576 99.211 L 132.576 99.211 Q 132.488 99.214 132.419 99.258 L 132.419 99.258 L 132.419 99.258 Q 132.419 99.287 132.424 99.419 L 132.424 99.419 L 132.424 99.419 Q 132.429 99.551 132.434 99.731 L 132.434 99.731 L 132.434 99.731 Q 132.439 99.912 132.446 100.117 L 132.446 100.117 L 132.446 100.117 Q 132.454 100.322 132.458 100.496 L 132.458 100.496 L 132.458 100.496 Q 132.463 100.669 132.466 100.791 L 132.466 100.791 L 132.466 100.791 Q 132.468 100.913 132.468 100.928 L 132.468 100.928 L 132.468 100.928 Q 132.356 100.996 132.288 100.916 L 132.288 100.916 L 132.288 100.916 Q 132.219 100.835 132.178 100.676 L 132.178 100.676 L 132.178 100.676 Q 132.136 100.518 132.119 100.305 L 132.119 100.305 L 132.119 100.305 Q 132.102 100.093 132.1 99.885 L 132.1 99.885 L 132.1 99.885 Q 132.097 99.678 132.102 99.502 L 132.102 99.502 L 132.102 99.502 Q 132.107 99.326 132.117 99.248 Z  M 133.186 99.932 L 133.186 99.932 L 133.186 99.932 Q 133.186 99.663 133.303 99.463 L 133.303 99.463 L 133.303 99.463 Q 133.42 99.263 133.611 99.126 L 133.611 99.126 L 133.611 99.126 Q 133.801 98.989 134.038 98.923 L 134.038 98.923 L 134.038 98.923 Q 134.275 98.857 134.514 98.857 L 134.514 98.857 L 134.514 98.857 Q 134.641 98.857 134.751 98.904 L 134.751 98.904 L 134.751 98.904 Q 134.861 98.95 134.961 99.031 L 134.961 99.031 L 134.961 99.031 Q 135.061 99.111 135.139 99.216 L 135.139 99.216 L 135.139 99.216 Q 135.217 99.321 135.273 99.434 L 135.273 99.434 L 135.273 99.434 Q 135.33 99.546 135.359 99.661 L 135.359 99.661 L 135.359 99.661 Q 135.388 99.775 135.388 99.883 L 135.388 99.883 L 135.388 99.883 Q 135.388 100.132 135.291 100.327 L 135.291 100.327 L 135.291 100.327 Q 135.193 100.522 135.027 100.657 L 135.027 100.657 L 135.027 100.657 Q 134.861 100.791 134.651 100.862 L 134.651 100.862 L 134.651 100.862 Q 134.441 100.933 134.221 100.933 L 134.221 100.933 L 134.221 100.933 Q 133.997 100.933 133.809 100.862 L 133.809 100.862 L 133.809 100.862 Q 133.621 100.791 133.481 100.664 L 133.481 100.664 L 133.481 100.664 Q 133.342 100.537 133.264 100.349 L 133.264 100.349 L 133.264 100.349 Q 133.186 100.161 133.186 99.932 Z  M 133.425 99.893 L 133.425 99.893 L 133.425 99.893 Q 133.425 100.044 133.481 100.183 L 133.481 100.183 L 133.481 100.183 Q 133.538 100.322 133.638 100.425 L 133.638 100.425 L 133.638 100.425 Q 133.738 100.527 133.875 100.588 L 133.875 100.588 L 133.875 100.588 Q 134.011 100.649 134.167 100.649 L 134.167 100.649 L 134.167 100.649 Q 134.25 100.659 134.37 100.623 L 134.37 100.623 L 134.37 100.623 Q 134.49 100.586 134.609 100.515 L 134.609 100.515 L 134.609 100.515 Q 134.729 100.444 134.839 100.344 L 134.839 100.344 L 134.839 100.344 Q 134.949 100.244 135.022 100.125 L 135.022 100.125 L 135.022 100.125 Q 135.095 100.005 135.112 99.875 L 135.112 99.875 L 135.112 99.875 Q 135.129 99.746 135.068 99.617 L 135.068 99.617 L 135.068 99.617 Q 135.007 99.487 134.846 99.368 L 134.846 99.368 L 134.846 99.368 Q 134.685 99.248 134.402 99.146 L 134.402 99.146 L 134.402 99.146 Q 134.241 99.146 134.067 99.192 L 134.067 99.192 L 134.067 99.192 Q 133.894 99.238 133.752 99.331 L 133.752 99.331 L 133.752 99.331 Q 133.611 99.424 133.518 99.565 L 133.518 99.565 L 133.518 99.565 Q 133.425 99.707 133.425 99.893 Z  M 122.214 100.889 L 122.214 100.889 L 122.214 100.889 Q 122.166 100.542 122.153 100.198 L 122.153 100.198 L 122.153 100.198 Q 122.141 99.854 122.141 99.507 L 122.141 99.507 L 122.141 99.507 Q 122.141 99.16 122.151 98.818 L 122.151 98.818 L 122.151 98.818 Q 122.161 98.477 122.156 98.135 L 122.156 98.135 L 122.156 98.135 Q 122.156 98.096 122.185 98.081 L 122.185 98.081 L 122.185 98.081 Q 122.214 98.066 122.253 98.066 L 122.253 98.066 L 122.253 98.066 Q 122.297 98.066 122.332 98.098 L 122.332 98.098 L 122.332 98.098 Q 122.366 98.13 122.39 98.176 L 122.39 98.176 L 122.39 98.176 Q 122.415 98.223 122.427 98.269 L 122.427 98.269 L 122.427 98.269 Q 122.439 98.315 122.439 98.345 L 122.439 98.345 L 122.439 98.345 Q 122.468 99.043 122.478 99.509 L 122.478 99.509 L 122.478 99.509 Q 122.488 99.976 122.478 100.261 L 122.478 100.261 L 122.478 100.261 Q 122.468 100.547 122.446 100.684 L 122.446 100.684 L 122.446 100.684 Q 122.424 100.82 122.39 100.869 L 122.39 100.869 L 122.39 100.869 Q 122.356 100.918 122.31 100.908 L 122.31 100.908 L 122.31 100.908 Q 122.263 100.898 122.214 100.889 Z  M 122.708 99.932 L 122.708 99.932 L 122.708 99.932 Q 122.708 99.663 122.825 99.463 L 122.825 99.463 L 122.825 99.463 Q 122.942 99.263 123.132 99.126 L 123.132 99.126 L 123.132 99.126 Q 123.323 98.989 123.56 98.923 L 123.56 98.923 L 123.56 98.923 Q 123.796 98.857 124.036 98.857 L 124.036 98.857 L 124.036 98.857 Q 124.163 98.857 124.272 98.904 L 124.272 98.904 L 124.272 98.904 Q 124.382 98.95 124.482 99.031 L 124.482 99.031 L 124.482 99.031 Q 124.583 99.111 124.661 99.216 L 124.661 99.216 L 124.661 99.216 Q 124.739 99.321 124.795 99.434 L 124.795 99.434 L 124.795 99.434 Q 124.851 99.546 124.88 99.661 L 124.88 99.661 L 124.88 99.661 Q 124.91 99.775 124.91 99.883 L 124.91 99.883 L 124.91 99.883 Q 124.91 100.132 124.812 100.327 L 124.812 100.327 L 124.812 100.327 Q 124.714 100.522 124.548 100.657 L 124.548 100.657 L 124.548 100.657 Q 124.382 100.791 124.172 100.862 L 124.172 100.862 L 124.172 100.862 Q 123.962 100.933 123.743 100.933 L 123.743 100.933 L 123.743 100.933 Q 123.518 100.933 123.33 100.862 L 123.33 100.862 L 123.33 100.862 Q 123.142 100.791 123.003 100.664 L 123.003 100.664 L 123.003 100.664 Q 122.864 100.537 122.786 100.349 L 122.786 100.349 L 122.786 100.349 Q 122.708 100.161 122.708 99.932 Z  M 122.947 99.893 L 122.947 99.893 L 122.947 99.893 Q 122.947 100.044 123.003 100.183 L 123.003 100.183 L 123.003 100.183 Q 123.059 100.322 123.159 100.425 L 123.159 100.425 L 123.159 100.425 Q 123.259 100.527 123.396 100.588 L 123.396 100.588 L 123.396 100.588 Q 123.533 100.649 123.689 100.649 L 123.689 100.649 L 123.689 100.649 Q 123.772 100.659 123.892 100.623 L 123.892 100.623 L 123.892 100.623 Q 124.011 100.586 124.131 100.515 L 124.131 100.515 L 124.131 100.515 Q 124.25 100.444 124.36 100.344 L 124.36 100.344 L 124.36 100.344 Q 124.47 100.244 124.543 100.125 L 124.543 100.125 L 124.543 100.125 Q 124.617 100.005 124.634 99.875 L 124.634 99.875 L 124.634 99.875 Q 124.651 99.746 124.59 99.617 L 124.59 99.617 L 124.59 99.617 Q 124.529 99.487 124.368 99.368 L 124.368 99.368 L 124.368 99.368 Q 124.207 99.248 123.923 99.146 L 123.923 99.146 L 123.923 99.146 Q 123.762 99.146 123.589 99.192 L 123.589 99.192 L 123.589 99.192 Q 123.416 99.238 123.274 99.331 L 123.274 99.331 L 123.274 99.331 Q 123.132 99.424 123.04 99.565 L 123.04 99.565 L 123.04 99.565 Q 122.947 99.707 122.947 99.893 Z  M 125.1 99.189 L 125.1 99.189 L 125.1 99.189 Q 125.105 99.175 125.115 99.153 L 125.115 99.153 L 125.115 99.153 Q 125.125 99.131 125.142 99.106 L 125.142 99.106 L 125.142 99.106 Q 125.159 99.082 125.176 99.065 L 125.176 99.065 L 125.176 99.065 Q 125.193 99.048 125.217 99.048 L 125.217 99.048 L 125.217 99.048 Q 125.222 99.048 125.222 99.05 L 125.222 99.05 L 125.222 99.05 Q 125.222 99.053 125.232 99.053 L 125.232 99.053 L 125.242 99.053 L 125.242 99.053 Q 125.354 99.106 125.427 99.207 L 125.427 99.207 L 125.427 99.207 Q 125.5 99.307 125.557 99.434 L 125.557 99.434 L 125.557 99.434 Q 125.613 99.561 125.662 99.705 L 125.662 99.705 L 125.662 99.705 Q 125.71 99.849 125.771 99.988 L 125.771 99.988 L 125.771 99.988 Q 125.833 100.127 125.916 100.259 L 125.916 100.259 L 125.916 100.259 Q 125.999 100.391 126.125 100.493 L 126.125 100.493 L 126.125 100.493 Q 126.169 100.347 126.213 100.208 L 126.213 100.208 L 126.213 100.208 Q 126.257 100.068 126.313 99.927 L 126.313 99.927 L 126.313 99.927 Q 126.37 99.785 126.445 99.634 L 126.445 99.634 L 126.445 99.634 Q 126.521 99.482 126.619 99.307 L 126.619 99.307 L 126.619 99.307 Q 126.736 99.258 126.807 99.248 L 126.807 99.248 L 126.807 99.248 Q 126.877 99.238 126.907 99.265 L 126.907 99.265 L 126.907 99.265 Q 126.936 99.292 126.917 99.346 L 126.917 99.346 L 126.917 99.346 Q 126.897 99.399 126.833 99.473 L 126.833 99.473 L 126.833 99.473 Q 126.794 99.507 126.743 99.629 L 126.743 99.629 L 126.743 99.629 Q 126.692 99.751 126.633 99.917 L 126.633 99.917 L 126.633 99.917 Q 126.575 100.083 126.509 100.264 L 126.509 100.264 L 126.509 100.264 Q 126.443 100.444 126.375 100.593 L 126.375 100.593 L 126.375 100.593 Q 126.306 100.742 126.24 100.84 L 126.24 100.84 L 126.24 100.84 Q 126.174 100.938 126.111 100.933 L 126.111 100.933 L 126.111 100.933 Q 126.042 100.933 125.957 100.828 L 125.957 100.828 L 125.957 100.828 Q 125.872 100.723 125.774 100.557 L 125.774 100.557 L 125.774 100.557 Q 125.676 100.391 125.579 100.193 L 125.579 100.193 L 125.579 100.193 Q 125.481 99.995 125.391 99.8 L 125.391 99.8 L 125.391 99.8 Q 125.3 99.604 125.225 99.441 L 125.225 99.441 L 125.225 99.441 Q 125.149 99.277 125.1 99.189 Z  M 127.092 99.619 L 127.092 99.619 L 127.092 99.619 Q 127.092 99.365 127.168 99.133 L 127.168 99.133 L 127.168 99.133 Q 127.244 98.901 127.388 98.726 L 127.388 98.726 L 127.388 98.726 Q 127.532 98.55 127.739 98.445 L 127.739 98.445 L 127.739 98.445 Q 127.947 98.34 128.22 98.34 L 128.22 98.34 L 128.22 98.34 Q 128.381 98.359 128.501 98.428 L 128.501 98.428 L 128.501 98.428 Q 128.621 98.496 128.696 98.596 L 128.696 98.596 L 128.696 98.596 Q 128.772 98.696 128.806 98.828 L 128.806 98.828 L 128.806 98.828 Q 128.835 98.955 128.835 99.102 L 128.835 99.102 L 128.835 99.102 Q 128.835 99.277 128.733 99.419 L 128.733 99.419 L 128.733 99.419 Q 128.63 99.561 128.474 99.656 L 128.474 99.656 L 128.474 99.656 Q 128.318 99.751 128.137 99.802 L 128.137 99.802 L 128.137 99.802 Q 127.957 99.854 127.8 99.854 L 127.8 99.854 L 127.8 99.854 Q 127.742 99.854 127.681 99.854 L 127.681 99.854 L 127.681 99.854 Q 127.62 99.854 127.571 99.834 L 127.571 99.834 L 127.571 99.834 Q 127.522 99.814 127.493 99.775 L 127.493 99.775 L 127.493 99.775 Q 127.463 99.736 127.463 99.658 L 127.463 99.658 L 127.463 99.658 Q 127.463 99.634 127.471 99.617 L 127.471 99.617 L 127.471 99.617 Q 127.478 99.6 127.512 99.592 L 127.512 99.592 L 127.512 99.592 Q 127.546 99.585 127.615 99.59 L 127.615 99.59 L 127.615 99.59 Q 127.683 99.6 127.8 99.619 L 127.8 99.619 L 127.8 99.619 Q 127.869 99.619 127.998 99.573 L 127.998 99.573 L 127.998 99.573 Q 128.127 99.526 128.262 99.453 L 128.262 99.453 L 128.262 99.453 Q 128.396 99.38 128.494 99.285 L 128.494 99.285 L 128.494 99.285 Q 128.591 99.189 128.591 99.097 L 128.591 99.097 L 128.591 99.097 Q 128.591 98.999 128.56 98.904 L 128.56 98.904 L 128.56 98.904 Q 128.528 98.809 128.464 98.735 L 128.464 98.735 L 128.464 98.735 Q 128.401 98.662 128.315 98.618 L 128.315 98.618 L 128.315 98.618 Q 128.23 98.574 128.123 98.584 L 128.123 98.584 L 128.123 98.584 Q 127.952 98.599 127.813 98.677 L 127.813 98.677 L 127.813 98.677 Q 127.673 98.755 127.576 98.879 L 127.576 98.879 L 127.576 98.879 Q 127.478 99.004 127.424 99.155 L 127.424 99.155 L 127.424 99.155 Q 127.371 99.307 127.371 99.473 L 127.371 99.473 L 127.371 99.473 Q 127.371 99.6 127.375 99.727 L 127.375 99.727 L 127.375 99.727 Q 127.38 99.854 127.412 99.976 L 127.412 99.976 L 127.412 99.976 Q 127.444 100.098 127.515 100.21 L 127.515 100.21 L 127.515 100.21 Q 127.585 100.322 127.72 100.408 L 127.72 100.408 L 127.72 100.408 Q 127.854 100.493 128.059 100.549 L 128.059 100.549 L 128.059 100.549 Q 128.264 100.605 128.567 100.62 L 128.567 100.62 L 129.441 100.562 L 129.441 100.562 Q 129.363 100.669 129.243 100.737 L 129.243 100.737 L 129.243 100.737 Q 129.124 100.806 128.989 100.847 L 128.989 100.847 L 128.989 100.847 Q 128.855 100.889 128.723 100.908 L 128.723 100.908 L 128.723 100.908 Q 128.591 100.928 128.474 100.928 L 128.474 100.928 L 128.474 100.928 Q 128.191 100.928 127.942 100.835 L 127.942 100.835 L 127.942 100.835 Q 127.693 100.742 127.502 100.574 L 127.502 100.574 L 127.502 100.574 Q 127.312 100.405 127.202 100.164 L 127.202 100.164 L 127.202 100.164 Q 127.092 99.922 127.092 99.619 Z  M 119.768 100.742 L 119.768 100.742 L 119.768 100.742 Q 119.744 100.562 119.722 100.364 L 119.722 100.364 L 119.722 100.364 Q 119.7 100.166 119.68 99.966 L 119.68 99.966 L 119.68 99.966 Q 119.661 99.766 119.636 99.57 L 119.636 99.57 L 119.636 99.57 Q 119.612 99.365 119.583 99.189 L 119.583 99.189 L 119.583 99.189 Q 119.568 99.116 119.531 98.994 L 119.531 98.994 L 119.531 98.994 Q 119.495 98.872 119.46 98.733 L 119.46 98.733 L 119.46 98.733 Q 119.426 98.594 119.399 98.452 L 119.399 98.452 L 119.399 98.452 Q 119.373 98.311 119.373 98.193 L 119.373 98.193 L 119.373 98.193 Q 119.431 98.115 119.49 98.164 L 119.49 98.164 L 119.49 98.164 Q 119.548 98.213 119.607 98.347 L 119.607 98.347 L 119.607 98.347 Q 119.666 98.481 119.722 98.689 L 119.722 98.689 L 119.722 98.689 Q 119.778 98.896 119.824 99.131 L 119.824 99.131 L 119.824 99.131 Q 119.871 99.365 119.912 99.614 L 119.912 99.614 L 119.912 99.614 Q 119.954 99.863 119.983 100.083 L 119.983 100.083 L 119.983 100.083 Q 120.012 100.303 120.032 100.474 L 120.032 100.474 L 120.032 100.474 Q 120.051 100.645 120.051 100.732 L 120.051 100.732 L 120.051 100.732 Q 120.051 100.762 120.051 100.791 L 120.051 100.791 L 120.051 100.791 Q 120.051 100.82 120.046 100.847 L 120.046 100.847 L 120.046 100.847 Q 120.042 100.874 120.02 100.896 L 120.02 100.896 L 120.02 100.896 Q 119.998 100.918 119.954 100.928 L 119.954 100.928 L 119.954 100.928 Q 119.924 100.938 119.895 100.911 L 119.895 100.911 L 119.895 100.911 Q 119.866 100.884 119.836 100.85 L 119.836 100.85 L 119.836 100.85 Q 119.807 100.815 119.79 100.784 L 119.79 100.784 L 119.79 100.784 Q 119.773 100.752 119.768 100.742 Z " fill-rule="evenodd" fill="rgb(0,0,0)"/></g></svg>