<?xml version="1.0" standalone="no"?><!-- Generator: Gravit.io --><svg xmlns="http://www.w3.org/2000/svg" xmlns:xlink="http://www.w3.org/1999/xlink" style="isolation:isolate" viewBox="0 0 210 190" width="210" height="190"><defs><clipPath id="_clipPath_QEHtq3jv5Xa0hWPOoxQjGeVJcB8YcfTm"><rect width="210" height="190"/></clipPath></defs><g clip-path="url(#_clipPath_QEHtq3jv5Xa0hWPOoxQjGeVJcB8YcfTm)"><path d=" M 195 115 L 205 135 L 185 145 L 175 125" fill="rgb(176,140,92)" stroke-width="10" stroke="rgb(145,111,68)" stroke-opacity="100000000" stroke-linejoin="round" stroke-linecap="round" stroke-miterlimit="3"/><path d=" M 55 155 L 55 185 L 85 185 L 85 175 L 125 175 L 125 185 L 155 185 L 155 155" fill="rgb(112,121,187)" stroke-width="10" stroke="rgb(80,88,153)" stroke-opacity="100000000" stroke-linejoin="round" stroke-linecap="round" stroke-miterlimit="3"/><path d=" M 85 45 L 85 15 L 105 5 L 125 15 L 125 45 L 85 45 L 85 45 L 85 45 Z " fill="rgb(176,140,92)" stroke-width="10" stroke="rgb(159,98,18)" stroke-opacity="100000000" stroke-linejoin="round" stroke-linecap="round" stroke-miterlimit="3"/><path d=" M 15 115 L 5 135 L 25 145 L 35 125" fill="rgb(176,140,92)" stroke-width="10" stroke="rgb(145,111,68)" stroke-opacity="100000000" stroke-linejoin="round" stroke-linecap="round" stroke-miterlimit="3"/><path d=" M 35 65 L 65 45 L 145 45 L 175 65 L 195 115 L 175 125 L 155 155 L 55 155 L 35 125 L 15 115 L 35 65 L 35 65 L 35 65 Z " fill="rgb(168,160,53)" stroke-width="10" stroke="rgb(138,131,25)" stroke-opacity="100000000" stroke-linejoin="round" stroke-linecap="round" stroke-miterlimit="3"/><g><path d=" M 84 115 L 74 115 L 74 125 L 84 125 L 84 135 L 74 135" fill="none" stroke-width="10" stroke="rgb(81,76,9)" stroke-opacity="100000000" stroke-linejoin="round" stroke-linecap="round" stroke-miterlimit="3"/><path d=" M 104 115 L 94 115 L 94 135 L 104 135" fill="none" stroke-width="10" stroke="rgb(117,110,20)" stroke-opacity="100000000" stroke-linejoin="round" stroke-linecap="round" stroke-miterlimit="3"/><line x1="104" y1="125" x2="94" y2="125" stroke-width="10" stroke="rgb(117,110,20)" stroke-opacity="100000000" stroke-linejoin="round" stroke-linecap="round" stroke-miterlimit="3"/><path d=" M 124 135 L 124 115 L 134 115" fill="rgb(168,160,53)" stroke-width="10" stroke="rgb(117,110,20)" stroke-opacity="100000000" stroke-linejoin="round" stroke-linecap="round" stroke-miterlimit="3"/><line x1="134" y1="125" x2="124" y2="125" stroke-width="10" stroke="rgb(117,110,20)" stroke-opacity="100000000" stroke-linejoin="round" stroke-linecap="round" stroke-miterlimit="3"/><path d=" M 114 115 L 114 135 L 124 135" fill="none" stroke-width="10" stroke="rgb(81,76,9)" stroke-opacity="100000000" stroke-linejoin="round" stroke-linecap="round" stroke-miterlimit="3"/></g><circle cx="97.49999999999972" cy="27.49999999999943" r="2.5" fill="rgb(0,0,0)"/><circle cx="112.49999999999972" cy="27.49999999999943" r="2.5" fill="rgb(0,0,0)"/><circle cx="113.49999999999972" cy="27.49999999999943" r="1" fill="rgb(255,0,0)"/><circle cx="96.49999999999972" cy="27.49999999999943" r="1" fill="rgb(255,0,0)"/><path d=" M 97 37 L 107 31 L 111 38" fill="none" stroke-width="2" stroke="rgb(0,0,0)" stroke-opacity="100000000" stroke-linejoin="round" stroke-linecap="round" stroke-miterlimit="3"/><line x1="97" y1="21" x2="101" y2="24" stroke-width="2" stroke="rgb(0,0,0)" stroke-opacity="100000000" stroke-linejoin="round" stroke-linecap="round" stroke-miterlimit="3"/><line x1="115" y1="22" x2="109" y2="24" stroke-width="2" stroke="rgb(0,0,0)" stroke-opacity="100000000" stroke-linejoin="round" stroke-linecap="round" stroke-miterlimit="3"/><line x1="155" y1="185" x2="125" y2="185" stroke-width="10" stroke="rgb(108,108,108)" stroke-opacity="100000000" stroke-linejoin="round" stroke-linecap="round" stroke-miterlimit="3"/><line x1="55" y1="185" x2="85" y2="185" stroke-width="10" stroke="rgb(108,108,108)" stroke-opacity="100000000" stroke-linejoin="round" stroke-linecap="round" stroke-miterlimit="3"/><line x1="125" y1="50" x2="125" y2="40" stroke-width="10" stroke="rgb(159,98,18)" stroke-opacity="100000000" stroke-linejoin="round" stroke-linecap="round" stroke-miterlimit="3"/><line x1="85" y1="50" x2="85" y2="40" stroke-width="10" stroke="rgb(159,98,18)" stroke-opacity="100000000" stroke-linejoin="round" stroke-linecap="round" stroke-miterlimit="3"/><path d=" M 89.525 100 L 88.905 98.5 L 85.655 98.5 L 85.035 100 L 83.375 100 L 86.495 93 L 88.095 93 L 91.225 100 L 89.525 100 Z  M 86.175 97.27 L 88.395 97.27 L 87.285 94.59 L 86.175 97.27 Z  M 93.405 100 L 93.405 94.32 L 91.165 94.32 L 91.165 93 L 97.265 93 L 97.265 94.32 L 95.025 94.32 L 95.025 100 L 93.405 100 Z  M 99.585 100 L 99.585 94.32 L 97.345 94.32 L 97.345 93 L 103.445 93 L 103.445 94.32 L 101.205 94.32 L 101.205 100 L 99.585 100 Z  M 105.925 98.7 L 109.735 98.7 L 109.735 100 L 104.315 100 L 104.315 93 L 109.605 93 L 109.605 94.3 L 105.925 94.3 L 105.925 95.82 L 109.175 95.82 L 109.175 97.08 L 105.925 97.08 L 105.925 98.7 Z  M 115.845 93 L 117.445 93 L 117.445 100 L 116.115 100 L 112.625 95.75 L 112.625 100 L 111.025 100 L 111.025 93 L 112.365 93 L 115.845 97.25 L 115.845 93 Z  M 119.105 100 L 119.105 93 L 122.285 93 L 122.285 93 Q 123.425 93 124.3 93.435 L 124.3 93.435 L 124.3 93.435 Q 125.175 93.87 125.66 94.66 L 125.66 94.66 L 125.66 94.66 Q 126.145 95.45 126.145 96.5 L 126.145 96.5 L 126.145 96.5 Q 126.145 97.55 125.66 98.34 L 125.66 98.34 L 125.66 98.34 Q 125.175 99.13 124.3 99.565 L 124.3 99.565 L 124.3 99.565 Q 123.425 100 122.285 100 L 122.285 100 L 119.105 100 Z  M 120.725 98.67 L 122.205 98.67 L 122.205 98.67 Q 123.255 98.67 123.88 98.085 L 123.88 98.085 L 123.88 98.085 Q 124.505 97.5 124.505 96.5 L 124.505 96.5 L 124.505 96.5 Q 124.505 95.5 123.88 94.915 L 123.88 94.915 L 123.88 94.915 Q 123.255 94.33 122.205 94.33 L 122.205 94.33 L 120.725 94.33 L 120.725 98.67 Z  M 102.03 89.065 L 101.72 88.315 L 100.095 88.315 L 99.785 89.065 L 98.955 89.065 L 100.515 85.565 L 101.315 85.565 L 102.88 89.065 L 102.03 89.065 Z  M 100.355 87.7 L 101.465 87.7 L 100.91 86.36 L 100.355 87.7 Z  M 105.655 85.565 L 106.455 85.565 L 106.455 89.065 L 105.79 89.065 L 104.045 86.94 L 104.045 89.065 L 103.245 89.065 L 103.245 85.565 L 103.915 85.565 L 105.655 87.69 L 105.655 85.565 Z  M 107.285 89.065 L 107.285 85.565 L 108.875 85.565 L 108.875 85.565 Q 109.445 85.565 109.883 85.783 L 109.883 85.783 L 109.883 85.783 Q 110.32 86 110.563 86.395 L 110.563 86.395 L 110.563 86.395 Q 110.805 86.79 110.805 87.315 L 110.805 87.315 L 110.805 87.315 Q 110.805 87.84 110.563 88.235 L 110.563 88.235 L 110.563 88.235 Q 110.32 88.63 109.883 88.848 L 109.883 88.848 L 109.883 88.848 Q 109.445 89.065 108.875 89.065 L 108.875 89.065 L 107.285 89.065 Z  M 108.095 88.4 L 108.835 88.4 L 108.835 88.4 Q 109.36 88.4 109.673 88.108 L 109.673 88.108 L 109.673 88.108 Q 109.985 87.815 109.985 87.315 L 109.985 87.315 L 109.985 87.315 Q 109.985 86.815 109.673 86.523 L 109.673 86.523 L 109.673 86.523 Q 109.36 86.23 108.835 86.23 L 108.835 86.23 L 108.095 86.23 L 108.095 88.4 Z  M 109.375 81.835 L 109.375 81.835 Q 108.305 81.835 107.44 81.37 L 107.44 81.37 L 107.44 81.37 Q 106.575 80.905 106.08 80.08 L 106.08 80.08 L 106.08 80.08 Q 105.585 79.255 105.585 78.215 L 105.585 78.215 L 105.585 78.215 Q 105.585 77.175 106.08 76.35 L 106.08 76.35 L 106.08 76.35 Q 106.575 75.525 107.44 75.06 L 107.44 75.06 L 107.44 75.06 Q 108.305 74.595 109.385 74.595 L 109.385 74.595 L 109.385 74.595 Q 110.295 74.595 111.03 74.915 L 111.03 74.915 L 111.03 74.915 Q 111.765 75.235 112.265 75.835 L 112.265 75.835 L 111.225 76.795 L 111.225 76.795 Q 110.515 75.975 109.465 75.975 L 109.465 75.975 L 109.465 75.975 Q 108.815 75.975 108.305 76.26 L 108.305 76.26 L 108.305 76.26 Q 107.795 76.545 107.51 77.055 L 107.51 77.055 L 107.51 77.055 Q 107.225 77.565 107.225 78.215 L 107.225 78.215 L 107.225 78.215 Q 107.225 78.865 107.51 79.375 L 107.51 79.375 L 107.51 79.375 Q 107.795 79.885 108.305 80.17 L 108.305 80.17 L 108.305 80.17 Q 108.815 80.455 109.465 80.455 L 109.465 80.455 L 109.465 80.455 Q 110.515 80.455 111.225 79.625 L 111.225 79.625 L 112.265 80.585 L 112.265 80.585 Q 111.765 81.195 111.025 81.515 L 111.025 81.515 L 111.025 81.515 Q 110.285 81.835 109.375 81.835 L 109.375 81.835 Z  M 118.585 81.715 L 117.965 80.215 L 114.715 80.215 L 114.095 81.715 L 112.435 81.715 L 115.555 74.715 L 117.155 74.715 L 120.285 81.715 L 118.585 81.715 Z  M 115.235 78.985 L 117.455 78.985 L 116.345 76.305 L 115.235 78.985 Z  M 121.015 81.715 L 121.015 74.715 L 122.635 74.715 L 122.635 80.395 L 126.145 80.395 L 126.145 81.715 L 121.015 81.715 Z  M 134.945 81.715 L 133.425 81.715 L 133.415 77.515 L 131.355 80.975 L 130.625 80.975 L 128.575 77.605 L 128.575 81.715 L 127.055 81.715 L 127.055 74.715 L 128.395 74.715 L 131.015 79.065 L 133.595 74.715 L 134.925 74.715 L 134.945 81.715 Z  M 79.845 81.715 L 77.605 78.965 L 76.665 79.945 L 76.665 81.715 L 75.055 81.715 L 75.055 74.715 L 76.665 74.715 L 76.665 77.985 L 79.765 74.715 L 81.565 74.715 L 78.665 77.835 L 81.735 81.715 L 79.845 81.715 Z  M 84.065 80.415 L 87.875 80.415 L 87.875 81.715 L 82.455 81.715 L 82.455 74.715 L 87.745 74.715 L 87.745 76.015 L 84.065 76.015 L 84.065 77.535 L 87.315 77.535 L 87.315 78.795 L 84.065 78.795 L 84.065 80.415 Z  M 90.775 80.415 L 94.585 80.415 L 94.585 81.715 L 89.165 81.715 L 89.165 74.715 L 94.455 74.715 L 94.455 76.015 L 90.775 76.015 L 90.775 77.535 L 94.025 77.535 L 94.025 78.795 L 90.775 78.795 L 90.775 80.415 Z  M 98.905 74.715 L 98.905 74.715 Q 99.835 74.715 100.52 75.025 L 100.52 75.025 L 100.52 75.025 Q 101.205 75.335 101.575 75.905 L 101.575 75.905 L 101.575 75.905 Q 101.945 76.475 101.945 77.255 L 101.945 77.255 L 101.945 77.255 Q 101.945 78.025 101.575 78.6 L 101.575 78.6 L 101.575 78.6 Q 101.205 79.175 100.52 79.48 L 100.52 79.48 L 100.52 79.48 Q 99.835 79.785 98.905 79.785 L 98.905 79.785 L 97.495 79.785 L 97.495 81.715 L 95.875 81.715 L 95.875 74.715 L 98.905 74.715 Z  M 98.815 78.465 L 98.815 78.465 Q 99.545 78.465 99.925 78.15 L 99.925 78.15 L 99.925 78.15 Q 100.305 77.835 100.305 77.255 L 100.305 77.255 L 100.305 77.255 Q 100.305 76.665 99.925 76.35 L 99.925 76.35 L 99.925 76.35 Q 99.545 76.035 98.815 76.035 L 98.815 76.035 L 97.495 76.035 L 97.495 78.465 L 98.815 78.465 Z " fill-rule="evenodd" fill="rgb(81,76,9)"/><path d=" M 95 67.5 L 115 67.5 L 115 57.5 L 110 62.5 L 105 57.5 L 100 62.5 L 95 57.5 L 95 67.5 Z " fill="rgb(117,110,20)" stroke-width="5" stroke="rgb(117,110,20)" stroke-linejoin="round" stroke-linecap="round" stroke-miterlimit="3"/></g></svg>