<?xml version="1.0" standalone="no"?><!-- Generator: Gravit.io --><svg xmlns="http://www.w3.org/2000/svg" xmlns:xlink="http://www.w3.org/1999/xlink" style="isolation:isolate" viewBox="0 0 860 430" width="860" height="430"><defs><clipPath id="_clipPath_yr7nnGDGbzCv5Wa8esFoaf4oB30IrlKE"><rect width="860" height="430"/></clipPath></defs><g clip-path="url(#_clipPath_yr7nnGDGbzCv5Wa8esFoaf4oB30IrlKE)"><clipPath id="_clipPath_b3jMErtiHbyFKYZ97nc9npgSUhbTBfJs"><rect x="0" y="0" width="860" height="430" transform="matrix(1,0,0,1,0,0)" fill="rgb(255,255,255)"/></clipPath><g clip-path="url(#_clipPath_b3jMErtiHbyFKYZ97nc9npgSUhbTBfJs)"><g><g><g><radialGradient id="_rgradient_0" fx="0.5" fy="0.5" cx="0.5" cy="0.5" r="0.5" gradientTransform="matrix(860,0,0,860,0,0)" gradientUnits="userSpaceOnUse"><stop offset="29.651162790697683%" stop-opacity="1" style="stop-color:rgb(0,0,0)"/><stop offset="77.82608695652173%" stop-opacity="0.65" style="stop-color:rgb(0,0,0)"/><stop offset="98.26086956521739%" stop-opacity="0" style="stop-color:rgb(0,0,0)"/></radialGradient><path d=" M 0 430 C 0 192.677 192.677 0 430 0 C 667.323 0 860 192.677 860 430 C 860 667.323 667.323 860 430 860 L 0 430 L 0 430 L 0 430 L 0 430 Z " fill="url(#_rgradient_0)"/></g></g></g></g><path d=" M 520 355 L 530 375 L 510 385 L 500 365" fill="rgb(176,140,92)" vector-effect="non-scaling-stroke" stroke-width="10" stroke="rgb(145,111,68)" stroke-opacity="1000000" stroke-linejoin="round" stroke-linecap="round" stroke-miterlimit="3"/><path d=" M 380 395 L 380 425 L 410 425 L 410 415 L 450 415 L 450 425 L 480 425 L 480 395" fill="rgb(112,121,187)" vector-effect="non-scaling-stroke" stroke-width="10" stroke="rgb(80,88,153)" stroke-opacity="1000000" stroke-linejoin="round" stroke-linecap="round" stroke-miterlimit="3"/><path d=" M 410 285 L 410 255 L 430 245 L 450 255 L 450 285 L 410 285 L 410 285 L 410 285 Z " fill="rgb(176,140,92)" vector-effect="non-scaling-stroke" stroke-width="10" stroke="rgb(159,98,18)" stroke-opacity="1000000" stroke-linejoin="round" stroke-linecap="round" stroke-miterlimit="3"/><path d=" M 340 355 L 330 375 L 350 385 L 360 365" fill="rgb(176,140,92)" vector-effect="non-scaling-stroke" stroke-width="10" stroke="rgb(145,111,68)" stroke-opacity="1000000" stroke-linejoin="round" stroke-linecap="round" stroke-miterlimit="3"/><path d=" M 360 305 L 390 285 L 470 285 L 500 305 L 520 355 L 500 365 L 480 395 L 380 395 L 360 365 L 340 355 L 360 305 L 360 305 L 360 305 Z " fill="rgb(168,160,53)" vector-effect="non-scaling-stroke" stroke-width="10" stroke="rgb(138,131,25)" stroke-opacity="1000000" stroke-linejoin="round" stroke-linecap="round" stroke-miterlimit="3"/><g><path d=" M 409 350 L 399 350 L 399 360 L 409 360 L 409 370 L 399 370" fill="none" vector-effect="non-scaling-stroke" stroke-width="10" stroke="rgb(81,76,9)" stroke-opacity="1000000" stroke-linejoin="round" stroke-linecap="round" stroke-miterlimit="3"/><path d=" M 429 350 L 419 350 L 419 370 L 429 370" fill="none" vector-effect="non-scaling-stroke" stroke-width="10" stroke="rgb(117,110,20)" stroke-opacity="1000000" stroke-linejoin="round" stroke-linecap="round" stroke-miterlimit="3"/><line x1="429" y1="360" x2="419" y2="360" vector-effect="non-scaling-stroke" stroke-width="10" stroke="rgb(117,110,20)" stroke-opacity="1000000" stroke-linejoin="round" stroke-linecap="round" stroke-miterlimit="3"/><path d=" M 449 370 L 449 350 L 459 350" fill="rgb(168,160,53)" vector-effect="non-scaling-stroke" stroke-width="10" stroke="rgb(117,110,20)" stroke-opacity="1000000" stroke-linejoin="round" stroke-linecap="round" stroke-miterlimit="3"/><line x1="459" y1="360" x2="449" y2="360" vector-effect="non-scaling-stroke" stroke-width="10" stroke="rgb(117,110,20)" stroke-opacity="1000000" stroke-linejoin="round" stroke-linecap="round" stroke-miterlimit="3"/><path d=" M 439 350 L 439 370 L 449 370" fill="none" vector-effect="non-scaling-stroke" stroke-width="10" stroke="rgb(81,76,9)" stroke-opacity="1000000" stroke-linejoin="round" stroke-linecap="round" stroke-miterlimit="3"/></g><circle vector-effect="non-scaling-stroke" cx="422.4999999999997" cy="267.49999999999943" r="2.5" fill="rgb(0,0,0)"/><circle vector-effect="non-scaling-stroke" cx="437.4999999999997" cy="267.49999999999943" r="2.5" fill="rgb(0,0,0)"/><circle vector-effect="non-scaling-stroke" cx="438.4999999999997" cy="267.49999999999943" r="1" fill="rgb(255,0,0)"/><circle vector-effect="non-scaling-stroke" cx="421.4999999999997" cy="267.49999999999943" r="1" fill="rgb(255,0,0)"/><path d=" M 422 277 L 432 271 L 436 278" fill="none" vector-effect="non-scaling-stroke" stroke-width="2" stroke="rgb(0,0,0)" stroke-opacity="1000000" stroke-linejoin="round" stroke-linecap="round" stroke-miterlimit="3"/><line x1="422" y1="261" x2="426" y2="264" vector-effect="non-scaling-stroke" stroke-width="2" stroke="rgb(0,0,0)" stroke-opacity="1000000" stroke-linejoin="round" stroke-linecap="round" stroke-miterlimit="3"/><line x1="440" y1="262" x2="434" y2="264" vector-effect="non-scaling-stroke" stroke-width="2" stroke="rgb(0,0,0)" stroke-opacity="1000000" stroke-linejoin="round" stroke-linecap="round" stroke-miterlimit="3"/><line x1="480" y1="425" x2="450" y2="425" vector-effect="non-scaling-stroke" stroke-width="10" stroke="rgb(108,108,108)" stroke-opacity="1000000" stroke-linejoin="round" stroke-linecap="round" stroke-miterlimit="3"/><line x1="380" y1="425" x2="410" y2="425" vector-effect="non-scaling-stroke" stroke-width="10" stroke="rgb(108,108,108)" stroke-opacity="1000000" stroke-linejoin="round" stroke-linecap="round" stroke-miterlimit="3"/><path d=" M 411.587 310.56 L 411.277 309.81 L 409.652 309.81 L 409.342 310.56 L 408.513 310.56 L 410.073 307.06 L 410.872 307.06 L 412.438 310.56 L 411.587 310.56 L 411.587 310.56 Z  M 409.913 309.195 L 411.022 309.195 L 410.467 307.855 L 409.913 309.195 L 409.913 309.195 Z  M 413.527 310.56 L 413.527 307.72 L 412.408 307.72 L 412.408 307.06 L 415.457 307.06 L 415.457 307.72 L 414.337 307.72 L 414.337 310.56 L 413.527 310.56 L 413.527 310.56 Z  M 419.953 307.71 L 418.117 307.71 L 418.117 308.635 L 419.738 308.635 L 419.738 309.285 L 418.117 309.285 L 418.117 310.56 L 417.307 310.56 L 417.307 307.06 L 419.953 307.06 L 419.953 307.71 L 419.953 307.71 Z  M 420.503 310.56 L 420.503 307.06 L 421.313 307.06 L 421.313 310.56 L 420.503 310.56 L 420.503 310.56 Z  M 425.242 310.56 L 424.372 310.56 L 423.698 309.585 L 423.658 309.585 L 422.953 309.585 L 422.953 310.56 L 422.143 310.56 L 422.143 307.06 L 423.658 307.06 L 423.658 307.06 Q 424.122 307.06 424.465 307.215 L 424.465 307.215 L 424.465 307.215 Q 424.807 307.37 424.992 307.655 L 424.992 307.655 L 424.992 307.655 Q 425.177 307.94 425.177 308.33 L 425.177 308.33 L 425.177 308.33 Q 425.177 308.72 424.99 309.003 L 424.99 309.003 L 424.99 309.003 Q 424.802 309.285 424.457 309.435 L 424.457 309.435 L 425.242 310.56 L 425.242 310.56 Z  M 424.358 308.33 L 424.358 308.33 Q 424.358 308.035 424.168 307.878 L 424.168 307.878 L 424.168 307.878 Q 423.978 307.72 423.613 307.72 L 423.613 307.72 L 422.953 307.72 L 422.953 308.94 L 423.613 308.94 L 423.613 308.94 Q 423.978 308.94 424.168 308.78 L 424.168 308.78 L 424.168 308.78 Q 424.358 308.62 424.358 308.33 L 424.358 308.33 L 424.358 308.33 Z  M 426.967 310.62 L 426.967 310.62 Q 426.552 310.62 426.165 310.508 L 426.165 310.508 L 426.165 310.508 Q 425.777 310.395 425.543 310.215 L 425.543 310.215 L 425.818 309.605 L 425.818 309.605 Q 426.043 309.77 426.353 309.87 L 426.353 309.87 L 426.353 309.87 Q 426.663 309.97 426.973 309.97 L 426.973 309.97 L 426.973 309.97 Q 427.318 309.97 427.483 309.867 L 427.483 309.867 L 427.483 309.867 Q 427.647 309.765 427.647 309.595 L 427.647 309.595 L 427.647 309.595 Q 427.647 309.47 427.55 309.388 L 427.55 309.388 L 427.55 309.388 Q 427.453 309.305 427.3 309.255 L 427.3 309.255 L 427.3 309.255 Q 427.147 309.205 426.888 309.145 L 426.888 309.145 L 426.888 309.145 Q 426.488 309.05 426.233 308.955 L 426.233 308.955 L 426.233 308.955 Q 425.978 308.86 425.795 308.65 L 425.795 308.65 L 425.795 308.65 Q 425.613 308.44 425.613 308.09 L 425.613 308.09 L 425.613 308.09 Q 425.613 307.785 425.777 307.538 L 425.777 307.538 L 425.777 307.538 Q 425.943 307.29 426.275 307.145 L 426.275 307.145 L 426.275 307.145 Q 426.608 307 427.087 307 L 427.087 307 L 427.087 307 Q 427.423 307 427.742 307.08 L 427.742 307.08 L 427.742 307.08 Q 428.063 307.16 428.302 307.31 L 428.302 307.31 L 428.052 307.925 L 428.052 307.925 Q 427.568 307.65 427.082 307.65 L 427.082 307.65 L 427.082 307.65 Q 426.742 307.65 426.58 307.76 L 426.58 307.76 L 426.58 307.76 Q 426.418 307.87 426.418 308.05 L 426.418 308.05 L 426.418 308.05 Q 426.418 308.23 426.605 308.318 L 426.605 308.318 L 426.605 308.318 Q 426.793 308.405 427.177 308.49 L 427.177 308.49 L 427.177 308.49 Q 427.578 308.585 427.832 308.68 L 427.832 308.68 L 427.832 308.68 Q 428.087 308.775 428.27 308.98 L 428.27 308.98 L 428.27 308.98 Q 428.453 309.185 428.453 309.535 L 428.453 309.535 L 428.453 309.535 Q 428.453 309.835 428.285 310.083 L 428.285 310.083 L 428.285 310.083 Q 428.117 310.33 427.783 310.475 L 427.783 310.475 L 427.783 310.475 Q 427.448 310.62 426.967 310.62 L 426.967 310.62 L 426.967 310.62 Z  M 429.733 310.56 L 429.733 307.72 L 428.613 307.72 L 428.613 307.06 L 431.663 307.06 L 431.663 307.72 L 430.543 307.72 L 430.543 310.56 L 429.733 310.56 L 429.733 310.56 Z  M 433.513 310.56 L 433.513 307.06 L 434.323 307.06 L 434.323 310.56 L 433.513 310.56 L 433.513 310.56 Z  M 437.798 307.71 L 435.962 307.71 L 435.962 308.635 L 437.582 308.635 L 437.582 309.285 L 435.962 309.285 L 435.962 310.56 L 435.152 310.56 L 435.152 307.06 L 437.798 307.06 L 437.798 307.71 L 437.798 307.71 Z  M 442.802 307.06 L 441.443 309.32 L 441.443 310.56 L 440.633 310.56 L 440.633 309.31 L 439.277 307.06 L 440.138 307.06 L 441.073 308.615 L 442.008 307.06 L 442.802 307.06 L 442.802 307.06 Z  M 444.837 310.62 L 444.837 310.62 Q 444.293 310.62 443.855 310.385 L 443.855 310.385 L 443.855 310.385 Q 443.418 310.15 443.17 309.738 L 443.17 309.738 L 443.17 309.738 Q 442.923 309.325 442.923 308.81 L 442.923 308.81 L 442.923 308.81 Q 442.923 308.295 443.17 307.883 L 443.17 307.883 L 443.17 307.883 Q 443.418 307.47 443.855 307.235 L 443.855 307.235 L 443.855 307.235 Q 444.293 307 444.837 307 L 444.837 307 L 444.837 307 Q 445.383 307 445.818 307.235 L 445.818 307.235 L 445.818 307.235 Q 446.253 307.47 446.503 307.883 L 446.503 307.883 L 446.503 307.883 Q 446.753 308.295 446.753 308.81 L 446.753 308.81 L 446.753 308.81 Q 446.753 309.325 446.503 309.738 L 446.503 309.738 L 446.503 309.738 Q 446.253 310.15 445.818 310.385 L 445.818 310.385 L 445.818 310.385 Q 445.383 310.62 444.837 310.62 L 444.837 310.62 L 444.837 310.62 Z  M 444.837 309.93 L 444.837 309.93 Q 445.147 309.93 445.397 309.788 L 445.397 309.788 L 445.397 309.788 Q 445.647 309.645 445.79 309.39 L 445.79 309.39 L 445.79 309.39 Q 445.932 309.135 445.932 308.81 L 445.932 308.81 L 445.932 308.81 Q 445.932 308.485 445.79 308.23 L 445.79 308.23 L 445.79 308.23 Q 445.647 307.975 445.397 307.833 L 445.397 307.833 L 445.397 307.833 Q 445.147 307.69 444.837 307.69 L 444.837 307.69 L 444.837 307.69 Q 444.527 307.69 444.277 307.833 L 444.277 307.833 L 444.277 307.833 Q 444.027 307.975 443.885 308.23 L 443.885 308.23 L 443.885 308.23 Q 443.742 308.485 443.742 308.81 L 443.742 308.81 L 443.742 308.81 Q 443.742 309.135 443.885 309.39 L 443.885 309.39 L 443.885 309.39 Q 444.027 309.645 444.277 309.788 L 444.277 309.788 L 444.277 309.788 Q 444.527 309.93 444.837 309.93 L 444.837 309.93 L 444.837 309.93 Z  M 448.918 310.62 L 448.918 310.62 Q 448.168 310.62 447.75 310.205 L 447.75 310.205 L 447.75 310.205 Q 447.332 309.79 447.332 309.02 L 447.332 309.02 L 447.332 307.06 L 448.143 307.06 L 448.143 308.99 L 448.143 308.99 Q 448.143 309.93 448.923 309.93 L 448.923 309.93 L 448.923 309.93 Q 449.302 309.93 449.503 309.703 L 449.503 309.703 L 449.503 309.703 Q 449.703 309.475 449.703 308.99 L 449.703 308.99 L 449.703 307.06 L 450.503 307.06 L 450.503 309.02 L 450.503 309.02 Q 450.503 309.79 450.085 310.205 L 450.085 310.205 L 450.085 310.205 Q 449.668 310.62 448.918 310.62 L 448.918 310.62 L 448.918 310.62 Z  M 408.466 316.655 L 408.466 313.155 L 410.056 313.155 L 410.056 313.155 Q 410.626 313.155 411.063 313.372 L 411.063 313.372 L 411.063 313.372 Q 411.501 313.59 411.743 313.985 L 411.743 313.985 L 411.743 313.985 Q 411.986 314.38 411.986 314.905 L 411.986 314.905 L 411.986 314.905 Q 411.986 315.43 411.743 315.825 L 411.743 315.825 L 411.743 315.825 Q 411.501 316.22 411.063 316.438 L 411.063 316.438 L 411.063 316.438 Q 410.626 316.655 410.056 316.655 L 410.056 316.655 L 408.466 316.655 L 408.466 316.655 Z  M 409.276 315.99 L 410.016 315.99 L 410.016 315.99 Q 410.54 315.99 410.853 315.698 L 410.853 315.698 L 410.853 315.698 Q 411.165 315.405 411.165 314.905 L 411.165 314.905 L 411.165 314.905 Q 411.165 314.405 410.853 314.113 L 410.853 314.113 L 410.853 314.113 Q 410.54 313.82 410.016 313.82 L 410.016 313.82 L 409.276 313.82 L 409.276 315.99 L 409.276 315.99 Z  M 414.29 316.715 L 414.29 316.715 Q 413.746 316.715 413.308 316.48 L 413.308 316.48 L 413.308 316.48 Q 412.871 316.245 412.623 315.833 L 412.623 315.833 L 412.623 315.833 Q 412.376 315.42 412.376 314.905 L 412.376 314.905 L 412.376 314.905 Q 412.376 314.39 412.623 313.978 L 412.623 313.978 L 412.623 313.978 Q 412.871 313.565 413.308 313.33 L 413.308 313.33 L 413.308 313.33 Q 413.746 313.095 414.29 313.095 L 414.29 313.095 L 414.29 313.095 Q 414.836 313.095 415.271 313.33 L 415.271 313.33 L 415.271 313.33 Q 415.706 313.565 415.956 313.978 L 415.956 313.978 L 415.956 313.978 Q 416.206 314.39 416.206 314.905 L 416.206 314.905 L 416.206 314.905 Q 416.206 315.42 415.956 315.833 L 415.956 315.833 L 415.956 315.833 Q 415.706 316.245 415.271 316.48 L 415.271 316.48 L 415.271 316.48 Q 414.836 316.715 414.29 316.715 L 414.29 316.715 L 414.29 316.715 Z  M 414.29 316.025 L 414.29 316.025 Q 414.6 316.025 414.85 315.883 L 414.85 315.883 L 414.85 315.883 Q 415.1 315.74 415.243 315.485 L 415.243 315.485 L 415.243 315.485 Q 415.385 315.23 415.385 314.905 L 415.385 314.905 L 415.385 314.905 Q 415.385 314.58 415.243 314.325 L 415.243 314.325 L 415.243 314.325 Q 415.1 314.07 414.85 313.928 L 414.85 313.928 L 414.85 313.928 Q 414.6 313.785 414.29 313.785 L 414.29 313.785 L 414.29 313.785 Q 413.98 313.785 413.73 313.928 L 413.73 313.928 L 413.73 313.928 Q 413.48 314.07 413.338 314.325 L 413.338 314.325 L 413.338 314.325 Q 413.195 314.58 413.195 314.905 L 413.195 314.905 L 413.195 314.905 Q 413.195 315.23 413.338 315.485 L 413.338 315.485 L 413.338 315.485 Q 413.48 315.74 413.73 315.883 L 413.73 315.883 L 413.73 315.883 Q 413.98 316.025 414.29 316.025 L 414.29 316.025 L 414.29 316.025 Z  M 419.225 313.155 L 420.026 313.155 L 420.026 316.655 L 419.361 316.655 L 417.616 314.53 L 417.616 316.655 L 416.815 316.655 L 416.815 313.155 L 417.486 313.155 L 419.225 315.28 L 419.225 313.155 L 419.225 313.155 Z  M 420.736 314.575 L 420.686 313.155 L 421.35 313.155 L 421.296 314.575 L 420.736 314.575 L 420.736 314.575 Z  M 422.73 316.655 L 422.73 313.815 L 421.611 313.815 L 421.611 313.155 L 424.66 313.155 L 424.66 313.815 L 423.54 313.815 L 423.54 316.655 L 422.73 316.655 L 422.73 316.655 Z  M 427.66 316.715 L 427.66 316.715 Q 427.246 316.715 426.858 316.603 L 426.858 316.603 L 426.858 316.603 Q 426.47 316.49 426.236 316.31 L 426.236 316.31 L 426.51 315.7 L 426.51 315.7 Q 426.736 315.865 427.046 315.965 L 427.046 315.965 L 427.046 315.965 Q 427.355 316.065 427.665 316.065 L 427.665 316.065 L 427.665 316.065 Q 428.01 316.065 428.176 315.962 L 428.176 315.962 L 428.176 315.962 Q 428.341 315.86 428.341 315.69 L 428.341 315.69 L 428.341 315.69 Q 428.341 315.565 428.243 315.483 L 428.243 315.483 L 428.243 315.483 Q 428.146 315.4 427.993 315.35 L 427.993 315.35 L 427.993 315.35 Q 427.841 315.3 427.581 315.24 L 427.581 315.24 L 427.581 315.24 Q 427.181 315.145 426.926 315.05 L 426.926 315.05 L 426.926 315.05 Q 426.671 314.955 426.488 314.745 L 426.488 314.745 L 426.488 314.745 Q 426.306 314.535 426.306 314.185 L 426.306 314.185 L 426.306 314.185 Q 426.306 313.88 426.47 313.633 L 426.47 313.633 L 426.47 313.633 Q 426.635 313.385 426.968 313.24 L 426.968 313.24 L 426.968 313.24 Q 427.301 313.095 427.781 313.095 L 427.781 313.095 L 427.781 313.095 Q 428.116 313.095 428.436 313.175 L 428.436 313.175 L 428.436 313.175 Q 428.755 313.255 428.996 313.405 L 428.996 313.405 L 428.746 314.02 L 428.746 314.02 Q 428.26 313.745 427.776 313.745 L 427.776 313.745 L 427.776 313.745 Q 427.436 313.745 427.273 313.855 L 427.273 313.855 L 427.273 313.855 Q 427.111 313.965 427.111 314.145 L 427.111 314.145 L 427.111 314.145 Q 427.111 314.325 427.298 314.413 L 427.298 314.413 L 427.298 314.413 Q 427.486 314.5 427.871 314.585 L 427.871 314.585 L 427.871 314.585 Q 428.271 314.68 428.526 314.775 L 428.526 314.775 L 428.526 314.775 Q 428.781 314.87 428.963 315.075 L 428.963 315.075 L 428.963 315.075 Q 429.146 315.28 429.146 315.63 L 429.146 315.63 L 429.146 315.63 Q 429.146 315.93 428.978 316.178 L 428.978 316.178 L 428.978 316.178 Q 428.811 316.425 428.475 316.57 L 428.475 316.57 L 428.475 316.57 Q 428.141 316.715 427.66 316.715 L 427.66 316.715 L 427.66 316.715 Z  M 431.255 316.715 L 431.255 316.715 Q 430.505 316.715 430.088 316.3 L 430.088 316.3 L 430.088 316.3 Q 429.671 315.885 429.671 315.115 L 429.671 315.115 L 429.671 313.155 L 430.48 313.155 L 430.48 315.085 L 430.48 315.085 Q 430.48 316.025 431.26 316.025 L 431.26 316.025 L 431.26 316.025 Q 431.641 316.025 431.841 315.798 L 431.841 315.798 L 431.841 315.798 Q 432.04 315.57 432.04 315.085 L 432.04 315.085 L 432.04 313.155 L 432.841 313.155 L 432.841 315.115 L 432.841 315.115 Q 432.841 315.885 432.423 316.3 L 432.423 316.3 L 432.423 316.3 Q 432.005 316.715 431.255 316.715 L 431.255 316.715 L 431.255 316.715 Z  M 435.315 316.715 L 435.315 316.715 Q 434.781 316.715 434.348 316.483 L 434.348 316.483 L 434.348 316.483 Q 433.915 316.25 433.668 315.837 L 433.668 315.837 L 433.668 315.837 Q 433.421 315.425 433.421 314.905 L 433.421 314.905 L 433.421 314.905 Q 433.421 314.385 433.668 313.973 L 433.668 313.973 L 433.668 313.973 Q 433.915 313.56 434.348 313.328 L 434.348 313.328 L 434.348 313.328 Q 434.781 313.095 435.32 313.095 L 435.32 313.095 L 435.32 313.095 Q 435.776 313.095 436.143 313.255 L 436.143 313.255 L 436.143 313.255 Q 436.51 313.415 436.76 313.715 L 436.76 313.715 L 436.241 314.195 L 436.241 314.195 Q 435.885 313.785 435.361 313.785 L 435.361 313.785 L 435.361 313.785 Q 435.035 313.785 434.781 313.928 L 434.781 313.928 L 434.781 313.928 Q 434.526 314.07 434.383 314.325 L 434.383 314.325 L 434.383 314.325 Q 434.241 314.58 434.241 314.905 L 434.241 314.905 L 434.241 314.905 Q 434.241 315.23 434.383 315.485 L 434.383 315.485 L 434.383 315.485 Q 434.526 315.74 434.781 315.883 L 434.781 315.883 L 434.781 315.883 Q 435.035 316.025 435.361 316.025 L 435.361 316.025 L 435.361 316.025 Q 435.885 316.025 436.241 315.61 L 436.241 315.61 L 436.76 316.09 L 436.76 316.09 Q 436.51 316.395 436.141 316.555 L 436.141 316.555 L 436.141 316.555 Q 435.771 316.715 435.315 316.715 L 435.315 316.715 L 435.315 316.715 Z  M 438.98 316.715 L 438.98 316.715 Q 438.445 316.715 438.013 316.483 L 438.013 316.483 L 438.013 316.483 Q 437.581 316.25 437.333 315.837 L 437.333 315.837 L 437.333 315.837 Q 437.086 315.425 437.086 314.905 L 437.086 314.905 L 437.086 314.905 Q 437.086 314.385 437.333 313.973 L 437.333 313.973 L 437.333 313.973 Q 437.581 313.56 438.013 313.328 L 438.013 313.328 L 438.013 313.328 Q 438.445 313.095 438.986 313.095 L 438.986 313.095 L 438.986 313.095 Q 439.44 313.095 439.808 313.255 L 439.808 313.255 L 439.808 313.255 Q 440.176 313.415 440.426 313.715 L 440.426 313.715 L 439.906 314.195 L 439.906 314.195 Q 439.551 313.785 439.026 313.785 L 439.026 313.785 L 439.026 313.785 Q 438.701 313.785 438.445 313.928 L 438.445 313.928 L 438.445 313.928 Q 438.19 314.07 438.048 314.325 L 438.048 314.325 L 438.048 314.325 Q 437.906 314.58 437.906 314.905 L 437.906 314.905 L 437.906 314.905 Q 437.906 315.23 438.048 315.485 L 438.048 315.485 L 438.048 315.485 Q 438.19 315.74 438.445 315.883 L 438.445 315.883 L 438.445 315.883 Q 438.701 316.025 439.026 316.025 L 439.026 316.025 L 439.026 316.025 Q 439.551 316.025 439.906 315.61 L 439.906 315.61 L 440.426 316.09 L 440.426 316.09 Q 440.176 316.395 439.806 316.555 L 439.806 316.555 L 439.806 316.555 Q 439.436 316.715 438.98 316.715 L 438.98 316.715 L 438.98 316.715 Z  M 441.776 316.005 L 443.681 316.005 L 443.681 316.655 L 440.97 316.655 L 440.97 313.155 L 443.616 313.155 L 443.616 313.805 L 441.776 313.805 L 441.776 314.565 L 443.401 314.565 L 443.401 315.195 L 441.776 315.195 L 441.776 316.005 L 441.776 316.005 Z  M 445.13 316.005 L 447.035 316.005 L 447.035 316.655 L 444.326 316.655 L 444.326 313.155 L 446.97 313.155 L 446.97 313.805 L 445.13 313.805 L 445.13 314.565 L 446.755 314.565 L 446.755 315.195 L 445.13 315.195 L 445.13 316.005 L 445.13 316.005 Z  M 447.681 316.655 L 447.681 313.155 L 449.271 313.155 L 449.271 313.155 Q 449.841 313.155 450.278 313.372 L 450.278 313.372 L 450.278 313.372 Q 450.716 313.59 450.958 313.985 L 450.958 313.985 L 450.958 313.985 Q 451.201 314.38 451.201 314.905 L 451.201 314.905 L 451.201 314.905 Q 451.201 315.43 450.958 315.825 L 450.958 315.825 L 450.958 315.825 Q 450.716 316.22 450.278 316.438 L 450.278 316.438 L 450.278 316.438 Q 449.841 316.655 449.271 316.655 L 449.271 316.655 L 447.681 316.655 L 447.681 316.655 Z  M 448.491 315.99 L 449.23 315.99 L 449.23 315.99 Q 449.755 315.99 450.068 315.698 L 450.068 315.698 L 450.068 315.698 Q 450.38 315.405 450.38 314.905 L 450.38 314.905 L 450.38 314.905 Q 450.38 314.405 450.068 314.113 L 450.068 314.113 L 450.068 314.113 Q 449.755 313.82 449.23 313.82 L 449.23 313.82 L 448.491 313.82 L 448.491 315.99 L 448.491 315.99 Z  M 419.313 332.43 L 417.033 332.43 L 417.018 326.13 L 413.927 331.32 L 412.832 331.32 L 409.758 326.265 L 409.758 332.43 L 407.478 332.43 L 407.478 321.93 L 409.488 321.93 L 413.418 328.455 L 417.288 321.93 L 419.283 321.93 L 419.313 332.43 L 419.313 332.43 Z  M 429.647 332.43 L 428.717 330.18 L 423.842 330.18 L 422.913 332.43 L 420.423 332.43 L 425.103 321.93 L 427.503 321.93 L 432.198 332.43 L 429.647 332.43 L 429.647 332.43 Z  M 424.622 328.335 L 427.953 328.335 L 426.288 324.315 L 424.622 328.335 L 424.622 328.335 Z  M 440.478 332.43 L 437.117 328.305 L 435.707 329.775 L 435.707 332.43 L 433.293 332.43 L 433.293 321.93 L 435.707 321.93 L 435.707 326.835 L 440.358 321.93 L 443.057 321.93 L 438.707 326.61 L 443.313 332.43 L 440.478 332.43 L 440.478 332.43 Z  M 446.807 330.48 L 452.522 330.48 L 452.522 332.43 L 444.393 332.43 L 444.393 321.93 L 452.328 321.93 L 452.328 323.88 L 446.807 323.88 L 446.807 326.16 L 451.682 326.16 L 451.682 328.05 L 446.807 328.05 L 446.807 330.48 L 446.807 330.48 Z " fill-rule="evenodd" fill="rgb(81,76,9)"/><line x1="450" y1="290" x2="450" y2="280" vector-effect="non-scaling-stroke" stroke-width="10" stroke="rgb(159,98,18)" stroke-opacity="1000000" stroke-linejoin="round" stroke-linecap="round" stroke-miterlimit="3"/><line x1="410" y1="290" x2="410" y2="280" vector-effect="non-scaling-stroke" stroke-width="10" stroke="rgb(159,98,18)" stroke-opacity="1000000" stroke-linejoin="round" stroke-linecap="round" stroke-miterlimit="3"/></g></svg>