<svg xmlns="http://www.w3.org/2000/svg" xmlns:xlink="http://www.w3.org/1999/xlink" viewBox="0 0 860 430" width="860" height="430"><radialGradient id="_rgradient_0" fx="0.5" fy="0.5" cx="0.5" cy="0.5" r="0.5" gradientTransform="matrix(860,0,0,860,0,0)" gradientUnits="userSpaceOnUse"><stop offset="30%" stop-opacity="1" style="stop-color:#000"/><stop offset="78%" stop-opacity="0.65" style="stop-color:#000"/><stop offset="98%" stop-opacity="0" style="stop-color:#000"/></radialGradient><path d="M0 430C0 192.677 192.677 0 430 0C667.323 0 860 192.677 860 430C860 667.323 667.323 860 430 860L0 430L0 430L0 430L0 430Z" fill="url(#_rgradient_0)"/><path d="M520 355L530 375L510 385L500 365" fill="#b08c5c" stroke-width="10" stroke="#916f44" stroke-linejoin="round" stroke-linecap="round"/><path d="M380 395L380 425L410 425L410 415L450 415L450 425L480 425L480 395" fill="#7079bb" stroke-width="10" stroke="#505899" stroke-linejoin="round" stroke-linecap="round"/><path d="M410 285L410 255L430 245L450 255L450 285L410 285L410 285L410 285Z" fill="#b08c5c" stroke-width="10" stroke="#9f6212" stroke-linejoin="round" stroke-linecap="round"/><path d="M340 355L330 375L350 385L360 365" fill="#b08c5c" stroke-width="10" stroke="#916f44" stroke-linejoin="round" stroke-linecap="round"/><path d="M360 305L390 285L470 285L500 305L520 355L500 365L480 395L380 395L360 365L340 355L360 305L360 305L360 305Z" fill="#a8a035" stroke-width="10" stroke="#8a8319" stroke-linejoin="round" stroke-linecap="round"/><path d="M409 350L399 350L399 360L409 360L409 370L399 370" fill="none" stroke-width="10" stroke="#514c09" stroke-linejoin="round" stroke-linecap="round"/><path d="M429 350L419 350L419 370L429 370" fill="none" stroke-width="10" stroke="#756e14" stroke-linejoin="round" stroke-linecap="round"/><line x1="429" y1="360" x2="419" y2="360" stroke-width="10" stroke="#756e14" stroke-linejoin="round" stroke-linecap="round"/><path d="M449 370L449 350L459 350" fill="#a8a035" stroke-width="10" stroke="#756e14" stroke-linejoin="round" stroke-linecap="round"/><line x1="459" y1="360" x2="449" y2="360" stroke-width="10" stroke="#756e14" stroke-linejoin="round" stroke-linecap="round"/><path d="M439 350L439 370L449 370" fill="none" stroke-width="10" stroke="#514c09" stroke-linejoin="round" stroke-linecap="round"/><circle cx="422" cy="267" r="2.5" fill="#000"/><circle cx="437" cy="267" r="2.5" fill="#000"/><circle cx="438" cy="267" r="1" fill="#ff0000"/><circle cx="421" cy="267" r="1" fill="#ff0000"/><path d="M422 277L432 271L436 278" fill="none" stroke-width="2" stroke="#000" stroke-linejoin="round" stroke-linecap="round"/><line x1="422" y1="261" x2="426" y2="264" stroke-width="2" stroke="#000" stroke-linejoin="round" stroke-linecap="round"/><line x1="440" y1="262" x2="434" y2="264" stroke-width="2" stroke="#000" stroke-linejoin="round" stroke-linecap="round"/><line x1="480" y1="425" x2="450" y2="425" stroke-width="10" stroke="#6c6c6c" stroke-linejoin="round" stroke-linecap="round"/><line x1="380" y1="425" x2="410" y2="425" stroke-width="10" stroke="#6c6c6c" stroke-linejoin="round" stroke-linecap="round"/><path d="M411.587 310.56L411.277 309.81L409.652 309.81L409.342 310.56L408.513 310.56L410.073 307.06L410.872 307.06L412.438 310.56L411.587 310.56L411.587 310.56ZM409.913 309.195L411.022 309.195L410.467 307.855L409.913 309.195L409.913 309.195ZM413.527 310.56L413.527 307.72L412.408 307.72L412.408 307.06L415.457 307.06L415.457 307.72L414.337 307.72L414.337 310.56L413.527 310.56L413.527 310.56ZM419.953 307.71L418.117 307.71L418.117 308.635L419.738 308.635L419.738 309.285L418.117 309.285L418.117 310.56L417.307 310.56L417.307 307.06L419.953 307.06L419.953 307.71L419.953 307.71ZM420.503 310.56L420.503 307.06L421.313 307.06L421.313 310.56L420.503 310.56L420.503 310.56ZM425.242 310.56L424.372 310.56L423.698 309.585L423.658 309.585L422.953 309.585L422.953 310.56L422.143 310.56L422.143 307.06L423.658 307.06L423.658 307.06Q424.122 307.06 424.465 307.215L424.465 307.215L424.465 307.215Q424.807 307.37 424.992 307.655L424.992 307.655L424.992 307.655Q425.177 307.94 425.177 308.33L425.177 308.33L425.177 308.33Q425.177 308.72 424.99 309.003L424.99 309.003L424.99 309.003Q424.802 309.285 424.457 309.435L424.457 309.435L425.242 310.56L425.242 310.56ZM424.358 308.33L424.358 308.33Q424.358 308.035 424.168 307.878L424.168 307.878L424.168 307.878Q423.978 307.72 423.613 307.72L423.613 307.72L422.953 307.72L422.953 308.94L423.613 308.94L423.613 308.94Q423.978 308.94 424.168 308.78L424.168 308.78L424.168 308.78Q424.358 308.62 424.358 308.33L424.358 308.33L424.358 308.33ZM426.967 310.62L426.967 310.62Q426.552 310.62 426.165 310.508L426.165 310.508L426.165 310.508Q425.777 310.395 425.543 310.215L425.543 310.215L425.818 309.605L425.818 309.605Q426.043 309.77 426.353 309.87L426.353 309.87L426.353 309.87Q426.663 309.97 426.973 309.97L426.973 309.97L426.973 309.97Q427.318 309.97 427.483 309.867L427.483 309.867L427.483 309.867Q427.647 309.765 427.647 309.595L427.647 309.595L427.647 309.595Q427.647 309.47 427.55 309.388L427.55 309.388L427.55 309.388Q427.453 309.305 427.3 309.255L427.3 309.255L427.3 309.255Q427.147 309.205 426.888 309.145L426.888 309.145L426.888 309.145Q426.488 309.05 426.233 308.955L426.233 308.955L426.233 308.955Q425.978 308.86 425.795 308.65L425.795 308.65L425.795 308.65Q425.613 308.44 425.613 308.09L425.613 308.09L425.613 308.09Q425.613 307.785 425.777 307.538L425.777 307.538L425.777 307.538Q425.943 307.29 426.275 307.145L426.275 307.145L426.275 307.145Q426.608 307 427.087 307L427.087 307L427.087 307Q427.423 307 427.742 307.08L427.742 307.08L427.742 307.08Q428.063 307.16 428.302 307.31L428.302 307.31L428.052 307.925L428.052 307.925Q427.568 307.65 427.082 307.65L427.082 307.65L427.082 307.65Q426.742 307.65 426.58 307.76L426.58 307.76L426.58 307.76Q426.418 307.87 426.418 308.05L426.418 308.05L426.418 308.05Q426.418 308.23 426.605 308.318L426.605 308.318L426.605 308.318Q426.793 308.405 427.177 308.49L427.177 308.49L427.177 308.49Q427.578 308.585 427.832 308.68L427.832 308.68L427.832 308.68Q428.087 308.775 428.27 308.98L428.27 308.98L428.27 308.98Q428.453 309.185 428.453 309.535L428.453 309.535L428.453 309.535Q428.453 309.835 428.285 310.083L428.285 310.083L428.285 310.083Q428.117 310.33 427.783 310.475L427.783 310.475L427.783 310.475Q427.448 310.62 426.967 310.62L426.967 310.62L426.967 310.62ZM429.733 310.56L429.733 307.72L428.613 307.72L428.613 307.06L431.663 307.06L431.663 307.72L430.543 307.72L430.543 310.56L429.733 310.56L429.733 310.56ZM433.513 310.56L433.513 307.06L434.323 307.06L434.323 310.56L433.513 310.56L433.513 310.56ZM437.798 307.71L435.962 307.71L435.962 308.635L437.582 308.635L437.582 309.285L435.962 309.285L435.962 310.56L435.152 310.56L435.152 307.06L437.798 307.06L437.798 307.71L437.798 307.71ZM442.802 307.06L441.443 309.32L441.443 310.56L440.633 310.56L440.633 309.31L439.277 307.06L440.138 307.06L441.073 308.615L442.008 307.06L442.802 307.06L442.802 307.06ZM444.837 310.62L444.837 310.62Q444.293 310.62 443.855 310.385L443.855 310.385L443.855 310.385Q443.418 310.15 443.17 309.738L443.17 309.738L443.17 309.738Q442.923 309.325 442.923 308.81L442.923 308.81L442.923 308.81Q442.923 308.295 443.17 307.883L443.17 307.883L443.17 307.883Q443.418 307.47 443.855 307.235L443.855 307.235L443.855 307.235Q444.293 307 444.837 307L444.837 307L444.837 307Q445.383 307 445.818 307.235L445.818 307.235L445.818 307.235Q446.253 307.47 446.503 307.883L446.503 307.883L446.503 307.883Q446.753 308.295 446.753 308.81L446.753 308.81L446.753 308.81Q446.753 309.325 446.503 309.738L446.503 309.738L446.503 309.738Q446.253 310.15 445.818 310.385L445.818 310.385L445.818 310.385Q445.383 310.62 444.837 310.62L444.837 310.62L444.837 310.62ZM444.837 309.93L444.837 309.93Q445.147 309.93 445.397 309.788L445.397 309.788L445.397 309.788Q445.647 309.645 445.79 309.39L445.79 309.39L445.79 309.39Q445.932 309.135 445.932 308.81L445.932 308.81L445.932 308.81Q445.932 308.485 445.79 308.23L445.79 308.23L445.79 308.23Q445.647 307.975 445.397 307.833L445.397 307.833L445.397 307.833Q445.147 307.69 444.837 307.69L444.837 307.69L444.837 307.69Q444.527 307.69 444.277 307.833L444.277 307.833L444.277 307.833Q444.027 307.975 443.885 308.23L443.885 308.23L443.885 308.23Q443.742 308.485 443.742 308.81L443.742 308.81L443.742 308.81Q443.742 309.135 443.885 309.39L443.885 309.39L443.885 309.39Q444.027 309.645 444.277 309.788L444.277 309.788L444.277 309.788Q444.527 309.93 444.837 309.93L444.837 309.93L444.837 309.93ZM448.918 310.62L448.918 310.62Q448.168 310.62 447.75 310.205L447.75 310.205L447.75 310.205Q447.332 309.79 447.332 309.02L447.332 309.02L447.332 307.06L448.143 307.06L448.143 308.99L448.143 308.99Q448.143 309.93 448.923 309.93L448.923 309.93L448.923 309.93Q449.302 309.93 449.503 309.703L449.503 309.703L449.503 309.703Q449.703 309.475 449.703 308.99L449.703 308.99L449.703 307.06L450.503 307.06L450.503 309.02L450.503 309.02Q450.503 309.79 450.085 310.205L450.085 310.205L450.085 310.205Q449.668 310.62 448.918 310.62L448.918 310.62L448.918 310.62ZM408.466 316.655L408.466 313.155L410.056 313.155L410.056 313.155Q410.626 313.155 411.063 313.372L411.063 313.372L411.063 313.372Q411.501 313.59 411.743 313.985L411.743 313.985L411.743 313.985Q411.986 314.38 411.986 314.905L411.986 314.905L411.986 314.905Q411.986 315.43 411.743 315.825L411.743 315.825L411.743 315.825Q411.501 316.22 411.063 316.438L411.063 316.438L411.063 316.438Q410.626 316.655 410.056 316.655L410.056 316.655L408.466 316.655L408.466 316.655ZM409.276 315.99L410.016 315.99L410.016 315.99Q410.54 315.99 410.853 315.698L410.853 315.698L410.853 315.698Q411.165 315.405 411.165 314.905L411.165 314.905L411.165 314.905Q411.165 314.405 410.853 314.113L410.853 314.113L410.853 314.113Q410.54 313.82 410.016 313.82L410.016 313.82L409.276 313.82L409.276 315.99L409.276 315.99ZM414.29 316.715L414.29 316.715Q413.746 316.715 413.308 316.48L413.308 316.48L413.308 316.48Q412.871 316.245 412.623 315.833L412.623 315.833L412.623 315.833Q412.376 315.42 412.376 314.905L412.376 314.905L412.376 314.905Q412.376 314.39 412.623 313.978L412.623 313.978L412.623 313.978Q412.871 313.565 413.308 313.33L413.308 313.33L413.308 313.33Q413.746 313.095 414.29 313.095L414.29 313.095L414.29 313.095Q414.836 313.095 415.271 313.33L415.271 313.33L415.271 313.33Q415.706 313.565 415.956 313.978L415.956 313.978L415.956 313.978Q416.206 314.39 416.206 314.905L416.206 314.905L416.206 314.905Q416.206 315.42 415.956 315.833L415.956 315.833L415.956 315.833Q415.706 316.245 415.271 316.48L415.271 316.48L415.271 316.48Q414.836 316.715 414.29 316.715L414.29 316.715L414.29 316.715ZM414.29 316.025L414.29 316.025Q414.6 316.025 414.85 315.883L414.85 315.883L414.85 315.883Q415.1 315.74 415.243 315.485L415.243 315.485L415.243 315.485Q415.385 315.23 415.385 314.905L415.385 314.905L415.385 314.905Q415.385 314.58 415.243 314.325L415.243 314.325L415.243 314.325Q415.1 314.07 414.85 313.928L414.85 313.928L414.85 313.928Q414.6 313.785 414.29 313.785L414.29 313.785L414.29 313.785Q413.98 313.785 413.73 313.928L413.73 313.928L413.73 313.928Q413.48 314.07 413.338 314.325L413.338 314.325L413.338 314.325Q413.195 314.58 413.195 314.905L413.195 314.905L413.195 314.905Q413.195 315.23 413.338 315.485L413.338 315.485L413.338 315.485Q413.48 315.74 413.73 315.883L413.73 315.883L413.73 315.883Q413.98 316.025 414.29 316.025L414.29 316.025L414.29 316.025ZM419.225 313.155L420.026 313.155L420.026 316.655L419.361 316.655L417.616 314.53L417.616 316.655L416.815 316.655L416.815 313.155L417.486 313.155L419.225 315.28L419.225 313.155L419.225 313.155ZM420.736 314.575L420.686 313.155L421.35 313.155L421.296 314.575L420.736 314.575L420.736 314.575ZM422.73 316.655L422.73 313.815L421.611 313.815L421.611 313.155L424.66 313.155L424.66 313.815L423.54 313.815L423.54 316.655L422.73 316.655L422.73 316.655ZM427.66 316.715L427.66 316.715Q427.246 316.715 426.858 316.603L426.858 316.603L426.858 316.603Q426.47 316.49 426.236 316.31L426.236 316.31L426.51 315.7L426.51 315.7Q426.736 315.865 427.046 315.965L427.046 315.965L427.046 315.965Q427.355 316.065 427.665 316.065L427.665 316.065L427.665 316.065Q428.01 316.065 428.176 315.962L428.176 315.962L428.176 315.962Q428.341 315.86 428.341 315.69L428.341 315.69L428.341 315.69Q428.341 315.565 428.243 315.483L428.243 315.483L428.243 315.483Q428.146 315.4 427.993 315.35L427.993 315.35L427.993 315.35Q427.841 315.3 427.581 315.24L427.581 315.24L427.581 315.24Q427.181 315.145 426.926 315.05L426.926 315.05L426.926 315.05Q426.671 314.955 426.488 314.745L426.488 314.745L426.488 314.745Q426.306 314.535 426.306 314.185L426.306 314.185L426.306 314.185Q426.306 313.88 426.47 313.633L426.47 313.633L426.47 313.633Q426.635 313.385 426.968 313.24L426.968 313.24L426.968 313.24Q427.301 313.095 427.781 313.095L427.781 313.095L427.781 313.095Q428.116 313.095 428.436 313.175L428.436 313.175L428.436 313.175Q428.755 313.255 428.996 313.405L428.996 313.405L428.746 314.02L428.746 314.02Q428.26 313.745 427.776 313.745L427.776 313.745L427.776 313.745Q427.436 313.745 427.273 313.855L427.273 313.855L427.273 313.855Q427.111 313.965 427.111 314.145L427.111 314.145L427.111 314.145Q427.111 314.325 427.298 314.413L427.298 314.413L427.298 314.413Q427.486 314.5 427.871 314.585L427.871 314.585L427.871 314.585Q428.271 314.68 428.526 314.775L428.526 314.775L428.526 314.775Q428.781 314.87 428.963 315.075L428.963 315.075L428.963 315.075Q429.146 315.28 429.146 315.63L429.146 315.63L429.146 315.63Q429.146 315.93 428.978 316.178L428.978 316.178L428.978 316.178Q428.811 316.425 428.475 316.57L428.475 316.57L428.475 316.57Q428.141 316.715 427.66 316.715L427.66 316.715L427.66 316.715ZM431.255 316.715L431.255 316.715Q430.505 316.715 430.088 316.3L430.088 316.3L430.088 316.3Q429.671 315.885 429.671 315.115L429.671 315.115L429.671 313.155L430.48 313.155L430.48 315.085L430.48 315.085Q430.48 316.025 431.26 316.025L431.26 316.025L431.26 316.025Q431.641 316.025 431.841 315.798L431.841 315.798L431.841 315.798Q432.04 315.57 432.04 315.085L432.04 315.085L432.04 313.155L432.841 313.155L432.841 315.115L432.841 315.115Q432.841 315.885 432.423 316.3L432.423 316.3L432.423 316.3Q432.005 316.715 431.255 316.715L431.255 316.715L431.255 316.715ZM435.315 316.715L435.315 316.715Q434.781 316.715 434.348 316.483L434.348 316.483L434.348 316.483Q433.915 316.25 433.668 315.837L433.668 315.837L433.668 315.837Q433.421 315.425 433.421 314.905L433.421 314.905L433.421 314.905Q433.421 314.385 433.668 313.973L433.668 313.973L433.668 313.973Q433.915 313.56 434.348 313.328L434.348 313.328L434.348 313.328Q434.781 313.095 435.32 313.095L435.32 313.095L435.32 313.095Q435.776 313.095 436.143 313.255L436.143 313.255L436.143 313.255Q436.51 313.415 436.76 313.715L436.76 313.715L436.241 314.195L436.241 314.195Q435.885 313.785 435.361 313.785L435.361 313.785L435.361 313.785Q435.035 313.785 434.781 313.928L434.781 313.928L434.781 313.928Q434.526 314.07 434.383 314.325L434.383 314.325L434.383 314.325Q434.241 314.58 434.241 314.905L434.241 314.905L434.241 314.905Q434.241 315.23 434.383 315.485L434.383 315.485L434.383 315.485Q434.526 315.74 434.781 315.883L434.781 315.883L434.781 315.883Q435.035 316.025 435.361 316.025L435.361 316.025L435.361 316.025Q435.885 316.025 436.241 315.61L436.241 315.61L436.76 316.09L436.76 316.09Q436.51 316.395 436.141 316.555L436.141 316.555L436.141 316.555Q435.771 316.715 435.315 316.715L435.315 316.715L435.315 316.715ZM438.98 316.715L438.98 316.715Q438.445 316.715 438.013 316.483L438.013 316.483L438.013 316.483Q437.581 316.25 437.333 315.837L437.333 315.837L437.333 315.837Q437.086 315.425 437.086 314.905L437.086 314.905L437.086 314.905Q437.086 314.385 437.333 313.973L437.333 313.973L437.333 313.973Q437.581 313.56 438.013 313.328L438.013 313.328L438.013 313.328Q438.445 313.095 438.986 313.095L438.986 313.095L438.986 313.095Q439.44 313.095 439.808 313.255L439.808 313.255L439.808 313.255Q440.176 313.415 440.426 313.715L440.426 313.715L439.906 314.195L439.906 314.195Q439.551 313.785 439.026 313.785L439.026 313.785L439.026 313.785Q438.701 313.785 438.445 313.928L438.445 313.928L438.445 313.928Q438.19 314.07 438.048 314.325L438.048 314.325L438.048 314.325Q437.906 314.58 437.906 314.905L437.906 314.905L437.906 314.905Q437.906 315.23 438.048 315.485L438.048 315.485L438.048 315.485Q438.19 315.74 438.445 315.883L438.445 315.883L438.445 315.883Q438.701 316.025 439.026 316.025L439.026 316.025L439.026 316.025Q439.551 316.025 439.906 315.61L439.906 315.61L440.426 316.09L440.426 316.09Q440.176 316.395 439.806 316.555L439.806 316.555L439.806 316.555Q439.436 316.715 438.98 316.715L438.98 316.715L438.98 316.715ZM441.776 316.005L443.681 316.005L443.681 316.655L440.97 316.655L440.97 313.155L443.616 313.155L443.616 313.805L441.776 313.805L441.776 314.565L443.401 314.565L443.401 315.195L441.776 315.195L441.776 316.005L441.776 316.005ZM445.13 316.005L447.035 316.005L447.035 316.655L444.326 316.655L444.326 313.155L446.97 313.155L446.97 313.805L445.13 313.805L445.13 314.565L446.755 314.565L446.755 315.195L445.13 315.195L445.13 316.005L445.13 316.005ZM447.681 316.655L447.681 313.155L449.271 313.155L449.271 313.155Q449.841 313.155 450.278 313.372L450.278 313.372L450.278 313.372Q450.716 313.59 450.958 313.985L450.958 313.985L450.958 313.985Q451.201 314.38 451.201 314.905L451.201 314.905L451.201 314.905Q451.201 315.43 450.958 315.825L450.958 315.825L450.958 315.825Q450.716 316.22 450.278 316.438L450.278 316.438L450.278 316.438Q449.841 316.655 449.271 316.655L449.271 316.655L447.681 316.655L447.681 316.655ZM448.491 315.99L449.23 315.99L449.23 315.99Q449.755 315.99 450.068 315.698L450.068 315.698L450.068 315.698Q450.38 315.405 450.38 314.905L450.38 314.905L450.38 314.905Q450.38 314.405 450.068 314.113L450.068 314.113L450.068 314.113Q449.755 313.82 449.23 313.82L449.23 313.82L448.491 313.82L448.491 315.99L448.491 315.99ZM419.313 332.43L417.033 332.43L417.018 326.13L413.927 331.32L412.832 331.32L409.758 326.265L409.758 332.43L407.478 332.43L407.478 321.93L409.488 321.93L413.418 328.455L417.288 321.93L419.283 321.93L419.313 332.43L419.313 332.43ZM429.647 332.43L428.717 330.18L423.842 330.18L422.913 332.43L420.423 332.43L425.103 321.93L427.503 321.93L432.198 332.43L429.647 332.43L429.647 332.43ZM424.622 328.335L427.953 328.335L426.288 324.315L424.622 328.335L424.622 328.335ZM440.478 332.43L437.117 328.305L435.707 329.775L435.707 332.43L433.293 332.43L433.293 321.93L435.707 321.93L435.707 326.835L440.358 321.93L443.057 321.93L438.707 326.61L443.313 332.43L440.478 332.43L440.478 332.43ZM446.807 330.48L452.522 330.48L452.522 332.43L444.393 332.43L444.393 321.93L452.328 321.93L452.328 323.88L446.807 323.88L446.807 326.16L451.682 326.16L451.682 328.05L446.807 328.05L446.807 330.48L446.807 330.48Z" fill="#514c09"/><line x1="450" y1="290" x2="450" y2="280" stroke-width="10" stroke="#9f6212" stroke-linejoin="round" stroke-linecap="round"/><line x1="410" y1="290" x2="410" y2="280" stroke-width="10" stroke="#9f6212" stroke-linejoin="round" stroke-linecap="round"/></svg>