<svg xmlns="http://www.w3.org/2000/svg" xmlns:xlink="http://www.w3.org/1999/xlink" viewBox="0 0 70 45" width="70" height="45"><path d="M5 10L15 10L15 40L15 30L55 30L55 40L55 10L65 10L5 10Z" fill="#937939" stroke-width="10" stroke="#685118" stroke-linejoin="round" stroke-linecap="round"/><line x1="42.5" y1="2.5" x2="27.5" y2="2.5" stroke-width="5" stroke="#d2cd2c" stroke-linejoin="round" stroke-linecap="round"/><path d="M28.205 3.193L28.207 3.199L28.207 3.199Q28.207 3.215 28.196 3.221L28.196 3.221L28.196 3.221Q28.186 3.227 28.191 3.248L28.191 3.248L28.191 3.248Q28.176 3.25 28.164 3.264L28.164 3.264L28.164 3.264Q28.152 3.277 28.137 3.277L28.137 3.277L28.137 3.277Q28.127 3.277 28.121 3.268L28.121 3.268L28.121 3.268Q28.117 3.281 28.106 3.287L28.106 3.287L28.106 3.287Q28.096 3.293 28.084 3.297L28.084 3.297L28.084 3.297Q28.072 3.301 28.061 3.307L28.061 3.307L28.061 3.307Q28.049 3.313 28.045 3.324L28.045 3.324L28.035 3.324L28.035 3.324Q28.012 3.324 27.999 3.344L27.999 3.344L27.999 3.344Q27.986 3.363 27.969 3.363L27.969 3.363L27.969 3.363Q27.963 3.363 27.961 3.361L27.961 3.361L27.961 3.361Q27.951 3.363 27.953 3.374L27.953 3.374L27.953 3.374Q27.955 3.385 27.947 3.389L27.947 3.389L27.938 3.389L27.938 3.389Q27.887 3.389 27.834 3.41L27.834 3.41L27.834 3.41Q27.781 3.432 27.728 3.459L27.728 3.459L27.728 3.459Q27.674 3.486 27.618 3.511L27.618 3.511L27.618 3.511Q27.563 3.535 27.506 3.543L27.506 3.543L27.506 3.543Q27.494 3.555 27.478 3.562L27.478 3.562L27.478 3.562Q27.461 3.568 27.441 3.572L27.441 3.572L27.441 3.572Q27.422 3.576 27.403 3.581L27.403 3.581L27.403 3.581Q27.385 3.586 27.371 3.598L27.371 3.598L27.371 3.598Q27.322 3.602 27.273 3.615L27.273 3.615L27.273 3.615Q27.225 3.629 27.177 3.642L27.177 3.642L27.177 3.642Q27.129 3.654 27.079 3.663L27.079 3.663L27.079 3.663Q27.029 3.672 26.979 3.668L26.979 3.668L26.979 3.668Q26.963 3.68 26.944 3.687L26.944 3.687L26.944 3.687Q26.926 3.693 26.91 3.705L26.91 3.705L26.91 3.705Q26.83 3.693 26.751 3.688L26.751 3.688L26.751 3.688Q26.672 3.682 26.596 3.66L26.596 3.66L26.596 3.66Q26.596 3.654 26.592 3.652L26.592 3.652L26.592 3.652Q26.588 3.65 26.583 3.649L26.583 3.649L26.583 3.649Q26.578 3.648 26.574 3.646L26.574 3.646L26.574 3.646Q26.57 3.643 26.574 3.635L26.574 3.635L26.574 3.635Q26.557 3.641 26.543 3.641L26.543 3.641L26.543 3.641Q26.523 3.641 26.505 3.631L26.505 3.631L26.505 3.631Q26.486 3.621 26.466 3.609L26.466 3.609L26.466 3.609Q26.445 3.598 26.424 3.587L26.424 3.587L26.424 3.587Q26.402 3.576 26.377 3.576L26.377 3.576L26.377 3.576Q26.361 3.561 26.349 3.545L26.349 3.545L26.349 3.545Q26.336 3.529 26.33 3.506L26.33 3.506L26.33 3.506Q26.322 3.504 26.313 3.506L26.313 3.506L26.313 3.506Q26.305 3.508 26.299 3.508L26.299 3.508L26.299 3.508Q26.287 3.508 26.287 3.5L26.287 3.5L26.287 3.5Q26.246 3.471 26.229 3.438L26.229 3.438L26.229 3.438Q26.211 3.404 26.189 3.361L26.189 3.361L26.189 3.361Q26.184 3.348 26.175 3.339L26.175 3.339L26.175 3.339Q26.166 3.33 26.162 3.318L26.162 3.318L26.162 3.318Q26.154 3.299 26.152 3.277L26.152 3.277L26.152 3.277Q26.15 3.256 26.149 3.235L26.149 3.235L26.149 3.235Q26.148 3.215 26.144 3.194L26.144 3.194L26.144 3.194Q26.139 3.174 26.125 3.156L26.125 3.156L26.125 3.156Q26.129 3.082 26.142 3.008L26.142 3.008L26.142 3.008Q26.154 2.934 26.174 2.859L26.174 2.859L26.174 2.859Q26.182 2.826 26.191 2.795L26.191 2.795L26.191 2.795Q26.201 2.764 26.209 2.73L26.209 2.73L26.209 2.73Q26.211 2.719 26.216 2.714L26.216 2.714L26.216 2.714Q26.221 2.709 26.225 2.707L26.225 2.707L26.232 2.701L26.232 2.701Q26.236 2.697 26.238 2.689L26.238 2.689L26.254 2.623L26.254 2.623Q26.27 2.559 26.295 2.498L26.295 2.498L26.295 2.498Q26.32 2.438 26.363 2.387L26.363 2.387L26.363 2.387Q26.367 2.338 26.386 2.294L26.386 2.294L26.386 2.294Q26.404 2.25 26.428 2.208L26.428 2.208L26.428 2.208Q26.451 2.166 26.475 2.125L26.475 2.125L26.475 2.125Q26.498 2.084 26.512 2.037L26.512 2.037L26.51 2.033L26.51 2.033Q26.51 2.025 26.519 2.024L26.519 2.024L26.519 2.024Q26.527 2.023 26.531 2.023L26.531 2.023L26.531 2.023Q26.533 1.992 26.546 1.97L26.546 1.97L26.546 1.97Q26.559 1.947 26.573 1.928L26.573 1.928L26.573 1.928Q26.588 1.908 26.601 1.886L26.601 1.886L26.601 1.886Q26.613 1.863 26.615 1.832L26.615 1.832L26.615 1.832Q26.652 1.811 26.679 1.778L26.679 1.778L26.679 1.778Q26.705 1.746 26.729 1.712L26.729 1.712L26.729 1.712Q26.754 1.678 26.781 1.646L26.781 1.646L26.781 1.646Q26.809 1.613 26.848 1.594L26.848 1.594L26.848 1.594Q26.857 1.582 26.854 1.561L26.854 1.561L26.854 1.561Q26.914 1.516 26.979 1.48L26.979 1.48L26.979 1.48Q27.043 1.445 27.1 1.398L27.1 1.398L27.17 1.398L27.17 1.398Q27.195 1.379 27.227 1.379L27.227 1.379L27.227 1.379Q27.25 1.379 27.272 1.389L27.272 1.389L27.272 1.389Q27.295 1.398 27.315 1.411L27.315 1.411L27.315 1.411Q27.336 1.424 27.357 1.437L27.357 1.437L27.357 1.437Q27.379 1.449 27.4 1.455L27.4 1.455L27.4 1.455Q27.422 1.484 27.431 1.522L27.431 1.522L27.431 1.522Q27.439 1.561 27.449 1.594L27.449 1.594L27.449 1.594Q27.432 1.646 27.428 1.702L27.428 1.702L27.428 1.702Q27.424 1.758 27.414 1.813L27.414 1.813L27.414 1.813Q27.4 1.828 27.391 1.847L27.391 1.847L27.391 1.847Q27.381 1.865 27.37 1.884L27.37 1.884L27.37 1.884Q27.359 1.902 27.348 1.919L27.348 1.919L27.348 1.919Q27.336 1.936 27.316 1.945L27.316 1.945L27.316 1.945Q27.301 2.002 27.268 2.035L27.268 2.035L27.268 2.035Q27.234 2.068 27.203 2.113L27.203 2.113L27.203 2.113Q27.174 2.133 27.141 2.133L27.141 2.133L27.141 2.133Q27.113 2.133 27.092 2.12L27.092 2.12L27.092 2.12Q27.07 2.107 27.053 2.087L27.053 2.087L27.053 2.087Q27.035 2.066 27.024 2.042L27.024 2.042L27.024 2.042Q27.014 2.018 27.008 1.994L27.008 1.994L27.008 1.994Q27.021 1.953 27.052 1.924L27.052 1.924L27.052 1.924Q27.082 1.895 27.113 1.865L27.113 1.865L27.113 1.865Q27.145 1.836 27.168 1.803L27.168 1.803L27.168 1.803Q27.191 1.77 27.191 1.723L27.191 1.723L27.191 1.723Q27.191 1.719 27.19 1.715L27.19 1.715L27.19 1.715Q27.189 1.711 27.189 1.707L27.189 1.707L27.189 1.707Q27.189 1.699 27.195 1.693L27.195 1.693L27.195 1.693Q27.201 1.688 27.207 1.684L27.207 1.684L27.219 1.674L27.219 1.674Q27.225 1.668 27.225 1.66L27.225 1.66L27.225 1.66Q27.225 1.652 27.217 1.645L27.217 1.645L27.217 1.645Q27.143 1.65 27.104 1.67L27.104 1.67L27.104 1.67Q27.066 1.689 27.045 1.713L27.045 1.713L27.045 1.713Q27.023 1.736 27.007 1.759L27.007 1.759L27.007 1.759Q26.99 1.781 26.959 1.791L26.959 1.791L26.959 1.791Q26.953 1.806 26.942 1.817L26.942 1.817L26.942 1.817Q26.932 1.828 26.92 1.839L26.92 1.839L26.92 1.839Q26.908 1.849 26.899 1.863L26.899 1.863L26.899 1.863Q26.891 1.877 26.889 1.896L26.889 1.896L26.854 1.896L26.854 1.896Q26.846 1.914 26.831 1.93L26.831 1.93L26.831 1.93Q26.816 1.947 26.802 1.963L26.802 1.963L26.802 1.963Q26.787 1.978 26.776 1.997L26.776 1.997L26.776 1.997Q26.766 2.015 26.77 2.037L26.77 2.037L26.77 2.037Q26.748 2.044 26.737 2.062L26.737 2.062L26.737 2.062Q26.727 2.08 26.707 2.091L26.707 2.091L26.707 2.103L26.707 2.103Q26.707 2.119 26.701 2.132L26.701 2.132L26.701 2.132Q26.695 2.146 26.699 2.162L26.699 2.162L26.699 2.162Q26.676 2.183 26.665 2.215L26.665 2.215L26.665 2.215Q26.654 2.247 26.643 2.275L26.643 2.275L26.643 2.275Q26.615 2.288 26.605 2.312L26.605 2.312L26.605 2.312Q26.596 2.335 26.596 2.366L26.596 2.366L26.596 2.366Q26.566 2.396 26.543 2.435L26.543 2.435L26.543 2.435Q26.52 2.474 26.501 2.515L26.501 2.515L26.501 2.515Q26.482 2.556 26.467 2.599L26.467 2.599L26.467 2.599Q26.451 2.642 26.434 2.679L26.434 2.679L26.434 2.735L26.434 2.735Q26.406 2.766 26.396 2.808L26.396 2.808L26.396 2.808Q26.385 2.85 26.363 2.883L26.363 2.883L26.363 2.883Q26.359 2.905 26.36 2.926L26.36 2.926L26.36 2.926Q26.361 2.948 26.361 2.969L26.361 2.969L26.361 2.969Q26.361 2.993 26.357 3.018L26.357 3.018L26.357 3.018Q26.354 3.043 26.344 3.065L26.344 3.065L26.344 3.065Q26.352 3.094 26.355 3.134L26.355 3.134L26.355 3.134Q26.359 3.174 26.369 3.214L26.369 3.214L26.369 3.214Q26.379 3.254 26.396 3.286L26.396 3.286L26.396 3.286Q26.414 3.319 26.447 3.33L26.447 3.33L26.447 3.33Q26.455 3.373 26.485 3.396L26.485 3.396L26.485 3.396Q26.516 3.418 26.555 3.432L26.555 3.432L26.555 3.432Q26.594 3.445 26.635 3.456L26.635 3.456L26.635 3.456Q26.676 3.467 26.707 3.484L26.707 3.484L26.707 3.484Q26.719 3.479 26.734 3.479L26.734 3.479L26.734 3.479Q26.75 3.479 26.763 3.482L26.763 3.482L26.763 3.482Q26.775 3.486 26.791 3.49L26.791 3.49L26.791 3.49Q26.818 3.486 26.858 3.486L26.858 3.486L26.858 3.486Q26.898 3.486 26.939 3.483L26.939 3.483L26.939 3.483Q26.98 3.481 27.016 3.473L27.016 3.473L27.016 3.473Q27.051 3.465 27.072 3.444L27.072 3.444L27.072 3.444Q27.086 3.444 27.091 3.451L27.091 3.451L27.091 3.451Q27.096 3.459 27.109 3.459L27.109 3.459L27.109 3.459Q27.123 3.459 27.15 3.452L27.15 3.452L27.15 3.452Q27.178 3.446 27.207 3.437L27.207 3.437L27.207 3.437Q27.236 3.428 27.263 3.418L27.263 3.418L27.263 3.418Q27.289 3.409 27.301 3.401L27.301 3.401L27.301 3.401Q27.307 3.403 27.313 3.403L27.313 3.403L27.326 3.403L27.326 3.403Q27.354 3.403 27.377 3.393L27.377 3.393L27.377 3.393Q27.4 3.383 27.428 3.387L27.428 3.387L27.428 3.387Q27.518 3.343 27.61 3.311L27.61 3.311L27.61 3.311Q27.703 3.278 27.799 3.253L27.799 3.253L27.799 3.253Q27.811 3.236 27.827 3.228L27.827 3.228L27.827 3.228Q27.844 3.22 27.863 3.215L27.863 3.215L27.863 3.215Q27.883 3.21 27.902 3.208L27.902 3.208L27.902 3.208Q27.922 3.205 27.939 3.199L27.939 3.199L27.939 3.199Q27.951 3.193 27.96 3.184L27.96 3.184L27.96 3.184Q27.969 3.176 27.982 3.17L27.982 3.17L27.982 3.17Q27.996 3.164 28.013 3.162L28.013 3.162L28.013 3.162Q28.029 3.16 28.046 3.157L28.046 3.157L28.046 3.157Q28.063 3.154 28.077 3.148L28.077 3.148L28.077 3.148Q28.092 3.143 28.102 3.129L28.102 3.129L28.102 3.129Q28.129 3.141 28.157 3.154L28.157 3.154L28.157 3.154Q28.186 3.168 28.205 3.193L28.205 3.193ZM29.543 3.543L29.543 3.543L29.543 3.543Q29.543 3.566 29.529 3.583L29.529 3.583L29.529 3.583Q29.516 3.6 29.496 3.61L29.496 3.61L29.496 3.61Q29.477 3.621 29.455 3.63L29.455 3.63L29.455 3.63Q29.434 3.639 29.418 3.648L29.418 3.648L29.418 3.648Q29.373 3.639 29.324 3.632L29.324 3.632L29.324 3.632Q29.275 3.625 29.236 3.605L29.236 3.605L29.236 3.605Q29.156 3.518 29.124 3.403L29.124 3.403L29.124 3.403Q29.092 3.289 29.082 3.176L29.082 3.176L29.082 3.176Q29.078 3.143 29.078 3.11L29.078 3.11L29.078 3.11Q29.078 3.078 29.074 3.045L29.074 3.045L29.074 3.045Q29.07 3.016 29.039 3.01L29.039 3.01L29.039 3.01Q29.063 3.006 29.072 2.985L29.072 2.985L29.072 2.985Q29.082 2.965 29.084 2.938L29.084 2.938L29.084 2.938Q29.086 2.912 29.085 2.886L29.085 2.886L29.085 2.886Q29.084 2.859 29.088 2.842L29.088 2.842L29.088 2.842Q29.072 2.848 29.061 2.868L29.061 2.868L29.061 2.868Q29.049 2.889 29.039 2.914L29.039 2.914L29.039 2.914Q29.029 2.939 29.021 2.964L29.021 2.964L29.021 2.964Q29.012 2.988 29.004 3.002L29.004 3.002L29.004 3.002Q28.922 3.143 28.813 3.258L28.813 3.258L28.813 3.258Q28.705 3.373 28.59 3.486L28.59 3.486L28.59 3.486Q28.557 3.498 28.527 3.517L28.527 3.517L28.527 3.517Q28.498 3.535 28.473 3.557L28.473 3.557L28.473 3.557Q28.398 3.578 28.332 3.578L28.332 3.578L28.332 3.578Q28.271 3.578 28.213 3.562L28.213 3.562L28.213 3.562Q28.154 3.545 28.107 3.506L28.107 3.506L28.035 3.342L28.035 3.342Q28.029 3.326 28.021 3.31L28.021 3.31L28.021 3.31Q28.014 3.293 28.01 3.277L28.01 3.277L28.01 3.277Q28.006 3.26 28.007 3.239L28.007 3.239L28.007 3.239Q28.008 3.219 28.008 3.203L28.008 3.203L28.008 3.203Q28.008 3.135 28.013 3.065L28.013 3.065L28.013 3.065Q28.018 2.996 28.027 2.928L28.027 2.928L28.027 2.928Q28.031 2.9 28.039 2.871L28.039 2.871L28.039 2.871Q28.047 2.842 28.051 2.814L28.051 2.814L28.051 2.793L28.051 2.793Q28.051 2.783 28.049 2.769L28.049 2.769L28.049 2.769Q28.047 2.754 28.037 2.75L28.037 2.75L28.037 2.75Q28.084 2.637 28.084 2.514L28.084 2.514L28.084 2.514Q28.084 2.494 28.083 2.476L28.083 2.476L28.083 2.476Q28.082 2.457 28.08 2.438L28.08 2.438L28.08 2.438Q28.094 2.424 28.098 2.405L28.098 2.405L28.098 2.405Q28.102 2.387 28.102 2.366L28.102 2.366L28.102 2.366Q28.102 2.346 28.103 2.326L28.103 2.326L28.103 2.326Q28.104 2.307 28.113 2.289L28.113 2.289L28.113 2.289Q28.111 2.268 28.11 2.247L28.11 2.247L28.11 2.247Q28.109 2.227 28.109 2.205L28.109 2.205L28.109 2.205Q28.109 2.074 28.13 1.946L28.13 1.946L28.13 1.946Q28.15 1.818 28.15 1.688L28.15 1.688L28.15 1.605L28.15 1.605Q28.15 1.578 28.151 1.549L28.151 1.549L28.151 1.549Q28.152 1.52 28.159 1.492L28.159 1.492L28.159 1.492Q28.166 1.465 28.18 1.44L28.18 1.44L28.18 1.44Q28.193 1.416 28.219 1.398L28.219 1.398L28.219 1.398Q28.223 1.398 28.226 1.397L28.226 1.397L28.226 1.397Q28.229 1.396 28.232 1.396L28.232 1.396L28.232 1.396Q28.25 1.396 28.26 1.405L28.26 1.405L28.26 1.405Q28.27 1.414 28.289 1.412L28.289 1.412L28.289 1.412Q28.324 1.463 28.345 1.52L28.345 1.52L28.345 1.52Q28.365 1.576 28.365 1.639L28.365 1.639L28.365 1.639Q28.365 1.686 28.352 1.73L28.352 1.73L28.352 1.73Q28.338 1.775 28.338 1.824L28.338 1.824L28.338 1.824Q28.338 1.844 28.34 1.863L28.34 1.863L28.34 1.863Q28.342 1.883 28.342 1.902L28.342 1.902L28.342 1.902Q28.342 1.922 28.337 1.94L28.337 1.94L28.337 1.94Q28.332 1.959 28.318 1.973L28.318 1.973L28.318 1.973Q28.322 2.012 28.324 2.052L28.324 2.052L28.324 2.052Q28.326 2.092 28.326 2.131L28.326 2.131L28.326 2.131Q28.326 2.242 28.313 2.354L28.313 2.354L28.313 2.354Q28.299 2.465 28.281 2.576L28.281 2.576L28.281 2.576Q28.264 2.688 28.25 2.799L28.25 2.799L28.25 2.799Q28.236 2.91 28.236 3.023L28.236 3.023L28.236 3.08L28.236 3.08Q28.236 3.107 28.24 3.137L28.24 3.137L28.24 3.137Q28.229 3.164 28.229 3.195L28.229 3.195L28.229 3.195Q28.229 3.238 28.248 3.279L28.248 3.279L28.248 3.279Q28.268 3.32 28.295 3.354L28.295 3.354L28.295 3.354Q28.305 3.355 28.313 3.356L28.313 3.356L28.313 3.356Q28.322 3.357 28.332 3.357L28.332 3.357L28.332 3.357Q28.383 3.357 28.423 3.336L28.423 3.336L28.423 3.336Q28.463 3.314 28.499 3.283L28.499 3.283L28.499 3.283Q28.535 3.252 28.57 3.219L28.57 3.219L28.57 3.219Q28.605 3.186 28.646 3.164L28.646 3.164L28.646 3.164Q28.709 3.084 28.764 3.003L28.764 3.003L28.764 3.003Q28.818 2.922 28.869 2.834L28.869 2.834L28.869 2.834Q28.873 2.787 28.894 2.739L28.894 2.739L28.894 2.739Q28.914 2.691 28.937 2.645L28.937 2.645L28.937 2.645Q28.959 2.598 28.978 2.553L28.978 2.553L28.978 2.553Q28.996 2.508 28.996 2.467L28.996 2.467L28.996 2.467Q28.996 2.445 28.982 2.438L28.982 2.438L28.982 2.438Q29.002 2.387 29.012 2.332L29.012 2.332L29.012 2.332Q29.021 2.277 29.028 2.223L29.028 2.223L29.028 2.223Q29.035 2.168 29.043 2.114L29.043 2.114L29.043 2.114Q29.051 2.061 29.066 2.008L29.066 2.008L29.066 2.008Q29.066 1.996 29.065 1.984L29.065 1.984L29.065 1.984Q29.064 1.973 29.064 1.961L29.064 1.961L29.064 1.961Q29.064 1.871 29.082 1.784L29.082 1.784L29.082 1.784Q29.1 1.697 29.1 1.607L29.1 1.607L29.1 1.607Q29.1 1.586 29.097 1.567L29.097 1.567L29.097 1.567Q29.094 1.549 29.094 1.531L29.094 1.531L29.094 1.531Q29.094 1.516 29.104 1.512L29.104 1.512L29.104 1.512Q29.115 1.508 29.115 1.49L29.115 1.49L29.115 1.49Q29.115 1.475 29.112 1.457L29.112 1.457L29.112 1.457Q29.109 1.439 29.109 1.42L29.109 1.42L29.109 1.42Q29.109 1.359 29.121 1.301L29.121 1.301L29.121 1.301Q29.133 1.242 29.133 1.182L29.133 1.182L29.133 1.158L29.133 1.158Q29.133 1.145 29.129 1.133L29.129 1.133L29.129 1.133Q29.143 1.111 29.166 1.104L29.166 1.104L29.166 1.104Q29.189 1.098 29.211 1.098L29.211 1.098L29.211 1.098Q29.246 1.098 29.27 1.105L29.27 1.105L29.27 1.105Q29.307 1.205 29.332 1.31L29.332 1.31L29.332 1.31Q29.357 1.414 29.373 1.521L29.373 1.521L29.373 1.521Q29.377 1.547 29.384 1.575L29.384 1.575L29.384 1.575Q29.391 1.604 29.391 1.631L29.391 1.631L29.391 1.631Q29.391 1.637 29.388 1.645L29.388 1.645L29.388 1.645Q29.385 1.652 29.383 1.66L29.383 1.66L29.383 1.66Q29.381 1.676 29.38 1.691L29.38 1.691L29.38 1.691Q29.379 1.707 29.379 1.723L29.379 1.723L29.379 1.723Q29.379 1.77 29.385 1.816L29.385 1.816L29.385 1.816Q29.391 1.863 29.391 1.912L29.391 1.912L29.391 1.912Q29.391 1.967 29.376 2.017L29.376 2.017L29.376 2.017Q29.361 2.066 29.354 2.121L29.354 2.121L29.354 2.121Q29.346 2.178 29.348 2.232L29.348 2.232L29.348 2.232Q29.35 2.287 29.34 2.344L29.34 2.344L29.34 2.344Q29.336 2.367 29.328 2.39L29.328 2.39L29.328 2.39Q29.32 2.412 29.32 2.438L29.32 2.438L29.32 2.438Q29.32 2.455 29.323 2.473L29.323 2.473L29.323 2.473Q29.326 2.49 29.326 2.51L29.326 2.51L29.326 2.51Q29.326 2.539 29.313 2.555L29.313 2.555L29.313 2.555Q29.316 2.57 29.318 2.583L29.318 2.583L29.318 2.583Q29.32 2.596 29.326 2.611L29.326 2.611L29.326 2.611Q29.316 2.623 29.313 2.637L29.313 2.637L29.313 2.637Q29.309 2.65 29.309 2.666L29.309 2.666L29.309 2.666Q29.309 2.686 29.311 2.702L29.311 2.702L29.311 2.702Q29.313 2.719 29.313 2.736L29.313 2.736L29.313 2.736Q29.313 2.777 29.3 2.814L29.3 2.814L29.3 2.814Q29.287 2.852 29.283 2.891L29.283 2.891L29.283 2.891Q29.281 2.918 29.282 2.944L29.282 2.944L29.282 2.944Q29.283 2.971 29.283 2.998L29.283 2.998L29.283 2.998Q29.283 3.027 29.28 3.055L29.28 3.055L29.28 3.055Q29.277 3.082 29.264 3.109L29.264 3.109L29.264 3.109Q29.268 3.121 29.273 3.133L29.273 3.133L29.273 3.133Q29.279 3.145 29.291 3.15L29.291 3.15L29.291 3.15Q29.291 3.211 29.308 3.272L29.308 3.272L29.308 3.272Q29.324 3.334 29.354 3.389L29.354 3.389L29.354 3.389Q29.359 3.4 29.371 3.406L29.371 3.406L29.371 3.406Q29.383 3.412 29.393 3.419L29.393 3.419L29.393 3.419Q29.402 3.426 29.408 3.436L29.408 3.436L29.408 3.436Q29.414 3.445 29.41 3.465L29.41 3.465L29.41 3.465Q29.414 3.467 29.422 3.467L29.422 3.467L29.422 3.467Q29.438 3.467 29.448 3.459L29.448 3.459L29.448 3.459Q29.459 3.451 29.475 3.451L29.475 3.451L29.488 3.451L29.488 3.451Q29.506 3.469 29.524 3.492L29.524 3.492L29.524 3.492Q29.543 3.516 29.543 3.543ZM31.98 3.391L31.98 3.391L31.98 3.391Q31.977 3.43 31.953 3.452L31.953 3.452L31.953 3.452Q31.93 3.475 31.893 3.475L31.893 3.475L31.893 3.475Q31.873 3.475 31.855 3.469L31.855 3.469L31.855 3.469Q31.818 3.498 31.768 3.514L31.768 3.514L31.768 3.514Q31.717 3.529 31.672 3.545L31.672 3.545L31.672 3.545Q31.617 3.543 31.564 3.535L31.564 3.535L31.564 3.535Q31.512 3.527 31.455 3.531L31.455 3.531L31.455 3.531Q31.436 3.518 31.414 3.514L31.414 3.514L31.414 3.514Q31.393 3.51 31.37 3.509L31.37 3.509L31.37 3.509Q31.348 3.508 31.327 3.502L31.327 3.502L31.327 3.502Q31.307 3.496 31.287 3.475L31.287 3.475L31.189 3.475L31.189 3.475Q31.176 3.475 31.149 3.462L31.149 3.462L31.149 3.462Q31.123 3.449 31.091 3.436L31.091 3.436L31.091 3.436Q31.059 3.422 31.022 3.41L31.022 3.41L31.022 3.41Q30.986 3.398 30.955 3.398L30.955 3.398L30.943 3.398L30.943 3.398Q30.922 3.381 30.894 3.372L30.894 3.372L30.894 3.372Q30.865 3.363 30.836 3.356L30.836 3.356L30.836 3.356Q30.807 3.35 30.779 3.342L30.779 3.342L30.779 3.342Q30.752 3.334 30.732 3.32L30.732 3.32L30.732 3.32Q30.713 3.307 30.688 3.292L30.688 3.292L30.688 3.292Q30.662 3.277 30.635 3.279L30.635 3.279L30.635 3.279Q30.598 3.258 30.558 3.242L30.558 3.242L30.558 3.242Q30.518 3.227 30.477 3.213L30.477 3.213L30.396 3.184L30.396 3.184Q30.357 3.168 30.318 3.146L30.318 3.146L30.318 3.146Q30.313 3.148 30.305 3.146L30.305 3.146L30.305 3.146Q30.297 3.145 30.291 3.145L30.291 3.145L30.291 3.145Q30.279 3.145 30.277 3.152L30.277 3.152L30.277 3.152Q30.264 3.139 30.247 3.129L30.247 3.129L30.247 3.129Q30.23 3.119 30.215 3.105L30.215 3.105L30.215 3.105Q30.207 3.107 30.2 3.108L30.2 3.108L30.2 3.108Q30.193 3.109 30.184 3.109L30.184 3.109L30.184 3.109Q30.166 3.109 30.149 3.105L30.149 3.105L30.149 3.105Q30.133 3.102 30.117 3.096L30.117 3.096L30.117 3.096Q30.1 3.135 30.094 3.184L30.094 3.184L30.094 3.184Q30.088 3.232 30.085 3.284L30.085 3.284L30.085 3.284Q30.082 3.336 30.078 3.388L30.078 3.388L30.078 3.388Q30.074 3.439 30.061 3.482L30.061 3.482L30.061 3.482Q30.064 3.498 30.064 3.514L30.064 3.514L30.064 3.547L30.064 3.547Q30.064 3.58 30.074 3.6L30.074 3.6L30.074 3.6Q30.07 3.617 30.067 3.633L30.067 3.633L30.067 3.633Q30.064 3.648 30.061 3.664L30.061 3.664L30.061 3.664Q30.063 3.686 30.063 3.704L30.063 3.704L30.063 3.704Q30.064 3.723 30.064 3.744L30.064 3.744L30.064 3.777L30.064 3.777Q30.064 3.795 30.061 3.813L30.061 3.813L30.061 3.813Q30.041 3.824 30.021 3.835L30.021 3.835L30.021 3.835Q30.002 3.846 29.982 3.861L29.982 3.861L29.982 3.861Q29.969 3.836 29.936 3.832L29.936 3.832L29.936 3.832Q29.928 3.842 29.925 3.858L29.925 3.858L29.925 3.858Q29.922 3.875 29.906 3.875L29.906 3.875L29.906 3.875Q29.879 3.854 29.861 3.84L29.861 3.84L29.861 3.84Q29.844 3.826 29.822 3.799L29.822 3.799L29.822 3.799Q29.82 3.795 29.82 3.789L29.82 3.789L29.82 3.789Q29.82 3.779 29.824 3.771L29.824 3.771L29.824 3.771Q29.828 3.764 29.828 3.756L29.828 3.756L29.828 3.756Q29.828 3.732 29.822 3.715L29.822 3.715L29.822 3.715Q29.818 3.689 29.816 3.665L29.816 3.665L29.816 3.665Q29.814 3.641 29.814 3.617L29.814 3.617L29.814 3.617Q29.814 3.584 29.819 3.553L29.819 3.553L29.819 3.553Q29.824 3.521 29.838 3.488L29.838 3.488L29.838 3.488Q29.859 3.432 29.868 3.369L29.868 3.369L29.868 3.369Q29.877 3.307 29.881 3.243L29.881 3.243L29.881 3.243Q29.885 3.18 29.886 3.115L29.886 3.115L29.886 3.115Q29.887 3.051 29.893 2.992L29.893 2.992L29.893 2.992Q29.879 2.961 29.86 2.942L29.86 2.942L29.86 2.942Q29.842 2.924 29.842 2.883L29.842 2.883L29.842 2.883Q29.842 2.846 29.865 2.825L29.865 2.825L29.865 2.825Q29.889 2.805 29.906 2.775L29.906 2.775L29.906 2.775Q29.902 2.764 29.912 2.76L29.912 2.76L29.936 2.555L29.936 2.555Q29.938 2.533 29.942 2.508L29.942 2.508L29.942 2.508Q29.947 2.482 29.949 2.461L29.949 2.461L29.949 2.461Q29.953 2.416 29.953 2.373L29.953 2.373L29.953 2.373Q29.953 2.33 29.957 2.287L29.957 2.287L29.957 2.287Q29.967 2.191 29.976 2.098L29.976 2.098L29.976 2.098Q29.984 2.004 29.984 1.91L29.984 1.91L29.984 1.91Q29.984 1.865 29.981 1.82L29.981 1.82L29.981 1.82Q29.979 1.775 29.969 1.73L29.969 1.73L29.969 1.73Q29.936 1.74 29.896 1.751L29.896 1.751L29.896 1.751Q29.855 1.762 29.828 1.787L29.828 1.787L29.813 1.787L29.813 1.787Q29.762 1.787 29.718 1.807L29.718 1.807L29.718 1.807Q29.674 1.826 29.629 1.844L29.629 1.844L29.629 1.844Q29.609 1.854 29.59 1.856L29.59 1.856L29.59 1.856Q29.57 1.859 29.549 1.865L29.549 1.865L29.549 1.865Q29.539 1.867 29.527 1.877L29.527 1.877L29.527 1.877Q29.516 1.887 29.506 1.891L29.506 1.891L29.473 1.898L29.473 1.898Q29.459 1.902 29.461 1.916L29.461 1.916L29.461 1.916Q29.463 1.93 29.451 1.934L29.451 1.934L29.451 1.934Q29.441 1.943 29.424 1.942L29.424 1.942L29.424 1.942Q29.406 1.941 29.396 1.941L29.396 1.941L29.389 1.941L29.389 1.941Q29.34 1.977 29.294 2.001L29.294 2.001L29.294 2.001Q29.248 2.025 29.186 2.033L29.186 2.033L29.143 2.061L29.143 2.061Q29.121 2.074 29.094 2.074L29.094 2.074L29.094 2.074Q29.072 2.074 29.059 2.066L29.059 2.066L29.059 2.066Q29.043 2.043 29.034 2.014L29.034 2.014L29.034 2.014Q29.025 1.984 29.004 1.963L29.004 1.963L29.004 1.963Q29.014 1.953 29.017 1.937L29.017 1.937L29.017 1.937Q29.02 1.92 29.023 1.906L29.023 1.906L29.023 1.906Q29.082 1.881 29.142 1.857L29.142 1.857L29.142 1.857Q29.201 1.834 29.256 1.801L29.256 1.801L29.256 1.801Q29.262 1.803 29.273 1.803L29.273 1.803L29.273 1.803Q29.293 1.803 29.309 1.797L29.309 1.797L29.309 1.797Q29.324 1.791 29.34 1.783L29.34 1.783L29.34 1.783Q29.355 1.775 29.371 1.77L29.371 1.77L29.371 1.77Q29.387 1.764 29.408 1.766L29.408 1.766L29.408 1.766Q29.475 1.729 29.549 1.705L29.549 1.705L29.549 1.705Q29.623 1.682 29.689 1.641L29.689 1.641L29.689 1.641Q29.699 1.641 29.706 1.645L29.706 1.645L29.706 1.645Q29.713 1.648 29.721 1.648L29.721 1.648L29.721 1.648Q29.729 1.648 29.73 1.646L29.73 1.646L29.73 1.646Q29.742 1.631 29.762 1.624L29.762 1.624L29.762 1.624Q29.781 1.617 29.802 1.612L29.802 1.612L29.802 1.612Q29.822 1.607 29.841 1.599L29.841 1.599L29.841 1.599Q29.859 1.59 29.865 1.57L29.865 1.57L29.865 1.57Q29.875 1.578 29.895 1.578L29.895 1.578L29.895 1.578Q29.928 1.578 29.956 1.564L29.956 1.564L29.956 1.564Q29.984 1.551 30.018 1.551L30.018 1.551L30.018 1.551Q30.025 1.551 30.032 1.554L30.032 1.554L30.032 1.554Q30.039 1.557 30.047 1.557L30.047 1.557L30.047 1.557Q30.063 1.557 30.063 1.547L30.063 1.547L30.063 1.547Q30.064 1.537 30.074 1.529L30.074 1.529L30.074 1.529Q30.193 1.508 30.312 1.49L30.312 1.49L30.312 1.49Q30.43 1.473 30.551 1.473L30.551 1.473L30.551 1.473Q30.568 1.461 30.59 1.461L30.59 1.461L30.59 1.461Q30.611 1.461 30.629 1.473L30.629 1.473L30.629 1.473Q30.662 1.469 30.695 1.467L30.695 1.467L30.695 1.467Q30.729 1.465 30.762 1.465L30.762 1.465L30.762 1.465Q30.838 1.465 30.918 1.475L30.918 1.475L30.918 1.475Q30.998 1.484 31.077 1.505L31.077 1.505L31.077 1.505Q31.156 1.525 31.229 1.56L31.229 1.56L31.229 1.56Q31.301 1.594 31.363 1.641L31.363 1.641L31.363 1.641Q31.369 1.658 31.379 1.676L31.379 1.676L31.379 1.676Q31.389 1.693 31.404 1.703L31.404 1.703L31.404 1.703Q31.404 1.707 31.403 1.709L31.403 1.709L31.403 1.709Q31.402 1.711 31.402 1.715L31.402 1.715L31.402 1.715Q31.402 1.736 31.415 1.756L31.415 1.756L31.415 1.756Q31.428 1.775 31.428 1.803L31.428 1.803L31.428 1.803Q31.428 1.83 31.419 1.857L31.419 1.857L31.419 1.857Q31.41 1.885 31.412 1.912L31.412 1.912L31.412 1.912Q31.391 1.943 31.376 1.969L31.376 1.969L31.376 1.969Q31.361 1.994 31.357 2.033L31.357 2.033L31.357 2.033Q31.322 2.068 31.295 2.11L31.295 2.11L31.295 2.11Q31.268 2.152 31.239 2.192L31.239 2.192L31.239 2.192Q31.211 2.232 31.176 2.266L31.176 2.266L31.176 2.266Q31.141 2.299 31.092 2.318L31.092 2.318L31.092 2.318Q31.09 2.338 31.076 2.361L31.076 2.361L31.035 2.361L31.035 2.361Q31.029 2.377 31.016 2.385L31.016 2.385L30.988 2.4L30.988 2.4Q30.975 2.408 30.966 2.42L30.966 2.42L30.966 2.42Q30.957 2.432 30.957 2.453L30.957 2.453L30.957 2.453Q30.953 2.451 30.947 2.451L30.947 2.451L30.947 2.451Q30.928 2.451 30.901 2.471L30.901 2.471L30.901 2.471Q30.875 2.49 30.859 2.502L30.859 2.502L30.859 2.502Q30.826 2.525 30.792 2.545L30.792 2.545L30.792 2.545Q30.758 2.564 30.732 2.6L30.732 2.6L30.732 2.6Q30.654 2.633 30.584 2.677L30.584 2.677L30.584 2.677Q30.514 2.721 30.432 2.746L30.432 2.746L30.432 2.746Q30.4 2.779 30.358 2.798L30.358 2.798L30.358 2.798Q30.316 2.816 30.277 2.838L30.277 2.838L30.277 2.844L30.277 2.844Q30.277 2.859 30.289 2.874L30.289 2.874L30.289 2.874Q30.301 2.889 30.316 2.899L30.316 2.899L30.316 2.899Q30.332 2.91 30.351 2.914L30.351 2.914L30.351 2.914Q30.369 2.918 30.383 2.914L30.383 2.914L30.383 2.914Q30.422 2.949 30.473 2.971L30.473 2.971L30.473 2.971Q30.523 2.992 30.578 3.01L30.578 3.01L30.578 3.01Q30.633 3.027 30.686 3.047L30.686 3.047L30.686 3.047Q30.738 3.066 30.783 3.096L30.783 3.096L30.83 3.096L30.83 3.096Q30.875 3.135 30.937 3.154L30.937 3.154L30.937 3.154Q30.998 3.174 31.055 3.189L31.055 3.189L31.055 3.189Q31.078 3.211 31.114 3.222L31.114 3.222L31.114 3.222Q31.15 3.232 31.184 3.232L31.184 3.232L31.195 3.232L31.195 3.232Q31.203 3.232 31.209 3.23L31.209 3.23L31.209 3.234L31.209 3.234Q31.209 3.244 31.215 3.247L31.215 3.247L31.215 3.247Q31.221 3.25 31.228 3.251L31.228 3.251L31.228 3.251Q31.234 3.252 31.241 3.255L31.241 3.255L31.241 3.255Q31.248 3.258 31.252 3.264L31.252 3.264L31.271 3.264L31.271 3.264Q31.313 3.264 31.35 3.28L31.35 3.28L31.35 3.28Q31.387 3.297 31.428 3.297L31.428 3.297L31.428 3.297Q31.445 3.297 31.455 3.293L31.455 3.293L31.455 3.293Q31.467 3.297 31.473 3.309L31.473 3.309L31.473 3.309Q31.479 3.32 31.488 3.328L31.488 3.328L31.488 3.328Q31.502 3.326 31.514 3.325L31.514 3.325L31.514 3.325Q31.525 3.324 31.537 3.324L31.537 3.324L31.537 3.324Q31.58 3.324 31.617 3.334L31.617 3.334L31.617 3.334Q31.654 3.344 31.693 3.363L31.693 3.363L31.693 3.363Q31.756 3.336 31.816 3.318L31.816 3.318L31.816 3.318Q31.877 3.301 31.945 3.301L31.945 3.301L31.945 3.305L31.945 3.305Q31.945 3.328 31.958 3.349L31.958 3.349L31.958 3.349Q31.971 3.369 31.98 3.391ZM31.232 1.832L31.232 1.832L31.232 1.832Q31.232 1.809 31.224 1.795L31.224 1.795L31.224 1.795Q31.215 1.781 31.201 1.771L31.201 1.771L31.201 1.771Q31.188 1.76 31.173 1.75L31.173 1.75L31.173 1.75Q31.158 1.74 31.146 1.725L31.146 1.725L31.146 1.725Q31.096 1.709 31.047 1.689L31.047 1.689L31.047 1.689Q30.998 1.67 30.947 1.656L30.947 1.656L30.947 1.656Q30.922 1.65 30.896 1.646L30.896 1.646L30.896 1.646Q30.871 1.641 30.846 1.641L30.846 1.641L30.803 1.641L30.803 1.641Q30.791 1.639 30.778 1.636L30.778 1.636L30.778 1.636Q30.766 1.633 30.754 1.631L30.754 1.631L30.754 1.631Q30.727 1.627 30.7 1.625L30.7 1.625L30.7 1.625Q30.674 1.623 30.646 1.623L30.646 1.623L30.646 1.623Q30.596 1.623 30.545 1.627L30.545 1.627L30.443 1.635L30.443 1.635Q30.422 1.637 30.398 1.637L30.398 1.637L30.398 1.637Q30.375 1.637 30.355 1.641L30.355 1.641L30.355 1.641Q30.346 1.643 30.328 1.649L30.328 1.649L30.328 1.649Q30.311 1.656 30.291 1.663L30.291 1.663L30.291 1.663Q30.271 1.67 30.253 1.678L30.253 1.678L30.253 1.678Q30.234 1.686 30.221 1.689L30.221 1.689L30.221 1.689Q30.223 1.703 30.223 1.717L30.223 1.717L30.223 1.742L30.223 1.742Q30.223 1.771 30.221 1.801L30.221 1.801L30.221 1.801Q30.219 1.83 30.213 1.859L30.213 1.859L30.213 1.859Q30.211 1.871 30.207 1.883L30.207 1.883L30.207 1.883Q30.203 1.895 30.201 1.906L30.201 1.906L30.201 1.906Q30.197 1.924 30.197 1.945L30.197 1.945L30.197 1.982L30.197 1.982Q30.193 2.027 30.191 2.07L30.191 2.07L30.191 2.07Q30.189 2.113 30.186 2.158L30.186 2.158L30.186 2.158Q30.174 2.287 30.161 2.414L30.161 2.414L30.161 2.414Q30.148 2.541 30.145 2.67L30.145 2.67L30.145 2.67Q30.209 2.656 30.268 2.629L30.268 2.629L30.268 2.629Q30.326 2.602 30.383 2.569L30.383 2.569L30.383 2.569Q30.439 2.537 30.496 2.506L30.496 2.506L30.496 2.506Q30.553 2.475 30.615 2.453L30.615 2.453L30.615 2.453Q30.631 2.432 30.653 2.418L30.653 2.418L30.653 2.418Q30.676 2.404 30.691 2.383L30.691 2.383L30.691 2.383Q30.711 2.383 30.721 2.374L30.721 2.374L30.721 2.374Q30.73 2.365 30.746 2.361L30.746 2.361L30.746 2.361Q30.84 2.279 30.938 2.207L30.938 2.207L30.938 2.207Q31.035 2.135 31.125 2.053L31.125 2.053L31.125 2.053Q31.133 2.025 31.151 1.999L31.151 1.999L31.151 1.999Q31.17 1.973 31.188 1.945L31.188 1.945L31.188 1.945Q31.205 1.918 31.219 1.891L31.219 1.891L31.219 1.891Q31.232 1.863 31.232 1.832ZM33.289 2.863L33.289 2.863L33.289 2.863Q33.289 2.902 33.276 2.927L33.276 2.927L33.276 2.927Q33.264 2.951 33.248 2.982L33.248 2.982L33.248 2.982Q33.244 2.98 33.238 2.98L33.238 2.98L33.238 2.98Q33.227 2.98 33.217 2.986L33.217 2.986L33.217 2.986Q33.207 2.992 33.197 2.996L33.197 2.996L33.197 2.996Q33.141 3.059 33.081 3.117L33.081 3.117L33.081 3.117Q33.021 3.176 32.949 3.221L32.949 3.221L32.949 3.221Q32.93 3.232 32.91 3.243L32.91 3.243L32.91 3.243Q32.891 3.254 32.869 3.264L32.869 3.264L32.869 3.264Q32.861 3.268 32.854 3.271L32.854 3.271L32.854 3.271Q32.848 3.273 32.842 3.277L32.842 3.277L32.842 3.277Q32.828 3.285 32.813 3.303L32.813 3.303L32.813 3.303Q32.799 3.32 32.78 3.339L32.78 3.339L32.78 3.339Q32.762 3.357 32.74 3.37L32.74 3.37L32.74 3.37Q32.719 3.383 32.693 3.381L32.693 3.381L32.693 3.381Q32.678 3.391 32.666 3.406L32.666 3.406L32.666 3.406Q32.654 3.422 32.639 3.438L32.639 3.438L32.639 3.438Q32.555 3.467 32.485 3.515L32.485 3.515L32.485 3.515Q32.416 3.563 32.342 3.607L32.342 3.607L32.342 3.607Q32.297 3.637 32.252 3.654L32.252 3.654L32.252 3.654Q32.242 3.658 32.229 3.66L32.229 3.66L32.229 3.66Q32.217 3.662 32.203 3.666L32.203 3.666L32.203 3.666Q32.139 3.682 32.073 3.691L32.073 3.691L32.073 3.691Q32.008 3.701 31.941 3.701L31.941 3.701L31.941 3.701Q31.859 3.701 31.783 3.682L31.783 3.682L31.783 3.682Q31.783 3.676 31.779 3.674L31.779 3.674L31.779 3.674Q31.775 3.672 31.771 3.67L31.771 3.67L31.771 3.67Q31.766 3.668 31.762 3.665L31.762 3.665L31.762 3.665Q31.758 3.662 31.762 3.654L31.762 3.654L31.762 3.654Q31.719 3.65 31.687 3.633L31.687 3.633L31.687 3.633Q31.654 3.615 31.645 3.57L31.645 3.57L31.645 3.57Q31.639 3.574 31.635 3.58L31.635 3.58L31.635 3.58Q31.631 3.586 31.621 3.584L31.621 3.584L31.621 3.584Q31.594 3.545 31.561 3.512L31.561 3.512L31.561 3.512Q31.527 3.479 31.512 3.432L31.512 3.432L31.512 3.432Q31.508 3.422 31.507 3.413L31.507 3.413L31.507 3.413Q31.506 3.404 31.504 3.395L31.504 3.395L31.504 3.395Q31.494 3.367 31.469 3.367L31.469 3.367L31.469 3.367Q31.473 3.359 31.473 3.348L31.473 3.348L31.473 3.348Q31.473 3.342 31.472 3.336L31.472 3.336L31.472 3.336Q31.471 3.33 31.471 3.324L31.471 3.324L31.471 3.324Q31.471 3.314 31.477 3.305L31.477 3.305L31.477 3.305Q31.457 3.26 31.449 3.216L31.449 3.216L31.449 3.216Q31.441 3.172 31.441 3.125L31.441 3.125L31.441 3.125Q31.441 3.064 31.447 3.005L31.447 3.005L31.447 3.005Q31.453 2.945 31.453 2.885L31.453 2.885L31.453 2.885Q31.465 2.861 31.472 2.83L31.472 2.83L31.472 2.83Q31.479 2.799 31.496 2.779L31.496 2.779L31.496 2.779Q31.494 2.768 31.488 2.767L31.488 2.767L31.488 2.767Q31.482 2.766 31.482 2.756L31.482 2.756L31.482 2.756Q31.482 2.721 31.496 2.68L31.496 2.68L31.496 2.68Q31.51 2.639 31.51 2.596L31.51 2.596L31.51 2.596Q31.527 2.586 31.532 2.566L31.532 2.566L31.532 2.566Q31.537 2.547 31.553 2.535L31.553 2.535L31.553 2.525L31.553 2.525Q31.553 2.496 31.56 2.467L31.56 2.467L31.56 2.467Q31.566 2.438 31.573 2.409L31.573 2.409L31.573 2.409Q31.58 2.381 31.585 2.353L31.585 2.353L31.585 2.353Q31.59 2.324 31.588 2.297L31.588 2.297L31.588 2.297Q31.592 2.291 31.599 2.274L31.599 2.274L31.599 2.274Q31.605 2.258 31.612 2.239L31.612 2.239L31.612 2.239Q31.619 2.221 31.624 2.203L31.624 2.203L31.624 2.203Q31.629 2.186 31.629 2.178L31.629 2.178L31.629 2.178Q31.629 2.166 31.625 2.156L31.625 2.156L31.625 2.156Q31.621 2.146 31.621 2.135L31.621 2.135L31.621 2.135Q31.621 2.125 31.627 2.106L31.627 2.106L31.627 2.106Q31.633 2.088 31.637 2.076L31.637 2.076L31.637 2.076Q31.645 2.043 31.651 2.007L31.651 2.007L31.651 2.007Q31.658 1.971 31.664 1.938L31.664 1.938L31.664 1.938Q31.682 1.83 31.689 1.722L31.689 1.722L31.689 1.722Q31.697 1.613 31.699 1.504L31.699 1.504L31.699 1.504Q31.727 1.488 31.757 1.475L31.757 1.475L31.757 1.475Q31.787 1.461 31.82 1.461L31.82 1.461L31.82 1.461Q31.83 1.461 31.84 1.463L31.84 1.463L31.84 1.463Q31.85 1.465 31.859 1.469L31.859 1.469L31.859 1.469Q31.869 1.508 31.891 1.531L31.891 1.531L31.891 1.531Q31.912 1.555 31.93 1.588L31.93 1.588L31.93 1.588Q31.918 1.619 31.914 1.652L31.914 1.652L31.908 1.719L31.908 1.719Q31.906 1.752 31.9 1.784L31.9 1.784L31.9 1.784Q31.895 1.816 31.881 1.846L31.881 1.846L31.881 1.846Q31.885 1.855 31.885 1.865L31.885 1.865L31.885 1.885L31.885 1.885Q31.885 1.912 31.88 1.938L31.88 1.938L31.88 1.938Q31.875 1.963 31.869 1.989L31.869 1.989L31.869 1.989Q31.863 2.016 31.859 2.041L31.859 2.041L31.859 2.041Q31.855 2.066 31.859 2.092L31.859 2.092L31.859 2.092Q31.854 2.102 31.848 2.106L31.848 2.106L31.848 2.106Q31.842 2.111 31.84 2.121L31.84 2.121L31.836 2.158L31.836 2.158Q31.832 2.18 31.829 2.2L31.829 2.2L31.829 2.2Q31.826 2.221 31.822 2.242L31.822 2.242L31.822 2.242Q31.809 2.301 31.792 2.359L31.792 2.359L31.792 2.359Q31.775 2.418 31.775 2.48L31.775 2.48L31.775 2.492L31.775 2.492Q31.758 2.52 31.748 2.56L31.748 2.56L31.748 2.56Q31.738 2.6 31.742 2.633L31.742 2.633L31.742 2.633Q31.721 2.689 31.701 2.744L31.701 2.744L31.701 2.744Q31.682 2.799 31.682 2.857L31.682 2.857L31.682 2.857Q31.682 2.867 31.683 2.878L31.683 2.878L31.683 2.878Q31.684 2.889 31.686 2.898L31.686 2.898L31.686 2.898Q31.67 2.938 31.666 2.978L31.666 2.978L31.666 2.978Q31.662 3.018 31.662 3.057L31.662 3.057L31.662 3.057Q31.662 3.084 31.665 3.12L31.665 3.12L31.665 3.12Q31.668 3.156 31.675 3.194L31.675 3.194L31.675 3.194Q31.682 3.232 31.691 3.268L31.691 3.268L31.691 3.268Q31.701 3.303 31.713 3.324L31.713 3.324L31.713 3.324Q31.758 3.396 31.831 3.438L31.831 3.438L31.831 3.438Q31.904 3.48 31.986 3.492L31.986 3.492L31.986 3.492Q32.02 3.48 32.04 3.479L32.04 3.479L32.04 3.479Q32.061 3.477 32.098 3.479L32.098 3.479L32.098 3.479Q32.129 3.463 32.161 3.455L32.161 3.455L32.161 3.455Q32.193 3.447 32.227 3.438L32.227 3.438L32.227 3.438Q32.236 3.434 32.247 3.43L32.247 3.43L32.247 3.43Q32.258 3.426 32.266 3.422L32.266 3.422L32.266 3.422Q32.275 3.418 32.287 3.404L32.287 3.404L32.287 3.404Q32.299 3.391 32.309 3.381L32.309 3.381L32.309 3.381Q32.35 3.369 32.387 3.349L32.387 3.349L32.387 3.349Q32.424 3.328 32.459 3.307L32.459 3.307L32.531 3.264L32.531 3.264Q32.568 3.242 32.609 3.227L32.609 3.227L32.609 3.227Q32.625 3.221 32.628 3.21L32.628 3.21L32.628 3.21Q32.631 3.199 32.639 3.184L32.639 3.184L32.639 3.184Q32.643 3.188 32.65 3.188L32.65 3.188L32.65 3.188Q32.674 3.188 32.684 3.173L32.684 3.173L32.684 3.173Q32.693 3.158 32.707 3.143L32.707 3.143L32.707 3.143Q32.732 3.139 32.756 3.128L32.756 3.128L32.756 3.128Q32.779 3.117 32.791 3.094L32.791 3.094L32.791 3.094Q32.84 3.084 32.877 3.059L32.877 3.059L32.877 3.059Q32.914 3.033 32.949 3.003L32.949 3.003L32.949 3.003Q32.984 2.973 33.02 2.944L33.02 2.944L33.02 2.944Q33.055 2.916 33.1 2.898L33.1 2.898L33.1 2.898Q33.105 2.889 33.107 2.881L33.107 2.881L33.107 2.881Q33.109 2.873 33.113 2.863L33.113 2.863L33.113 2.863Q33.146 2.859 33.166 2.845L33.166 2.845L33.166 2.845Q33.186 2.83 33.211 2.814L33.211 2.814L33.211 2.814Q33.266 2.82 33.289 2.863ZM34.424 1.656L34.424 1.656L34.424 1.656Q34.424 1.797 34.397 1.935L34.397 1.935L34.397 1.935Q34.371 2.072 34.354 2.211L34.354 2.211L34.354 2.211Q34.344 2.225 34.333 2.233L34.333 2.233L34.333 2.233Q34.322 2.242 34.313 2.252L34.313 2.252L34.313 2.271L34.313 2.271Q34.313 2.299 34.305 2.326L34.305 2.326L34.291 2.379L34.291 2.379Q34.285 2.404 34.281 2.431L34.281 2.431L34.281 2.431Q34.277 2.457 34.285 2.484L34.285 2.484L34.285 2.484Q34.262 2.541 34.25 2.601L34.25 2.601L34.25 2.601Q34.238 2.66 34.229 2.721L34.229 2.721L34.229 2.721Q34.221 2.781 34.211 2.842L34.211 2.842L34.211 2.842Q34.201 2.902 34.184 2.961L34.184 2.961L34.186 2.99L34.186 2.99Q34.189 3.053 34.177 3.115L34.177 3.115L34.177 3.115Q34.164 3.178 34.164 3.24L34.164 3.24L34.164 3.24Q34.164 3.281 34.167 3.32L34.167 3.32L34.167 3.32Q34.17 3.359 34.17 3.398L34.17 3.398L34.17 3.398Q34.17 3.441 34.164 3.479L34.164 3.479L34.164 3.479Q34.18 3.498 34.188 3.523L34.188 3.523L34.205 3.574L34.205 3.574Q34.215 3.6 34.227 3.621L34.227 3.621L34.227 3.621Q34.238 3.643 34.262 3.654L34.262 3.654L34.262 3.654Q34.283 3.645 34.302 3.638L34.302 3.638L34.302 3.638Q34.32 3.631 34.342 3.631L34.342 3.631L34.342 3.631Q34.373 3.631 34.396 3.648L34.396 3.648L34.396 3.648Q34.4 3.668 34.399 3.689L34.399 3.689L34.399 3.689Q34.398 3.711 34.402 3.732L34.402 3.732L34.402 3.732Q34.383 3.752 34.358 3.766L34.358 3.766L34.358 3.766Q34.334 3.779 34.313 3.795L34.313 3.795L34.313 3.795Q34.313 3.799 34.313 3.804L34.313 3.804L34.313 3.804Q34.314 3.809 34.314 3.813L34.314 3.813L34.314 3.813Q34.314 3.852 34.286 3.872L34.286 3.872L34.286 3.872Q34.258 3.893 34.225 3.893L34.225 3.893L34.225 3.893Q34.215 3.893 34.197 3.889L34.197 3.889L34.197 3.889Q34.18 3.885 34.17 3.879L34.17 3.879L34.17 3.879Q34.117 3.844 34.078 3.783L34.078 3.783L34.078 3.783Q34.039 3.723 34.015 3.652L34.015 3.652L34.015 3.652Q33.99 3.582 33.978 3.509L33.978 3.509L33.978 3.509Q33.965 3.436 33.965 3.377L33.965 3.377L33.965 3.334L33.965 3.334Q33.965 3.313 33.969 3.291L33.969 3.291L33.969 3.291Q33.971 3.275 33.977 3.267L33.977 3.267L33.977 3.267Q33.982 3.258 33.982 3.24L33.982 3.24L33.982 3.24Q33.982 3.137 33.995 3.033L33.995 3.033L33.995 3.033Q34.008 2.93 34.023 2.825L34.023 2.825L34.023 2.825Q34.039 2.721 34.054 2.617L34.054 2.617L34.054 2.617Q34.068 2.514 34.072 2.408L34.072 2.408L34.072 2.408Q34.051 2.414 34.039 2.435L34.039 2.435L34.039 2.435Q34.027 2.455 34.002 2.465L34.002 2.465L34.002 2.465Q33.957 2.529 33.897 2.579L33.897 2.579L33.897 2.579Q33.838 2.629 33.787 2.689L33.787 2.689L33.787 2.689Q33.76 2.701 33.734 2.715L33.734 2.715L33.734 2.715Q33.709 2.729 33.688 2.75L33.688 2.75L33.688 2.75Q33.621 2.756 33.576 2.801L33.576 2.801L33.559 2.799L33.559 2.799Q33.533 2.799 33.512 2.814L33.512 2.814L33.512 2.814Q33.496 2.814 33.481 2.809L33.481 2.809L33.481 2.809Q33.467 2.803 33.451 2.803L33.451 2.803L33.451 2.803Q33.434 2.803 33.422 2.814L33.422 2.814L33.422 2.814Q33.365 2.801 33.326 2.771L33.326 2.771L33.326 2.771Q33.287 2.74 33.255 2.704L33.255 2.704L33.255 2.704Q33.223 2.668 33.19 2.63L33.19 2.63L33.19 2.63Q33.158 2.592 33.115 2.563L33.115 2.563L33.115 2.563Q33.104 2.518 33.094 2.481L33.094 2.481L33.094 2.481Q33.084 2.445 33.077 2.41L33.077 2.41L33.077 2.41Q33.07 2.375 33.065 2.337L33.065 2.337L33.065 2.337Q33.061 2.299 33.061 2.25L33.061 2.25L33.061 2.25Q33.061 2.117 33.072 1.987L33.072 1.987L33.072 1.987Q33.084 1.857 33.1 1.729L33.1 1.729L33.1 1.729Q33.131 1.676 33.146 1.614L33.146 1.614L33.146 1.614Q33.16 1.553 33.173 1.49L33.173 1.49L33.173 1.49Q33.186 1.428 33.202 1.367L33.202 1.367L33.202 1.367Q33.219 1.307 33.254 1.258L33.254 1.258L33.268 1.258L33.268 1.258Q33.289 1.258 33.308 1.261L33.308 1.261L33.308 1.261Q33.326 1.264 33.344 1.258L33.344 1.258L33.344 1.258Q33.371 1.307 33.371 1.367L33.371 1.367L33.371 1.367Q33.371 1.406 33.362 1.445L33.362 1.445L33.362 1.445Q33.354 1.484 33.343 1.522L33.343 1.522L33.343 1.522Q33.332 1.561 33.322 1.6L33.322 1.6L33.322 1.6Q33.313 1.639 33.311 1.678L33.311 1.678L33.311 1.678Q33.299 1.695 33.294 1.715L33.294 1.715L33.294 1.715Q33.289 1.734 33.273 1.748L33.273 1.748L33.275 1.775L33.275 1.775Q33.279 1.818 33.265 1.857L33.265 1.857L33.265 1.857Q33.25 1.896 33.246 1.939L33.246 1.939L33.246 1.939Q33.244 1.961 33.247 1.982L33.247 1.982L33.247 1.982Q33.25 2.004 33.25 2.025L33.25 2.025L33.25 2.025Q33.25 2.076 33.247 2.125L33.247 2.125L33.247 2.125Q33.244 2.174 33.244 2.225L33.244 2.225L33.244 2.225Q33.244 2.262 33.252 2.296L33.252 2.296L33.252 2.296Q33.26 2.33 33.26 2.348L33.26 2.348L33.26 2.348Q33.26 2.361 33.254 2.373L33.254 2.373L33.254 2.373Q33.26 2.393 33.27 2.408L33.27 2.408L33.289 2.438L33.289 2.438Q33.299 2.451 33.307 2.468L33.307 2.468L33.307 2.468Q33.314 2.484 33.316 2.506L33.316 2.506L33.316 2.506Q33.395 2.578 33.508 2.578L33.508 2.578L33.508 2.578Q33.572 2.578 33.634 2.541L33.634 2.541L33.634 2.541Q33.695 2.504 33.753 2.451L33.753 2.451L33.753 2.451Q33.811 2.398 33.864 2.343L33.864 2.343L33.864 2.343Q33.918 2.287 33.969 2.252L33.969 2.252L33.969 2.252Q33.986 2.217 34.015 2.175L34.015 2.175L34.015 2.175Q34.043 2.133 34.072 2.089L34.072 2.089L34.072 2.089Q34.102 2.045 34.125 2.003L34.125 2.003L34.125 2.003Q34.148 1.961 34.156 1.924L34.156 1.924L34.156 1.924Q34.16 1.906 34.16 1.887L34.16 1.887L34.16 1.887Q34.16 1.867 34.164 1.846L34.164 1.846L34.164 1.846Q34.174 1.777 34.188 1.709L34.188 1.709L34.188 1.709Q34.203 1.641 34.203 1.57L34.203 1.57L34.203 1.57Q34.203 1.557 34.202 1.545L34.202 1.545L34.202 1.545Q34.201 1.533 34.199 1.518L34.199 1.518L34.199 1.518Q34.215 1.498 34.23 1.481L34.23 1.481L34.23 1.481Q34.246 1.465 34.256 1.441L34.256 1.441L34.256 1.441Q34.281 1.445 34.303 1.442L34.303 1.442L34.303 1.442Q34.324 1.439 34.348 1.439L34.348 1.439L34.348 1.439Q34.377 1.439 34.402 1.455L34.402 1.455L34.402 1.455Q34.424 1.559 34.424 1.656ZM36.631 3.816L36.631 3.816L36.631 3.816Q36.631 3.834 36.618 3.848L36.618 3.848L36.618 3.848Q36.605 3.861 36.588 3.87L36.588 3.87L36.588 3.87Q36.57 3.879 36.552 3.887L36.552 3.887L36.552 3.887Q36.533 3.895 36.52 3.9L36.52 3.9L36.52 3.9Q36.498 3.889 36.476 3.885L36.476 3.885L36.476 3.885Q36.453 3.881 36.436 3.865L36.436 3.865L36.422 3.865L36.422 3.865Q36.391 3.865 36.373 3.873L36.373 3.873L36.373 3.873Q36.346 3.863 36.328 3.845L36.328 3.845L36.328 3.845Q36.311 3.826 36.295 3.806L36.295 3.806L36.295 3.806Q36.279 3.785 36.264 3.766L36.264 3.766L36.264 3.766Q36.248 3.746 36.225 3.732L36.225 3.732L36.225 3.732Q36.189 3.635 36.162 3.535L36.162 3.535L36.162 3.535Q36.135 3.436 36.121 3.332L36.121 3.332L36.121 3.332Q36.125 3.322 36.127 3.311L36.127 3.311L36.127 3.311Q36.129 3.299 36.129 3.289L36.129 3.289L36.129 3.289Q36.129 3.281 36.126 3.272L36.126 3.272L36.126 3.272Q36.123 3.264 36.113 3.262L36.113 3.262L36.113 3.262Q36.123 3.246 36.126 3.226L36.126 3.226L36.126 3.226Q36.129 3.205 36.129 3.188L36.129 3.188L36.129 3.188Q36.129 3.148 36.121 3.123L36.121 3.123L36.121 3.123Q36.133 3.113 36.131 3.091L36.131 3.091L36.131 3.091Q36.129 3.068 36.141 3.059L36.141 3.059L36.141 3.059Q36.131 3.025 36.131 2.994L36.131 2.994L36.131 2.994Q36.131 2.951 36.142 2.91L36.142 2.91L36.142 2.91Q36.152 2.869 36.152 2.826L36.152 2.826L36.152 2.826Q36.152 2.816 36.151 2.807L36.151 2.807L36.151 2.807Q36.15 2.797 36.148 2.787L36.148 2.787L36.148 2.787Q36.158 2.756 36.167 2.724L36.167 2.724L36.167 2.724Q36.176 2.691 36.176 2.658L36.176 2.658L36.176 2.658Q36.176 2.635 36.168 2.619L36.168 2.619L36.168 2.619Q36.193 2.529 36.204 2.44L36.204 2.44L36.204 2.44Q36.215 2.352 36.225 2.26L36.225 2.26L36.225 2.26Q36.223 2.256 36.221 2.254L36.221 2.254L36.221 2.254Q36.219 2.252 36.219 2.248L36.219 2.248L36.219 2.248Q36.219 2.238 36.229 2.232L36.229 2.232L36.229 2.232Q36.24 2.227 36.238 2.211L36.238 2.211L36.238 2.211Q36.215 2.234 36.2 2.266L36.2 2.266L36.2 2.266Q36.186 2.297 36.173 2.328L36.173 2.328L36.173 2.328Q36.16 2.359 36.146 2.39L36.146 2.39L36.146 2.39Q36.131 2.42 36.107 2.443L36.107 2.443L36.107 2.443Q36.105 2.465 36.095 2.484L36.095 2.484L36.095 2.484Q36.084 2.504 36.084 2.527L36.084 2.527L36.084 2.527Q36.082 2.527 36.08 2.526L36.08 2.526L36.08 2.526Q36.078 2.525 36.074 2.525L36.074 2.525L36.074 2.525Q36.066 2.525 36.063 2.535L36.063 2.535L36.063 2.535Q36.061 2.545 36.051 2.541L36.051 2.541L36.051 2.541Q36.006 2.629 35.952 2.713L35.952 2.713L35.952 2.713Q35.898 2.797 35.813 2.848L35.813 2.848L35.813 2.848Q35.797 2.842 35.783 2.842L35.783 2.842L35.783 2.842Q35.758 2.842 35.733 2.856L35.733 2.856L35.733 2.856Q35.709 2.871 35.701 2.871L35.701 2.871L35.701 2.871Q35.682 2.871 35.653 2.851L35.653 2.851L35.653 2.851Q35.625 2.83 35.596 2.828L35.596 2.828L35.596 2.828Q35.564 2.807 35.544 2.784L35.544 2.784L35.544 2.784Q35.523 2.762 35.482 2.758L35.482 2.758L35.482 2.758Q35.455 2.717 35.429 2.68L35.429 2.68L35.429 2.68Q35.402 2.643 35.378 2.606L35.378 2.606L35.378 2.606Q35.354 2.57 35.335 2.529L35.335 2.529L35.335 2.529Q35.316 2.488 35.307 2.438L35.307 2.438L35.307 2.438Q35.309 2.434 35.309 2.43L35.309 2.43L35.309 2.43Q35.309 2.418 35.298 2.42L35.298 2.42L35.298 2.42Q35.287 2.422 35.287 2.408L35.287 2.408L35.287 2.395L35.287 2.395Q35.287 2.379 35.282 2.366L35.282 2.366L35.282 2.366Q35.277 2.354 35.279 2.338L35.279 2.338L35.279 2.338Q35.266 2.316 35.258 2.293L35.258 2.293L35.258 2.293Q35.25 2.27 35.23 2.252L35.23 2.252L35.23 2.234L35.23 2.234Q35.23 2.223 35.229 2.212L35.229 2.212L35.229 2.212Q35.229 2.201 35.224 2.192L35.224 2.192L35.224 2.192Q35.219 2.184 35.209 2.182L35.209 2.182L35.209 2.182Q35.207 2.111 35.181 2.038L35.181 2.038L35.181 2.038Q35.154 1.965 35.133 1.896L35.133 1.896L35.133 1.896Q35.117 1.947 35.109 1.999L35.109 1.999L35.109 1.999Q35.102 2.051 35.102 2.104L35.102 2.104L35.102 2.137L35.102 2.137Q35.102 2.152 35.105 2.168L35.105 2.168L35.105 2.168Q35.1 2.178 35.089 2.182L35.089 2.182L35.089 2.182Q35.078 2.186 35.076 2.197L35.076 2.197L35.076 2.197Q35.074 2.207 35.075 2.217L35.075 2.217L35.075 2.217Q35.076 2.227 35.074 2.236L35.074 2.236L35.074 2.236Q35.07 2.283 35.063 2.326L35.063 2.326L35.063 2.326Q35.051 2.391 35.035 2.456L35.035 2.456L35.035 2.456Q35.02 2.521 35.02 2.59L35.02 2.59L35.02 2.59Q35.02 2.594 35.021 2.601L35.021 2.601L35.021 2.601Q35.021 2.607 35.021 2.611L35.021 2.611L35.021 2.611Q34.99 2.639 34.988 2.68L34.988 2.68L34.988 2.68Q34.986 2.721 34.979 2.758L34.979 2.758L34.979 2.758Q34.969 2.813 34.955 2.866L34.955 2.866L34.955 2.866Q34.941 2.92 34.932 2.977L34.932 2.977L34.932 2.977Q34.926 3.008 34.922 3.038L34.922 3.038L34.922 3.038Q34.918 3.068 34.914 3.1L34.914 3.1L34.914 3.1Q34.912 3.117 34.901 3.129L34.901 3.129L34.901 3.129Q34.891 3.141 34.887 3.156L34.887 3.156L34.887 3.156Q34.885 3.17 34.886 3.187L34.886 3.187L34.886 3.187Q34.887 3.203 34.887 3.217L34.887 3.217L34.887 3.217Q34.887 3.24 34.883 3.261L34.883 3.261L34.883 3.261Q34.879 3.281 34.859 3.297L34.859 3.297L34.859 3.297Q34.863 3.348 34.877 3.384L34.877 3.384L34.877 3.384Q34.891 3.42 34.908 3.465L34.908 3.465L34.957 3.465L34.957 3.473L34.957 3.473Q34.957 3.492 34.964 3.508L34.964 3.508L34.964 3.508Q34.971 3.523 34.992 3.521L34.992 3.521L34.992 3.521Q34.99 3.529 34.99 3.541L34.99 3.541L34.99 3.541Q34.99 3.559 34.997 3.573L34.997 3.573L34.997 3.573Q35.004 3.588 35.008 3.605L35.008 3.605L35.008 3.605Q34.969 3.67 34.924 3.701L34.924 3.701L34.924 3.701Q34.879 3.732 34.801 3.732L34.801 3.732L34.77 3.732L34.77 3.732Q34.76 3.701 34.746 3.672L34.746 3.672L34.746 3.672Q34.732 3.643 34.72 3.613L34.72 3.613L34.72 3.613Q34.707 3.584 34.698 3.554L34.698 3.554L34.698 3.554Q34.689 3.523 34.689 3.49L34.689 3.49L34.689 3.49Q34.689 3.482 34.691 3.476L34.691 3.476L34.691 3.476Q34.693 3.469 34.693 3.461L34.693 3.461L34.693 3.461Q34.693 3.451 34.686 3.449L34.686 3.449L34.686 3.449Q34.678 3.447 34.678 3.43L34.678 3.43L34.678 3.43Q34.678 3.416 34.677 3.404L34.677 3.404L34.677 3.404Q34.676 3.393 34.676 3.379L34.676 3.379L34.676 3.379Q34.676 3.314 34.686 3.251L34.686 3.251L34.686 3.251Q34.695 3.188 34.699 3.123L34.699 3.123L34.699 3.123Q34.709 3.113 34.709 3.098L34.709 3.098L34.709 3.098Q34.709 3.082 34.719 3.072L34.719 3.072L34.719 3.059L34.719 3.059Q34.719 3.023 34.727 2.988L34.727 2.988L34.727 2.988Q34.734 2.953 34.744 2.92L34.744 2.92L34.744 2.92Q34.754 2.887 34.762 2.852L34.762 2.852L34.762 2.852Q34.77 2.816 34.77 2.781L34.77 2.781L34.77 2.75L34.77 2.75Q34.77 2.736 34.782 2.737L34.782 2.737L34.782 2.737Q34.795 2.738 34.797 2.723L34.797 2.723L34.797 2.723Q34.801 2.695 34.802 2.669L34.802 2.669L34.802 2.669Q34.803 2.643 34.807 2.615L34.807 2.615L34.807 2.615Q34.816 2.563 34.828 2.509L34.828 2.509L34.828 2.509Q34.84 2.455 34.84 2.4L34.84 2.4L34.84 2.395L34.84 2.395Q34.84 2.389 34.85 2.37L34.85 2.37L34.85 2.37Q34.859 2.352 34.859 2.334L34.859 2.334L34.859 2.334Q34.859 2.32 34.854 2.309L34.854 2.309L34.854 2.309Q34.855 2.311 34.861 2.311L34.861 2.311L34.861 2.311Q34.869 2.311 34.872 2.306L34.872 2.306L34.872 2.306Q34.875 2.301 34.881 2.297L34.881 2.297L34.881 2.297Q34.875 2.289 34.875 2.281L34.875 2.281L34.875 2.281Q34.875 2.271 34.878 2.263L34.878 2.263L34.878 2.263Q34.881 2.254 34.881 2.244L34.881 2.244L34.881 2.244Q34.881 2.23 34.867 2.225L34.867 2.225L34.867 2.225Q34.891 2.182 34.901 2.133L34.901 2.133L34.901 2.133Q34.912 2.084 34.917 2.033L34.917 2.033L34.917 2.033Q34.922 1.982 34.926 1.931L34.926 1.931L34.926 1.931Q34.93 1.879 34.943 1.832L34.943 1.832L34.943 1.832Q34.939 1.82 34.938 1.807L34.938 1.807L34.938 1.807Q34.938 1.793 34.938 1.781L34.938 1.781L34.938 1.781Q34.938 1.773 34.936 1.765L34.936 1.765L34.936 1.765Q34.934 1.756 34.938 1.748L34.938 1.748L34.938 1.748Q34.938 1.744 34.939 1.738L34.939 1.738L34.943 1.727L34.943 1.727Q34.947 1.713 34.948 1.698L34.948 1.698L34.948 1.698Q34.949 1.684 34.951 1.668L34.951 1.668L34.951 1.668Q34.955 1.623 34.954 1.576L34.954 1.576L34.954 1.576Q34.953 1.529 34.957 1.482L34.957 1.482L34.957 1.482Q34.951 1.475 34.945 1.47L34.945 1.47L34.945 1.47Q34.939 1.465 34.938 1.455L34.938 1.455L34.938 1.455Q34.953 1.428 34.972 1.403L34.972 1.403L34.972 1.403Q34.99 1.379 35.021 1.365L35.021 1.365L35.021 1.365Q35.027 1.387 35.053 1.387L35.053 1.387L35.053 1.387Q35.064 1.387 35.082 1.381L35.082 1.381L35.082 1.381Q35.1 1.375 35.105 1.365L35.105 1.365L35.105 1.365Q35.139 1.377 35.173 1.376L35.173 1.376L35.173 1.376Q35.207 1.375 35.236 1.393L35.236 1.393L35.236 1.393Q35.242 1.422 35.252 1.453L35.252 1.453L35.252 1.453Q35.262 1.484 35.279 1.51L35.279 1.51L35.279 1.51Q35.283 1.535 35.287 1.571L35.287 1.571L35.287 1.571Q35.291 1.607 35.295 1.646L35.295 1.646L35.295 1.646Q35.299 1.684 35.307 1.718L35.307 1.718L35.307 1.718Q35.314 1.752 35.328 1.771L35.328 1.771L35.328 1.771Q35.33 1.807 35.34 1.842L35.34 1.842L35.34 1.842Q35.35 1.877 35.361 1.909L35.361 1.909L35.361 1.909Q35.373 1.941 35.382 1.969L35.382 1.969L35.382 1.969Q35.391 1.996 35.391 2.014L35.391 2.014L35.391 2.014Q35.391 2.029 35.386 2.034L35.386 2.034L35.386 2.034Q35.381 2.039 35.377 2.051L35.377 2.051L35.377 2.051Q35.385 2.072 35.398 2.087L35.398 2.087L35.398 2.087Q35.412 2.102 35.428 2.121L35.428 2.121L35.428 2.121Q35.457 2.232 35.504 2.338L35.504 2.338L35.504 2.338Q35.551 2.443 35.617 2.541L35.617 2.541L35.617 2.541Q35.635 2.543 35.646 2.551L35.646 2.551L35.646 2.551Q35.656 2.559 35.68 2.555L35.68 2.555L35.68 2.568L35.68 2.568Q35.68 2.588 35.688 2.596L35.688 2.596L35.688 2.596Q35.705 2.607 35.729 2.607L35.729 2.607L35.729 2.607Q35.754 2.607 35.769 2.593L35.769 2.593L35.769 2.593Q35.783 2.578 35.797 2.559L35.797 2.559L35.797 2.559Q35.811 2.539 35.824 2.521L35.824 2.521L35.824 2.521Q35.838 2.504 35.861 2.498L35.861 2.498L35.861 2.494L35.861 2.494Q35.861 2.479 35.868 2.468L35.868 2.468L35.868 2.468Q35.875 2.457 35.875 2.443L35.875 2.443L35.875 2.443Q35.896 2.428 35.908 2.404L35.908 2.404L35.908 2.404Q35.92 2.381 35.93 2.356L35.93 2.356L35.93 2.356Q35.939 2.332 35.952 2.311L35.952 2.311L35.952 2.311Q35.965 2.289 35.986 2.275L35.986 2.275L35.986 2.275Q36.014 2.191 36.053 2.119L36.053 2.119L36.053 2.119Q36.092 2.047 36.135 1.973L36.135 1.973L36.135 1.973Q36.135 1.967 36.133 1.96L36.133 1.96L36.133 1.96Q36.131 1.953 36.131 1.947L36.131 1.947L36.131 1.947Q36.131 1.945 36.135 1.93L36.135 1.93L36.135 1.93Q36.145 1.91 36.152 1.893L36.152 1.893L36.152 1.893Q36.16 1.875 36.166 1.854L36.166 1.854L36.166 1.854Q36.186 1.793 36.202 1.734L36.202 1.734L36.202 1.734Q36.219 1.676 36.252 1.623L36.252 1.623L36.252 1.574L36.252 1.574Q36.287 1.504 36.302 1.426L36.302 1.426L36.302 1.426Q36.316 1.348 36.338 1.273L36.338 1.273L36.338 1.273Q36.342 1.252 36.353 1.229L36.353 1.229L36.353 1.229Q36.363 1.207 36.379 1.197L36.379 1.197L36.379 1.197Q36.373 1.186 36.373 1.174L36.373 1.174L36.373 1.174Q36.373 1.158 36.378 1.146L36.378 1.146L36.378 1.146Q36.383 1.133 36.387 1.119L36.387 1.119L36.387 1.119Q36.381 1.105 36.381 1.084L36.381 1.084L36.381 1.084Q36.381 1.057 36.396 1.032L36.396 1.032L36.396 1.032Q36.412 1.008 36.443 1L36.443 1L36.443 1Q36.463 1.006 36.477 1.02L36.477 1.02L36.477 1.02Q36.49 1.033 36.503 1.048L36.503 1.048L36.503 1.048Q36.516 1.063 36.53 1.071L36.53 1.071L36.53 1.071Q36.545 1.08 36.568 1.076L36.568 1.076L36.568 1.076Q36.584 1.105 36.59 1.138L36.59 1.138L36.59 1.138Q36.596 1.17 36.596 1.203L36.596 1.203L36.596 1.203Q36.596 1.248 36.588 1.296L36.588 1.296L36.588 1.296Q36.58 1.344 36.582 1.393L36.582 1.393L36.582 1.393Q36.566 1.424 36.56 1.46L36.56 1.46L36.56 1.46Q36.553 1.496 36.547 1.533L36.547 1.533L36.547 1.533Q36.541 1.57 36.533 1.605L36.533 1.605L36.533 1.605Q36.525 1.641 36.506 1.672L36.506 1.672L36.506 1.672Q36.5 1.76 36.493 1.844L36.493 1.844L36.493 1.844Q36.486 1.928 36.473 2.012L36.473 2.012L36.455 2.123L36.455 2.123Q36.451 2.137 36.447 2.153L36.447 2.153L36.447 2.153Q36.443 2.17 36.443 2.182L36.443 2.182L36.443 2.182Q36.443 2.193 36.445 2.206L36.445 2.206L36.445 2.206Q36.447 2.219 36.457 2.225L36.457 2.225L36.457 2.225Q36.443 2.244 36.438 2.271L36.438 2.271L36.438 2.271Q36.432 2.299 36.426 2.33L36.426 2.33L36.416 2.391L36.416 2.391Q36.412 2.42 36.4 2.443L36.4 2.443L36.4 2.465L36.4 2.465Q36.4 2.543 36.373 2.625L36.373 2.625L36.373 2.635L36.373 2.635Q36.373 2.645 36.372 2.651L36.372 2.651L36.372 2.651Q36.371 2.658 36.371 2.668L36.371 2.668L36.371 2.668Q36.371 2.682 36.379 2.689L36.379 2.689L36.379 2.689Q36.363 2.74 36.35 2.794L36.35 2.794L36.35 2.794Q36.336 2.848 36.33 2.904L36.33 2.904L36.33 2.904Q36.324 2.98 36.328 3.06L36.328 3.06L36.328 3.06Q36.332 3.139 36.309 3.213L36.309 3.213L36.309 3.213Q36.32 3.248 36.324 3.289L36.324 3.289L36.332 3.371L36.332 3.371Q36.336 3.412 36.345 3.45L36.345 3.45L36.345 3.45Q36.354 3.488 36.379 3.514L36.379 3.514L36.379 3.514Q36.381 3.518 36.381 3.525L36.381 3.525L36.381 3.525Q36.381 3.541 36.373 3.549L36.373 3.549L36.373 3.549Q36.377 3.568 36.387 3.582L36.387 3.582L36.387 3.582Q36.396 3.596 36.406 3.608L36.406 3.608L36.406 3.608Q36.416 3.621 36.423 3.637L36.423 3.637L36.423 3.637Q36.43 3.652 36.43 3.676L36.43 3.676L36.43 3.676Q36.445 3.697 36.479 3.709L36.479 3.709L36.479 3.709Q36.512 3.721 36.546 3.732L36.546 3.732L36.546 3.732Q36.58 3.744 36.605 3.763L36.605 3.763L36.605 3.763Q36.631 3.781 36.631 3.816ZM38.307 3.775L38.307 3.775L38.307 3.775Q38.301 3.809 38.28 3.823L38.28 3.823L38.28 3.823Q38.26 3.838 38.242 3.865L38.242 3.865L38.234 3.865L38.234 3.865Q38.215 3.865 38.196 3.869L38.196 3.869L38.196 3.869Q38.178 3.873 38.158 3.879L38.158 3.879L38.158 3.879Q38.148 3.875 38.135 3.873L38.135 3.873L38.135 3.873Q38.121 3.871 38.117 3.859L38.117 3.859L38.117 3.859Q38.102 3.867 38.074 3.867L38.074 3.867L38.074 3.867Q38.029 3.867 37.989 3.842L37.989 3.842L37.989 3.842Q37.949 3.816 37.906 3.803L37.906 3.803L37.906 3.803Q37.895 3.779 37.878 3.761L37.878 3.761L37.878 3.761Q37.861 3.742 37.845 3.725L37.845 3.725L37.845 3.725Q37.828 3.707 37.813 3.688L37.813 3.688L37.813 3.688Q37.797 3.668 37.787 3.641L37.787 3.641L37.787 3.641Q37.783 3.629 37.777 3.627L37.777 3.627L37.777 3.627Q37.771 3.625 37.76 3.627L37.76 3.627L37.76 3.627Q37.762 3.605 37.755 3.59L37.755 3.59L37.755 3.59Q37.748 3.574 37.725 3.57L37.725 3.57L37.725 3.57Q37.725 3.545 37.717 3.527L37.717 3.527L37.717 3.527Q37.709 3.51 37.698 3.497L37.698 3.497L37.698 3.497Q37.688 3.484 37.675 3.471L37.675 3.471L37.675 3.471Q37.662 3.457 37.654 3.438L37.654 3.438L37.654 3.438Q37.637 3.434 37.62 3.433L37.62 3.433L37.62 3.433Q37.604 3.432 37.584 3.432L37.584 3.432L37.584 3.432Q37.49 3.432 37.402 3.467L37.402 3.467L37.402 3.467Q37.393 3.471 37.382 3.477L37.382 3.477L37.382 3.477Q37.371 3.482 37.361 3.486L37.361 3.486L37.361 3.486Q37.357 3.486 37.354 3.487L37.354 3.487L37.354 3.487Q37.352 3.488 37.348 3.488L37.348 3.488L37.348 3.488Q37.334 3.488 37.322 3.483L37.322 3.483L37.322 3.483Q37.311 3.479 37.297 3.479L37.297 3.479L37.297 3.479Q37.291 3.479 37.284 3.481L37.284 3.481L37.284 3.481Q37.277 3.484 37.271 3.486L37.271 3.486L37.271 3.486Q37.242 3.496 37.217 3.498L37.217 3.498L37.217 3.498Q37.137 3.514 37.048 3.521L37.048 3.521L37.048 3.521Q36.959 3.529 36.885 3.563L36.885 3.563L36.885 3.563Q36.869 3.57 36.865 3.587L36.865 3.587L36.865 3.587Q36.861 3.604 36.863 3.619L36.863 3.619L36.863 3.619Q36.842 3.635 36.831 3.66L36.831 3.66L36.831 3.66Q36.82 3.686 36.812 3.714L36.812 3.714L36.812 3.714Q36.803 3.742 36.793 3.77L36.793 3.77L36.793 3.77Q36.783 3.797 36.766 3.816L36.766 3.816L36.766 3.816Q36.771 3.828 36.771 3.842L36.771 3.842L36.771 3.842Q36.771 3.871 36.752 3.9L36.752 3.9L36.752 3.9Q36.732 3.93 36.723 3.957L36.723 3.957L36.723 3.957Q36.713 3.984 36.707 4.011L36.707 4.011L36.707 4.011Q36.701 4.037 36.689 4.059L36.689 4.059L36.689 4.059Q36.678 4.08 36.657 4.094L36.657 4.094L36.657 4.094Q36.637 4.107 36.6 4.107L36.6 4.107L36.6 4.107Q36.564 4.107 36.539 4.094L36.539 4.094L36.539 4.094Q36.514 4.08 36.498 4.059L36.498 4.059L36.498 4.059Q36.482 4.037 36.473 4.008L36.473 4.008L36.473 4.008Q36.463 3.979 36.457 3.949L36.457 3.949L36.457 3.949Q36.479 3.906 36.498 3.875L36.498 3.875L36.498 3.875Q36.518 3.844 36.527 3.795L36.527 3.795L36.527 3.795Q36.563 3.77 36.579 3.733L36.579 3.733L36.579 3.733Q36.596 3.697 36.598 3.654L36.598 3.654L36.598 3.654Q36.619 3.641 36.628 3.618L36.628 3.618L36.628 3.618Q36.637 3.596 36.639 3.57L36.639 3.57L36.639 3.57Q36.592 3.566 36.54 3.563L36.54 3.563L36.54 3.563Q36.488 3.559 36.443 3.543L36.443 3.543L36.443 3.543Q36.443 3.539 36.444 3.535L36.444 3.535L36.444 3.535Q36.445 3.531 36.445 3.527L36.445 3.527L36.445 3.527Q36.445 3.502 36.434 3.481L36.434 3.481L36.434 3.481Q36.422 3.461 36.422 3.438L36.422 3.438L36.422 3.422L36.422 3.422Q36.438 3.406 36.45 3.39L36.45 3.39L36.45 3.39Q36.463 3.373 36.477 3.359L36.477 3.359L36.477 3.359Q36.49 3.346 36.508 3.337L36.508 3.337L36.508 3.337Q36.525 3.328 36.553 3.328L36.553 3.328L36.553 3.328Q36.59 3.328 36.625 3.333L36.625 3.333L36.625 3.333Q36.66 3.338 36.697 3.338L36.697 3.338L36.697 3.338Q36.723 3.338 36.75 3.332L36.75 3.332L36.75 3.332Q36.793 3.244 36.826 3.153L36.826 3.153L36.826 3.153Q36.859 3.063 36.877 2.969L36.877 2.969L36.877 2.969Q36.891 2.949 36.902 2.923L36.902 2.923L36.902 2.923Q36.914 2.896 36.921 2.867L36.921 2.867L36.921 2.867Q36.928 2.838 36.931 2.81L36.931 2.81L36.931 2.81Q36.934 2.781 36.934 2.758L36.934 2.758L36.934 2.758Q36.955 2.732 36.964 2.695L36.964 2.695L36.964 2.695Q36.973 2.658 36.979 2.618L36.979 2.618L36.979 2.618Q36.984 2.578 36.991 2.539L36.991 2.539L36.991 2.539Q36.998 2.5 37.018 2.471L37.018 2.471L37.018 2.453L37.018 2.453Q37.02 2.424 37.012 2.4L37.012 2.4L37.012 2.4Q37.021 2.396 37.023 2.383L37.023 2.383L37.023 2.383Q37.025 2.369 37.031 2.359L37.031 2.359L37.031 2.359Q37.033 2.27 37.051 2.183L37.051 2.183L37.051 2.183Q37.068 2.096 37.08 2.008L37.08 2.008L37.08 2.002L37.08 2.002Q37.08 1.992 37.073 1.991L37.073 1.991L37.073 1.991Q37.066 1.99 37.066 1.98L37.066 1.98L37.066 1.98Q37.066 1.963 37.071 1.934L37.071 1.934L37.071 1.934Q37.076 1.904 37.078 1.885L37.078 1.885L37.078 1.885Q37.09 1.779 37.09 1.676L37.09 1.676L37.09 1.676Q37.09 1.588 37.084 1.502L37.084 1.502L37.084 1.502Q37.078 1.416 37.072 1.328L37.072 1.328L37.088 1.305L37.088 1.305Q37.096 1.293 37.102 1.281L37.102 1.281L37.102 1.281Q37.121 1.273 37.134 1.265L37.134 1.265L37.134 1.265Q37.146 1.256 37.168 1.256L37.168 1.256L37.168 1.256Q37.174 1.256 37.178 1.257L37.178 1.257L37.178 1.257Q37.182 1.258 37.186 1.258L37.186 1.258L37.186 1.258Q37.197 1.266 37.204 1.279L37.204 1.279L37.204 1.279Q37.211 1.293 37.218 1.305L37.218 1.305L37.218 1.305Q37.225 1.316 37.236 1.324L37.236 1.324L37.236 1.324Q37.248 1.332 37.27 1.328L37.27 1.328L37.27 1.328Q37.279 1.383 37.324 1.385L37.324 1.385L37.324 1.385Q37.334 1.412 37.349 1.439L37.349 1.439L37.349 1.439Q37.363 1.467 37.389 1.482L37.389 1.482L37.389 1.482Q37.387 1.49 37.387 1.504L37.387 1.504L37.387 1.504Q37.387 1.531 37.399 1.557L37.399 1.557L37.399 1.557Q37.412 1.582 37.432 1.604L37.432 1.604L37.432 1.607L37.432 1.607Q37.432 1.629 37.416 1.637L37.416 1.637L37.416 1.637Q37.434 1.656 37.441 1.684L37.441 1.684L37.441 1.684Q37.449 1.711 37.455 1.739L37.455 1.739L37.455 1.739Q37.461 1.768 37.47 1.793L37.47 1.793L37.47 1.793Q37.479 1.818 37.5 1.832L37.5 1.832L37.5 1.838L37.5 1.838Q37.5 1.848 37.493 1.85L37.493 1.85L37.493 1.85Q37.486 1.852 37.486 1.861L37.486 1.861L37.486 1.861Q37.521 1.926 37.535 2.002L37.535 2.002L37.535 2.002Q37.549 2.078 37.57 2.148L37.57 2.148L37.57 2.148Q37.578 2.156 37.589 2.158L37.589 2.158L37.589 2.158Q37.6 2.16 37.605 2.168L37.605 2.168L37.605 2.168Q37.594 2.176 37.594 2.195L37.594 2.195L37.594 2.195Q37.594 2.215 37.584 2.225L37.584 2.225L37.584 2.225Q37.6 2.238 37.599 2.265L37.599 2.265L37.599 2.265Q37.598 2.291 37.613 2.303L37.613 2.303L37.613 2.311L37.613 2.311Q37.613 2.318 37.609 2.323L37.609 2.323L37.609 2.323Q37.605 2.328 37.605 2.336L37.605 2.336L37.605 2.344L37.605 2.344Q37.621 2.412 37.63 2.48L37.63 2.48L37.63 2.48Q37.639 2.549 37.648 2.617L37.648 2.617L37.648 2.617Q37.658 2.686 37.67 2.753L37.67 2.753L37.67 2.753Q37.682 2.82 37.703 2.885L37.703 2.885L37.703 2.885Q37.705 2.887 37.705 2.891L37.705 2.891L37.705 2.891Q37.705 2.9 37.697 2.901L37.697 2.901L37.697 2.901Q37.689 2.902 37.689 2.912L37.689 2.912L37.689 2.912Q37.689 2.922 37.696 2.935L37.696 2.935L37.696 2.935Q37.703 2.947 37.711 2.955L37.711 2.955L37.711 2.955Q37.709 2.963 37.709 2.979L37.709 2.979L37.709 2.979Q37.709 3.008 37.72 3.035L37.72 3.035L37.72 3.035Q37.73 3.063 37.743 3.089L37.743 3.089L37.743 3.089Q37.756 3.115 37.766 3.145L37.766 3.145L37.766 3.145Q37.775 3.174 37.773 3.207L37.773 3.207L37.773 3.207Q37.785 3.225 37.804 3.236L37.804 3.236L37.804 3.236Q37.822 3.248 37.842 3.258L37.842 3.258L37.842 3.258Q37.861 3.268 37.878 3.281L37.878 3.281L37.878 3.281Q37.895 3.295 37.9 3.318L37.9 3.318L37.9 3.318Q37.885 3.332 37.879 3.353L37.879 3.353L37.879 3.353Q37.873 3.373 37.857 3.389L37.857 3.389L37.857 3.389Q37.871 3.422 37.89 3.45L37.89 3.45L37.89 3.45Q37.908 3.479 37.928 3.506L37.928 3.506L37.969 3.561L37.969 3.561Q37.99 3.588 38.006 3.619L38.006 3.619L38.006 3.619Q38.027 3.619 38.037 3.631L38.037 3.631L38.037 3.631Q38.047 3.643 38.068 3.641L38.068 3.641L38.068 3.641Q38.076 3.656 38.074 3.676L38.074 3.676L38.074 3.676Q38.113 3.662 38.152 3.662L38.152 3.662L38.152 3.662Q38.174 3.662 38.192 3.664L38.192 3.664L38.192 3.664Q38.211 3.666 38.23 3.666L38.23 3.666L38.23 3.666Q38.254 3.666 38.271 3.66L38.271 3.66L38.271 3.66Q38.279 3.672 38.283 3.687L38.283 3.687L38.283 3.687Q38.287 3.701 38.289 3.717L38.289 3.717L38.295 3.748L38.295 3.748Q38.299 3.764 38.307 3.775ZM37.57 3.234L37.57 3.234L37.57 3.234Q37.543 3.1 37.515 2.966L37.515 2.966L37.515 2.966Q37.486 2.832 37.465 2.695L37.465 2.695L37.465 2.695Q37.453 2.623 37.447 2.551L37.447 2.551L37.447 2.551Q37.441 2.479 37.433 2.407L37.433 2.407L37.433 2.407Q37.424 2.336 37.409 2.266L37.409 2.266L37.409 2.266Q37.395 2.195 37.367 2.127L37.367 2.127L37.367 2.123L37.367 2.123Q37.367 2.117 37.371 2.113L37.371 2.113L37.371 2.113Q37.375 2.109 37.375 2.1L37.375 2.1L37.375 2.092L37.375 2.092Q37.35 2.074 37.34 2.042L37.34 2.042L37.34 2.042Q37.33 2.01 37.323 1.974L37.323 1.974L37.323 1.974Q37.316 1.938 37.306 1.903L37.306 1.903L37.306 1.903Q37.295 1.869 37.27 1.846L37.27 1.846L37.27 1.846Q37.26 1.959 37.249 2.071L37.249 2.071L37.249 2.071Q37.238 2.184 37.234 2.297L37.234 2.297L37.234 2.297Q37.215 2.309 37.209 2.336L37.209 2.336L37.209 2.336Q37.203 2.363 37.203 2.385L37.203 2.385L37.203 2.385Q37.203 2.4 37.205 2.417L37.205 2.417L37.205 2.417Q37.207 2.434 37.213 2.451L37.213 2.451L37.213 2.451Q37.178 2.539 37.162 2.632L37.162 2.632L37.162 2.632Q37.146 2.725 37.127 2.816L37.127 2.816L37.127 2.816Q37.125 2.822 37.12 2.843L37.12 2.843L37.12 2.843Q37.115 2.863 37.109 2.885L37.109 2.885L37.109 2.885Q37.104 2.906 37.1 2.923L37.1 2.923L37.1 2.923Q37.096 2.939 37.096 2.941L37.096 2.941L37.096 2.941Q37.094 2.955 37.095 2.969L37.095 2.969L37.095 2.969Q37.096 2.982 37.096 2.996L37.096 2.996L37.066 3.025L37.066 3.025Q37.059 3.1 37.038 3.169L37.038 3.169L37.038 3.169Q37.018 3.238 36.996 3.311L36.996 3.311L36.996 3.311Q37.01 3.313 37.022 3.313L37.022 3.313L37.022 3.313Q37.035 3.314 37.049 3.314L37.049 3.314L37.049 3.314Q37.111 3.314 37.175 3.306L37.175 3.306L37.175 3.306Q37.238 3.297 37.301 3.289L37.301 3.289L37.301 3.289Q37.322 3.285 37.346 3.282L37.346 3.282L37.346 3.282Q37.369 3.279 37.391 3.279L37.391 3.279L37.391 3.279Q37.4 3.277 37.414 3.278L37.414 3.278L37.414 3.278Q37.428 3.279 37.438 3.277L37.438 3.277L37.438 3.277Q37.453 3.273 37.458 3.265L37.458 3.265L37.458 3.265Q37.463 3.256 37.479 3.254L37.479 3.254L37.479 3.254Q37.49 3.26 37.506 3.26L37.506 3.26L37.506 3.26Q37.523 3.26 37.539 3.252L37.539 3.252L37.539 3.252Q37.555 3.244 37.57 3.234ZM39.725 1.504L39.725 1.504L39.725 1.504Q39.713 1.523 39.708 1.545L39.708 1.545L39.708 1.545Q39.703 1.566 39.701 1.588L39.701 1.588L39.688 1.588L39.688 1.588Q39.672 1.588 39.66 1.583L39.66 1.583L39.66 1.583Q39.648 1.578 39.633 1.574L39.633 1.574L39.633 1.574Q39.641 1.648 39.643 1.725L39.643 1.725L39.643 1.725Q39.645 1.801 39.645 1.875L39.645 1.875L39.645 1.875Q39.645 1.969 39.643 2.062L39.643 2.062L39.643 2.062Q39.641 2.154 39.641 2.248L39.641 2.248L39.641 2.248Q39.641 2.293 39.636 2.337L39.636 2.337L39.636 2.337Q39.631 2.381 39.611 2.422L39.611 2.422L39.611 2.422Q39.615 2.455 39.617 2.485L39.617 2.485L39.617 2.485Q39.619 2.516 39.619 2.549L39.619 2.549L39.619 2.549Q39.619 2.641 39.608 2.731L39.608 2.731L39.608 2.731Q39.598 2.822 39.582 2.912L39.582 2.912L39.582 2.912Q39.576 2.947 39.571 2.983L39.571 2.983L39.571 2.983Q39.566 3.02 39.557 3.053L39.557 3.053L39.557 3.053Q39.553 3.063 39.546 3.072L39.546 3.072L39.546 3.072Q39.539 3.082 39.535 3.092L39.535 3.092L39.535 3.092Q39.512 3.143 39.483 3.192L39.483 3.192L39.483 3.192Q39.455 3.242 39.416 3.283L39.416 3.283L39.416 3.283Q39.387 3.285 39.359 3.299L39.359 3.299L39.359 3.299Q39.332 3.313 39.309 3.313L39.309 3.313L39.309 3.313Q39.287 3.313 39.273 3.291L39.273 3.291L39.254 3.299L39.254 3.299Q39.244 3.303 39.232 3.305L39.232 3.305L39.232 3.305Q39.166 3.277 39.106 3.238L39.106 3.238L39.106 3.238Q39.047 3.199 39.008 3.137L39.008 3.137L39 3.137L39 3.137Q38.982 3.137 38.975 3.129L38.975 3.129L38.975 3.129Q38.965 3.119 38.954 3.104L38.954 3.104L38.954 3.104Q38.943 3.09 38.936 3.078L38.936 3.078L38.936 3.078Q38.912 3.041 38.885 3.004L38.885 3.004L38.885 3.004Q38.857 2.967 38.82 2.941L38.82 2.941L38.82 2.941Q38.805 2.883 38.773 2.841L38.773 2.841L38.773 2.841Q38.742 2.799 38.709 2.75L38.709 2.75L38.709 2.75Q38.684 2.652 38.615 2.568L38.615 2.568L38.615 2.568Q38.625 2.559 38.625 2.555L38.625 2.555L38.625 2.555Q38.625 2.545 38.618 2.538L38.618 2.538L38.618 2.538Q38.611 2.531 38.611 2.523L38.611 2.523L38.611 2.523Q38.611 2.516 38.615 2.512L38.615 2.512L38.615 2.512Q38.59 2.484 38.573 2.45L38.573 2.45L38.573 2.45Q38.557 2.416 38.542 2.381L38.542 2.381L38.542 2.381Q38.527 2.346 38.511 2.311L38.511 2.311L38.511 2.311Q38.494 2.275 38.471 2.246L38.471 2.246L38.471 2.246Q38.449 2.26 38.444 2.279L38.444 2.279L38.444 2.279Q38.439 2.299 38.439 2.32L38.439 2.32L38.439 2.32Q38.439 2.336 38.44 2.352L38.44 2.352L38.44 2.352Q38.441 2.367 38.441 2.383L38.441 2.383L38.441 2.383Q38.441 2.422 38.433 2.459L38.433 2.459L38.433 2.459Q38.424 2.496 38.42 2.535L38.42 2.535L38.42 2.535Q38.418 2.563 38.419 2.596L38.419 2.596L38.419 2.596Q38.42 2.629 38.417 2.662L38.417 2.662L38.417 2.662Q38.414 2.695 38.406 2.727L38.406 2.727L38.406 2.727Q38.398 2.758 38.379 2.779L38.379 2.779L38.379 2.779Q38.367 2.891 38.35 3.002L38.35 3.002L38.35 3.002Q38.332 3.113 38.316 3.225L38.316 3.225L38.316 3.225Q38.313 3.244 38.309 3.273L38.309 3.273L38.309 3.273Q38.305 3.303 38.3 3.333L38.3 3.333L38.3 3.333Q38.295 3.363 38.292 3.392L38.292 3.392L38.292 3.392Q38.289 3.42 38.289 3.438L38.289 3.438L38.289 3.438Q38.289 3.457 38.299 3.476L38.299 3.476L38.299 3.476Q38.309 3.494 38.309 3.512L38.309 3.512L38.309 3.512Q38.309 3.525 38.3 3.528L38.3 3.528L38.3 3.528Q38.291 3.531 38.289 3.543L38.289 3.543L38.289 3.543Q38.303 3.586 38.303 3.641L38.303 3.641L38.303 3.641Q38.303 3.656 38.301 3.673L38.301 3.673L38.301 3.673Q38.299 3.689 38.295 3.705L38.295 3.705L38.295 3.705Q38.291 3.715 38.281 3.724L38.281 3.724L38.281 3.724Q38.271 3.732 38.271 3.74L38.271 3.74L38.271 3.74Q38.271 3.748 38.279 3.752L38.279 3.752L38.279 3.752Q38.268 3.764 38.25 3.768L38.25 3.768L38.25 3.768Q38.232 3.771 38.225 3.789L38.225 3.789L38.225 3.789Q38.205 3.773 38.186 3.761L38.186 3.761L38.186 3.761Q38.166 3.748 38.148 3.732L38.148 3.732L38.143 3.73L38.143 3.73Q38.129 3.73 38.12 3.739L38.12 3.739L38.12 3.739Q38.111 3.748 38.098 3.748L38.098 3.748L38.098 3.748Q38.094 3.748 38.091 3.747L38.091 3.747L38.091 3.747Q38.088 3.746 38.084 3.746L38.084 3.746L38.072 3.695L38.072 3.695Q38.066 3.67 38.057 3.648L38.057 3.648L38.057 3.648Q38.072 3.607 38.077 3.556L38.077 3.556L38.077 3.556Q38.082 3.504 38.088 3.451L38.088 3.451L38.088 3.451Q38.094 3.398 38.105 3.351L38.105 3.351L38.105 3.351Q38.117 3.303 38.148 3.268L38.148 3.268L38.148 3.268Q38.148 3.252 38.138 3.246L38.138 3.246L38.138 3.246Q38.127 3.24 38.127 3.221L38.127 3.221L38.127 3.221Q38.127 3.217 38.13 3.207L38.13 3.207L38.13 3.207Q38.133 3.197 38.136 3.186L38.136 3.186L38.136 3.186Q38.139 3.174 38.142 3.163L38.142 3.163L38.142 3.163Q38.145 3.152 38.146 3.146L38.146 3.146L38.146 3.146Q38.162 3.07 38.171 2.99L38.171 2.99L38.171 2.99Q38.18 2.91 38.219 2.842L38.219 2.842L38.219 2.842Q38.217 2.834 38.217 2.818L38.217 2.818L38.217 2.818Q38.217 2.785 38.224 2.754L38.224 2.754L38.224 2.754Q38.23 2.723 38.23 2.689L38.23 2.689L38.23 2.689Q38.23 2.662 38.225 2.639L38.225 2.639L38.225 2.639Q38.23 2.617 38.241 2.597L38.241 2.597L38.241 2.597Q38.252 2.576 38.252 2.555L38.252 2.555L38.252 2.555Q38.252 2.535 38.238 2.527L38.238 2.527L38.238 2.527Q38.248 2.52 38.251 2.51L38.251 2.51L38.251 2.51Q38.254 2.5 38.255 2.49L38.255 2.49L38.255 2.49Q38.256 2.48 38.259 2.472L38.259 2.472L38.259 2.472Q38.262 2.463 38.273 2.457L38.273 2.457L38.273 2.457Q38.271 2.438 38.271 2.42L38.271 2.42L38.271 2.42Q38.27 2.402 38.27 2.383L38.27 2.383L38.27 2.383Q38.27 2.311 38.277 2.239L38.277 2.239L38.277 2.239Q38.285 2.168 38.285 2.094L38.285 2.094L38.285 2.094Q38.285 2.021 38.273 1.953L38.273 1.953L38.295 1.91L38.295 1.91Q38.275 1.895 38.27 1.859L38.27 1.859L38.27 1.859Q38.264 1.824 38.262 1.783L38.262 1.783L38.262 1.783Q38.26 1.742 38.255 1.702L38.255 1.702L38.255 1.702Q38.25 1.662 38.232 1.637L38.232 1.637L38.232 1.619L38.232 1.619Q38.232 1.588 38.229 1.559L38.229 1.559L38.229 1.559Q38.225 1.529 38.225 1.5L38.225 1.5L38.225 1.482L38.225 1.482Q38.234 1.479 38.239 1.469L38.239 1.469L38.239 1.469Q38.244 1.459 38.246 1.449L38.246 1.449L38.254 1.449L38.254 1.449Q38.277 1.449 38.301 1.445L38.301 1.445L38.301 1.445Q38.324 1.441 38.348 1.441L38.348 1.441L38.373 1.441L38.373 1.441Q38.396 1.459 38.414 1.482L38.414 1.482L38.414 1.482Q38.432 1.506 38.457 1.525L38.457 1.525L38.457 1.561L38.457 1.561Q38.475 1.584 38.484 1.611L38.484 1.611L38.484 1.611Q38.494 1.639 38.505 1.668L38.505 1.668L38.505 1.668Q38.516 1.697 38.527 1.725L38.527 1.725L38.527 1.725Q38.539 1.752 38.561 1.771L38.561 1.771L38.561 1.771Q38.557 1.791 38.557 1.803L38.557 1.803L38.557 1.803Q38.557 1.828 38.562 1.854L38.562 1.854L38.562 1.854Q38.566 1.879 38.568 1.902L38.568 1.902L38.568 1.902Q38.576 1.912 38.582 1.927L38.582 1.927L38.582 1.927Q38.588 1.941 38.602 1.945L38.602 1.945L38.602 1.945Q38.611 2.021 38.642 2.09L38.642 2.09L38.642 2.09Q38.672 2.158 38.686 2.232L38.686 2.232L38.686 2.232Q38.701 2.248 38.709 2.271L38.709 2.271L38.709 2.271Q38.717 2.293 38.726 2.314L38.726 2.314L38.726 2.314Q38.734 2.336 38.745 2.354L38.745 2.354L38.745 2.354Q38.756 2.373 38.777 2.381L38.777 2.381L38.777 2.381Q38.789 2.428 38.807 2.475L38.807 2.475L38.807 2.475Q38.824 2.521 38.861 2.555L38.861 2.555L38.861 2.555Q38.861 2.594 38.874 2.622L38.874 2.622L38.874 2.622Q38.887 2.65 38.903 2.675L38.903 2.675L38.903 2.675Q38.92 2.699 38.934 2.723L38.934 2.723L38.934 2.723Q38.947 2.746 38.951 2.773L38.951 2.773L38.951 2.773Q38.979 2.814 39.015 2.85L39.015 2.85L39.015 2.85Q39.051 2.885 39.089 2.917L39.089 2.917L39.089 2.917Q39.127 2.949 39.164 2.982L39.164 2.982L39.164 2.982Q39.201 3.016 39.232 3.053L39.232 3.053L39.232 3.053Q39.254 3.055 39.269 3.062L39.269 3.062L39.269 3.062Q39.283 3.068 39.303 3.072L39.303 3.072L39.303 3.072Q39.316 3.063 39.325 3.048L39.325 3.048L39.325 3.048Q39.334 3.033 39.342 3.018L39.342 3.018L39.342 3.018Q39.35 3.002 39.358 2.987L39.358 2.987L39.358 2.987Q39.367 2.973 39.381 2.961L39.381 2.961L39.381 2.961Q39.381 2.957 39.38 2.954L39.38 2.954L39.38 2.954Q39.379 2.951 39.379 2.947L39.379 2.947L39.379 2.947Q39.379 2.926 39.386 2.913L39.386 2.913L39.386 2.913Q39.393 2.9 39.402 2.885L39.402 2.885L39.402 2.834L39.402 2.834Q39.418 2.805 39.424 2.771L39.424 2.771L39.424 2.771Q39.43 2.738 39.43 2.705L39.43 2.705L39.43 2.705Q39.43 2.678 39.428 2.649L39.428 2.649L39.428 2.649Q39.426 2.621 39.426 2.592L39.426 2.592L39.426 2.592Q39.426 2.574 39.428 2.556L39.428 2.556L39.428 2.556Q39.43 2.537 39.436 2.521L39.436 2.521L39.436 2.521Q39.439 2.518 39.449 2.509L39.449 2.509L39.449 2.509Q39.459 2.5 39.459 2.498L39.459 2.498L39.459 2.498Q39.459 2.488 39.453 2.479L39.453 2.479L39.453 2.479Q39.447 2.469 39.447 2.459L39.447 2.459L39.447 2.459Q39.447 2.445 39.459 2.438L39.459 2.438L39.459 2.426L39.459 2.426Q39.459 2.416 39.456 2.407L39.456 2.407L39.456 2.407Q39.453 2.398 39.443 2.395L39.443 2.395L39.443 2.395Q39.453 2.383 39.457 2.366L39.457 2.366L39.457 2.366Q39.461 2.35 39.462 2.331L39.462 2.331L39.462 2.331Q39.463 2.313 39.462 2.295L39.462 2.295L39.462 2.295Q39.461 2.277 39.461 2.262L39.461 2.262L39.461 2.262Q39.461 2.244 39.463 2.225L39.463 2.225L39.463 2.225Q39.465 2.205 39.479 2.191L39.479 2.191L39.479 2.191Q39.473 2.168 39.471 2.146L39.471 2.146L39.471 2.146Q39.469 2.123 39.469 2.1L39.469 2.1L39.469 2.1Q39.469 2.059 39.473 2.018L39.473 2.018L39.473 2.018Q39.477 1.977 39.477 1.934L39.477 1.934L39.477 1.934Q39.477 1.918 39.475 1.901L39.475 1.901L39.475 1.901Q39.473 1.885 39.473 1.869L39.473 1.869L39.473 1.869Q39.473 1.854 39.479 1.854L39.479 1.854L39.479 1.854Q39.486 1.855 39.486 1.846L39.486 1.846L39.486 1.846Q39.486 1.832 39.483 1.818L39.483 1.818L39.483 1.818Q39.48 1.805 39.479 1.791L39.479 1.791L39.479 1.791Q39.475 1.758 39.473 1.724L39.473 1.724L39.473 1.724Q39.471 1.689 39.471 1.654L39.471 1.654L39.471 1.654Q39.471 1.633 39.472 1.61L39.472 1.61L39.472 1.61Q39.473 1.588 39.479 1.566L39.479 1.566L39.479 1.566Q39.467 1.549 39.464 1.532L39.464 1.532L39.464 1.532Q39.461 1.516 39.459 1.502L39.459 1.502L39.455 1.473L39.455 1.473Q39.453 1.457 39.443 1.441L39.443 1.441L39.443 1.441Q39.441 1.439 39.441 1.43L39.441 1.43L39.441 1.43Q39.441 1.414 39.449 1.406L39.449 1.406L39.449 1.406Q39.439 1.373 39.423 1.342L39.423 1.342L39.423 1.342Q39.406 1.311 39.402 1.273L39.402 1.273L39.402 1.273Q39.381 1.262 39.37 1.235L39.37 1.235L39.37 1.235Q39.359 1.209 39.359 1.188L39.359 1.188L39.359 1.188Q39.359 1.162 39.373 1.138L39.373 1.138L39.373 1.138Q39.387 1.113 39.416 1.113L39.416 1.113L39.416 1.113Q39.428 1.113 39.438 1.12L39.438 1.12L39.438 1.12Q39.449 1.127 39.46 1.136L39.46 1.136L39.46 1.136Q39.471 1.145 39.481 1.151L39.481 1.151L39.481 1.151Q39.492 1.158 39.504 1.158L39.504 1.158L39.504 1.158Q39.512 1.158 39.527 1.154L39.527 1.154L39.527 1.154Q39.549 1.184 39.571 1.208L39.571 1.208L39.571 1.208Q39.594 1.232 39.617 1.258L39.617 1.258L39.617 1.258Q39.617 1.291 39.629 1.318L39.629 1.318L39.629 1.318Q39.641 1.346 39.654 1.37L39.654 1.37L39.654 1.37Q39.668 1.395 39.679 1.418L39.679 1.418L39.679 1.418Q39.689 1.441 39.688 1.469L39.688 1.469L39.688 1.469Q39.691 1.482 39.703 1.488L39.703 1.488L39.703 1.488Q39.715 1.494 39.725 1.504ZM42.691 2.4L42.691 2.4L42.691 2.4Q42.688 2.424 42.679 2.453L42.679 2.453L42.679 2.453Q42.67 2.482 42.655 2.507L42.655 2.507L42.655 2.507Q42.641 2.531 42.619 2.548L42.619 2.548L42.619 2.548Q42.598 2.564 42.568 2.564L42.568 2.564L42.568 2.564Q42.547 2.564 42.525 2.56L42.525 2.56L42.525 2.56Q42.504 2.555 42.48 2.555L42.48 2.555L42.48 2.555Q42.471 2.555 42.46 2.562L42.46 2.562L42.46 2.562Q42.449 2.568 42.439 2.568L42.439 2.568L42.439 2.568Q42.43 2.568 42.423 2.565L42.423 2.565L42.423 2.565Q42.416 2.563 42.406 2.563L42.406 2.563L42.406 2.563Q42.4 2.563 42.385 2.566L42.385 2.566L42.385 2.566Q42.369 2.57 42.352 2.574L42.352 2.574L42.352 2.574Q42.334 2.578 42.318 2.583L42.318 2.583L42.318 2.583Q42.303 2.588 42.297 2.59L42.297 2.59L42.297 2.59Q42.244 2.607 42.191 2.621L42.191 2.621L42.191 2.621Q42.139 2.635 42.082 2.639L42.082 2.639L42.082 2.639Q42.07 2.635 42.047 2.63L42.047 2.63L42.047 2.63Q42.023 2.625 42.012 2.625L42.012 2.625L42.012 2.625Q41.988 2.625 41.981 2.645L41.981 2.645L41.981 2.645Q41.975 2.664 41.955 2.674L41.955 2.674L41.955 2.674Q41.932 2.688 41.896 2.689L41.896 2.689L41.896 2.689Q41.861 2.691 41.826 2.695L41.826 2.695L41.826 2.695Q41.791 2.699 41.761 2.71L41.761 2.71L41.761 2.71Q41.73 2.721 41.717 2.75L41.717 2.75L41.717 2.75Q41.707 2.748 41.696 2.747L41.696 2.747L41.696 2.747Q41.686 2.746 41.674 2.746L41.674 2.746L41.674 2.746Q41.611 2.746 41.557 2.771L41.557 2.771L41.557 2.771Q41.502 2.795 41.445 2.814L41.445 2.814L41.445 2.814Q41.455 2.832 41.459 2.857L41.459 2.857L41.459 2.857Q41.463 2.883 41.467 2.907L41.467 2.907L41.467 2.907Q41.471 2.932 41.478 2.954L41.478 2.954L41.478 2.954Q41.484 2.977 41.502 2.988L41.502 2.988L41.502 2.988Q41.502 3 41.497 3.008L41.497 3.008L41.497 3.008Q41.492 3.016 41.486 3.021L41.486 3.021L41.473 3.035L41.473 3.035Q41.467 3.041 41.465 3.053L41.465 3.053L41.465 3.053Q41.459 3.076 41.459 3.101L41.459 3.101L41.459 3.101Q41.459 3.125 41.432 3.137L41.432 3.137L41.432 3.137Q41.434 3.143 41.434 3.158L41.434 3.158L41.434 3.158Q41.434 3.178 41.428 3.195L41.428 3.195L41.428 3.195Q41.422 3.213 41.424 3.234L41.424 3.234L41.424 3.234Q41.391 3.271 41.368 3.311L41.368 3.311L41.368 3.311Q41.346 3.35 41.334 3.395L41.334 3.395L41.334 3.395Q41.262 3.467 41.187 3.54L41.187 3.54L41.187 3.54Q41.111 3.613 41.032 3.682L41.032 3.682L41.032 3.682Q40.953 3.75 40.869 3.812L40.869 3.812L40.869 3.812Q40.785 3.873 40.695 3.92L40.695 3.92L40.682 3.92L40.682 3.92Q40.637 3.92 40.611 3.936L40.611 3.936L40.611 3.936Q40.586 3.951 40.547 3.963L40.547 3.963L40.547 3.963Q40.518 3.955 40.477 3.955L40.477 3.955L40.477 3.955Q40.453 3.955 40.429 3.957L40.429 3.957L40.429 3.957Q40.404 3.959 40.379 3.959L40.379 3.959L40.379 3.959Q40.346 3.959 40.319 3.951L40.319 3.951L40.319 3.951Q40.293 3.943 40.269 3.934L40.269 3.934L40.269 3.934Q40.244 3.924 40.219 3.914L40.219 3.914L40.219 3.914Q40.193 3.904 40.164 3.9L40.164 3.9L40.164 3.9Q40.043 3.779 39.973 3.618L39.973 3.618L39.973 3.618Q39.902 3.457 39.902 3.287L39.902 3.287L39.902 3.287Q39.902 3.209 39.924 3.134L39.924 3.134L39.924 3.134Q39.945 3.059 39.945 2.982L39.945 2.982L39.945 2.982Q39.98 2.912 40.007 2.838L40.007 2.838L40.007 2.838Q40.033 2.764 40.061 2.689L40.061 2.689L40.061 2.689Q40.088 2.615 40.12 2.544L40.12 2.544L40.12 2.544Q40.152 2.473 40.197 2.408L40.197 2.408L40.197 2.408Q40.207 2.357 40.229 2.32L40.229 2.32L40.229 2.32Q40.25 2.283 40.275 2.238L40.275 2.238L40.275 2.238Q40.275 2.195 40.294 2.159L40.294 2.159L40.294 2.159Q40.313 2.123 40.316 2.078L40.316 2.078L40.316 2.078Q40.348 2.049 40.367 2.012L40.367 2.012L40.367 2.012Q40.387 1.975 40.404 1.936L40.404 1.936L40.404 1.936Q40.422 1.896 40.444 1.86L40.444 1.86L40.444 1.86Q40.467 1.824 40.506 1.799L40.506 1.799L40.506 1.799Q40.51 1.785 40.511 1.769L40.511 1.769L40.511 1.769Q40.512 1.752 40.52 1.742L40.52 1.742L40.561 1.697L40.561 1.697Q40.58 1.672 40.597 1.646L40.597 1.646L40.597 1.646Q40.613 1.619 40.633 1.598L40.633 1.598L40.633 1.598Q40.645 1.586 40.658 1.578L40.658 1.578L40.658 1.578Q40.672 1.57 40.682 1.561L40.682 1.561L40.682 1.561Q40.691 1.551 40.688 1.535L40.688 1.535L40.688 1.535Q40.686 1.52 40.695 1.51L40.695 1.51L40.695 1.51Q40.699 1.506 40.707 1.502L40.707 1.502L40.707 1.502Q40.715 1.498 40.721 1.494L40.721 1.494L40.721 1.494Q40.746 1.477 40.764 1.459L40.764 1.459L40.764 1.459Q40.781 1.441 40.813 1.434L40.813 1.434L40.813 1.434Q40.84 1.412 40.862 1.391L40.862 1.391L40.862 1.391Q40.885 1.369 40.908 1.352L40.908 1.352L40.908 1.352Q40.932 1.334 40.959 1.323L40.959 1.323L40.959 1.323Q40.986 1.313 41.027 1.313L41.027 1.313L41.027 1.313Q41.035 1.313 41.043 1.313L41.043 1.313L41.043 1.313Q41.051 1.314 41.059 1.314L41.059 1.314L41.059 1.314Q41.139 1.389 41.158 1.496L41.158 1.496L41.158 1.496Q41.137 1.523 41.124 1.555L41.124 1.555L41.124 1.555Q41.111 1.586 41.096 1.617L41.096 1.617L41.096 1.617Q41.063 1.629 41.033 1.651L41.033 1.651L41.033 1.651Q41.004 1.674 40.976 1.697L40.976 1.697L40.976 1.697Q40.947 1.721 40.917 1.738L40.917 1.738L40.917 1.738Q40.887 1.756 40.85 1.756L40.85 1.756L40.85 1.756Q40.834 1.77 40.8 1.8L40.8 1.8L40.8 1.8Q40.766 1.83 40.729 1.863L40.729 1.863L40.729 1.863Q40.693 1.896 40.663 1.926L40.663 1.926L40.663 1.926Q40.633 1.955 40.625 1.967L40.625 1.967L40.625 1.967Q40.619 1.977 40.615 1.984L40.615 1.984L40.615 1.984Q40.611 1.992 40.607 2.002L40.607 2.002L40.557 2.088L40.557 2.088Q40.514 2.162 40.469 2.233L40.469 2.233L40.469 2.233Q40.424 2.305 40.391 2.383L40.391 2.383L40.391 2.383Q40.375 2.418 40.365 2.453L40.365 2.453L40.365 2.453Q40.355 2.488 40.346 2.527L40.346 2.527L40.346 2.527Q40.342 2.539 40.336 2.551L40.336 2.551L40.336 2.551Q40.33 2.563 40.326 2.572L40.326 2.572L40.326 2.572Q40.305 2.613 40.291 2.648L40.291 2.648L40.291 2.648Q40.277 2.684 40.275 2.73L40.275 2.73L40.275 2.73Q40.227 2.84 40.185 2.95L40.185 2.95L40.185 2.95Q40.143 3.061 40.121 3.178L40.121 3.178L40.121 3.178Q40.133 3.217 40.132 3.257L40.132 3.257L40.132 3.257Q40.131 3.297 40.131 3.336L40.131 3.336L40.131 3.336Q40.131 3.385 40.138 3.417L40.138 3.417L40.138 3.417Q40.145 3.449 40.157 3.476L40.157 3.476L40.157 3.476Q40.17 3.502 40.186 3.53L40.186 3.53L40.186 3.53Q40.201 3.559 40.219 3.598L40.219 3.598L40.219 3.598Q40.248 3.621 40.271 3.647L40.271 3.647L40.271 3.647Q40.295 3.674 40.316 3.705L40.316 3.705L40.316 3.705Q40.391 3.742 40.467 3.742L40.467 3.742L40.467 3.742Q40.521 3.742 40.578 3.725L40.578 3.725L40.578 3.725Q40.635 3.707 40.688 3.681L40.688 3.681L40.688 3.681Q40.742 3.654 40.793 3.623L40.793 3.623L40.793 3.623Q40.844 3.592 40.891 3.563L40.891 3.563L40.891 3.563Q40.973 3.514 41.033 3.457L41.033 3.457L41.033 3.457Q41.094 3.4 41.144 3.338L41.144 3.338L41.144 3.338Q41.193 3.275 41.236 3.204L41.236 3.204L41.236 3.204Q41.279 3.133 41.326 3.053L41.326 3.053L41.326 3.053Q41.328 3.043 41.334 3.029L41.334 3.029L41.346 3L41.346 3Q41.352 2.984 41.356 2.972L41.356 2.972L41.356 2.972Q41.361 2.959 41.361 2.955L41.361 2.955L41.361 2.955Q41.361 2.939 41.354 2.933L41.354 2.933L41.354 2.933Q41.348 2.926 41.348 2.918L41.348 2.918L41.348 2.918Q41.348 2.902 41.355 2.896L41.355 2.896L41.355 2.896Q41.363 2.891 41.374 2.885L41.374 2.885L41.374 2.885Q41.385 2.879 41.394 2.871L41.394 2.871L41.394 2.871Q41.402 2.863 41.402 2.842L41.402 2.842L41.402 2.842Q41.398 2.84 41.389 2.84L41.389 2.84L41.389 2.84Q41.379 2.84 41.369 2.842L41.369 2.842L41.369 2.842Q41.359 2.844 41.35 2.844L41.35 2.844L41.35 2.844Q41.326 2.844 41.311 2.828L41.311 2.828L41.311 2.828Q41.301 2.832 41.291 2.841L41.291 2.841L41.291 2.841Q41.281 2.85 41.272 2.859L41.272 2.859L41.272 2.859Q41.264 2.869 41.256 2.877L41.256 2.877L41.256 2.877Q41.248 2.885 41.242 2.885L41.242 2.885L41.242 2.885Q41.232 2.885 41.228 2.881L41.228 2.881L41.228 2.881Q41.223 2.877 41.215 2.877L41.215 2.877L41.215 2.877Q41.182 2.877 41.156 2.893L41.156 2.893L41.156 2.893Q41.131 2.908 41.102 2.918L41.102 2.918L41.102 2.918Q41.096 2.918 41.09 2.917L41.09 2.917L41.09 2.917Q41.084 2.916 41.078 2.916L41.078 2.916L41.078 2.916Q41.057 2.916 41.036 2.923L41.036 2.923L41.036 2.923Q41.016 2.93 40.997 2.938L40.997 2.938L40.997 2.938Q40.979 2.945 40.959 2.951L40.959 2.951L40.959 2.951Q40.939 2.957 40.92 2.955L40.92 2.955L40.92 2.955Q40.877 2.971 40.841 2.988L40.841 2.988L40.841 2.988Q40.805 3.006 40.758 3.002L40.758 3.002L40.758 3.002Q40.744 3.008 40.729 3.015L40.729 3.015L40.729 3.015Q40.715 3.021 40.701 3.031L40.701 3.031L40.701 3.031Q40.689 3.035 40.684 3.035L40.684 3.035L40.684 3.035Q40.674 3.035 40.668 3.025L40.668 3.025L40.668 3.025Q40.652 3.043 40.627 3.05L40.627 3.05L40.627 3.05Q40.602 3.057 40.574 3.062L40.574 3.062L40.574 3.062Q40.547 3.066 40.522 3.073L40.522 3.073L40.522 3.073Q40.498 3.08 40.484 3.1L40.484 3.1L40.484 3.1Q40.463 3.082 40.434 3.082L40.434 3.082L40.434 3.082Q40.404 3.082 40.377 3.093L40.377 3.093L40.377 3.093Q40.35 3.104 40.318 3.104L40.318 3.104L40.318 3.104Q40.307 3.104 40.303 3.1L40.303 3.1L40.303 3.1Q40.295 3.078 40.285 3.057L40.285 3.057L40.285 3.057Q40.275 3.035 40.254 3.025L40.254 3.025L40.254 3.025Q40.25 3.004 40.247 2.983L40.247 2.983L40.247 2.983Q40.244 2.963 40.244 2.943L40.244 2.943L40.244 2.943Q40.244 2.891 40.275 2.848L40.275 2.848L40.275 2.848Q40.303 2.838 40.331 2.831L40.331 2.831L40.331 2.831Q40.359 2.824 40.387 2.814L40.387 2.814L40.387 2.814Q40.408 2.818 40.43 2.82L40.43 2.82L40.43 2.82Q40.451 2.822 40.473 2.822L40.473 2.822L40.473 2.822Q40.553 2.822 40.629 2.802L40.629 2.802L40.629 2.802Q40.705 2.781 40.779 2.758L40.779 2.758L40.779 2.758Q40.85 2.736 40.922 2.719L40.922 2.719L40.922 2.719Q40.994 2.701 41.066 2.68L41.066 2.68L41.066 2.68Q41.135 2.662 41.201 2.64L41.201 2.64L41.201 2.64Q41.268 2.617 41.34 2.611L41.34 2.611L41.34 2.611Q41.387 2.578 41.454 2.566L41.454 2.566L41.454 2.566Q41.521 2.555 41.578 2.541L41.578 2.541L41.578 2.541Q41.668 2.52 41.756 2.497L41.756 2.497L41.756 2.497Q41.844 2.475 41.936 2.457L41.936 2.457L41.936 2.457Q42.037 2.436 42.134 2.404L42.134 2.404L42.134 2.404Q42.23 2.373 42.328 2.338L42.328 2.338L42.348 2.338L42.348 2.338Q42.381 2.338 42.416 2.33L42.416 2.33L42.416 2.33Q42.451 2.322 42.486 2.322L42.486 2.322L42.486 2.322Q42.496 2.322 42.503 2.323L42.503 2.323L42.503 2.323Q42.51 2.324 42.518 2.324L42.518 2.324L42.518 2.324Q42.523 2.324 42.547 2.315L42.547 2.315L42.547 2.315Q42.57 2.307 42.58 2.303L42.58 2.303L42.58 2.303Q42.605 2.33 42.637 2.352L42.637 2.352L42.637 2.352Q42.668 2.373 42.691 2.4ZM43.875 2.219L43.875 2.219L43.875 2.219Q43.875 2.33 43.86 2.435L43.86 2.435L43.86 2.435Q43.846 2.539 43.818 2.646L43.818 2.646L43.818 2.646Q43.793 2.666 43.787 2.695L43.787 2.695L43.787 2.695Q43.781 2.725 43.768 2.75L43.768 2.75L43.768 2.75Q43.756 2.771 43.736 2.796L43.736 2.796L43.736 2.796Q43.717 2.82 43.693 2.847L43.693 2.847L43.693 2.847Q43.67 2.873 43.646 2.9L43.646 2.9L43.646 2.9Q43.623 2.928 43.607 2.955L43.607 2.955L43.607 2.955Q43.549 2.975 43.523 3.039L43.523 3.039L43.523 3.039Q43.492 3.051 43.459 3.065L43.459 3.065L43.459 3.065Q43.426 3.08 43.412 3.115L43.412 3.115L43.412 3.115Q43.34 3.152 43.276 3.2L43.276 3.2L43.276 3.2Q43.213 3.248 43.139 3.283L43.139 3.283L43.139 3.283Q43.129 3.293 43.116 3.298L43.116 3.298L43.116 3.298Q43.104 3.303 43.091 3.309L43.091 3.309L43.091 3.309Q43.078 3.314 43.067 3.323L43.067 3.323L43.067 3.323Q43.057 3.332 43.055 3.346L43.055 3.346L43.055 3.346Q43.047 3.346 43.044 3.343L43.044 3.343L43.044 3.343Q43.041 3.34 43.031 3.338L43.031 3.338L43.031 3.338Q43.01 3.35 43.012 3.375L43.012 3.375L43.012 3.375Q43.004 3.371 42.99 3.371L42.99 3.371L42.99 3.371Q42.967 3.371 42.944 3.386L42.944 3.386L42.944 3.386Q42.922 3.4 42.906 3.416L42.906 3.416L42.906 3.416Q42.883 3.428 42.853 3.439L42.853 3.439L42.853 3.439Q42.822 3.451 42.809 3.479L42.809 3.479L42.809 3.479Q42.801 3.471 42.785 3.471L42.785 3.471L42.785 3.471Q42.768 3.471 42.748 3.481L42.748 3.481L42.748 3.481Q42.729 3.492 42.719 3.506L42.719 3.506L42.719 3.506Q42.691 3.506 42.667 3.515L42.667 3.515L42.667 3.515Q42.643 3.523 42.617 3.532L42.617 3.532L42.617 3.532Q42.592 3.541 42.567 3.549L42.567 3.549L42.567 3.549Q42.543 3.557 42.516 3.557L42.516 3.557L42.516 3.557Q42.5 3.557 42.492 3.549L42.492 3.549L42.492 3.549Q42.484 3.541 42.473 3.535L42.473 3.535L42.473 3.535Q42.463 3.543 42.438 3.553L42.438 3.553L42.438 3.553Q42.414 3.563 42.402 3.563L42.402 3.563L42.402 3.563Q42.381 3.563 42.36 3.557L42.36 3.557L42.36 3.557Q42.34 3.551 42.318 3.543L42.318 3.543L42.277 3.529L42.277 3.529Q42.258 3.523 42.234 3.521L42.234 3.521L42.234 3.521Q42.217 3.506 42.192 3.489L42.192 3.489L42.192 3.489Q42.168 3.473 42.145 3.479L42.145 3.479L42.145 3.479Q42.135 3.449 42.115 3.428L42.115 3.428L42.115 3.428Q42.096 3.406 42.07 3.389L42.07 3.389L42.07 3.389Q42.064 3.385 42.058 3.382L42.058 3.382L42.058 3.382Q42.051 3.379 42.047 3.375L42.047 3.375L42.047 3.375Q42.037 3.369 42.029 3.352L42.029 3.352L42.029 3.352Q42.021 3.334 42.012 3.334L42.012 3.334L42.012 3.334Q42.01 3.334 42.007 3.336L42.007 3.336L42.007 3.336Q42.004 3.338 42.002 3.338L42.002 3.338L42.002 3.338Q41.998 3.32 41.99 3.304L41.99 3.304L41.99 3.304Q41.982 3.287 41.963 3.283L41.963 3.283L41.963 3.283Q41.947 3.232 41.941 3.182L41.941 3.182L41.941 3.182Q41.936 3.131 41.926 3.08L41.926 3.08L41.926 3.08Q41.922 3.064 41.917 3.042L41.917 3.042L41.917 3.042Q41.912 3.02 41.912 3.002L41.912 3.002L41.912 3.002Q41.912 2.973 41.921 2.932L41.921 2.932L41.921 2.932Q41.93 2.891 41.936 2.859L41.936 2.859L41.936 2.859Q41.959 2.746 41.998 2.64L41.998 2.64L41.998 2.64Q42.037 2.533 42.083 2.428L42.083 2.428L42.083 2.428Q42.129 2.322 42.178 2.219L42.178 2.219L42.178 2.219Q42.227 2.115 42.27 2.008L42.27 2.008L42.27 2.008Q42.277 2.008 42.279 2.004L42.279 2.004L42.285 1.994L42.285 1.994Q42.289 1.988 42.292 1.984L42.292 1.984L42.292 1.984Q42.295 1.98 42.305 1.98L42.305 1.98L42.305 1.975L42.305 1.975Q42.303 1.963 42.31 1.955L42.31 1.955L42.31 1.955Q42.316 1.947 42.313 1.93L42.313 1.93L42.313 1.93Q42.344 1.895 42.365 1.851L42.365 1.851L42.365 1.851Q42.387 1.807 42.409 1.764L42.409 1.764L42.409 1.764Q42.432 1.721 42.457 1.68L42.457 1.68L42.457 1.68Q42.482 1.639 42.521 1.609L42.521 1.609L42.521 1.596L42.521 1.596Q42.52 1.586 42.522 1.575L42.522 1.575L42.522 1.575Q42.525 1.564 42.535 1.561L42.535 1.561L42.535 1.561Q42.57 1.525 42.594 1.49L42.594 1.49L42.594 1.49Q42.617 1.455 42.642 1.421L42.642 1.421L42.642 1.421Q42.666 1.387 42.696 1.356L42.696 1.356L42.696 1.356Q42.727 1.326 42.773 1.301L42.773 1.301L42.773 1.301Q42.795 1.291 42.805 1.271L42.805 1.271L42.805 1.271Q42.814 1.252 42.83 1.244L42.83 1.244L42.83 1.244Q42.838 1.24 42.847 1.239L42.847 1.239L42.847 1.239Q42.855 1.238 42.863 1.234L42.863 1.234L42.863 1.234Q42.896 1.225 42.93 1.21L42.93 1.21L42.93 1.21Q42.963 1.195 43 1.195L43 1.195L43 1.195Q43.047 1.195 43.071 1.222L43.071 1.222L43.071 1.222Q43.096 1.248 43.11 1.285L43.11 1.285L43.11 1.285Q43.125 1.322 43.135 1.363L43.135 1.363L43.135 1.363Q43.145 1.404 43.166 1.434L43.166 1.434L43.166 1.434Q43.225 1.438 43.285 1.446L43.285 1.446L43.285 1.446Q43.346 1.455 43.391 1.496L43.391 1.496L43.391 1.496Q43.395 1.498 43.4 1.498L43.4 1.498L43.4 1.498Q43.41 1.498 43.41 1.49L43.41 1.49L43.41 1.49Q43.41 1.482 43.42 1.482L43.42 1.482L43.426 1.482L43.426 1.482Q43.484 1.518 43.538 1.56L43.538 1.56L43.538 1.56Q43.592 1.602 43.645 1.646L43.645 1.646L43.645 1.646Q43.654 1.654 43.665 1.661L43.665 1.661L43.665 1.661Q43.676 1.668 43.684 1.678L43.684 1.678L43.684 1.678Q43.693 1.689 43.702 1.705L43.702 1.705L43.702 1.705Q43.711 1.721 43.719 1.732L43.719 1.732L43.719 1.732Q43.816 1.902 43.85 2.098L43.85 2.098L43.85 2.098Q43.854 2.119 43.856 2.139L43.856 2.139L43.856 2.139Q43.859 2.158 43.859 2.176L43.859 2.176L43.859 2.176Q43.859 2.193 43.867 2.198L43.867 2.198L43.867 2.198Q43.875 2.203 43.875 2.219ZM43.725 2.318L43.725 2.318L43.725 2.318Q43.725 2.24 43.705 2.168L43.705 2.168L43.705 2.168Q43.715 2.164 43.718 2.155L43.718 2.155L43.718 2.155Q43.721 2.146 43.721 2.137L43.721 2.137L43.721 2.127L43.697 2.084L43.697 2.084Q43.695 2.057 43.687 2.033L43.687 2.033L43.687 2.033Q43.678 2.01 43.666 1.986L43.666 1.986L43.666 1.986Q43.654 1.963 43.644 1.939L43.644 1.939L43.644 1.939Q43.633 1.916 43.629 1.889L43.629 1.889L43.629 1.889Q43.598 1.865 43.573 1.835L43.573 1.835L43.573 1.835Q43.549 1.805 43.529 1.771L43.529 1.771L43.529 1.771Q43.516 1.766 43.504 1.764L43.504 1.764L43.504 1.764Q43.492 1.762 43.496 1.742L43.496 1.742L43.496 1.742Q43.461 1.732 43.433 1.714L43.433 1.714L43.433 1.714Q43.404 1.695 43.377 1.672L43.377 1.672L43.377 1.672Q43.332 1.662 43.288 1.647L43.288 1.647L43.288 1.647Q43.244 1.633 43.199 1.633L43.199 1.633L43.199 1.633Q43.168 1.633 43.139 1.645L43.139 1.645L43.139 1.645Q43.148 1.66 43.148 1.679L43.148 1.679L43.148 1.679Q43.148 1.697 43.152 1.715L43.152 1.715L43.152 1.715Q43.215 1.73 43.229 1.791L43.229 1.791L43.229 1.791Q43.219 1.797 43.211 1.806L43.211 1.806L43.211 1.806Q43.203 1.814 43.196 1.821L43.196 1.821L43.196 1.821Q43.189 1.828 43.18 1.834L43.18 1.834L43.18 1.834Q43.17 1.84 43.156 1.84L43.156 1.84L43.156 1.84Q43.129 1.84 43.114 1.83L43.114 1.83L43.114 1.83Q43.1 1.82 43.068 1.826L43.068 1.826L43.068 1.826Q43.035 1.797 43.004 1.765L43.004 1.765L43.004 1.765Q42.973 1.732 42.934 1.707L42.934 1.707L42.934 1.707Q42.928 1.688 42.915 1.672L42.915 1.672L42.915 1.672Q42.902 1.656 42.89 1.642L42.89 1.642L42.89 1.642Q42.877 1.627 42.866 1.61L42.866 1.61L42.866 1.61Q42.855 1.594 42.855 1.572L42.855 1.572L42.855 1.572Q42.855 1.559 42.857 1.553L42.857 1.553L42.857 1.553Q42.846 1.549 42.84 1.549L42.84 1.549L42.84 1.549Q42.824 1.549 42.811 1.56L42.811 1.56L42.811 1.56Q42.797 1.57 42.779 1.574L42.779 1.574L42.779 1.574Q42.764 1.621 42.734 1.656L42.734 1.656L42.734 1.656Q42.705 1.691 42.674 1.725L42.674 1.725L42.674 1.725Q42.643 1.758 42.616 1.794L42.616 1.794L42.616 1.794Q42.59 1.83 42.578 1.883L42.578 1.883L42.578 1.883Q42.516 1.961 42.463 2.06L42.463 2.06L42.463 2.06Q42.41 2.158 42.383 2.252L42.383 2.252L42.383 2.252Q42.338 2.303 42.313 2.359L42.313 2.359L42.313 2.359Q42.287 2.416 42.283 2.484L42.283 2.484L42.283 2.484Q42.273 2.49 42.268 2.5L42.268 2.5L42.248 2.539L42.248 2.539Q42.244 2.549 42.234 2.555L42.234 2.555L42.234 2.564L42.234 2.564Q42.234 2.58 42.229 2.593L42.229 2.593L42.229 2.593Q42.223 2.605 42.216 2.617L42.216 2.617L42.216 2.617Q42.209 2.629 42.203 2.64L42.203 2.64L42.203 2.64Q42.197 2.65 42.197 2.664L42.197 2.664L42.197 2.664Q42.197 2.68 42.205 2.695L42.205 2.695L42.205 2.695Q42.184 2.699 42.177 2.718L42.177 2.718L42.177 2.718Q42.17 2.736 42.158 2.75L42.158 2.75L42.158 2.75Q42.15 2.813 42.143 2.877L42.143 2.877L42.143 2.877Q42.135 2.941 42.135 3.004L42.135 3.004L42.135 3.004Q42.135 3.076 42.15 3.15L42.15 3.15L42.15 3.15Q42.168 3.168 42.182 3.189L42.182 3.189L42.182 3.189Q42.195 3.211 42.21 3.23L42.21 3.23L42.21 3.23Q42.225 3.25 42.242 3.265L42.242 3.265L42.242 3.265Q42.26 3.279 42.289 3.283L42.289 3.283L42.289 3.283Q42.289 3.297 42.295 3.303L42.295 3.303L42.295 3.303Q42.301 3.309 42.305 3.318L42.305 3.318L42.305 3.318Q42.346 3.332 42.391 3.341L42.391 3.341L42.391 3.341Q42.436 3.35 42.48 3.35L42.48 3.35L42.48 3.35Q42.512 3.35 42.544 3.342L42.544 3.342L42.544 3.342Q42.576 3.334 42.598 3.311L42.598 3.311L42.598 3.311Q42.697 3.307 42.796 3.264L42.796 3.264L42.796 3.264Q42.895 3.221 42.977 3.17L42.977 3.17L43.018 3.17L43.018 3.17Q43.039 3.141 43.07 3.122L43.07 3.122L43.07 3.122Q43.102 3.104 43.135 3.088L43.135 3.088L43.135 3.088Q43.141 3.084 43.15 3.08L43.15 3.08L43.15 3.08Q43.16 3.076 43.166 3.072L43.166 3.072L43.166 3.072Q43.188 3.057 43.21 3.037L43.21 3.037L43.21 3.037Q43.232 3.018 43.256 3L43.256 3L43.256 3Q43.295 2.971 43.336 2.943L43.336 2.943L43.336 2.943Q43.377 2.916 43.415 2.885L43.415 2.885L43.415 2.885Q43.453 2.854 43.487 2.817L43.487 2.817L43.487 2.817Q43.521 2.781 43.545 2.736L43.545 2.736L43.545 2.736Q43.557 2.736 43.563 2.729L43.563 2.729L43.563 2.729Q43.57 2.723 43.575 2.715L43.575 2.715L43.575 2.715Q43.58 2.707 43.587 2.701L43.587 2.701L43.587 2.701Q43.594 2.695 43.607 2.695L43.607 2.695L43.607 2.695Q43.607 2.678 43.614 2.665L43.614 2.665L43.614 2.665Q43.621 2.652 43.63 2.642L43.63 2.642L43.63 2.642Q43.639 2.631 43.647 2.621L43.647 2.621L43.647 2.621Q43.656 2.611 43.664 2.596L43.664 2.596L43.664 2.541L43.664 2.541Q43.695 2.49 43.71 2.434L43.71 2.434L43.71 2.434Q43.725 2.377 43.725 2.318Z" fill="#424002"/></svg>