<svg xmlns="http://www.w3.org/2000/svg" xmlns:xlink="http://www.w3.org/1999/xlink" viewBox="0 0 60 125" width="60" height="125"><line x1="30" y1="35" x2="30" y2="50" stroke-width="10" stroke="#cec6b8" stroke-linejoin="round" stroke-linecap="round"/><line x1="20" y1="100" x2="20" y2="80" stroke-width="10" stroke="#465493" stroke-linejoin="round" stroke-linecap="round"/><line x1="40" y1="100" x2="40" y2="80" stroke-width="10" stroke="#465493" stroke-linejoin="round" stroke-linecap="round"/><rect x="20" y="70" width="20" height="10" transform="matrix(1,0,0,1,0,0)" fill="#558652" stroke-width="10" stroke="#396436" stroke-linejoin="round" stroke-linecap="round" stroke-miterlimit="2"/><path d="M10 30L15 70L45 70L50 30" fill="none" stroke-width="10" stroke="#396436" stroke-linejoin="round" stroke-linecap="round"/><circle cx="30" cy="55" r="15" fill="#cec6b8" stroke-width="10" stroke="#bdb29f" stroke-linejoin="round" stroke-linecap="round"/><path d="M45 54.909C45 54.939 45 54.97 45 55C45 63.279 38.279 70 30 70C21.721 70 15 63.279 15 55L30 55L45 54.909Z" fill="#3b3b3b" stroke-width="10" stroke="#202020" stroke-linejoin="round" stroke-linecap="round"/><line x1="40" y1="110" x2="40" y2="100" stroke-width="10" stroke="#757575" stroke-linejoin="round" stroke-linecap="round"/></svg>