<?xml version="1.0" standalone="no"?><!-- Generator: Gravit.io --><svg xmlns="http://www.w3.org/2000/svg" xmlns:xlink="http://www.w3.org/1999/xlink" style="isolation:isolate" viewBox="0 0 60 125" width="60" height="125"><defs><clipPath id="_clipPath_FRyzicESEiJ2RAA03JxUIwBPPlC2TxGB"><rect width="60" height="125"/></clipPath></defs><g clip-path="url(#_clipPath_FRyzicESEiJ2RAA03JxUIwBPPlC2TxGB)"><line x1="30" y1="35" x2="30" y2="50" stroke-width="10" stroke="rgb(206,198,184)" stroke-linejoin="round" stroke-linecap="round" stroke-miterlimit="3"/><line x1="20" y1="100" x2="20" y2="80" stroke-width="10" stroke="rgb(70,84,147)" stroke-linejoin="round" stroke-linecap="round" stroke-miterlimit="3"/><line x1="40" y1="100" x2="40" y2="80" stroke-width="10" stroke="rgb(70,84,147)" stroke-linejoin="round" stroke-linecap="round" stroke-miterlimit="3"/><rect x="20" y="70" width="20" height="10" transform="matrix(1,0,0,1,0,0)" fill="rgb(85,134,82)" stroke-width="10" stroke="rgb(57,100,54)" stroke-linejoin="round" stroke-linecap="round" stroke-miterlimit="2"/><path d=" M 10 30 L 15 70 L 45 70 L 50 30" fill="none" stroke-width="10" stroke="rgb(57,100,54)" stroke-linejoin="round" stroke-linecap="round" stroke-miterlimit="3"/><circle cx="30" cy="55" r="15.000000000000004" fill="rgb(206,198,184)" stroke-width="10" stroke="rgb(189,178,159)" stroke-linejoin="round" stroke-linecap="round" stroke-miterlimit="3"/><path d=" M 45 54.909 C 45 54.939 45 54.97 45 55 C 45 63.279 38.279 70 30 70 C 21.721 70 15 63.279 15 55 L 30 55 L 45 54.909 Z " fill="rgb(59,59,59)" stroke-width="10" stroke="rgb(32,32,32)" stroke-linejoin="round" stroke-linecap="round" stroke-miterlimit="3"/><line x1="20" y1="110" x2="20" y2="100" stroke-width="10" stroke="rgb(117,117,117)" stroke-linejoin="round" stroke-linecap="round" stroke-miterlimit="3"/></g></svg>