<?xml version="1.0" standalone="no"?><!-- Generator: Gravit.io --><svg xmlns="http://www.w3.org/2000/svg" xmlns:xlink="http://www.w3.org/1999/xlink" style="isolation:isolate" viewBox="0 0 100 85" width="100" height="85"><defs><clipPath id="_clipPath_N3jIFNi0zqweOp6lFTg0QXbGczXijv21"><rect width="100" height="85"/></clipPath></defs><g clip-path="url(#_clipPath_N3jIFNi0zqweOp6lFTg0QXbGczXijv21)"><rect x="5" y="5" width="90" height="60" transform="matrix(1,0,0,1,0,0)" fill="rgb(179,167,136)" stroke-width="10" stroke="rgb(87,78,55)" stroke-opacity="100" stroke-linejoin="round" stroke-linecap="round" stroke-miterlimit="2"/><line x1="20" y1="80" x2="20" y2="70" stroke-width="10" stroke="rgb(87,78,55)" stroke-opacity="100" stroke-linejoin="round" stroke-linecap="round" stroke-miterlimit="3"/><line x1="80" y1="80" x2="80" y2="70" stroke-width="10" stroke="rgb(87,78,55)" stroke-opacity="100" stroke-linejoin="round" stroke-linecap="round" stroke-miterlimit="3"/><path d=" M 30 30 L 20 30 L 20 40 L 30 40 L 30 50 L 20 50" fill="none" stroke-width="10" stroke="rgb(204,115,115)" stroke-opacity="100" stroke-linejoin="round" stroke-linecap="round" stroke-miterlimit="3"/><path d=" M 50 30 L 40 30 L 40 50 L 50 50" fill="none" stroke-width="10" stroke="rgb(102,102,102)" stroke-opacity="100" stroke-linejoin="round" stroke-linecap="round" stroke-miterlimit="3"/><line x1="50" y1="40" x2="40" y2="40" stroke-width="10" stroke="rgb(102,102,102)" stroke-opacity="100" stroke-linejoin="round" stroke-linecap="round" stroke-miterlimit="3"/><path d=" M 80 30 L 70 30 L 70 50" fill="none" stroke-width="10" stroke="rgb(102,102,102)" stroke-opacity="100" stroke-linejoin="round" stroke-linecap="round" stroke-miterlimit="3"/><line x1="80" y1="40" x2="70" y2="40" stroke-width="10" stroke="rgb(102,102,102)" stroke-opacity="100" stroke-linejoin="round" stroke-linecap="round" stroke-miterlimit="3"/><path d=" M 60 30 L 60 50 L 70 50" fill="none" stroke-width="10" stroke="rgb(204,115,115)" stroke-opacity="100" stroke-linejoin="round" stroke-linecap="round" stroke-miterlimit="3"/><path d=" M 31.245 21.085 L 30.625 19.585 L 27.375 19.585 L 26.755 21.085 L 25.095 21.085 L 28.215 14.085 L 29.815 14.085 L 32.945 21.085 L 31.245 21.085 L 31.245 21.085 Z  M 27.895 18.355 L 30.115 18.355 L 29.005 15.675 L 27.895 18.355 L 27.895 18.355 Z  M 33.675 21.085 L 33.675 14.085 L 35.295 14.085 L 35.295 19.765 L 38.805 19.765 L 38.805 21.085 L 33.675 21.085 L 33.675 21.085 Z  M 39.715 21.085 L 39.715 14.085 L 41.335 14.085 L 41.335 19.765 L 44.845 19.765 L 44.845 21.085 L 39.715 21.085 L 39.715 21.085 Z  M 53.385 14.085 L 55.005 14.085 L 55.005 21.085 L 53.385 21.085 L 53.385 18.215 L 50.205 18.215 L 50.205 21.085 L 48.585 21.085 L 48.585 14.085 L 50.205 14.085 L 50.205 16.845 L 53.385 16.845 L 53.385 14.085 L 53.385 14.085 Z  M 61.895 21.085 L 61.275 19.585 L 58.025 19.585 L 57.405 21.085 L 55.745 21.085 L 58.865 14.085 L 60.465 14.085 L 63.595 21.085 L 61.895 21.085 L 61.895 21.085 Z  M 58.545 18.355 L 60.765 18.355 L 59.655 15.675 L 58.545 18.355 L 58.545 18.355 Z  M 64.325 21.085 L 64.325 14.085 L 65.945 14.085 L 65.945 21.085 L 64.325 21.085 L 64.325 21.085 Z  M 67.605 21.085 L 67.605 14.085 L 69.225 14.085 L 69.225 19.765 L 72.735 19.765 L 72.735 21.085 L 67.605 21.085 L 67.605 21.085 Z " fill-rule="evenodd" fill="rgb(125,113,83)"/></g></svg>