<svg xmlns="http://www.w3.org/2000/svg" xmlns:xlink="http://www.w3.org/1999/xlink" viewBox="0 0 100 85" width="100" height="85"><rect x="5" y="5" width="90" height="60" transform="matrix(1,0,0,1,0,0)" fill="#b3a788" stroke-width="10" stroke="#574e37" stroke-opacity="100" stroke-linejoin="round" stroke-linecap="round" stroke-miterlimit="2"/><line x1="20" y1="80" x2="20" y2="70" stroke-width="10" stroke="#574e37" stroke-opacity="100" stroke-linejoin="round" stroke-linecap="round"/><line x1="80" y1="80" x2="80" y2="70" stroke-width="10" stroke="#574e37" stroke-opacity="100" stroke-linejoin="round" stroke-linecap="round"/><path d="M30 30L20 30L20 40L30 40L30 50L20 50" fill="none" stroke-width="10" stroke="#cc7373" stroke-opacity="100" stroke-linejoin="round" stroke-linecap="round"/><path d="M50 30L40 30L40 50L50 50" fill="none" stroke-width="10" stroke="#666" stroke-opacity="100" stroke-linejoin="round" stroke-linecap="round"/><line x1="50" y1="40" x2="40" y2="40" stroke-width="10" stroke="#666" stroke-opacity="100" stroke-linejoin="round" stroke-linecap="round"/><path d="M80 30L70 30L70 50" fill="none" stroke-width="10" stroke="#666" stroke-opacity="100" stroke-linejoin="round" stroke-linecap="round"/><line x1="80" y1="40" x2="70" y2="40" stroke-width="10" stroke="#666" stroke-opacity="100" stroke-linejoin="round" stroke-linecap="round"/><path d="M60 30L60 50L70 50" fill="none" stroke-width="10" stroke="#cc7373" stroke-opacity="100" stroke-linejoin="round" stroke-linecap="round"/><path d="M31.245 21.085L30.625 19.585L27.375 19.585L26.755 21.085L25.095 21.085L28.215 14.085L29.815 14.085L32.945 21.085L31.245 21.085L31.245 21.085ZM27.895 18.355L30.115 18.355L29.005 15.675L27.895 18.355L27.895 18.355ZM33.675 21.085L33.675 14.085L35.295 14.085L35.295 19.765L38.805 19.765L38.805 21.085L33.675 21.085L33.675 21.085ZM39.715 21.085L39.715 14.085L41.335 14.085L41.335 19.765L44.845 19.765L44.845 21.085L39.715 21.085L39.715 21.085ZM53.385 14.085L55.005 14.085L55.005 21.085L53.385 21.085L53.385 18.215L50.205 18.215L50.205 21.085L48.585 21.085L48.585 14.085L50.205 14.085L50.205 16.845L53.385 16.845L53.385 14.085L53.385 14.085ZM61.895 21.085L61.275 19.585L58.025 19.585L57.405 21.085L55.745 21.085L58.865 14.085L60.465 14.085L63.595 21.085L61.895 21.085L61.895 21.085ZM58.545 18.355L60.765 18.355L59.655 15.675L58.545 18.355L58.545 18.355ZM64.325 21.085L64.325 14.085L65.945 14.085L65.945 21.085L64.325 21.085L64.325 21.085ZM67.605 21.085L67.605 14.085L69.225 14.085L69.225 19.765L72.735 19.765L72.735 21.085L67.605 21.085L67.605 21.085Z" fill="#7d7153"/></svg>