<?xml version="1.0" standalone="no"?><!-- Generator: Gravit.io --><svg xmlns="http://www.w3.org/2000/svg" xmlns:xlink="http://www.w3.org/1999/xlink" style="isolation:isolate" viewBox="0 0 50 80" width="50" height="80"><defs><clipPath id="_clipPath_1gEgtOx9QQ6zLtRDrH0ZIkH13Z9W6y67"><rect width="50" height="80"/></clipPath></defs><g clip-path="url(#_clipPath_1gEgtOx9QQ6zLtRDrH0ZIkH13Z9W6y67)"><rect x="5" y="40" width="40" height="35" transform="matrix(1,0,0,1,0,0)" fill="none" stroke-width="10" stroke="rgb(0,0,0)" stroke-opacity="0.43" stroke-linejoin="round" stroke-linecap="round" stroke-miterlimit="2"/><path d=" M 17.315 61.405 L 17.315 61.405 Q 17.07 61.405 16.855 61.268 L 16.855 61.268 L 16.855 61.268 Q 16.64 61.13 16.505 60.855 L 16.505 60.855 L 16.505 60.855 Q 16.37 60.58 16.37 60.19 L 16.37 60.19 L 16.37 60.19 Q 16.37 59.795 16.51 59.53 L 16.51 59.53 L 16.51 59.53 Q 16.65 59.265 16.87 59.138 L 16.87 59.138 L 16.87 59.138 Q 17.09 59.01 17.335 59.01 L 17.335 59.01 L 17.335 59.01 Q 17.565 59.01 17.737 59.115 L 17.737 59.115 L 17.737 59.115 Q 17.91 59.22 18 59.405 L 18 59.405 L 18 58.03 L 18.38 58.03 L 18.38 58.065 L 18.38 58.065 Q 18.35 58.095 18.342 58.13 L 18.342 58.13 L 18.342 58.13 Q 18.335 58.165 18.335 58.25 L 18.335 58.25 L 18.34 61 L 18.34 61 Q 18.34 61.12 18.347 61.198 L 18.347 61.198 L 18.347 61.198 Q 18.355 61.275 18.39 61.355 L 18.39 61.355 L 18.035 61.355 L 18.035 61.355 Q 18 61.275 17.992 61.198 L 17.992 61.198 L 17.992 61.198 Q 17.985 61.12 17.985 61 L 17.985 61 L 17.985 61 Q 17.875 61.19 17.702 61.298 L 17.702 61.298 L 17.702 61.298 Q 17.53 61.405 17.315 61.405 L 17.315 61.405 Z  M 17.37 61.09 L 17.37 61.09 Q 17.68 61.09 17.825 60.845 L 17.825 60.845 L 17.825 60.845 Q 17.97 60.6 17.97 60.2 L 17.97 60.2 L 17.97 60.2 Q 17.97 59.795 17.812 59.55 L 17.812 59.55 L 17.812 59.55 Q 17.655 59.305 17.34 59.305 L 17.34 59.305 L 17.34 59.305 Q 17.04 59.305 16.88 59.528 L 16.88 59.528 L 16.88 59.528 Q 16.72 59.75 16.72 60.135 L 16.72 60.135 L 16.72 60.135 Q 16.72 60.575 16.887 60.833 L 16.887 60.833 L 16.887 60.833 Q 17.055 61.09 17.37 61.09 L 17.37 61.09 Z  M 19.75 61.41 L 19.75 61.41 Q 19.39 61.41 19.175 61.143 L 19.175 61.143 L 19.175 61.143 Q 18.96 60.875 18.965 60.345 L 18.965 60.345 L 18.97 59.07 L 19.32 59.07 L 19.32 60.345 L 19.32 60.345 Q 19.32 60.755 19.462 60.938 L 19.462 60.938 L 19.462 60.938 Q 19.605 61.12 19.84 61.12 L 19.84 61.12 L 19.84 61.12 Q 20.1 61.12 20.277 60.918 L 20.277 60.918 L 20.277 60.918 Q 20.455 60.715 20.455 60.33 L 20.455 60.33 L 20.455 59.07 L 20.805 59.07 L 20.805 61 L 20.805 61 Q 20.805 61.12 20.812 61.198 L 20.812 61.198 L 20.812 61.198 Q 20.82 61.275 20.855 61.355 L 20.855 61.355 L 20.51 61.355 L 20.51 61.355 Q 20.475 61.28 20.467 61.2 L 20.467 61.2 L 20.467 61.2 Q 20.46 61.12 20.46 61.005 L 20.46 61.005 L 20.46 61.005 Q 20.35 61.195 20.162 61.303 L 20.162 61.303 L 20.162 61.303 Q 19.975 61.41 19.75 61.41 L 19.75 61.41 Z  M 22.59 61.085 L 22.59 61.085 Q 22.935 61.085 23.185 60.805 L 23.185 60.805 L 23.395 61.05 L 23.395 61.05 Q 23.06 61.41 22.57 61.41 L 22.57 61.41 L 22.57 61.41 Q 22.24 61.41 21.98 61.255 L 21.98 61.255 L 21.98 61.255 Q 21.72 61.1 21.572 60.828 L 21.572 60.828 L 21.572 60.828 Q 21.425 60.555 21.425 60.215 L 21.425 60.215 L 21.425 60.215 Q 21.425 59.875 21.572 59.605 L 21.572 59.605 L 21.572 59.605 Q 21.72 59.335 21.98 59.18 L 21.98 59.18 L 21.98 59.18 Q 22.24 59.025 22.565 59.025 L 22.565 59.025 L 22.565 59.025 Q 22.84 59.025 23.065 59.138 L 23.065 59.138 L 23.065 59.138 Q 23.29 59.25 23.43 59.45 L 23.43 59.45 L 23.205 59.67 L 23.2 59.675 L 23.2 59.675 Q 23.055 59.485 22.902 59.408 L 22.902 59.408 L 22.902 59.408 Q 22.75 59.33 22.525 59.33 L 22.525 59.33 L 22.525 59.33 Q 22.33 59.33 22.162 59.438 L 22.162 59.438 L 22.162 59.438 Q 21.995 59.545 21.895 59.74 L 21.895 59.74 L 21.895 59.74 Q 21.795 59.935 21.795 60.19 L 21.795 60.19 L 21.795 60.19 Q 21.795 60.445 21.897 60.65 L 21.897 60.65 L 21.897 60.65 Q 22 60.855 22.182 60.97 L 22.182 60.97 L 22.182 60.97 Q 22.365 61.085 22.59 61.085 L 22.59 61.085 Z  M 23.145 59.68 L 23.145 59.68 Q 23.145 59.65 23.19 59.685 L 23.19 59.685 L 23.17 59.705 L 23.145 59.68 Z  M 23.2 59.675 L 23.2 59.675 Q 23.225 59.71 23.212 59.7 L 23.212 59.7 L 23.212 59.7 Q 23.2 59.69 23.19 59.685 L 23.19 59.685 L 23.2 59.675 Z  M 25.575 61.375 L 24.64 60.21 L 24.34 60.49 L 24.34 61.355 L 23.975 61.355 L 23.975 58.03 L 24.385 58.03 L 24.385 58.065 L 24.385 58.065 Q 24.355 58.095 24.347 58.13 L 24.347 58.13 L 24.347 58.13 Q 24.34 58.165 24.34 58.25 L 24.34 58.25 L 24.34 60.12 L 25.485 59.06 L 25.485 59.06 Q 25.61 59.085 25.75 59.085 L 25.75 59.085 L 25.88 59.085 L 24.92 59.99 L 26.04 61.355 L 25.575 61.375 Z  M 28.125 61.355 L 26.645 61.355 L 26.645 61.065 L 27.23 61.065 L 27.23 59.36 L 26.675 59.36 L 26.675 59.07 L 27.59 59.07 L 27.59 61.065 L 28.125 61.065 L 28.125 61.355 Z  M 27.39 58.59 L 27.39 58.59 Q 27.285 58.59 27.21 58.515 L 27.21 58.515 L 27.21 58.515 Q 27.135 58.44 27.135 58.335 L 27.135 58.335 L 27.135 58.335 Q 27.135 58.225 27.207 58.15 L 27.207 58.15 L 27.207 58.15 Q 27.28 58.075 27.39 58.075 L 27.39 58.075 L 27.39 58.075 Q 27.495 58.075 27.572 58.153 L 27.572 58.153 L 27.572 58.153 Q 27.65 58.23 27.65 58.335 L 27.65 58.335 L 27.65 58.335 Q 27.65 58.44 27.572 58.515 L 27.572 58.515 L 27.572 58.515 Q 27.495 58.59 27.39 58.59 L 27.39 58.59 Z  M 29.005 61.355 L 29.005 59.07 L 29.355 59.07 L 29.355 59.475 L 29.355 59.475 Q 29.49 59.265 29.695 59.14 L 29.695 59.14 L 29.695 59.14 Q 29.9 59.015 30.13 59.015 L 30.13 59.015 L 30.13 59.015 Q 30.435 59.015 30.617 59.248 L 30.617 59.248 L 30.617 59.248 Q 30.8 59.48 30.8 59.97 L 30.8 59.97 L 30.8 61.355 L 30.45 61.355 L 30.45 59.98 L 30.45 59.98 Q 30.45 59.64 30.335 59.485 L 30.335 59.485 L 30.335 59.485 Q 30.22 59.33 30.03 59.33 L 30.03 59.33 L 30.03 59.33 Q 29.875 59.33 29.717 59.42 L 29.717 59.42 L 29.717 59.42 Q 29.56 59.51 29.457 59.673 L 29.457 59.673 L 29.457 59.673 Q 29.355 59.835 29.355 60.04 L 29.355 60.04 L 29.355 61.355 L 29.005 61.355 Z  M 33.52 59.305 L 33.52 59.305 Q 33.475 59.3 33.39 59.3 L 33.39 59.3 L 33.39 59.3 Q 33.15 59.3 32.99 59.405 L 32.99 59.405 L 32.99 59.405 Q 33.075 59.575 33.075 59.78 L 33.075 59.78 L 33.075 59.78 Q 33.075 60.005 32.977 60.188 L 32.977 60.188 L 32.977 60.188 Q 32.88 60.37 32.697 60.475 L 32.697 60.475 L 32.697 60.475 Q 32.515 60.58 32.275 60.58 L 32.275 60.58 L 32.275 60.58 Q 32.085 60.58 31.92 60.51 L 31.92 60.51 L 31.92 60.51 Q 31.83 60.62 31.83 60.72 L 31.83 60.72 L 31.83 60.72 Q 31.83 60.84 31.982 60.893 L 31.982 60.893 L 31.982 60.893 Q 32.135 60.945 32.53 60.945 L 32.53 60.945 L 32.53 60.945 Q 33.015 60.945 33.192 61.093 L 33.192 61.093 L 33.192 61.093 Q 33.37 61.24 33.37 61.525 L 33.37 61.525 L 33.37 61.525 Q 33.37 61.82 33.13 62.018 L 33.13 62.018 L 33.13 62.018 Q 32.89 62.215 32.38 62.215 L 32.38 62.215 L 32.38 62.215 Q 31.89 62.215 31.612 62.065 L 31.612 62.065 L 31.612 62.065 Q 31.335 61.915 31.335 61.625 L 31.335 61.625 L 31.335 61.625 Q 31.335 61.445 31.435 61.315 L 31.435 61.315 L 31.435 61.315 Q 31.535 61.185 31.69 61.11 L 31.69 61.11 L 31.69 61.11 Q 31.525 61 31.525 60.805 L 31.525 60.805 L 31.525 60.805 Q 31.525 60.605 31.73 60.385 L 31.73 60.385 L 31.73 60.385 Q 31.605 60.275 31.54 60.12 L 31.54 60.12 L 31.54 60.12 Q 31.475 59.965 31.475 59.78 L 31.475 59.78 L 31.475 59.78 Q 31.475 59.56 31.572 59.378 L 31.572 59.378 L 31.572 59.378 Q 31.67 59.195 31.852 59.09 L 31.852 59.09 L 31.852 59.09 Q 32.035 58.985 32.275 58.985 L 32.275 58.985 L 32.275 58.985 Q 32.64 58.985 32.86 59.22 L 32.86 59.22 L 32.86 59.22 Q 32.98 59.11 33.107 59.058 L 33.107 59.058 L 33.107 59.058 Q 33.235 59.005 33.39 59.005 L 33.39 59.005 L 33.475 59.01 L 33.52 59.305 Z  M 32.275 60.28 L 32.275 60.28 Q 32.49 60.28 32.632 60.135 L 32.632 60.135 L 32.632 60.135 Q 32.775 59.99 32.775 59.78 L 32.775 59.78 L 32.775 59.78 Q 32.775 59.57 32.632 59.425 L 32.632 59.425 L 32.632 59.425 Q 32.49 59.28 32.275 59.28 L 32.275 59.28 L 32.275 59.28 Q 32.06 59.28 31.917 59.425 L 31.917 59.425 L 31.917 59.425 Q 31.775 59.57 31.775 59.78 L 31.775 59.78 L 31.775 59.78 Q 31.775 59.99 31.917 60.135 L 31.917 60.135 L 31.917 60.135 Q 32.06 60.28 32.275 60.28 L 32.275 60.28 Z  M 33.04 61.58 L 33.04 61.58 Q 33.04 61.46 32.997 61.393 L 32.997 61.393 L 32.997 61.393 Q 32.955 61.325 32.83 61.293 L 32.83 61.293 L 32.83 61.293 Q 32.705 61.26 32.455 61.26 L 32.455 61.26 L 32.455 61.26 Q 32.095 61.26 31.88 61.195 L 31.88 61.195 L 31.88 61.195 Q 31.76 61.275 31.712 61.36 L 31.712 61.36 L 31.712 61.36 Q 31.665 61.445 31.665 61.585 L 31.665 61.585 L 31.665 61.585 Q 31.665 61.755 31.855 61.85 L 31.855 61.85 L 31.855 61.85 Q 32.045 61.945 32.385 61.945 L 32.385 61.945 L 32.385 61.945 Q 32.715 61.945 32.877 61.848 L 32.877 61.848 L 32.877 61.848 Q 33.04 61.75 33.04 61.58 L 33.04 61.58 Z  M 33.615 53.775 L 33.615 53.775 Q 34.105 53.775 34.362 54.03 L 34.362 54.03 L 34.362 54.03 Q 34.62 54.285 34.62 54.895 L 34.62 54.895 L 34.62 56.11 L 34.23 56.11 L 34.23 55.76 L 34.23 55.76 Q 34.02 56.165 33.45 56.165 L 33.45 56.165 L 33.45 56.165 Q 33.07 56.165 32.855 55.993 L 32.855 55.993 L 32.855 55.993 Q 32.64 55.82 32.64 55.535 L 32.64 55.535 L 32.64 55.535 Q 32.64 55.295 32.795 55.115 L 32.795 55.115 L 32.795 55.115 Q 32.95 54.935 33.212 54.838 L 33.212 54.838 L 33.212 54.838 Q 33.475 54.74 33.79 54.74 L 33.79 54.74 L 33.79 54.74 Q 34.075 54.74 34.305 54.77 L 34.305 54.77 L 34.305 54.77 Q 34.275 54.385 34.102 54.228 L 34.102 54.228 L 34.102 54.228 Q 33.93 54.07 33.59 54.07 L 33.59 54.07 L 33.59 54.07 Q 33.42 54.07 33.262 54.135 L 33.262 54.135 L 33.262 54.135 Q 33.105 54.2 32.975 54.325 L 32.975 54.325 L 32.8 54.095 L 32.8 54.095 Q 33.12 53.775 33.615 53.775 L 33.615 53.775 Z  M 33.485 55.89 L 33.485 55.89 Q 33.855 55.89 34.07 55.673 L 34.07 55.673 L 34.07 55.673 Q 34.285 55.455 34.305 55.045 L 34.305 55.045 L 34.305 55.045 Q 34.08 55.01 33.82 55.01 L 33.82 55.01 L 33.82 55.01 Q 33.44 55.01 33.22 55.135 L 33.22 55.135 L 33.22 55.135 Q 33 55.26 33 55.515 L 33 55.515 L 33 55.515 Q 33 55.89 33.485 55.89 L 33.485 55.89 Z  M 35.085 56.11 L 35.085 53.825 L 35.415 53.825 L 35.415 54.05 L 35.415 54.05 Q 35.495 53.925 35.62 53.848 L 35.62 53.848 L 35.62 53.848 Q 35.745 53.77 35.88 53.77 L 35.88 53.77 L 35.88 53.77 Q 36.03 53.77 36.142 53.865 L 36.142 53.865 L 36.142 53.865 Q 36.255 53.96 36.285 54.105 L 36.285 54.105 L 36.285 54.105 Q 36.35 53.955 36.49 53.863 L 36.49 53.863 L 36.49 53.863 Q 36.63 53.77 36.8 53.77 L 36.8 53.77 L 36.8 53.77 Q 37.025 53.77 37.137 53.933 L 37.137 53.933 L 37.137 53.933 Q 37.25 54.095 37.24 54.355 L 37.24 54.355 L 37.24 56.11 L 36.91 56.11 L 36.91 54.49 L 36.91 54.49 Q 36.91 54.205 36.855 54.12 L 36.855 54.12 L 36.855 54.12 Q 36.8 54.035 36.695 54.035 L 36.695 54.035 L 36.695 54.035 Q 36.605 54.035 36.52 54.12 L 36.52 54.12 L 36.52 54.12 Q 36.435 54.205 36.382 54.338 L 36.382 54.338 L 36.382 54.338 Q 36.33 54.47 36.33 54.6 L 36.33 54.6 L 36.33 56.11 L 35.995 56.11 L 35.995 54.52 L 35.995 54.52 Q 35.995 54.24 35.942 54.143 L 35.942 54.143 L 35.942 54.143 Q 35.89 54.045 35.745 54.045 L 35.745 54.045 L 35.745 54.045 Q 35.67 54.045 35.592 54.113 L 35.592 54.113 L 35.592 54.113 Q 35.515 54.18 35.465 54.303 L 35.465 54.303 L 35.465 54.303 Q 35.415 54.425 35.415 54.585 L 35.415 54.585 L 35.415 56.11 L 35.085 56.11 Z  M 29.375 56.11 L 27.895 56.11 L 27.895 55.82 L 28.48 55.82 L 28.48 54.115 L 27.925 54.115 L 27.925 53.825 L 28.84 53.825 L 28.84 55.82 L 29.375 55.82 L 29.375 56.11 Z  M 28.64 53.345 L 28.64 53.345 Q 28.535 53.345 28.46 53.27 L 28.46 53.27 L 28.46 53.27 Q 28.385 53.195 28.385 53.09 L 28.385 53.09 L 28.385 53.09 Q 28.385 52.98 28.457 52.905 L 28.457 52.905 L 28.457 52.905 Q 28.53 52.83 28.64 52.83 L 28.64 52.83 L 28.64 52.83 Q 28.745 52.83 28.822 52.908 L 28.822 52.908 L 28.822 52.908 Q 28.9 52.985 28.9 53.09 L 28.9 53.09 L 28.9 53.09 Q 28.9 53.195 28.822 53.27 L 28.822 53.27 L 28.822 53.27 Q 28.745 53.345 28.64 53.345 L 28.64 53.345 Z  M 12.76 56.11 L 12.76 52.785 L 13.155 52.785 L 13.155 52.82 L 13.155 52.82 Q 13.125 52.85 13.117 52.885 L 13.117 52.885 L 13.117 52.885 Q 13.11 52.92 13.11 53.005 L 13.11 53.005 L 13.11 54.23 L 13.11 54.23 Q 13.245 54.02 13.447 53.895 L 13.447 53.895 L 13.447 53.895 Q 13.65 53.77 13.86 53.77 L 13.86 53.77 L 13.86 53.77 Q 14.185 53.77 14.37 54 L 14.37 54 L 14.37 54 Q 14.555 54.23 14.555 54.725 L 14.555 54.725 L 14.555 56.11 L 14.205 56.11 L 14.205 54.735 L 14.205 54.735 Q 14.205 54.395 14.09 54.24 L 14.09 54.24 L 14.09 54.24 Q 13.975 54.085 13.785 54.085 L 13.785 54.085 L 13.785 54.085 Q 13.625 54.085 13.47 54.173 L 13.47 54.173 L 13.47 54.173 Q 13.315 54.26 13.212 54.423 L 13.212 54.423 L 13.212 54.423 Q 13.11 54.585 13.11 54.795 L 13.11 54.795 L 13.11 56.11 L 12.76 56.11 Z  M 16.255 56.16 L 16.255 56.16 Q 15.745 56.16 15.442 55.85 L 15.442 55.85 L 15.442 55.85 Q 15.14 55.54 15.14 54.975 L 15.14 54.975 L 15.14 54.975 Q 15.14 54.6 15.28 54.328 L 15.28 54.328 L 15.28 54.328 Q 15.42 54.055 15.657 53.913 L 15.657 53.913 L 15.657 53.913 Q 15.895 53.77 16.19 53.77 L 16.19 53.77 L 16.19 53.77 Q 16.605 53.77 16.862 54.045 L 16.862 54.045 L 16.862 54.045 Q 17.12 54.32 17.12 54.855 L 17.12 54.855 L 17.12 54.855 Q 17.12 54.91 17.11 55.02 L 17.11 55.02 L 15.485 55.02 L 15.485 55.02 Q 15.505 55.44 15.72 55.655 L 15.72 55.655 L 15.72 55.655 Q 15.935 55.87 16.265 55.87 L 16.265 55.87 L 16.265 55.87 Q 16.625 55.87 16.855 55.615 L 16.855 55.615 L 17.055 55.81 L 17.055 55.81 Q 16.765 56.16 16.255 56.16 L 16.255 56.16 Z  M 15.5 54.74 L 16.755 54.74 L 16.755 54.74 Q 16.755 54.42 16.592 54.233 L 16.592 54.233 L 16.592 54.233 Q 16.43 54.045 16.165 54.045 L 16.165 54.045 L 16.165 54.045 Q 15.915 54.045 15.73 54.22 L 15.73 54.22 L 15.73 54.22 Q 15.545 54.395 15.5 54.74 L 15.5 54.74 Z  M 19.5 56.11 L 17.79 56.11 L 17.79 55.82 L 18.465 55.82 L 18.465 53.075 L 17.82 53.075 L 17.82 52.785 L 18.83 52.785 L 18.83 55.82 L 19.5 55.82 L 19.5 56.11 Z  M 22 56.11 L 20.29 56.11 L 20.29 55.82 L 20.965 55.82 L 20.965 53.075 L 20.32 53.075 L 20.32 52.785 L 21.33 52.785 L 21.33 55.82 L 22 55.82 L 22 56.11 Z  M 23.645 56.15 L 23.645 56.15 Q 23.34 56.15 23.1 56 L 23.1 56 L 23.1 56 Q 22.86 55.85 22.725 55.58 L 22.725 55.58 L 22.725 55.58 Q 22.59 55.31 22.59 54.965 L 22.59 54.965 L 22.59 54.965 Q 22.59 54.62 22.725 54.35 L 22.725 54.35 L 22.725 54.35 Q 22.86 54.08 23.1 53.928 L 23.1 53.928 L 23.1 53.928 Q 23.34 53.775 23.645 53.775 L 23.645 53.775 L 23.645 53.775 Q 23.95 53.775 24.19 53.928 L 24.19 53.928 L 24.19 53.928 Q 24.43 54.08 24.565 54.35 L 24.565 54.35 L 24.565 54.35 Q 24.7 54.62 24.7 54.965 L 24.7 54.965 L 24.7 54.965 Q 24.7 55.31 24.565 55.58 L 24.565 55.58 L 24.565 55.58 Q 24.43 55.85 24.19 56 L 24.19 56 L 24.19 56 Q 23.95 56.15 23.645 56.15 L 23.645 56.15 Z  M 23.645 55.85 L 23.645 55.85 Q 23.84 55.85 23.992 55.735 L 23.992 55.735 L 23.992 55.735 Q 24.145 55.62 24.232 55.418 L 24.232 55.418 L 24.232 55.418 Q 24.32 55.215 24.32 54.96 L 24.32 54.96 L 24.32 54.96 Q 24.32 54.57 24.13 54.323 L 24.13 54.323 L 24.13 54.323 Q 23.94 54.075 23.645 54.075 L 23.645 54.075 L 23.645 54.075 Q 23.35 54.075 23.16 54.323 L 23.16 54.323 L 23.16 54.323 Q 22.97 54.57 22.97 54.96 L 22.97 54.96 L 22.97 54.96 Q 22.97 55.215 23.057 55.418 L 23.057 55.418 L 23.057 55.418 Q 23.145 55.62 23.297 55.735 L 23.297 55.735 L 23.297 55.735 Q 23.45 55.85 23.645 55.85 L 23.645 55.85 Z " fill-rule="evenodd" fill="rgb(0,0,0)" fill-opacity="0.43"/></g></svg>