<?xml version="1.0" standalone="no"?><!-- Generator: Gravit.io --><svg xmlns="http://www.w3.org/2000/svg" xmlns:xlink="http://www.w3.org/1999/xlink" style="isolation:isolate" viewBox="-5 -5 50 80" width="50" height="80"><defs><clipPath id="_clipPath_KNUV8cvfmX0tetzSDGlEusqpO1FeNQSB"><rect x="-5" y="-5" width="50" height="80"/></clipPath></defs><g clip-path="url(#_clipPath_KNUV8cvfmX0tetzSDGlEusqpO1FeNQSB)"><rect x="0" y="0" width="40" height="70" transform="matrix(1,0,0,1,0,0)" fill="none" vector-effect="non-scaling-stroke" stroke-width="10" stroke="rgba(0,0,0,0.5)" stroke-opacity="100" stroke-linejoin="round" stroke-linecap="round" stroke-miterlimit="2"/><path d=" M 12.685 40.355 L 12.685 40.355 Q 13.115 40.485 13.293 40.637 L 13.293 40.637 L 13.293 40.637 Q 13.47 40.79 13.47 41.035 L 13.47 41.035 L 13.47 41.035 Q 13.47 41.345 13.228 41.547 L 13.228 41.547 L 13.228 41.547 Q 12.985 41.75 12.525 41.75 L 12.525 41.75 L 12.525 41.75 Q 11.945 41.75 11.555 41.39 L 11.555 41.39 L 11.755 41.05 L 11.76 41.045 L 11.765 41.05 L 11.765 41.05 Q 11.92 41.25 12.085 41.35 L 12.085 41.35 L 12.085 41.35 Q 12.25 41.45 12.535 41.45 L 12.535 41.45 L 12.535 41.45 Q 12.805 41.45 12.96 41.353 L 12.96 41.353 L 12.96 41.353 Q 13.115 41.255 13.115 41.085 L 13.115 41.085 L 13.115 41.085 Q 13.115 40.94 12.99 40.845 L 12.99 40.845 L 12.99 40.845 Q 12.865 40.75 12.54 40.645 L 12.54 40.645 L 12.54 40.645 Q 11.68 40.4 11.68 39.935 L 11.68 39.935 L 11.68 39.935 Q 11.68 39.67 11.898 39.515 L 11.898 39.515 L 11.898 39.515 Q 12.115 39.36 12.52 39.36 L 12.52 39.36 L 12.52 39.36 Q 12.83 39.36 13.043 39.448 L 13.043 39.448 L 13.043 39.448 Q 13.255 39.535 13.43 39.72 L 13.43 39.72 L 13.225 39.97 L 13.22 39.975 L 13.22 39.975 Q 13.115 39.815 12.923 39.723 L 12.923 39.723 L 12.923 39.723 Q 12.73 39.63 12.53 39.63 L 12.53 39.63 L 12.53 39.63 Q 12.315 39.63 12.177 39.705 L 12.177 39.705 L 12.177 39.705 Q 12.04 39.78 12.04 39.915 L 12.04 39.915 L 12.04 39.915 Q 12.04 40.04 12.18 40.145 L 12.18 40.145 L 12.18 40.145 Q 12.32 40.25 12.685 40.355 L 12.685 40.355 Z  M 13.165 39.985 L 13.165 39.985 Q 13.165 39.96 13.205 39.99 L 13.205 39.99 L 13.19 40.01 L 13.165 39.985 Z  M 13.22 39.975 L 13.22 39.975 Q 13.235 39.995 13.233 40 L 13.233 40 L 13.233 40 Q 13.23 40.005 13.22 40 L 13.22 40 L 13.22 40 Q 13.21 39.995 13.205 39.99 L 13.205 39.99 L 13.22 39.975 Z  M 11.815 41.025 L 11.815 41.03 L 11.815 41.03 Q 11.815 41.05 11.77 41.03 L 11.77 41.03 L 11.785 41.005 L 11.815 41.025 Z  M 11.76 41.045 L 11.76 41.045 Q 11.745 41.02 11.75 41.02 L 11.75 41.02 L 11.75 41.02 Q 11.755 41.02 11.77 41.03 L 11.77 41.03 L 11.76 41.045 Z  M 15.88 41.205 L 15.99 41.49 L 15.99 41.49 Q 15.66 41.735 15.265 41.735 L 15.265 41.735 L 15.265 41.735 Q 14.885 41.735 14.728 41.505 L 14.728 41.505 L 14.728 41.505 Q 14.57 41.275 14.57 40.755 L 14.57 40.755 L 14.57 40.755 Q 14.57 40.67 14.58 40.46 L 14.58 40.46 L 14.625 39.71 L 14.12 39.71 L 14.12 39.415 L 14.645 39.415 L 14.68 38.805 L 15.08 38.74 L 15.13 38.735 L 15.135 38.765 L 15.135 38.765 Q 15.1 38.815 15.083 38.85 L 15.083 38.85 L 15.083 38.85 Q 15.065 38.885 15.06 38.96 L 15.06 38.96 L 15.005 39.415 L 15.765 39.415 L 15.765 39.71 L 14.985 39.71 L 14.94 40.485 L 14.94 40.485 Q 14.93 40.685 14.93 40.75 L 14.93 40.75 L 14.93 40.75 Q 14.93 41.15 15.023 41.293 L 15.023 41.293 L 15.023 41.293 Q 15.115 41.435 15.32 41.435 L 15.32 41.435 L 15.32 41.435 Q 15.47 41.435 15.595 41.38 L 15.595 41.38 L 15.595 41.38 Q 15.72 41.325 15.88 41.205 L 15.88 41.205 Z  M 17.375 41.755 L 17.375 41.755 Q 17.015 41.755 16.8 41.488 L 16.8 41.488 L 16.8 41.488 Q 16.585 41.22 16.59 40.69 L 16.59 40.69 L 16.595 39.415 L 16.945 39.415 L 16.945 40.69 L 16.945 40.69 Q 16.945 41.1 17.088 41.282 L 17.088 41.282 L 17.088 41.282 Q 17.23 41.465 17.465 41.465 L 17.465 41.465 L 17.465 41.465 Q 17.725 41.465 17.903 41.262 L 17.903 41.262 L 17.903 41.262 Q 18.08 41.06 18.08 40.675 L 18.08 40.675 L 18.08 39.415 L 18.43 39.415 L 18.43 41.345 L 18.43 41.345 Q 18.43 41.465 18.438 41.543 L 18.438 41.543 L 18.438 41.543 Q 18.445 41.62 18.48 41.7 L 18.48 41.7 L 18.135 41.7 L 18.135 41.7 Q 18.1 41.625 18.092 41.545 L 18.092 41.545 L 18.092 41.545 Q 18.085 41.465 18.085 41.35 L 18.085 41.35 L 18.085 41.35 Q 17.975 41.54 17.787 41.648 L 17.787 41.648 L 17.787 41.648 Q 17.6 41.755 17.375 41.755 L 17.375 41.755 Z  M 19.94 41.75 L 19.94 41.75 Q 19.695 41.75 19.48 41.613 L 19.48 41.613 L 19.48 41.613 Q 19.265 41.475 19.13 41.2 L 19.13 41.2 L 19.13 41.2 Q 18.995 40.925 18.995 40.535 L 18.995 40.535 L 18.995 40.535 Q 18.995 40.14 19.135 39.875 L 19.135 39.875 L 19.135 39.875 Q 19.275 39.61 19.495 39.482 L 19.495 39.482 L 19.495 39.482 Q 19.715 39.355 19.96 39.355 L 19.96 39.355 L 19.96 39.355 Q 20.19 39.355 20.363 39.46 L 20.363 39.46 L 20.363 39.46 Q 20.535 39.565 20.625 39.75 L 20.625 39.75 L 20.625 38.375 L 21.005 38.375 L 21.005 38.41 L 21.005 38.41 Q 20.975 38.44 20.967 38.475 L 20.967 38.475 L 20.967 38.475 Q 20.96 38.51 20.96 38.595 L 20.96 38.595 L 20.965 41.345 L 20.965 41.345 Q 20.965 41.465 20.973 41.543 L 20.973 41.543 L 20.973 41.543 Q 20.98 41.62 21.015 41.7 L 21.015 41.7 L 20.66 41.7 L 20.66 41.7 Q 20.625 41.62 20.618 41.543 L 20.618 41.543 L 20.618 41.543 Q 20.61 41.465 20.61 41.345 L 20.61 41.345 L 20.61 41.345 Q 20.5 41.535 20.328 41.642 L 20.328 41.642 L 20.328 41.642 Q 20.155 41.75 19.94 41.75 L 19.94 41.75 Z  M 19.995 41.435 L 19.995 41.435 Q 20.305 41.435 20.45 41.19 L 20.45 41.19 L 20.45 41.19 Q 20.595 40.945 20.595 40.545 L 20.595 40.545 L 20.595 40.545 Q 20.595 40.14 20.438 39.895 L 20.438 39.895 L 20.438 39.895 Q 20.28 39.65 19.965 39.65 L 19.965 39.65 L 19.965 39.65 Q 19.665 39.65 19.505 39.872 L 19.505 39.872 L 19.505 39.872 Q 19.345 40.095 19.345 40.48 L 19.345 40.48 L 19.345 40.48 Q 19.345 40.92 19.513 41.177 L 19.513 41.177 L 19.513 41.177 Q 19.68 41.435 19.995 41.435 L 19.995 41.435 Z  M 22.63 41.75 L 22.63 41.75 Q 22.12 41.75 21.818 41.44 L 21.818 41.44 L 21.818 41.44 Q 21.515 41.13 21.515 40.565 L 21.515 40.565 L 21.515 40.565 Q 21.515 40.19 21.655 39.918 L 21.655 39.918 L 21.655 39.918 Q 21.795 39.645 22.033 39.502 L 22.033 39.502 L 22.033 39.502 Q 22.27 39.36 22.565 39.36 L 22.565 39.36 L 22.565 39.36 Q 22.98 39.36 23.238 39.635 L 23.238 39.635 L 23.238 39.635 Q 23.495 39.91 23.495 40.445 L 23.495 40.445 L 23.495 40.445 Q 23.495 40.5 23.485 40.61 L 23.485 40.61 L 21.86 40.61 L 21.86 40.61 Q 21.88 41.03 22.095 41.245 L 22.095 41.245 L 22.095 41.245 Q 22.31 41.46 22.64 41.46 L 22.64 41.46 L 22.64 41.46 Q 23 41.46 23.23 41.205 L 23.23 41.205 L 23.43 41.4 L 23.43 41.4 Q 23.14 41.75 22.63 41.75 L 22.63 41.75 Z  M 21.875 40.33 L 23.13 40.33 L 23.13 40.33 Q 23.13 40.01 22.968 39.823 L 22.968 39.823 L 22.968 39.823 Q 22.805 39.635 22.54 39.635 L 22.54 39.635 L 22.54 39.635 Q 22.29 39.635 22.105 39.81 L 22.105 39.81 L 22.105 39.81 Q 21.92 39.985 21.875 40.33 L 21.875 40.33 Z  M 24.13 41.7 L 24.13 39.415 L 24.48 39.415 L 24.48 39.82 L 24.48 39.82 Q 24.615 39.61 24.82 39.485 L 24.82 39.485 L 24.82 39.485 Q 25.025 39.36 25.255 39.36 L 25.255 39.36 L 25.255 39.36 Q 25.56 39.36 25.743 39.592 L 25.743 39.592 L 25.743 39.592 Q 25.925 39.825 25.925 40.315 L 25.925 40.315 L 25.925 41.7 L 25.575 41.7 L 25.575 40.325 L 25.575 40.325 Q 25.575 39.985 25.46 39.83 L 25.46 39.83 L 25.46 39.83 Q 25.345 39.675 25.155 39.675 L 25.155 39.675 L 25.155 39.675 Q 25 39.675 24.843 39.765 L 24.843 39.765 L 24.843 39.765 Q 24.685 39.855 24.583 40.017 L 24.583 40.017 L 24.583 40.017 Q 24.48 40.18 24.48 40.385 L 24.48 40.385 L 24.48 41.7 L 24.13 41.7 Z  M 28.38 41.205 L 28.49 41.49 L 28.49 41.49 Q 28.16 41.735 27.765 41.735 L 27.765 41.735 L 27.765 41.735 Q 27.385 41.735 27.228 41.505 L 27.228 41.505 L 27.228 41.505 Q 27.07 41.275 27.07 40.755 L 27.07 40.755 L 27.07 40.755 Q 27.07 40.67 27.08 40.46 L 27.08 40.46 L 27.125 39.71 L 26.62 39.71 L 26.62 39.415 L 27.145 39.415 L 27.18 38.805 L 27.58 38.74 L 27.63 38.735 L 27.635 38.765 L 27.635 38.765 Q 27.6 38.815 27.583 38.85 L 27.583 38.85 L 27.583 38.85 Q 27.565 38.885 27.56 38.96 L 27.56 38.96 L 27.505 39.415 L 28.265 39.415 L 28.265 39.71 L 27.485 39.71 L 27.44 40.485 L 27.44 40.485 Q 27.43 40.685 27.43 40.75 L 27.43 40.75 L 27.43 40.75 Q 27.43 41.15 27.523 41.293 L 27.523 41.293 L 27.523 41.293 Q 27.615 41.435 27.82 41.435 L 27.82 41.435 L 27.82 41.435 Q 27.97 41.435 28.095 41.38 L 28.095 41.38 L 28.095 41.38 Q 28.22 41.325 28.38 41.205 L 28.38 41.205 Z  M 9.99 34.12 L 9.99 34.12 Q 10.48 34.12 10.738 34.375 L 10.738 34.375 L 10.738 34.375 Q 10.995 34.63 10.995 35.24 L 10.995 35.24 L 10.995 36.455 L 10.605 36.455 L 10.605 36.105 L 10.605 36.105 Q 10.395 36.51 9.825 36.51 L 9.825 36.51 L 9.825 36.51 Q 9.445 36.51 9.23 36.338 L 9.23 36.338 L 9.23 36.338 Q 9.015 36.165 9.015 35.88 L 9.015 35.88 L 9.015 35.88 Q 9.015 35.64 9.17 35.46 L 9.17 35.46 L 9.17 35.46 Q 9.325 35.28 9.587 35.183 L 9.587 35.183 L 9.587 35.183 Q 9.85 35.085 10.165 35.085 L 10.165 35.085 L 10.165 35.085 Q 10.45 35.085 10.68 35.115 L 10.68 35.115 L 10.68 35.115 Q 10.65 34.73 10.478 34.573 L 10.478 34.573 L 10.478 34.573 Q 10.305 34.415 9.965 34.415 L 9.965 34.415 L 9.965 34.415 Q 9.795 34.415 9.638 34.48 L 9.638 34.48 L 9.638 34.48 Q 9.48 34.545 9.35 34.67 L 9.35 34.67 L 9.175 34.44 L 9.175 34.44 Q 9.495 34.12 9.99 34.12 L 9.99 34.12 Z  M 9.86 36.235 L 9.86 36.235 Q 10.23 36.235 10.445 36.017 L 10.445 36.017 L 10.445 36.017 Q 10.66 35.8 10.68 35.39 L 10.68 35.39 L 10.68 35.39 Q 10.455 35.355 10.195 35.355 L 10.195 35.355 L 10.195 35.355 Q 9.815 35.355 9.595 35.48 L 9.595 35.48 L 9.595 35.48 Q 9.375 35.605 9.375 35.86 L 9.375 35.86 L 9.375 35.86 Q 9.375 36.235 9.86 36.235 L 9.86 36.235 Z  M 11.63 36.455 L 11.63 34.17 L 11.98 34.17 L 11.98 34.575 L 11.98 34.575 Q 12.115 34.365 12.32 34.24 L 12.32 34.24 L 12.32 34.24 Q 12.525 34.115 12.755 34.115 L 12.755 34.115 L 12.755 34.115 Q 13.06 34.115 13.243 34.348 L 13.243 34.348 L 13.243 34.348 Q 13.425 34.58 13.425 35.07 L 13.425 35.07 L 13.425 36.455 L 13.075 36.455 L 13.075 35.08 L 13.075 35.08 Q 13.075 34.74 12.96 34.585 L 12.96 34.585 L 12.96 34.585 Q 12.845 34.43 12.655 34.43 L 12.655 34.43 L 12.655 34.43 Q 12.5 34.43 12.343 34.52 L 12.343 34.52 L 12.343 34.52 Q 12.185 34.61 12.083 34.772 L 12.083 34.772 L 12.083 34.772 Q 11.98 34.935 11.98 35.14 L 11.98 35.14 L 11.98 36.455 L 11.63 36.455 Z  M 15.88 35.96 L 15.99 36.245 L 15.99 36.245 Q 15.66 36.49 15.265 36.49 L 15.265 36.49 L 15.265 36.49 Q 14.885 36.49 14.728 36.26 L 14.728 36.26 L 14.728 36.26 Q 14.57 36.03 14.57 35.51 L 14.57 35.51 L 14.57 35.51 Q 14.57 35.425 14.58 35.215 L 14.58 35.215 L 14.625 34.465 L 14.12 34.465 L 14.12 34.17 L 14.645 34.17 L 14.68 33.56 L 15.08 33.495 L 15.13 33.49 L 15.135 33.52 L 15.135 33.52 Q 15.1 33.57 15.083 33.605 L 15.083 33.605 L 15.083 33.605 Q 15.065 33.64 15.06 33.715 L 15.06 33.715 L 15.005 34.17 L 15.765 34.17 L 15.765 34.465 L 14.985 34.465 L 14.94 35.24 L 14.94 35.24 Q 14.93 35.44 14.93 35.505 L 14.93 35.505 L 14.93 35.505 Q 14.93 35.905 15.023 36.047 L 15.023 36.047 L 15.023 36.047 Q 15.115 36.19 15.32 36.19 L 15.32 36.19 L 15.32 36.19 Q 15.47 36.19 15.595 36.135 L 15.595 36.135 L 15.595 36.135 Q 15.72 36.08 15.88 35.96 L 15.88 35.96 Z  M 18.25 36.455 L 16.77 36.455 L 16.77 36.165 L 17.355 36.165 L 17.355 34.46 L 16.8 34.46 L 16.8 34.17 L 17.715 34.17 L 17.715 36.165 L 18.25 36.165 L 18.25 36.455 Z  M 17.515 33.69 L 17.515 33.69 Q 17.41 33.69 17.335 33.615 L 17.335 33.615 L 17.335 33.615 Q 17.26 33.54 17.26 33.435 L 17.26 33.435 L 17.26 33.435 Q 17.26 33.325 17.333 33.25 L 17.333 33.25 L 17.333 33.25 Q 17.405 33.175 17.515 33.175 L 17.515 33.175 L 17.515 33.175 Q 17.62 33.175 17.698 33.252 L 17.698 33.252 L 17.698 33.252 Q 17.775 33.33 17.775 33.435 L 17.775 33.435 L 17.775 33.435 Q 17.775 33.54 17.698 33.615 L 17.698 33.615 L 17.698 33.615 Q 17.62 33.69 17.515 33.69 L 17.515 33.69 Z  M 20.925 35.05 L 19.125 35.05 L 19.125 34.715 L 20.925 34.715 L 20.925 35.05 Z  M 22.76 34.735 L 22.76 34.735 Q 23.205 34.92 23.375 35.115 L 23.375 35.115 L 23.375 35.115 Q 23.545 35.31 23.545 35.605 L 23.545 35.605 L 23.545 35.605 Q 23.545 35.835 23.433 36.04 L 23.433 36.04 L 23.433 36.04 Q 23.32 36.245 23.085 36.375 L 23.085 36.375 L 23.085 36.375 Q 22.85 36.505 22.505 36.505 L 22.505 36.505 L 22.505 36.505 Q 21.9 36.505 21.53 36.11 L 21.53 36.11 L 21.71 35.795 L 21.71 35.79 L 21.71 35.79 Q 21.715 35.79 21.715 35.793 L 21.715 35.793 L 21.715 35.793 Q 21.715 35.795 21.715 35.795 L 21.715 35.795 L 21.715 35.795 Q 21.85 35.975 22.063 36.082 L 22.063 36.082 L 22.063 36.082 Q 22.275 36.19 22.555 36.19 L 22.555 36.19 L 22.555 36.19 Q 22.83 36.19 23.015 36.035 L 23.015 36.035 L 23.015 36.035 Q 23.2 35.88 23.2 35.655 L 23.2 35.655 L 23.2 35.655 Q 23.2 35.51 23.143 35.412 L 23.143 35.412 L 23.143 35.412 Q 23.085 35.315 22.935 35.22 L 22.935 35.22 L 22.935 35.22 Q 22.785 35.125 22.485 34.995 L 22.485 34.995 L 22.485 34.995 Q 22.025 34.815 21.827 34.585 L 21.827 34.585 L 21.827 34.585 Q 21.63 34.355 21.63 34.07 L 21.63 34.07 L 21.63 34.07 Q 21.63 33.72 21.885 33.51 L 21.885 33.51 L 21.885 33.51 Q 22.14 33.3 22.58 33.3 L 22.58 33.3 L 22.58 33.3 Q 22.835 33.3 23.058 33.402 L 23.058 33.402 L 23.058 33.402 Q 23.28 33.505 23.445 33.69 L 23.445 33.69 L 23.25 33.95 L 23.245 33.955 L 23.245 33.955 Q 23.095 33.75 22.933 33.67 L 22.933 33.67 L 22.933 33.67 Q 22.77 33.59 22.525 33.59 L 22.525 33.59 L 22.525 33.59 Q 22.285 33.59 22.138 33.723 L 22.138 33.723 L 22.138 33.723 Q 21.99 33.855 21.99 34.045 L 21.99 34.045 L 21.99 34.045 Q 21.99 34.19 22.053 34.297 L 22.053 34.297 L 22.053 34.297 Q 22.115 34.405 22.28 34.507 L 22.28 34.507 L 22.28 34.507 Q 22.445 34.61 22.76 34.735 L 22.76 34.735 Z  M 23.19 33.97 L 23.19 33.965 L 23.19 33.965 Q 23.19 33.95 23.21 33.96 L 23.21 33.96 L 23.21 33.96 Q 23.23 33.97 23.235 33.97 L 23.235 33.97 L 23.22 33.99 L 23.19 33.97 Z  M 23.245 33.955 L 23.245 33.955 Q 23.275 33.995 23.258 33.982 L 23.258 33.982 L 23.258 33.982 Q 23.24 33.97 23.235 33.97 L 23.235 33.97 L 23.245 33.955 Z  M 21.765 35.77 L 21.765 35.775 L 21.765 35.775 Q 21.765 35.79 21.745 35.78 L 21.745 35.78 L 21.745 35.78 Q 21.725 35.77 21.72 35.77 L 21.72 35.77 L 21.73 35.75 L 21.765 35.77 Z  M 21.71 35.79 L 21.71 35.79 Q 21.68 35.75 21.72 35.77 L 21.72 35.77 L 21.71 35.79 Z  M 25.96 36.455 L 24.065 36.455 L 24.065 33.335 L 25.975 33.335 L 25.975 33.645 L 24.395 33.645 L 24.395 34.67 L 25.7 34.67 L 25.7 34.99 L 24.395 34.99 L 24.395 36.145 L 25.96 36.145 L 25.96 36.455 Z  M 26.6 36.455 L 26.6 33.34 L 27.01 33.34 L 27.01 33.375 L 27.01 33.375 Q 26.98 33.405 26.973 33.44 L 26.973 33.44 L 26.973 33.44 Q 26.965 33.475 26.965 33.56 L 26.965 33.56 L 26.965 36.155 L 28.465 36.155 L 28.465 36.455 L 26.6 36.455 Z  M 29.51 36.455 L 29.16 36.455 L 29.16 33.335 L 30.955 33.335 L 30.955 33.64 L 29.51 33.64 L 29.51 34.62 L 30.675 34.62 L 30.675 34.925 L 29.51 34.925 L 29.51 36.455 Z  M 10.88 30.715 L 10.99 31 L 10.99 31 Q 10.66 31.245 10.265 31.245 L 10.265 31.245 L 10.265 31.245 Q 9.885 31.245 9.728 31.015 L 9.728 31.015 L 9.728 31.015 Q 9.57 30.785 9.57 30.265 L 9.57 30.265 L 9.57 30.265 Q 9.57 30.18 9.58 29.97 L 9.58 29.97 L 9.625 29.22 L 9.12 29.22 L 9.12 28.925 L 9.645 28.925 L 9.68 28.315 L 10.08 28.25 L 10.13 28.245 L 10.135 28.275 L 10.135 28.275 Q 10.1 28.325 10.083 28.36 L 10.083 28.36 L 10.083 28.36 Q 10.065 28.395 10.06 28.47 L 10.06 28.47 L 10.005 28.925 L 10.765 28.925 L 10.765 29.22 L 9.985 29.22 L 9.94 29.995 L 9.94 29.995 Q 9.93 30.195 9.93 30.26 L 9.93 30.26 L 9.93 30.26 Q 9.93 30.66 10.023 30.802 L 10.023 30.802 L 10.023 30.802 Q 10.115 30.945 10.32 30.945 L 10.32 30.945 L 10.32 30.945 Q 10.47 30.945 10.595 30.89 L 10.595 30.89 L 10.595 30.89 Q 10.72 30.835 10.88 30.715 L 10.88 30.715 Z  M 12.63 31.26 L 12.63 31.26 Q 12.12 31.26 11.817 30.95 L 11.817 30.95 L 11.817 30.95 Q 11.515 30.64 11.515 30.075 L 11.515 30.075 L 11.515 30.075 Q 11.515 29.7 11.655 29.427 L 11.655 29.427 L 11.655 29.427 Q 11.795 29.155 12.032 29.012 L 12.032 29.012 L 12.032 29.012 Q 12.27 28.87 12.565 28.87 L 12.565 28.87 L 12.565 28.87 Q 12.98 28.87 13.238 29.145 L 13.238 29.145 L 13.238 29.145 Q 13.495 29.42 13.495 29.955 L 13.495 29.955 L 13.495 29.955 Q 13.495 30.01 13.485 30.12 L 13.485 30.12 L 11.86 30.12 L 11.86 30.12 Q 11.88 30.54 12.095 30.755 L 12.095 30.755 L 12.095 30.755 Q 12.31 30.97 12.64 30.97 L 12.64 30.97 L 12.64 30.97 Q 13 30.97 13.23 30.715 L 13.23 30.715 L 13.43 30.91 L 13.43 30.91 Q 13.14 31.26 12.63 31.26 L 12.63 31.26 Z  M 11.875 29.84 L 13.13 29.84 L 13.13 29.84 Q 13.13 29.52 12.968 29.332 L 12.968 29.332 L 12.968 29.332 Q 12.805 29.145 12.54 29.145 L 12.54 29.145 L 12.54 29.145 Q 12.29 29.145 12.105 29.32 L 12.105 29.32 L 12.105 29.32 Q 11.92 29.495 11.875 29.84 L 11.875 29.84 Z  M 13.96 31.21 L 13.96 28.925 L 14.29 28.925 L 14.29 29.15 L 14.29 29.15 Q 14.37 29.025 14.495 28.947 L 14.495 28.947 L 14.495 28.947 Q 14.62 28.87 14.755 28.87 L 14.755 28.87 L 14.755 28.87 Q 14.905 28.87 15.018 28.965 L 15.018 28.965 L 15.018 28.965 Q 15.13 29.06 15.16 29.205 L 15.16 29.205 L 15.16 29.205 Q 15.225 29.055 15.365 28.962 L 15.365 28.962 L 15.365 28.962 Q 15.505 28.87 15.675 28.87 L 15.675 28.87 L 15.675 28.87 Q 15.9 28.87 16.013 29.032 L 16.013 29.032 L 16.013 29.032 Q 16.125 29.195 16.115 29.455 L 16.115 29.455 L 16.115 31.21 L 15.785 31.21 L 15.785 29.59 L 15.785 29.59 Q 15.785 29.305 15.73 29.22 L 15.73 29.22 L 15.73 29.22 Q 15.675 29.135 15.57 29.135 L 15.57 29.135 L 15.57 29.135 Q 15.48 29.135 15.395 29.22 L 15.395 29.22 L 15.395 29.22 Q 15.31 29.305 15.258 29.437 L 15.258 29.437 L 15.258 29.437 Q 15.205 29.57 15.205 29.7 L 15.205 29.7 L 15.205 31.21 L 14.87 31.21 L 14.87 29.62 L 14.87 29.62 Q 14.87 29.34 14.817 29.242 L 14.817 29.242 L 14.817 29.242 Q 14.765 29.145 14.62 29.145 L 14.62 29.145 L 14.62 29.145 Q 14.545 29.145 14.468 29.212 L 14.468 29.212 L 14.468 29.212 Q 14.39 29.28 14.34 29.402 L 14.34 29.402 L 14.34 29.402 Q 14.29 29.525 14.29 29.685 L 14.29 29.685 L 14.29 31.21 L 13.96 31.21 Z  M 16.57 32.045 L 16.57 28.925 L 16.935 28.925 L 16.935 29.375 L 16.935 29.375 Q 17.01 29.125 17.195 29 L 17.195 29 L 17.195 29 Q 17.38 28.875 17.63 28.875 L 17.63 28.875 L 17.63 28.875 Q 17.89 28.875 18.107 29.007 L 18.107 29.007 L 18.107 29.007 Q 18.325 29.14 18.455 29.405 L 18.455 29.405 L 18.455 29.405 Q 18.585 29.67 18.585 30.05 L 18.585 30.05 L 18.585 30.05 Q 18.585 30.435 18.45 30.712 L 18.45 30.712 L 18.45 30.712 Q 18.315 30.99 18.092 31.13 L 18.092 31.13 L 18.092 31.13 Q 17.87 31.27 17.62 31.27 L 17.62 31.27 L 17.62 31.27 Q 17.415 31.27 17.235 31.175 L 17.235 31.175 L 17.235 31.175 Q 17.055 31.08 16.94 30.91 L 16.94 30.91 L 16.94 32.045 L 16.57 32.045 Z  M 17.56 30.95 L 17.56 30.95 Q 17.835 30.95 18.022 30.742 L 18.022 30.742 L 18.022 30.742 Q 18.21 30.535 18.21 30.065 L 18.21 30.065 L 18.21 30.065 Q 18.21 29.64 18.045 29.412 L 18.045 29.412 L 18.045 29.412 Q 17.88 29.185 17.575 29.185 L 17.575 29.185 L 17.575 29.185 Q 17.29 29.185 17.113 29.422 L 17.113 29.422 L 17.113 29.422 Q 16.935 29.66 16.935 30.145 L 16.935 30.145 L 16.935 30.145 Q 16.945 30.54 17.11 30.745 L 17.11 30.745 L 17.11 30.745 Q 17.275 30.95 17.56 30.95 L 17.56 30.95 Z  M 20.02 31.25 L 20.02 31.25 Q 19.715 31.25 19.475 31.1 L 19.475 31.1 L 19.475 31.1 Q 19.235 30.95 19.1 30.68 L 19.1 30.68 L 19.1 30.68 Q 18.965 30.41 18.965 30.065 L 18.965 30.065 L 18.965 30.065 Q 18.965 29.72 19.1 29.45 L 19.1 29.45 L 19.1 29.45 Q 19.235 29.18 19.475 29.027 L 19.475 29.027 L 19.475 29.027 Q 19.715 28.875 20.02 28.875 L 20.02 28.875 L 20.02 28.875 Q 20.325 28.875 20.565 29.027 L 20.565 29.027 L 20.565 29.027 Q 20.805 29.18 20.94 29.45 L 20.94 29.45 L 20.94 29.45 Q 21.075 29.72 21.075 30.065 L 21.075 30.065 L 21.075 30.065 Q 21.075 30.41 20.94 30.68 L 20.94 30.68 L 20.94 30.68 Q 20.805 30.95 20.565 31.1 L 20.565 31.1 L 20.565 31.1 Q 20.325 31.25 20.02 31.25 L 20.02 31.25 Z  M 20.02 30.95 L 20.02 30.95 Q 20.215 30.95 20.368 30.835 L 20.368 30.835 L 20.368 30.835 Q 20.52 30.72 20.607 30.517 L 20.607 30.517 L 20.607 30.517 Q 20.695 30.315 20.695 30.06 L 20.695 30.06 L 20.695 30.06 Q 20.695 29.67 20.505 29.422 L 20.505 29.422 L 20.505 29.422 Q 20.315 29.175 20.02 29.175 L 20.02 29.175 L 20.02 29.175 Q 19.725 29.175 19.535 29.422 L 19.535 29.422 L 19.535 29.422 Q 19.345 29.67 19.345 30.06 L 19.345 30.06 L 19.345 30.06 Q 19.345 30.315 19.433 30.517 L 19.433 30.517 L 19.433 30.517 Q 19.52 30.72 19.673 30.835 L 19.673 30.835 L 19.673 30.835 Q 19.825 30.95 20.02 30.95 L 20.02 30.95 Z  M 23.56 29.12 L 23.4 29.4 L 23.4 29.405 L 23.4 29.405 Q 23.255 29.27 23.158 29.225 L 23.158 29.225 L 23.158 29.225 Q 23.06 29.18 22.93 29.18 L 22.93 29.18 L 22.93 29.18 Q 22.75 29.18 22.59 29.27 L 22.59 29.27 L 22.59 29.27 Q 22.43 29.36 22.33 29.542 L 22.33 29.542 L 22.33 29.542 Q 22.23 29.725 22.23 30 L 22.23 30 L 22.23 31.215 L 21.865 31.215 L 21.865 28.925 L 22.24 28.925 L 22.23 29.345 L 22.23 29.345 Q 22.325 29.12 22.523 28.995 L 22.523 28.995 L 22.523 28.995 Q 22.72 28.87 22.955 28.87 L 22.955 28.87 L 22.955 28.87 Q 23.32 28.87 23.56 29.12 L 23.56 29.12 Z  M 23.4 29.405 L 23.4 29.405 Q 23.435 29.435 23.418 29.43 L 23.418 29.43 L 23.418 29.43 Q 23.4 29.425 23.39 29.42 L 23.39 29.42 L 23.4 29.405 Z  M 23.345 29.425 L 23.345 29.42 L 23.345 29.42 Q 23.345 29.405 23.36 29.407 L 23.36 29.407 L 23.36 29.407 Q 23.375 29.41 23.39 29.42 L 23.39 29.42 L 23.38 29.445 L 23.345 29.425 Z  M 24.99 28.875 L 24.99 28.875 Q 25.48 28.875 25.738 29.13 L 25.738 29.13 L 25.738 29.13 Q 25.995 29.385 25.995 29.995 L 25.995 29.995 L 25.995 31.21 L 25.605 31.21 L 25.605 30.86 L 25.605 30.86 Q 25.395 31.265 24.825 31.265 L 24.825 31.265 L 24.825 31.265 Q 24.445 31.265 24.23 31.092 L 24.23 31.092 L 24.23 31.092 Q 24.015 30.92 24.015 30.635 L 24.015 30.635 L 24.015 30.635 Q 24.015 30.395 24.17 30.215 L 24.17 30.215 L 24.17 30.215 Q 24.325 30.035 24.588 29.937 L 24.588 29.937 L 24.588 29.937 Q 24.85 29.84 25.165 29.84 L 25.165 29.84 L 25.165 29.84 Q 25.45 29.84 25.68 29.87 L 25.68 29.87 L 25.68 29.87 Q 25.65 29.485 25.478 29.327 L 25.478 29.327 L 25.478 29.327 Q 25.305 29.17 24.965 29.17 L 24.965 29.17 L 24.965 29.17 Q 24.795 29.17 24.638 29.235 L 24.638 29.235 L 24.638 29.235 Q 24.48 29.3 24.35 29.425 L 24.35 29.425 L 24.175 29.195 L 24.175 29.195 Q 24.495 28.875 24.99 28.875 L 24.99 28.875 Z  M 24.86 30.99 L 24.86 30.99 Q 25.23 30.99 25.445 30.772 L 25.445 30.772 L 25.445 30.772 Q 25.66 30.555 25.68 30.145 L 25.68 30.145 L 25.68 30.145 Q 25.455 30.11 25.195 30.11 L 25.195 30.11 L 25.195 30.11 Q 24.815 30.11 24.595 30.235 L 24.595 30.235 L 24.595 30.235 Q 24.375 30.36 24.375 30.615 L 24.375 30.615 L 24.375 30.615 Q 24.375 30.99 24.86 30.99 L 24.86 30.99 Z  M 28.56 29.12 L 28.4 29.4 L 28.4 29.405 L 28.4 29.405 Q 28.255 29.27 28.158 29.225 L 28.158 29.225 L 28.158 29.225 Q 28.06 29.18 27.93 29.18 L 27.93 29.18 L 27.93 29.18 Q 27.75 29.18 27.59 29.27 L 27.59 29.27 L 27.59 29.27 Q 27.43 29.36 27.33 29.542 L 27.33 29.542 L 27.33 29.542 Q 27.23 29.725 27.23 30 L 27.23 30 L 27.23 31.215 L 26.865 31.215 L 26.865 28.925 L 27.24 28.925 L 27.23 29.345 L 27.23 29.345 Q 27.325 29.12 27.523 28.995 L 27.523 28.995 L 27.523 28.995 Q 27.72 28.87 27.955 28.87 L 27.955 28.87 L 27.955 28.87 Q 28.32 28.87 28.56 29.12 L 28.56 29.12 Z  M 28.4 29.405 L 28.4 29.405 Q 28.435 29.435 28.418 29.43 L 28.418 29.43 L 28.418 29.43 Q 28.4 29.425 28.39 29.42 L 28.39 29.42 L 28.4 29.405 Z  M 28.345 29.425 L 28.345 29.42 L 28.345 29.42 Q 28.345 29.405 28.36 29.407 L 28.36 29.407 L 28.36 29.407 Q 28.375 29.41 28.39 29.42 L 28.39 29.42 L 28.38 29.445 L 28.345 29.425 Z  M 30.625 28.925 L 30.985 28.925 L 30.985 28.925 Q 30.955 29.13 30.893 29.33 L 30.893 29.33 L 30.893 29.33 Q 30.83 29.53 30.715 29.86 L 30.715 29.86 L 30.145 31.47 L 30.145 31.47 Q 30.03 31.79 29.845 31.935 L 29.845 31.935 L 29.845 31.935 Q 29.66 32.08 29.405 32.08 L 29.405 32.08 L 29.405 32.08 Q 29.085 32.08 28.88 31.885 L 28.88 31.885 L 29.035 31.64 L 29.04 31.635 L 29.045 31.64 L 29.045 31.64 Q 29.125 31.715 29.215 31.75 L 29.215 31.75 L 29.215 31.75 Q 29.305 31.785 29.425 31.785 L 29.425 31.785 L 29.425 31.785 Q 29.61 31.785 29.72 31.655 L 29.72 31.655 L 29.72 31.655 Q 29.83 31.525 29.935 31.225 L 29.935 31.225 L 29 28.925 L 29.375 28.925 L 30.085 30.755 L 30.385 29.835 L 30.385 29.835 Q 30.495 29.49 30.548 29.307 L 30.548 29.307 L 30.548 29.307 Q 30.6 29.125 30.625 28.925 L 30.625 28.925 Z  M 29.095 31.615 L 29.095 31.62 L 29.095 31.62 Q 29.095 31.63 29.085 31.63 L 29.085 31.63 L 29.045 31.62 L 29.065 31.595 L 29.095 31.615 Z  M 29.04 31.635 L 29.04 31.635 Q 29.015 31.61 29.028 31.615 L 29.028 31.615 L 29.028 31.615 Q 29.04 31.62 29.045 31.62 L 29.045 31.62 L 29.04 31.635 Z " fill-rule="evenodd" fill="rgba(0,0,0,0.5)"/></g></svg>
