<svg xmlns="http://www.w3.org/2000/svg" xmlns:xlink="http://www.w3.org/1999/xlink" viewBox="0 0 47.811 30" width="47.811" height="30"><defs><clipPath id="_clipPath_vNwYEklGwCC26WJPgMsEPM6ARyvCEZln"><rect width="47.811" height="30"/></clipPath></defs><path d="M2.5 27.5L12.5 27.5L17.5 17.5" fill="none" stroke-width="5" stroke="#808f9f" stroke-linejoin="round" stroke-linecap="round"/><path d="M10 11.83L31.651 24.33L36.651 15.67L45.311 20.67L15 3.17" fill="#9fb0c1" stroke-width="5" stroke="#808f9f" stroke-linejoin="round" stroke-linecap="round"/><path d="M29.821 17.5C31.2 15.11 34.261 14.29 36.651 15.67C39.041 17.05 39.861 20.11 38.481 22.5C37.101 24.89 34.041 25.71 31.651 24.33C29.261 22.95 28.441 19.89 29.821 17.5Z" fill="#111" stroke-width="5" stroke="#2d2d2d" stroke-linejoin="round" stroke-linecap="round"/><path d="M10 11.83C7.61 10.45 6.79 7.39 8.17 5C9.55 2.61 12.61 1.79 15 3.17" fill="#9fb0c1" stroke-width="5" stroke="#808f9f" stroke-linejoin="round" stroke-linecap="round"/><line x1="27.99" y1="10.67" x2="45.311" y2="20.67" stroke-width="5" stroke="#808f9f" stroke-linejoin="round" stroke-linecap="round"/></svg>