<?xml version="1.0" standalone="no"?><!-- Generator: Gravit.io --><svg xmlns="http://www.w3.org/2000/svg" xmlns:xlink="http://www.w3.org/1999/xlink" style="isolation:isolate" viewBox="0 0 47.811 30" width="47.811" height="30"><defs><clipPath id="_clipPath_vNwYEklGwCC26WJPgMsEPM6ARyvCEZln"><rect width="47.811" height="30"/></clipPath></defs><g clip-path="url(#_clipPath_vNwYEklGwCC26WJPgMsEPM6ARyvCEZln)"><path d=" M 2.5 27.5 L 12.5 27.5 L 17.5 17.5" fill="none" stroke-width="5" stroke="rgb(128,143,159)" stroke-linejoin="round" stroke-linecap="round" stroke-miterlimit="3"/><g><path d=" M 10 11.83 L 31.651 24.33 L 36.651 15.67 L 45.311 20.67 L 15 3.17" fill="rgb(159,176,193)" stroke-width="5" stroke="rgb(128,143,159)" stroke-linejoin="round" stroke-linecap="round" stroke-miterlimit="3"/><path d=" M 29.821 17.5 C 31.2 15.11 34.261 14.29 36.651 15.67 C 39.041 17.05 39.861 20.11 38.481 22.5 C 37.101 24.89 34.041 25.71 31.651 24.33 C 29.261 22.95 28.441 19.89 29.821 17.5 Z " fill="rgb(17,17,17)" stroke-width="5" stroke="rgb(45,45,45)" stroke-linejoin="round" stroke-linecap="round" stroke-miterlimit="3"/><path d=" M 10 11.83 C 7.61 10.45 6.79 7.39 8.17 5 C 9.55 2.61 12.61 1.79 15 3.17" fill="rgb(159,176,193)" stroke-width="5" stroke="rgb(128,143,159)" stroke-linejoin="round" stroke-linecap="round" stroke-miterlimit="3"/><line x1="27.99" y1="10.67" x2="45.311" y2="20.67" stroke-width="5" stroke="rgb(128,143,159)" stroke-linejoin="round" stroke-linecap="round" stroke-miterlimit="3"/></g></g></svg>