<?xml version="1.0" standalone="no"?><!-- Generator: Gravit.io --><svg xmlns="http://www.w3.org/2000/svg" xmlns:xlink="http://www.w3.org/1999/xlink" style="isolation:isolate" viewBox="0 0 100 80" width="100" height="80"><defs><clipPath id="_clipPath_AzGaq6q2zREygXmK0aoUig0ayayiIHeh"><rect width="100" height="80"/></clipPath></defs><g clip-path="url(#_clipPath_AzGaq6q2zREygXmK0aoUig0ayayiIHeh)"><g><circle cx="70" cy="10" r="5" fill="rgb(235,235,235)" stroke-width="10" stroke="rgb(141,166,249)" stroke-linejoin="round" stroke-linecap="round" stroke-miterlimit="3"/><path d=" M 35 25 L 45 15 L 55 25 L 55 45 L 75 45" fill="none" stroke-width="10" stroke="rgb(141,166,249)" stroke-linejoin="round" stroke-linecap="round" stroke-miterlimit="3"/><line x1="5" y1="75" x2="55" y2="25" stroke-width="10" stroke="rgb(141,166,249)" stroke-linejoin="round" stroke-linecap="round" stroke-miterlimit="3"/><path d=" M 35 45 L 55 65 L 35 65" fill="none" stroke-width="10" stroke="rgb(141,166,249)" stroke-linejoin="round" stroke-linecap="round" stroke-miterlimit="3"/></g><g><circle cx="80" cy="10" r="5" fill="rgb(235,235,235)" stroke-width="10" stroke="rgb(109,138,236)" stroke-linejoin="round" stroke-linecap="round" stroke-miterlimit="3"/><path d=" M 45 25 L 55 15 L 65 25 L 65 45 L 85 45" fill="none" stroke-width="10" stroke="rgb(109,138,236)" stroke-linejoin="round" stroke-linecap="round" stroke-miterlimit="3"/><line x1="15" y1="75" x2="65" y2="25" stroke-width="10" stroke="rgb(109,138,236)" stroke-linejoin="round" stroke-linecap="round" stroke-miterlimit="3"/><path d=" M 45 45 L 65 65 L 45 65" fill="none" stroke-width="10" stroke="rgb(109,138,236)" stroke-linejoin="round" stroke-linecap="round" stroke-miterlimit="3"/></g><g><circle cx="90" cy="10" r="5" fill="rgb(235,235,235)" stroke-width="10" stroke="rgb(66,101,217)" stroke-linejoin="round" stroke-linecap="round" stroke-miterlimit="3"/><path d=" M 55 25 L 65 15 L 75 25 L 75 45 L 95 45" fill="none" stroke-width="10" stroke="rgb(66,101,217)" stroke-linejoin="round" stroke-linecap="round" stroke-miterlimit="3"/><line x1="25" y1="75" x2="75" y2="25" stroke-width="10" stroke="rgb(66,101,217)" stroke-linejoin="round" stroke-linecap="round" stroke-miterlimit="3"/><path d=" M 55 45 L 75 65 L 55 65" fill="none" stroke-width="10" stroke="rgb(66,101,217)" stroke-linejoin="round" stroke-linecap="round" stroke-miterlimit="3"/></g></g></svg>