<svg xmlns="http://www.w3.org/2000/svg" xmlns:xlink="http://www.w3.org/1999/xlink" viewBox="0 0 100 80" width="100" height="80"><circle cx="70" cy="10" r="5" fill="#ebebeb" stroke-width="10" stroke="#8da6f9" stroke-linejoin="round" stroke-linecap="round"/><path d="M35 25L45 15L55 25L55 45L75 45" fill="none" stroke-width="10" stroke="#8da6f9" stroke-linejoin="round" stroke-linecap="round"/><line x1="5" y1="75" x2="55" y2="25" stroke-width="10" stroke="#8da6f9" stroke-linejoin="round" stroke-linecap="round"/><path d="M35 45L55 65L35 65" fill="none" stroke-width="10" stroke="#8da6f9" stroke-linejoin="round" stroke-linecap="round"/><circle cx="80" cy="10" r="5" fill="#ebebeb" stroke-width="10" stroke="#6d8aec" stroke-linejoin="round" stroke-linecap="round"/><path d="M45 25L55 15L65 25L65 45L85 45" fill="none" stroke-width="10" stroke="#6d8aec" stroke-linejoin="round" stroke-linecap="round"/><line x1="15" y1="75" x2="65" y2="25" stroke-width="10" stroke="#6d8aec" stroke-linejoin="round" stroke-linecap="round"/><path d="M45 45L65 65L45 65" fill="none" stroke-width="10" stroke="#6d8aec" stroke-linejoin="round" stroke-linecap="round"/><circle cx="90" cy="10" r="5" fill="#ebebeb" stroke-width="10" stroke="#4265d9" stroke-linejoin="round" stroke-linecap="round"/><path d="M55 25L65 15L75 25L75 45L95 45" fill="none" stroke-width="10" stroke="#4265d9" stroke-linejoin="round" stroke-linecap="round"/><line x1="25" y1="75" x2="75" y2="25" stroke-width="10" stroke="#4265d9" stroke-linejoin="round" stroke-linecap="round"/><path d="M55 45L75 65L55 65" fill="none" stroke-width="10" stroke="#4265d9" stroke-linejoin="round" stroke-linecap="round"/></svg>