<svg xmlns="http://www.w3.org/2000/svg" xmlns:xlink="http://www.w3.org/1999/xlink" viewBox="0 0 135 345" width="135" height="345"><circle cx="33" cy="33" r="30" fill="none" stroke-width="5" stroke="#000" stroke-linejoin="round" stroke-linecap="round"/><circle cx="33" cy="33" r="10" fill="#fff" stroke-width="5" stroke="#000" stroke-linejoin="round" stroke-linecap="round"/><path d="M4.859 90.827C9.416 80.061 20.082 72.5 32.5 72.5C44.918 72.5 55.584 80.061 60.141 90.827L32.5 102.5L4.859 90.827Z" fill="#3d5ff7" fill-opacity="0.65"/><circle cx="33" cy="103" r="30" fill="none" stroke-width="5" stroke="#000" stroke-linejoin="round" stroke-linecap="round"/><circle cx="33" cy="103" r="10" fill="#fff" stroke-width="5" stroke="#000" stroke-linejoin="round" stroke-linecap="round"/><path d="M90.827 130.141C80.061 125.584 72.5 114.918 72.5 102.5C72.5 90.082 80.061 79.416 90.827 74.859L102.5 102.5L90.827 130.141Z" fill="#9cd547" fill-opacity="0.65"/><path d="M74.859 90.827C79.416 80.061 90.082 72.5 102.5 72.5C114.918 72.5 125.584 80.061 130.141 90.827L102.5 102.5L74.859 90.827Z" fill="#3d5ff7" fill-opacity="0.65"/><circle cx="103" cy="103" r="30" fill="none" stroke-width="5" stroke="#000" stroke-linejoin="round" stroke-linecap="round"/><circle cx="103" cy="103" r="10" fill="#fff" stroke-width="5" stroke="#000" stroke-linejoin="round" stroke-linecap="round"/><path d="M20.827 200.141C10.061 195.584 2.5 184.918 2.5 172.5C2.5 160.082 10.061 149.416 20.827 144.859L32.5 172.5L20.827 200.141Z" fill="#9cd547" fill-opacity="0.65"/><circle cx="33" cy="173" r="30" fill="none" stroke-width="5" stroke="#000" stroke-linejoin="round" stroke-linecap="round"/><circle cx="33" cy="173" r="10" fill="#fff" stroke-width="5" stroke="#000" stroke-linejoin="round" stroke-linecap="round"/><path d="M130.141 184.173C125.584 194.939 114.918 202.5 102.5 202.5C90.082 202.5 79.416 194.939 74.859 184.173L102.5 172.5L130.141 184.173Z" fill="#f05d5d" fill-opacity="0.65"/><path d="M90.827 200.141C80.061 195.584 72.5 184.918 72.5 172.5C72.5 160.082 80.061 149.416 90.827 144.859L102.5 172.5L90.827 200.141Z" fill="#9cd547" fill-opacity="0.65"/><circle cx="103" cy="173" r="30" fill="none" stroke-width="5" stroke="#000" stroke-linejoin="round" stroke-linecap="round"/><circle cx="103" cy="173" r="10" fill="#fff" stroke-width="5" stroke="#000" stroke-linejoin="round" stroke-linecap="round"/><path d="M60.141 254.173C55.584 264.939 44.918 272.5 32.5 272.5C20.082 272.5 9.416 264.939 4.859 254.173L32.5 242.5L60.141 254.173Z" fill="#f05d5d" fill-opacity="0.65"/><circle cx="33" cy="242.5" r="30" fill="none" stroke-width="5" stroke="#000" stroke-linejoin="round" stroke-linecap="round"/><circle cx="33" cy="243" r="10" fill="#fff" stroke-width="5" stroke="#000" stroke-linejoin="round" stroke-linecap="round"/><path d="M130.141 254.173C125.584 264.939 114.918 272.5 102.5 272.5C90.082 272.5 79.416 264.939 74.859 254.173L102.5 242.5L130.141 254.173Z" fill="#f05d5d" fill-opacity="0.65"/><path d="M114.173 214.859C124.939 219.416 132.5 230.082 132.5 242.5C132.5 254.918 124.939 265.584 114.173 270.141L102.5 242.5L114.173 214.859Z" fill="#f0e65d" fill-opacity="0.65"/><circle cx="103" cy="242.5" r="30" fill="none" stroke-width="5" stroke="#000" stroke-linejoin="round" stroke-linecap="round"/><circle cx="103" cy="243" r="10" fill="#fff" stroke-width="5" stroke="#000" stroke-linejoin="round" stroke-linecap="round"/><path d="M44.173 284.859C54.939 289.416 62.5 300.082 62.5 312.5C62.5 324.918 54.939 335.584 44.173 340.141L32.5 312.5L44.173 284.859Z" fill="#f0e65d" fill-opacity="0.65"/><circle cx="33" cy="313" r="30" fill="none" stroke-width="5" stroke="#000" stroke-linejoin="round" stroke-linecap="round"/><circle cx="33" cy="313" r="10" fill="#fff" stroke-width="5" stroke="#000" stroke-linejoin="round" stroke-linecap="round"/><path d="M114.173 284.859C124.939 289.416 132.5 300.082 132.5 312.5C132.5 324.918 124.939 335.584 114.173 340.141L102.5 312.5L114.173 284.859Z" fill="#f0e65d" fill-opacity="0.65"/><path d="M74.859 300.827C79.416 290.061 90.082 282.5 102.5 282.5C114.918 282.5 125.584 290.061 130.141 300.827L102.5 312.5L74.859 300.827Z" fill="#3d5ff7" fill-opacity="0.65"/><circle cx="103" cy="313" r="30" fill="none" stroke-width="5" stroke="#000" stroke-linejoin="round" stroke-linecap="round"/><circle cx="103" cy="313" r="10" fill="#fff" stroke-width="5" stroke="#000" stroke-linejoin="round" stroke-linecap="round"/></svg>