<?xml version="1.0" standalone="no"?><!-- Generator: Gravit.io --><svg xmlns="http://www.w3.org/2000/svg" xmlns:xlink="http://www.w3.org/1999/xlink" style="isolation:isolate" viewBox="0 0 135 345" width="135" height="345"><defs><clipPath id="_clipPath_jQIqwsbJHI21wLtKHH6AUT3H7928SORO"><rect width="135" height="345"/></clipPath></defs><g clip-path="url(#_clipPath_jQIqwsbJHI21wLtKHH6AUT3H7928SORO)"><g><circle cx="32.500000000000796" cy="32.50000000000006" r="30.000000000000064" fill="none" stroke-width="5" stroke="rgb(0,0,0)" stroke-linejoin="round" stroke-linecap="round" stroke-miterlimit="3"/><circle cx="32.50000000000091" cy="32.50000000000006" r="10.000000000000014" fill="rgb(255,255,255)" stroke-width="5" stroke="rgb(0,0,0)" stroke-linejoin="round" stroke-linecap="round" stroke-miterlimit="3"/></g><g><path d=" M 4.859 90.827 C 9.416 80.061 20.082 72.5 32.5 72.5 C 44.918 72.5 55.584 80.061 60.141 90.827 L 32.5 102.5 L 4.859 90.827 Z " fill="rgb(61,95,247)" fill-opacity="0.65"/><circle cx="32.50000000000057" cy="102.50000000000017" r="30.000000000000064" fill="none" stroke-width="5" stroke="rgb(0,0,0)" stroke-linejoin="round" stroke-linecap="round" stroke-miterlimit="3"/><circle cx="32.50000000000057" cy="102.50000000000023" r="10.000000000000016" fill="rgb(255,255,255)" stroke-width="5" stroke="rgb(0,0,0)" stroke-linejoin="round" stroke-linecap="round" stroke-miterlimit="3"/></g><g><path d=" M 90.827 130.141 C 80.061 125.584 72.5 114.918 72.5 102.5 C 72.5 90.082 80.061 79.416 90.827 74.859 L 102.5 102.5 L 90.827 130.141 Z " fill="rgb(156,213,71)" fill-opacity="0.65"/><path d=" M 74.859 90.827 C 79.416 80.061 90.082 72.5 102.5 72.5 C 114.918 72.5 125.584 80.061 130.141 90.827 L 102.5 102.5 L 74.859 90.827 Z " fill="rgb(61,95,247)" fill-opacity="0.65"/><circle cx="102.5000000000008" cy="102.50000000000011" r="30.000000000000057" fill="none" stroke-width="5" stroke="rgb(0,0,0)" stroke-linejoin="round" stroke-linecap="round" stroke-miterlimit="3"/><circle cx="102.5000000000008" cy="102.50000000000017" r="10.000000000000014" fill="rgb(255,255,255)" stroke-width="5" stroke="rgb(0,0,0)" stroke-linejoin="round" stroke-linecap="round" stroke-miterlimit="3"/></g><g><path d=" M 20.827 200.141 C 10.061 195.584 2.5 184.918 2.5 172.5 C 2.5 160.082 10.061 149.416 20.827 144.859 L 32.5 172.5 L 20.827 200.141 Z " fill="rgb(156,213,71)" fill-opacity="0.65"/><circle cx="32.50000000000057" cy="172.50000000000028" r="30.000000000000064" fill="none" stroke-width="5" stroke="rgb(0,0,0)" stroke-linejoin="round" stroke-linecap="round" stroke-miterlimit="3"/><circle cx="32.50000000000057" cy="172.50000000000045" r="10.000000000000014" fill="rgb(255,255,255)" stroke-width="5" stroke="rgb(0,0,0)" stroke-linejoin="round" stroke-linecap="round" stroke-miterlimit="3"/></g><g><path d=" M 130.141 184.173 C 125.584 194.939 114.918 202.5 102.5 202.5 C 90.082 202.5 79.416 194.939 74.859 184.173 L 102.5 172.5 L 130.141 184.173 Z " fill="rgb(240,93,93)" fill-opacity="0.65"/><path d=" M 90.827 200.141 C 80.061 195.584 72.5 184.918 72.5 172.5 C 72.5 160.082 80.061 149.416 90.827 144.859 L 102.5 172.5 L 90.827 200.141 Z " fill="rgb(156,213,71)" fill-opacity="0.65"/><circle cx="102.5000000000008" cy="172.50000000000023" r="30.000000000000057" fill="none" stroke-width="5" stroke="rgb(0,0,0)" stroke-linejoin="round" stroke-linecap="round" stroke-miterlimit="3"/><circle cx="102.5000000000008" cy="172.5000000000005" r="10.000000000000014" fill="rgb(255,255,255)" stroke-width="5" stroke="rgb(0,0,0)" stroke-linejoin="round" stroke-linecap="round" stroke-miterlimit="3"/></g><g><path d=" M 60.141 254.173 C 55.584 264.939 44.918 272.5 32.5 272.5 C 20.082 272.5 9.416 264.939 4.859 254.173 L 32.5 242.5 L 60.141 254.173 Z " fill="rgb(240,93,93)" fill-opacity="0.65"/><circle cx="32.500000000000114" cy="242.5" r="30.000000000000064" fill="none" stroke-width="5" stroke="rgb(0,0,0)" stroke-linejoin="round" stroke-linecap="round" stroke-miterlimit="3"/><circle cx="32.500000000000114" cy="242.5000000000001" r="10.000000000000014" fill="rgb(255,255,255)" stroke-width="5" stroke="rgb(0,0,0)" stroke-linejoin="round" stroke-linecap="round" stroke-miterlimit="3"/></g><g><path d=" M 130.141 254.173 C 125.584 264.939 114.918 272.5 102.5 272.5 C 90.082 272.5 79.416 264.939 74.859 254.173 L 102.5 242.5 L 130.141 254.173 Z " fill="rgb(240,93,93)" fill-opacity="0.65"/><path d=" M 114.173 214.859 C 124.939 219.416 132.5 230.082 132.5 242.5 C 132.5 254.918 124.939 265.584 114.173 270.141 L 102.5 242.5 L 114.173 214.859 Z " fill="rgb(240,230,93)" fill-opacity="0.65"/><circle cx="102.50000000000034" cy="242.5" r="30.000000000000057" fill="none" stroke-width="5" stroke="rgb(0,0,0)" stroke-linejoin="round" stroke-linecap="round" stroke-miterlimit="3"/><circle cx="102.50000000000034" cy="242.50000000000006" r="10.000000000000014" fill="rgb(255,255,255)" stroke-width="5" stroke="rgb(0,0,0)" stroke-linejoin="round" stroke-linecap="round" stroke-miterlimit="3"/></g><g><path d=" M 44.173 284.859 C 54.939 289.416 62.5 300.082 62.5 312.5 C 62.5 324.918 54.939 335.584 44.173 340.141 L 32.5 312.5 L 44.173 284.859 Z " fill="rgb(240,230,93)" fill-opacity="0.65"/><circle cx="32.500000000000796" cy="312.50000000000057" r="30.000000000000064" fill="none" stroke-width="5" stroke="rgb(0,0,0)" stroke-linejoin="round" stroke-linecap="round" stroke-miterlimit="3"/><circle cx="32.50000000000091" cy="312.5000000000007" r="10.000000000000014" fill="rgb(255,255,255)" stroke-width="5" stroke="rgb(0,0,0)" stroke-linejoin="round" stroke-linecap="round" stroke-miterlimit="3"/></g><g><path d=" M 114.173 284.859 C 124.939 289.416 132.5 300.082 132.5 312.5 C 132.5 324.918 124.939 335.584 114.173 340.141 L 102.5 312.5 L 114.173 284.859 Z " fill="rgb(240,230,93)" fill-opacity="0.65"/><path d=" M 74.859 300.827 C 79.416 290.061 90.082 282.5 102.5 282.5 C 114.918 282.5 125.584 290.061 130.141 300.827 L 102.5 312.5 L 74.859 300.827 Z " fill="rgb(61,95,247)" fill-opacity="0.65"/><circle cx="102.50000000000102" cy="312.50000000000057" r="30.000000000000057" fill="none" stroke-width="5" stroke="rgb(0,0,0)" stroke-linejoin="round" stroke-linecap="round" stroke-miterlimit="3"/><circle cx="102.50000000000125" cy="312.50000000000057" r="10.000000000000014" fill="rgb(255,255,255)" stroke-width="5" stroke="rgb(0,0,0)" stroke-linejoin="round" stroke-linecap="round" stroke-miterlimit="3"/></g></g></svg>