<?xml version="1.0" standalone="no"?><!-- Generator: Gravit.io --><svg xmlns="http://www.w3.org/2000/svg" xmlns:xlink="http://www.w3.org/1999/xlink" style="isolation:isolate" viewBox="0 0 140 60" width="140" height="60"><defs><clipPath id="_clipPath_NvMICWdFZjSTOYmeEP0s5PAHqSRPRhn4"><rect width="140" height="60"/></clipPath></defs><g clip-path="url(#_clipPath_NvMICWdFZjSTOYmeEP0s5PAHqSRPRhn4)"><path d=" M 75 5 L 75 25 L 125 25 L 125 5 L 75 5 Z " fill="none" stroke-width="10" stroke="rgb(81,81,81)" stroke-linejoin="round" stroke-linecap="round" stroke-miterlimit="3"/><line x1="125" y1="45" x2="135" y2="45" stroke-width="10" stroke="rgb(81,81,81)" stroke-linejoin="round" stroke-linecap="round" stroke-miterlimit="3"/><line x1="25" y1="25" x2="25" y2="15" stroke-width="10" stroke="rgb(130,195,236)" stroke-opacity="0.49" stroke-linejoin="round" stroke-linecap="round" stroke-miterlimit="3"/><path d=" M 15 45 L 25 25 L 15 45 L 125 45 L 125 25 L 75 25 L 65 45 L 15 45 Z " fill="rgb(238,238,238)" stroke-width="10" stroke="rgb(189,189,189)" stroke-linejoin="round" stroke-linecap="round" stroke-miterlimit="3"/><circle cx="105" cy="44.99999999999994" r="10" fill="rgb(89,89,89)" stroke-width="10" stroke="rgb(57,57,57)" stroke-linejoin="round" stroke-linecap="butt" stroke-miterlimit="3"/><circle cx="15" cy="45" r="10" fill="rgb(89,89,89)" stroke-width="10" stroke="rgb(57,57,57)" stroke-linejoin="round" stroke-linecap="butt" stroke-miterlimit="3"/><path d=" M 106.002 19.481 L 106.002 19.481 L 106.002 19.481 Q 106.002 19.67 105.865 19.775 L 105.865 19.775 L 105.865 19.775 Q 105.729 19.881 105.494 19.881 L 105.494 19.881 L 105.494 19.881 Q 105.24 19.881 105.104 19.815 L 105.104 19.815 L 105.104 19.655 L 105.104 19.655 Q 105.191 19.692 105.295 19.714 L 105.295 19.714 L 105.295 19.714 Q 105.398 19.735 105.5 19.735 L 105.5 19.735 L 105.5 19.735 Q 105.666 19.735 105.75 19.672 L 105.75 19.672 L 105.75 19.672 Q 105.834 19.609 105.834 19.497 L 105.834 19.497 L 105.834 19.497 Q 105.834 19.423 105.804 19.375 L 105.804 19.375 L 105.804 19.375 Q 105.774 19.328 105.705 19.288 L 105.705 19.288 L 105.705 19.288 Q 105.635 19.248 105.492 19.197 L 105.492 19.197 L 105.492 19.197 Q 105.293 19.126 105.208 19.028 L 105.208 19.028 L 105.208 19.028 Q 105.122 18.931 105.122 18.773 L 105.122 18.773 L 105.122 18.773 Q 105.122 18.608 105.246 18.511 L 105.246 18.511 L 105.246 18.511 Q 105.37 18.413 105.574 18.413 L 105.574 18.413 L 105.574 18.413 Q 105.787 18.413 105.966 18.491 L 105.966 18.491 L 105.914 18.636 L 105.914 18.636 Q 105.737 18.562 105.57 18.562 L 105.57 18.562 L 105.57 18.562 Q 105.438 18.562 105.364 18.618 L 105.364 18.618 L 105.364 18.618 Q 105.29 18.675 105.29 18.775 L 105.29 18.775 L 105.29 18.775 Q 105.29 18.85 105.317 18.897 L 105.317 18.897 L 105.317 18.897 Q 105.345 18.944 105.41 18.984 L 105.41 18.984 L 105.41 18.984 Q 105.475 19.023 105.608 19.071 L 105.608 19.071 L 105.608 19.071 Q 105.833 19.151 105.917 19.243 L 105.917 19.243 L 105.917 19.243 Q 106.002 19.335 106.002 19.481 Z  M 107.09 19.713 L 107.09 19.861 L 106.294 19.861 L 106.294 18.434 L 107.09 18.434 L 107.09 18.581 L 106.46 18.581 L 106.46 19.041 L 107.052 19.041 L 107.052 19.188 L 106.46 19.188 L 106.46 19.713 L 107.09 19.713 Z  M 108.202 19.861 L 107.406 19.861 L 107.406 18.434 L 107.572 18.434 L 107.572 19.711 L 108.202 19.711 L 108.202 19.861 Z  M 108.61 19.251 L 108.61 19.861 L 108.444 19.861 L 108.444 18.434 L 109.24 18.434 L 109.24 18.581 L 108.61 18.581 L 108.61 19.104 L 109.202 19.104 L 109.202 19.251 L 108.61 19.251 Z " fill-rule="evenodd" fill="rgb(0,0,0)" fill-opacity="0.37"/></g></svg>