<svg xmlns="http://www.w3.org/2000/svg" xmlns:xlink="http://www.w3.org/1999/xlink" viewBox="0 0 140 60" width="140" height="60"><path d="M75 5L75 25L125 25L125 5L75 5Z" fill="none" stroke-width="10" stroke="#515151" stroke-linejoin="round" stroke-linecap="round"/><line x1="125" y1="45" x2="135" y2="45" stroke-width="10" stroke="#515151" stroke-linejoin="round" stroke-linecap="round"/><line x1="25" y1="25" x2="25" y2="15" stroke-width="10" stroke="#82c3ec" stroke-opacity="0.49" stroke-linejoin="round" stroke-linecap="round"/><path d="M15 45L25 25L15 45L125 45L125 25L75 25L65 45L15 45Z" fill="#eee" stroke-width="10" stroke="#bdbdbd" stroke-linejoin="round" stroke-linecap="round"/><circle cx="105" cy="45" r="10" fill="#595959" stroke-width="10" stroke="#393939" stroke-linejoin="round" stroke-linecap="butt"/><circle cx="15" cy="45" r="10" fill="#595959" stroke-width="10" stroke="#393939" stroke-linejoin="round" stroke-linecap="butt"/><path d="M106.002 19.481L106.002 19.481L106.002 19.481Q106.002 19.67 105.865 19.775L105.865 19.775L105.865 19.775Q105.729 19.881 105.494 19.881L105.494 19.881L105.494 19.881Q105.24 19.881 105.104 19.815L105.104 19.815L105.104 19.655L105.104 19.655Q105.191 19.692 105.295 19.714L105.295 19.714L105.295 19.714Q105.398 19.735 105.5 19.735L105.5 19.735L105.5 19.735Q105.666 19.735 105.75 19.672L105.75 19.672L105.75 19.672Q105.834 19.609 105.834 19.497L105.834 19.497L105.834 19.497Q105.834 19.423 105.804 19.375L105.804 19.375L105.804 19.375Q105.774 19.328 105.705 19.288L105.705 19.288L105.705 19.288Q105.635 19.248 105.492 19.197L105.492 19.197L105.492 19.197Q105.293 19.126 105.208 19.028L105.208 19.028L105.208 19.028Q105.122 18.931 105.122 18.773L105.122 18.773L105.122 18.773Q105.122 18.608 105.246 18.511L105.246 18.511L105.246 18.511Q105.37 18.413 105.574 18.413L105.574 18.413L105.574 18.413Q105.787 18.413 105.966 18.491L105.966 18.491L105.914 18.636L105.914 18.636Q105.737 18.562 105.57 18.562L105.57 18.562L105.57 18.562Q105.438 18.562 105.364 18.618L105.364 18.618L105.364 18.618Q105.29 18.675 105.29 18.775L105.29 18.775L105.29 18.775Q105.29 18.85 105.317 18.897L105.317 18.897L105.317 18.897Q105.345 18.944 105.41 18.984L105.41 18.984L105.41 18.984Q105.475 19.023 105.608 19.071L105.608 19.071L105.608 19.071Q105.833 19.151 105.917 19.243L105.917 19.243L105.917 19.243Q106.002 19.335 106.002 19.481ZM107.09 19.713L107.09 19.861L106.294 19.861L106.294 18.434L107.09 18.434L107.09 18.581L106.46 18.581L106.46 19.041L107.052 19.041L107.052 19.188L106.46 19.188L106.46 19.713L107.09 19.713ZM108.202 19.861L107.406 19.861L107.406 18.434L107.572 18.434L107.572 19.711L108.202 19.711L108.202 19.861ZM108.61 19.251L108.61 19.861L108.444 19.861L108.444 18.434L109.24 18.434L109.24 18.581L108.61 18.581L108.61 19.104L109.202 19.104L109.202 19.251L108.61 19.251Z" fill="#000" fill-opacity="0.37"/></svg>