<svg xmlns="http://www.w3.org/2000/svg" xmlns:xlink="http://www.w3.org/1999/xlink" viewBox="0 0 180 70" width="180" height="70"><path d="M105 65L105 25L135 25L135 65L165 65L165 5L15 5L15 65L105 65L105 65Z" fill="#998c71"/><path d="M105 70L135 70L135 25L105 25L105 70Z" fill="#b3a78f"/><line x1="115" y1="15" x2="115" y2="25" stroke-width="10" stroke="#8a7e67" stroke-opacity="100" stroke-linejoin="round" stroke-linecap="square"/><line x1="135" y1="15" x2="135" y2="25" stroke-width="10" stroke="#8a7e67" stroke-opacity="100" stroke-linejoin="round" stroke-linecap="square"/><path d="M105 65L105 25L135 25L135 65L165 65L165 5L15 5L15 65L105 65L105 65Z" fill="none" stroke-width="10" stroke="#6f634b" stroke-opacity="100" stroke-linejoin="round" stroke-linecap="round"/><line x1="5" y1="5" x2="175" y2="5" stroke-width="10" stroke="#594e38" stroke-opacity="100" stroke-linejoin="round" stroke-linecap="round"/><line x1="35" y1="15" x2="35" y2="55" stroke-width="10" stroke="#8a7e67" stroke-opacity="100" stroke-linejoin="round" stroke-linecap="square"/><line x1="55" y1="15" x2="55" y2="55" stroke-width="10" stroke="#8a7e67" stroke-opacity="100" stroke-linejoin="round" stroke-linecap="square"/><line x1="75" y1="15" x2="75" y2="55" stroke-width="10" stroke="#8a7e67" stroke-opacity="100" stroke-linejoin="round" stroke-linecap="square"/><line x1="95" y1="15" x2="95" y2="55" stroke-width="10" stroke="#8a7e67" stroke-opacity="100" stroke-linejoin="round" stroke-linecap="square"/><line x1="155" y1="15" x2="145" y2="15" stroke-width="10" stroke="#998c71" stroke-opacity="100" stroke-linejoin="round" stroke-linecap="square"/><line x1="155" y1="15" x2="155" y2="55" stroke-width="10" stroke="#8a7e67" stroke-opacity="100" stroke-linejoin="round" stroke-linecap="square"/><line x1="135" y1="60" x2="135" y2="70" stroke-width="10" stroke="#6f634b" stroke-linejoin="round" stroke-linecap="square"/><line x1="105" y1="60" x2="105" y2="70" stroke-width="10" stroke="#6f634b" stroke-linejoin="round" stroke-linecap="square"/><circle cx="125" cy="47.5" r="2.5" fill="#6f634b"/><line x1="80" y1="45" x2="90" y2="45" stroke-width="10" stroke="#463d2f" stroke-opacity="100" stroke-linejoin="round" stroke-linecap="round"/><path d="M84.216 43.6L84.86 43.6L83.648 46.4L83.008 46.4L81.8 43.6L82.5 43.6L83.352 45.6L84.216 43.6ZM85.028 45.524L85.028 45.024L86.16 45.024L86.16 45.524L85.028 45.524ZM86.392 43.6L87.6 43.6L87.6 46.4L86.952 46.4L86.952 44.12L86.392 44.12L86.392 43.6Z" fill="#e3e3e3"/></svg>