<?xml version="1.0" standalone="no"?><!-- Generator: Gravit.io --><svg xmlns="http://www.w3.org/2000/svg" xmlns:xlink="http://www.w3.org/1999/xlink" style="isolation:isolate" viewBox="0 0 180 70" width="180" height="70"><defs><clipPath id="_clipPath_xAOFQek6BxyoYwa3riRh8HGj2Qzaf8Sk"><rect width="180" height="70"/></clipPath></defs><g clip-path="url(#_clipPath_xAOFQek6BxyoYwa3riRh8HGj2Qzaf8Sk)"><path d=" M 105 65 L 105 25 L 135 25 L 135 65 L 165 65 L 165 5 L 15 5 L 15 65 L 105 65 L 105 65 Z " fill="rgb(153,140,113)"/><path d=" M 105 70 L 135 70 L 135 25 L 105 25 L 105 70 Z " fill="rgb(179,167,143)"/><line x1="115" y1="15" x2="115" y2="25" stroke-width="10" stroke="rgb(138,126,103)" stroke-opacity="100" stroke-linejoin="round" stroke-linecap="square" stroke-miterlimit="3"/><line x1="135" y1="15" x2="135" y2="25" stroke-width="10" stroke="rgb(138,126,103)" stroke-opacity="100" stroke-linejoin="round" stroke-linecap="square" stroke-miterlimit="3"/><path d=" M 105 65 L 105 25 L 135 25 L 135 65 L 165 65 L 165 5 L 15 5 L 15 65 L 105 65 L 105 65 Z " fill="none" stroke-width="10" stroke="rgb(111,99,75)" stroke-opacity="100" stroke-linejoin="round" stroke-linecap="round" stroke-miterlimit="3"/><line x1="5" y1="5" x2="175" y2="5" stroke-width="10" stroke="rgb(89,78,56)" stroke-opacity="100" stroke-linejoin="round" stroke-linecap="round" stroke-miterlimit="3"/><line x1="35" y1="15" x2="35" y2="55" stroke-width="10" stroke="rgb(138,126,103)" stroke-opacity="100" stroke-linejoin="round" stroke-linecap="square" stroke-miterlimit="3"/><line x1="55" y1="15" x2="55" y2="55" stroke-width="10" stroke="rgb(138,126,103)" stroke-opacity="100" stroke-linejoin="round" stroke-linecap="square" stroke-miterlimit="3"/><line x1="75" y1="15" x2="75" y2="55" stroke-width="10" stroke="rgb(138,126,103)" stroke-opacity="100" stroke-linejoin="round" stroke-linecap="square" stroke-miterlimit="3"/><line x1="95" y1="15" x2="95" y2="55" stroke-width="10" stroke="rgb(138,126,103)" stroke-opacity="100" stroke-linejoin="round" stroke-linecap="square" stroke-miterlimit="3"/><line x1="155" y1="15" x2="145" y2="15" stroke-width="10" stroke="rgb(153,140,113)" stroke-opacity="100" stroke-linejoin="round" stroke-linecap="square" stroke-miterlimit="3"/><line x1="155" y1="15" x2="155" y2="55" stroke-width="10" stroke="rgb(138,126,103)" stroke-opacity="100" stroke-linejoin="round" stroke-linecap="square" stroke-miterlimit="3"/><line x1="135" y1="60" x2="135" y2="70" stroke-width="10" stroke="rgb(111,99,75)" stroke-linejoin="round" stroke-linecap="square" stroke-miterlimit="3"/><line x1="105" y1="60" x2="105" y2="70" stroke-width="10" stroke="rgb(111,99,75)" stroke-linejoin="round" stroke-linecap="square" stroke-miterlimit="3"/><circle cx="125" cy="47.5" r="2.5" fill="rgb(111,99,75)"/><line x1="80" y1="45" x2="90" y2="45" stroke-width="10" stroke="rgb(70,61,47)" stroke-opacity="100" stroke-linejoin="round" stroke-linecap="round" stroke-miterlimit="3"/><path d=" M 84.216 43.6 L 84.86 43.6 L 83.648 46.4 L 83.008 46.4 L 81.8 43.6 L 82.5 43.6 L 83.352 45.6 L 84.216 43.6 Z  M 85.028 45.524 L 85.028 45.024 L 86.16 45.024 L 86.16 45.524 L 85.028 45.524 Z  M 86.392 43.6 L 87.6 43.6 L 87.6 46.4 L 86.952 46.4 L 86.952 44.12 L 86.392 44.12 L 86.392 43.6 Z " fill-rule="evenodd" fill="rgb(227,227,227)"/></g></svg>